<?xml version="1.0" encoding="utf-8" standalone="no"?>
<!DOCTYPE svg PUBLIC "-//W3C//DTD SVG 1.1//EN"
  "http://www.w3.org/Graphics/SVG/1.1/DTD/svg11.dtd">
<svg xmlns:xlink="http://www.w3.org/1999/xlink" width="864pt" height="360pt" viewBox="0 0 864 360" xmlns="http://www.w3.org/2000/svg" version="1.1">
 <metadata>
  <rdf:RDF xmlns:dc="http://purl.org/dc/elements/1.1/" xmlns:cc="http://creativecommons.org/ns#" xmlns:rdf="http://www.w3.org/1999/02/22-rdf-syntax-ns#">
   <cc:Work>
    <dc:type rdf:resource="http://purl.org/dc/dcmitype/StillImage"/>
    <dc:date>2024-03-13T20:05:25.933953</dc:date>
    <dc:format>image/svg+xml</dc:format>
    <dc:creator>
     <cc:Agent>
      <dc:title>Matplotlib v3.8.3, https://matplotlib.org/</dc:title>
     </cc:Agent>
    </dc:creator>
   </cc:Work>
  </rdf:RDF>
 </metadata>
 <defs>
  <style type="text/css">*{stroke-linejoin: round; stroke-linecap: butt}</style>
 </defs>
 <g id="figure_1">
  <g id="patch_1">
   <path d="M 0 360 
L 864 360 
L 864 0 
L 0 0 
L 0 360 
z
" style="fill: none; opacity: 0"/>
  </g>
  <g id="axes_1">
   <g id="patch_2">
    <path d="M 108 320.4 
L 777.6 320.4 
L 777.6 43.2 
L 108 43.2 
L 108 320.4 
z
" style="fill: none; opacity: 0"/>
   </g>
   <g id="matplotlib.axis_1">
    <g id="xtick_1">
     <g id="line2d_1">
      <path d="M 163.08887 320.4 
L 163.08887 43.2 
" clip-path="url(#p647affa784)" style="fill: none; stroke-dasharray: 5.12,1.28,0.8,1.28; stroke-dashoffset: 0; stroke: #b0b0b0; stroke-width: 0.8"/>
     </g>
     <g id="line2d_2">
      <defs>
       <path id="mdc7b27498d" d="M 0 0 
L 0 3.5 
" style="stroke: #a9a9a9; stroke-width: 0.8"/>
      </defs>
      <g>
       <use xlink:href="#mdc7b27498d" x="163.08887" y="320.4" style="fill: #a9a9a9; stroke: #a9a9a9; stroke-width: 0.8"/>
      </g>
     </g>
     <g id="text_1">
      <!-- 2021-09 -->
      <g style="fill: #a9a9a9" transform="translate(142.197464 334.998438) scale(0.1 -0.1)">
       <defs>
        <path id="DejaVuSans-32" d="M 1228 531 
L 3431 531 
L 3431 0 
L 469 0 
L 469 531 
Q 828 903 1448 1529 
Q 2069 2156 2228 2338 
Q 2531 2678 2651 2914 
Q 2772 3150 2772 3378 
Q 2772 3750 2511 3984 
Q 2250 4219 1831 4219 
Q 1534 4219 1204 4116 
Q 875 4013 500 3803 
L 500 4441 
Q 881 4594 1212 4672 
Q 1544 4750 1819 4750 
Q 2544 4750 2975 4387 
Q 3406 4025 3406 3419 
Q 3406 3131 3298 2873 
Q 3191 2616 2906 2266 
Q 2828 2175 2409 1742 
Q 1991 1309 1228 531 
z
" transform="scale(0.015625)"/>
        <path id="DejaVuSans-30" d="M 2034 4250 
Q 1547 4250 1301 3770 
Q 1056 3291 1056 2328 
Q 1056 1369 1301 889 
Q 1547 409 2034 409 
Q 2525 409 2770 889 
Q 3016 1369 3016 2328 
Q 3016 3291 2770 3770 
Q 2525 4250 2034 4250 
z
M 2034 4750 
Q 2819 4750 3233 4129 
Q 3647 3509 3647 2328 
Q 3647 1150 3233 529 
Q 2819 -91 2034 -91 
Q 1250 -91 836 529 
Q 422 1150 422 2328 
Q 422 3509 836 4129 
Q 1250 4750 2034 4750 
z
" transform="scale(0.015625)"/>
        <path id="DejaVuSans-31" d="M 794 531 
L 1825 531 
L 1825 4091 
L 703 3866 
L 703 4441 
L 1819 4666 
L 2450 4666 
L 2450 531 
L 3481 531 
L 3481 0 
L 794 0 
L 794 531 
z
" transform="scale(0.015625)"/>
        <path id="DejaVuSans-2d" d="M 313 2009 
L 1997 2009 
L 1997 1497 
L 313 1497 
L 313 2009 
z
" transform="scale(0.015625)"/>
        <path id="DejaVuSans-39" d="M 703 97 
L 703 672 
Q 941 559 1184 500 
Q 1428 441 1663 441 
Q 2288 441 2617 861 
Q 2947 1281 2994 2138 
Q 2813 1869 2534 1725 
Q 2256 1581 1919 1581 
Q 1219 1581 811 2004 
Q 403 2428 403 3163 
Q 403 3881 828 4315 
Q 1253 4750 1959 4750 
Q 2769 4750 3195 4129 
Q 3622 3509 3622 2328 
Q 3622 1225 3098 567 
Q 2575 -91 1691 -91 
Q 1453 -91 1209 -44 
Q 966 3 703 97 
z
M 1959 2075 
Q 2384 2075 2632 2365 
Q 2881 2656 2881 3163 
Q 2881 3666 2632 3958 
Q 2384 4250 1959 4250 
Q 1534 4250 1286 3958 
Q 1038 3666 1038 3163 
Q 1038 2656 1286 2365 
Q 1534 2075 1959 2075 
z
" transform="scale(0.015625)"/>
       </defs>
       <use xlink:href="#DejaVuSans-32"/>
       <use xlink:href="#DejaVuSans-30" x="63.623047"/>
       <use xlink:href="#DejaVuSans-32" x="127.246094"/>
       <use xlink:href="#DejaVuSans-31" x="190.869141"/>
       <use xlink:href="#DejaVuSans-2d" x="254.492188"/>
       <use xlink:href="#DejaVuSans-30" x="290.576172"/>
       <use xlink:href="#DejaVuSans-39" x="354.199219"/>
      </g>
     </g>
    </g>
    <g id="xtick_2">
     <g id="line2d_3">
      <path d="M 240.206967 320.4 
L 240.206967 43.2 
" clip-path="url(#p647affa784)" style="fill: none; stroke-dasharray: 5.12,1.28,0.8,1.28; stroke-dashoffset: 0; stroke: #b0b0b0; stroke-width: 0.8"/>
     </g>
     <g id="line2d_4">
      <g>
       <use xlink:href="#mdc7b27498d" x="240.206967" y="320.4" style="fill: #a9a9a9; stroke: #a9a9a9; stroke-width: 0.8"/>
      </g>
     </g>
     <g id="text_2">
      <!-- 2022-01 -->
      <g style="fill: #a9a9a9" transform="translate(219.315561 334.998438) scale(0.1 -0.1)">
       <use xlink:href="#DejaVuSans-32"/>
       <use xlink:href="#DejaVuSans-30" x="63.623047"/>
       <use xlink:href="#DejaVuSans-32" x="127.246094"/>
       <use xlink:href="#DejaVuSans-32" x="190.869141"/>
       <use xlink:href="#DejaVuSans-2d" x="254.492188"/>
       <use xlink:href="#DejaVuSans-30" x="290.576172"/>
       <use xlink:href="#DejaVuSans-31" x="354.199219"/>
      </g>
     </g>
    </g>
    <g id="xtick_3">
     <g id="line2d_5">
      <path d="M 316.060833 320.4 
L 316.060833 43.2 
" clip-path="url(#p647affa784)" style="fill: none; stroke-dasharray: 5.12,1.28,0.8,1.28; stroke-dashoffset: 0; stroke: #b0b0b0; stroke-width: 0.8"/>
     </g>
     <g id="line2d_6">
      <g>
       <use xlink:href="#mdc7b27498d" x="316.060833" y="320.4" style="fill: #a9a9a9; stroke: #a9a9a9; stroke-width: 0.8"/>
      </g>
     </g>
     <g id="text_3">
      <!-- 2022-05 -->
      <g style="fill: #a9a9a9" transform="translate(295.169426 334.998438) scale(0.1 -0.1)">
       <defs>
        <path id="DejaVuSans-35" d="M 691 4666 
L 3169 4666 
L 3169 4134 
L 1269 4134 
L 1269 2991 
Q 1406 3038 1543 3061 
Q 1681 3084 1819 3084 
Q 2600 3084 3056 2656 
Q 3513 2228 3513 1497 
Q 3513 744 3044 326 
Q 2575 -91 1722 -91 
Q 1428 -91 1123 -41 
Q 819 9 494 109 
L 494 744 
Q 775 591 1075 516 
Q 1375 441 1709 441 
Q 2250 441 2565 725 
Q 2881 1009 2881 1497 
Q 2881 1984 2565 2268 
Q 2250 2553 1709 2553 
Q 1456 2553 1204 2497 
Q 953 2441 691 2322 
L 691 4666 
z
" transform="scale(0.015625)"/>
       </defs>
       <use xlink:href="#DejaVuSans-32"/>
       <use xlink:href="#DejaVuSans-30" x="63.623047"/>
       <use xlink:href="#DejaVuSans-32" x="127.246094"/>
       <use xlink:href="#DejaVuSans-32" x="190.869141"/>
       <use xlink:href="#DejaVuSans-2d" x="254.492188"/>
       <use xlink:href="#DejaVuSans-30" x="290.576172"/>
       <use xlink:href="#DejaVuSans-35" x="354.199219"/>
      </g>
     </g>
    </g>
    <g id="xtick_4">
     <g id="line2d_7">
      <path d="M 393.811045 320.4 
L 393.811045 43.2 
" clip-path="url(#p647affa784)" style="fill: none; stroke-dasharray: 5.12,1.28,0.8,1.28; stroke-dashoffset: 0; stroke: #b0b0b0; stroke-width: 0.8"/>
     </g>
     <g id="line2d_8">
      <g>
       <use xlink:href="#mdc7b27498d" x="393.811045" y="320.4" style="fill: #a9a9a9; stroke: #a9a9a9; stroke-width: 0.8"/>
      </g>
     </g>
     <g id="text_4">
      <!-- 2022-09 -->
      <g style="fill: #a9a9a9" transform="translate(372.919639 334.998438) scale(0.1 -0.1)">
       <use xlink:href="#DejaVuSans-32"/>
       <use xlink:href="#DejaVuSans-30" x="63.623047"/>
       <use xlink:href="#DejaVuSans-32" x="127.246094"/>
       <use xlink:href="#DejaVuSans-32" x="190.869141"/>
       <use xlink:href="#DejaVuSans-2d" x="254.492188"/>
       <use xlink:href="#DejaVuSans-30" x="290.576172"/>
       <use xlink:href="#DejaVuSans-39" x="354.199219"/>
      </g>
     </g>
    </g>
    <g id="xtick_5">
     <g id="line2d_9">
      <path d="M 470.929142 320.4 
L 470.929142 43.2 
" clip-path="url(#p647affa784)" style="fill: none; stroke-dasharray: 5.12,1.28,0.8,1.28; stroke-dashoffset: 0; stroke: #b0b0b0; stroke-width: 0.8"/>
     </g>
     <g id="line2d_10">
      <g>
       <use xlink:href="#mdc7b27498d" x="470.929142" y="320.4" style="fill: #a9a9a9; stroke: #a9a9a9; stroke-width: 0.8"/>
      </g>
     </g>
     <g id="text_5">
      <!-- 2023-01 -->
      <g style="fill: #a9a9a9" transform="translate(450.037736 334.998438) scale(0.1 -0.1)">
       <defs>
        <path id="DejaVuSans-33" d="M 2597 2516 
Q 3050 2419 3304 2112 
Q 3559 1806 3559 1356 
Q 3559 666 3084 287 
Q 2609 -91 1734 -91 
Q 1441 -91 1130 -33 
Q 819 25 488 141 
L 488 750 
Q 750 597 1062 519 
Q 1375 441 1716 441 
Q 2309 441 2620 675 
Q 2931 909 2931 1356 
Q 2931 1769 2642 2001 
Q 2353 2234 1838 2234 
L 1294 2234 
L 1294 2753 
L 1863 2753 
Q 2328 2753 2575 2939 
Q 2822 3125 2822 3475 
Q 2822 3834 2567 4026 
Q 2313 4219 1838 4219 
Q 1578 4219 1281 4162 
Q 984 4106 628 3988 
L 628 4550 
Q 988 4650 1302 4700 
Q 1616 4750 1894 4750 
Q 2613 4750 3031 4423 
Q 3450 4097 3450 3541 
Q 3450 3153 3228 2886 
Q 3006 2619 2597 2516 
z
" transform="scale(0.015625)"/>
       </defs>
       <use xlink:href="#DejaVuSans-32"/>
       <use xlink:href="#DejaVuSans-30" x="63.623047"/>
       <use xlink:href="#DejaVuSans-32" x="127.246094"/>
       <use xlink:href="#DejaVuSans-33" x="190.869141"/>
       <use xlink:href="#DejaVuSans-2d" x="254.492188"/>
       <use xlink:href="#DejaVuSans-30" x="290.576172"/>
       <use xlink:href="#DejaVuSans-31" x="354.199219"/>
      </g>
     </g>
    </g>
    <g id="xtick_6">
     <g id="line2d_11">
      <path d="M 546.783008 320.4 
L 546.783008 43.2 
" clip-path="url(#p647affa784)" style="fill: none; stroke-dasharray: 5.12,1.28,0.8,1.28; stroke-dashoffset: 0; stroke: #b0b0b0; stroke-width: 0.8"/>
     </g>
     <g id="line2d_12">
      <g>
       <use xlink:href="#mdc7b27498d" x="546.783008" y="320.4" style="fill: #a9a9a9; stroke: #a9a9a9; stroke-width: 0.8"/>
      </g>
     </g>
     <g id="text_6">
      <!-- 2023-05 -->
      <g style="fill: #a9a9a9" transform="translate(525.891601 334.998438) scale(0.1 -0.1)">
       <use xlink:href="#DejaVuSans-32"/>
       <use xlink:href="#DejaVuSans-30" x="63.623047"/>
       <use xlink:href="#DejaVuSans-32" x="127.246094"/>
       <use xlink:href="#DejaVuSans-33" x="190.869141"/>
       <use xlink:href="#DejaVuSans-2d" x="254.492188"/>
       <use xlink:href="#DejaVuSans-30" x="290.576172"/>
       <use xlink:href="#DejaVuSans-35" x="354.199219"/>
      </g>
     </g>
    </g>
    <g id="xtick_7">
     <g id="line2d_13">
      <path d="M 624.53322 320.4 
L 624.53322 43.2 
" clip-path="url(#p647affa784)" style="fill: none; stroke-dasharray: 5.12,1.28,0.8,1.28; stroke-dashoffset: 0; stroke: #b0b0b0; stroke-width: 0.8"/>
     </g>
     <g id="line2d_14">
      <g>
       <use xlink:href="#mdc7b27498d" x="624.53322" y="320.4" style="fill: #a9a9a9; stroke: #a9a9a9; stroke-width: 0.8"/>
      </g>
     </g>
     <g id="text_7">
      <!-- 2023-09 -->
      <g style="fill: #a9a9a9" transform="translate(603.641814 334.998438) scale(0.1 -0.1)">
       <use xlink:href="#DejaVuSans-32"/>
       <use xlink:href="#DejaVuSans-30" x="63.623047"/>
       <use xlink:href="#DejaVuSans-32" x="127.246094"/>
       <use xlink:href="#DejaVuSans-33" x="190.869141"/>
       <use xlink:href="#DejaVuSans-2d" x="254.492188"/>
       <use xlink:href="#DejaVuSans-30" x="290.576172"/>
       <use xlink:href="#DejaVuSans-39" x="354.199219"/>
      </g>
     </g>
    </g>
    <g id="xtick_8">
     <g id="line2d_15">
      <path d="M 701.651317 320.4 
L 701.651317 43.2 
" clip-path="url(#p647affa784)" style="fill: none; stroke-dasharray: 5.12,1.28,0.8,1.28; stroke-dashoffset: 0; stroke: #b0b0b0; stroke-width: 0.8"/>
     </g>
     <g id="line2d_16">
      <g>
       <use xlink:href="#mdc7b27498d" x="701.651317" y="320.4" style="fill: #a9a9a9; stroke: #a9a9a9; stroke-width: 0.8"/>
      </g>
     </g>
     <g id="text_8">
      <!-- 2024-01 -->
      <g style="fill: #a9a9a9" transform="translate(680.759911 334.998438) scale(0.1 -0.1)">
       <defs>
        <path id="DejaVuSans-34" d="M 2419 4116 
L 825 1625 
L 2419 1625 
L 2419 4116 
z
M 2253 4666 
L 3047 4666 
L 3047 1625 
L 3713 1625 
L 3713 1100 
L 3047 1100 
L 3047 0 
L 2419 0 
L 2419 1100 
L 313 1100 
L 313 1709 
L 2253 4666 
z
" transform="scale(0.015625)"/>
       </defs>
       <use xlink:href="#DejaVuSans-32"/>
       <use xlink:href="#DejaVuSans-30" x="63.623047"/>
       <use xlink:href="#DejaVuSans-32" x="127.246094"/>
       <use xlink:href="#DejaVuSans-34" x="190.869141"/>
       <use xlink:href="#DejaVuSans-2d" x="254.492188"/>
       <use xlink:href="#DejaVuSans-30" x="290.576172"/>
       <use xlink:href="#DejaVuSans-31" x="354.199219"/>
      </g>
     </g>
    </g>
   </g>
   <g id="matplotlib.axis_2">
    <g id="ytick_1">
     <g id="line2d_17">
      <path d="M 108 307.843735 
L 777.6 307.843735 
" clip-path="url(#p647affa784)" style="fill: none; stroke-dasharray: 5.12,1.28,0.8,1.28; stroke-dashoffset: 0; stroke: #b0b0b0; stroke-width: 0.8"/>
     </g>
     <g id="line2d_18">
      <defs>
       <path id="m5da12f1244" d="M 0 0 
L -3.5 0 
" style="stroke: #a9a9a9; stroke-width: 0.8"/>
      </defs>
      <g>
       <use xlink:href="#m5da12f1244" x="108" y="307.843735" style="fill: #a9a9a9; stroke: #a9a9a9; stroke-width: 0.8"/>
      </g>
     </g>
     <g id="text_9">
      <!-- 0 -->
      <g style="fill: #a9a9a9" transform="translate(94.6375 311.642954) scale(0.1 -0.1)">
       <use xlink:href="#DejaVuSans-30"/>
      </g>
     </g>
    </g>
    <g id="ytick_2">
     <g id="line2d_19">
      <path d="M 108 272.855883 
L 777.6 272.855883 
" clip-path="url(#p647affa784)" style="fill: none; stroke-dasharray: 5.12,1.28,0.8,1.28; stroke-dashoffset: 0; stroke: #b0b0b0; stroke-width: 0.8"/>
     </g>
     <g id="line2d_20">
      <g>
       <use xlink:href="#m5da12f1244" x="108" y="272.855883" style="fill: #a9a9a9; stroke: #a9a9a9; stroke-width: 0.8"/>
      </g>
     </g>
     <g id="text_10">
      <!-- 800 -->
      <g style="fill: #a9a9a9" transform="translate(81.9125 276.655102) scale(0.1 -0.1)">
       <defs>
        <path id="DejaVuSans-38" d="M 2034 2216 
Q 1584 2216 1326 1975 
Q 1069 1734 1069 1313 
Q 1069 891 1326 650 
Q 1584 409 2034 409 
Q 2484 409 2743 651 
Q 3003 894 3003 1313 
Q 3003 1734 2745 1975 
Q 2488 2216 2034 2216 
z
M 1403 2484 
Q 997 2584 770 2862 
Q 544 3141 544 3541 
Q 544 4100 942 4425 
Q 1341 4750 2034 4750 
Q 2731 4750 3128 4425 
Q 3525 4100 3525 3541 
Q 3525 3141 3298 2862 
Q 3072 2584 2669 2484 
Q 3125 2378 3379 2068 
Q 3634 1759 3634 1313 
Q 3634 634 3220 271 
Q 2806 -91 2034 -91 
Q 1263 -91 848 271 
Q 434 634 434 1313 
Q 434 1759 690 2068 
Q 947 2378 1403 2484 
z
M 1172 3481 
Q 1172 3119 1398 2916 
Q 1625 2713 2034 2713 
Q 2441 2713 2670 2916 
Q 2900 3119 2900 3481 
Q 2900 3844 2670 4047 
Q 2441 4250 2034 4250 
Q 1625 4250 1398 4047 
Q 1172 3844 1172 3481 
z
" transform="scale(0.015625)"/>
       </defs>
       <use xlink:href="#DejaVuSans-38"/>
       <use xlink:href="#DejaVuSans-30" x="63.623047"/>
       <use xlink:href="#DejaVuSans-30" x="127.246094"/>
      </g>
     </g>
    </g>
    <g id="ytick_3">
     <g id="line2d_21">
      <path d="M 108 237.868032 
L 777.6 237.868032 
" clip-path="url(#p647affa784)" style="fill: none; stroke-dasharray: 5.12,1.28,0.8,1.28; stroke-dashoffset: 0; stroke: #b0b0b0; stroke-width: 0.8"/>
     </g>
     <g id="line2d_22">
      <g>
       <use xlink:href="#m5da12f1244" x="108" y="237.868032" style="fill: #a9a9a9; stroke: #a9a9a9; stroke-width: 0.8"/>
      </g>
     </g>
     <g id="text_11">
      <!-- 1600 -->
      <g style="fill: #a9a9a9" transform="translate(75.55 241.667251) scale(0.1 -0.1)">
       <defs>
        <path id="DejaVuSans-36" d="M 2113 2584 
Q 1688 2584 1439 2293 
Q 1191 2003 1191 1497 
Q 1191 994 1439 701 
Q 1688 409 2113 409 
Q 2538 409 2786 701 
Q 3034 994 3034 1497 
Q 3034 2003 2786 2293 
Q 2538 2584 2113 2584 
z
M 3366 4563 
L 3366 3988 
Q 3128 4100 2886 4159 
Q 2644 4219 2406 4219 
Q 1781 4219 1451 3797 
Q 1122 3375 1075 2522 
Q 1259 2794 1537 2939 
Q 1816 3084 2150 3084 
Q 2853 3084 3261 2657 
Q 3669 2231 3669 1497 
Q 3669 778 3244 343 
Q 2819 -91 2113 -91 
Q 1303 -91 875 529 
Q 447 1150 447 2328 
Q 447 3434 972 4092 
Q 1497 4750 2381 4750 
Q 2619 4750 2861 4703 
Q 3103 4656 3366 4563 
z
" transform="scale(0.015625)"/>
       </defs>
       <use xlink:href="#DejaVuSans-31"/>
       <use xlink:href="#DejaVuSans-36" x="63.623047"/>
       <use xlink:href="#DejaVuSans-30" x="127.246094"/>
       <use xlink:href="#DejaVuSans-30" x="190.869141"/>
      </g>
     </g>
    </g>
    <g id="ytick_4">
     <g id="line2d_23">
      <path d="M 108 202.88018 
L 777.6 202.88018 
" clip-path="url(#p647affa784)" style="fill: none; stroke-dasharray: 5.12,1.28,0.8,1.28; stroke-dashoffset: 0; stroke: #b0b0b0; stroke-width: 0.8"/>
     </g>
     <g id="line2d_24">
      <g>
       <use xlink:href="#m5da12f1244" x="108" y="202.88018" style="fill: #a9a9a9; stroke: #a9a9a9; stroke-width: 0.8"/>
      </g>
     </g>
     <g id="text_12">
      <!-- 2400 -->
      <g style="fill: #a9a9a9" transform="translate(75.55 206.679399) scale(0.1 -0.1)">
       <use xlink:href="#DejaVuSans-32"/>
       <use xlink:href="#DejaVuSans-34" x="63.623047"/>
       <use xlink:href="#DejaVuSans-30" x="127.246094"/>
       <use xlink:href="#DejaVuSans-30" x="190.869141"/>
      </g>
     </g>
    </g>
    <g id="ytick_5">
     <g id="line2d_25">
      <path d="M 108 167.892329 
L 777.6 167.892329 
" clip-path="url(#p647affa784)" style="fill: none; stroke-dasharray: 5.12,1.28,0.8,1.28; stroke-dashoffset: 0; stroke: #b0b0b0; stroke-width: 0.8"/>
     </g>
     <g id="line2d_26">
      <g>
       <use xlink:href="#m5da12f1244" x="108" y="167.892329" style="fill: #a9a9a9; stroke: #a9a9a9; stroke-width: 0.8"/>
      </g>
     </g>
     <g id="text_13">
      <!-- 3200 -->
      <g style="fill: #a9a9a9" transform="translate(75.55 171.691548) scale(0.1 -0.1)">
       <use xlink:href="#DejaVuSans-33"/>
       <use xlink:href="#DejaVuSans-32" x="63.623047"/>
       <use xlink:href="#DejaVuSans-30" x="127.246094"/>
       <use xlink:href="#DejaVuSans-30" x="190.869141"/>
      </g>
     </g>
    </g>
    <g id="ytick_6">
     <g id="line2d_27">
      <path d="M 108 132.904478 
L 777.6 132.904478 
" clip-path="url(#p647affa784)" style="fill: none; stroke-dasharray: 5.12,1.28,0.8,1.28; stroke-dashoffset: 0; stroke: #b0b0b0; stroke-width: 0.8"/>
     </g>
     <g id="line2d_28">
      <g>
       <use xlink:href="#m5da12f1244" x="108" y="132.904478" style="fill: #a9a9a9; stroke: #a9a9a9; stroke-width: 0.8"/>
      </g>
     </g>
     <g id="text_14">
      <!-- 4000 -->
      <g style="fill: #a9a9a9" transform="translate(75.55 136.703696) scale(0.1 -0.1)">
       <use xlink:href="#DejaVuSans-34"/>
       <use xlink:href="#DejaVuSans-30" x="63.623047"/>
       <use xlink:href="#DejaVuSans-30" x="127.246094"/>
       <use xlink:href="#DejaVuSans-30" x="190.869141"/>
      </g>
     </g>
    </g>
    <g id="ytick_7">
     <g id="line2d_29">
      <path d="M 108 97.916626 
L 777.6 97.916626 
" clip-path="url(#p647affa784)" style="fill: none; stroke-dasharray: 5.12,1.28,0.8,1.28; stroke-dashoffset: 0; stroke: #b0b0b0; stroke-width: 0.8"/>
     </g>
     <g id="line2d_30">
      <g>
       <use xlink:href="#m5da12f1244" x="108" y="97.916626" style="fill: #a9a9a9; stroke: #a9a9a9; stroke-width: 0.8"/>
      </g>
     </g>
     <g id="text_15">
      <!-- 4800 -->
      <g style="fill: #a9a9a9" transform="translate(75.55 101.715845) scale(0.1 -0.1)">
       <use xlink:href="#DejaVuSans-34"/>
       <use xlink:href="#DejaVuSans-38" x="63.623047"/>
       <use xlink:href="#DejaVuSans-30" x="127.246094"/>
       <use xlink:href="#DejaVuSans-30" x="190.869141"/>
      </g>
     </g>
    </g>
    <g id="ytick_8">
     <g id="line2d_31">
      <path d="M 108 62.928775 
L 777.6 62.928775 
" clip-path="url(#p647affa784)" style="fill: none; stroke-dasharray: 5.12,1.28,0.8,1.28; stroke-dashoffset: 0; stroke: #b0b0b0; stroke-width: 0.8"/>
     </g>
     <g id="line2d_32">
      <g>
       <use xlink:href="#m5da12f1244" x="108" y="62.928775" style="fill: #a9a9a9; stroke: #a9a9a9; stroke-width: 0.8"/>
      </g>
     </g>
     <g id="text_16">
      <!-- 5600 -->
      <g style="fill: #a9a9a9" transform="translate(75.55 66.727993) scale(0.1 -0.1)">
       <use xlink:href="#DejaVuSans-35"/>
       <use xlink:href="#DejaVuSans-36" x="63.623047"/>
       <use xlink:href="#DejaVuSans-30" x="127.246094"/>
       <use xlink:href="#DejaVuSans-30" x="190.869141"/>
      </g>
     </g>
    </g>
   </g>
   <g id="line2d_33">
    <path d="M 138.436364 307.71253 
L 142.229057 307.406387 
L 142.861172 307.143978 
L 144.757519 306.925304 
L 148.550212 306.181812 
L 152.342906 305.875668 
L 152.975021 305.569524 
L 153.607137 305.394585 
L 154.239252 304.607359 
L 154.871368 304.17001 
L 155.503483 302.814231 
L 156.135599 302.726762 
L 156.767715 302.245679 
L 158.031946 301.633391 
L 160.560408 299.709059 
L 161.824639 299.184242 
L 162.456754 298.746893 
L 164.985217 297.653523 
L 165.617332 296.647622 
L 166.881563 295.729191 
L 167.513679 295.423048 
L 173.834834 294.548351 
L 174.46695 294.242208 
L 178.891759 293.892329 
L 180.788105 293.411246 
L 186.477145 292.667754 
L 187.109261 292.317876 
L 187.741376 292.230406 
L 188.373492 291.967997 
L 189.637723 291.749323 
L 190.269839 291.705588 
L 190.901954 291.486914 
L 193.430416 291.093301 
L 194.694647 290.743422 
L 196.590994 290.568483 
L 197.855225 290.437279 
L 198.487341 290.262339 
L 199.119456 290.218605 
L 201.015803 289.650052 
L 204.808496 289.081499 
L 205.440612 288.90656 
L 206.072727 288.031864 
L 207.969074 287.332107 
L 209.865421 286.807289 
L 210.497536 286.501145 
L 211.129652 286.457411 
L 214.290229 285.582714 
L 215.55446 285.495245 
L 216.186576 285.407775 
L 218.082923 284.839222 
L 220.611385 284.226935 
L 221.2435 283.964526 
L 221.875616 283.877057 
L 222.507732 283.570913 
L 228.828887 282.608747 
L 231.989465 281.734051 
L 232.62158 281.340437 
L 235.150042 280.684415 
L 236.414274 279.940923 
L 237.046389 279.503575 
L 238.942736 279.153697 
L 242.735429 278.016591 
L 243.99966 277.622978 
L 244.631776 277.535509 
L 245.896007 277.18563 
L 247.160238 276.879486 
L 247.792353 276.792017 
L 249.056585 276.267199 
L 249.6887 276.135994 
L 250.320816 275.873586 
L 250.952931 275.786116 
L 251.585047 275.479972 
L 252.217162 275.305033 
L 253.481393 275.217563 
L 254.745624 274.780215 
L 256.009856 274.692746 
L 256.641971 274.386602 
L 259.170433 273.949254 
L 261.698895 273.73058 
L 262.331011 273.599375 
L 263.595242 272.987088 
L 270.548513 270.056855 
L 271.180629 269.706977 
L 271.812744 269.00722 
L 272.44486 267.957584 
L 273.076975 267.126623 
L 273.709091 266.951683 
L 274.341206 266.951683 
L 275.605438 266.033252 
L 276.237553 265.858313 
L 276.869669 265.508435 
L 277.501784 265.37723 
L 278.1339 264.808678 
L 278.766015 264.633738 
L 280.662362 263.715307 
L 281.926593 261.965915 
L 282.558709 261.572301 
L 283.190824 260.522666 
L 283.82294 259.866644 
L 284.455055 259.5605 
L 285.087171 259.385561 
L 287.615633 257.898577 
L 288.879864 256.892676 
L 289.51198 256.499063 
L 290.144095 255.580632 
L 290.776211 254.137383 
L 291.408326 253.218952 
L 292.040442 252.737869 
L 292.672557 252.47546 
L 295.20102 250.288719 
L 296.465251 249.282818 
L 297.097366 248.758001 
L 297.729482 247.927039 
L 298.993713 246.833669 
L 301.522175 245.215481 
L 302.154291 244.646928 
L 302.786406 244.515724 
L 303.418522 244.253315 
L 304.682753 243.553558 
L 306.579099 242.591392 
L 307.843331 241.410552 
L 308.475446 240.66706 
L 309.739677 239.792364 
L 310.371793 239.617425 
L 311.003908 239.311281 
L 312.268139 238.480319 
L 312.900255 238.130441 
L 313.53237 238.042971 
L 314.796602 237.343214 
L 315.428717 236.993336 
L 316.060833 236.337313 
L 316.692948 235.9437 
L 317.325064 235.725026 
L 318.589295 234.981534 
L 319.22141 234.631656 
L 319.853526 234.412982 
L 321.749873 233.188407 
L 323.646219 232.619854 
L 324.278335 232.182506 
L 324.91045 232.051302 
L 326.174681 231.613953 
L 328.071028 230.870462 
L 329.967375 230.170705 
L 331.231606 229.952031 
L 332.495837 228.85866 
L 333.760068 228.246373 
L 335.024299 227.546616 
L 335.656415 227.196737 
L 336.920646 226.846859 
L 337.552761 226.453245 
L 338.184877 226.278306 
L 340.081223 225.097466 
L 343.241801 224.353974 
L 345.138148 223.260604 
L 345.770263 223.173134 
L 346.402379 222.95446 
L 347.66661 222.692051 
L 349.562957 221.292537 
L 351.459303 220.855189 
L 352.091419 220.636515 
L 352.723534 220.155432 
L 356.516228 218.930857 
L 357.148343 218.887123 
L 357.780459 218.712183 
L 359.04469 218.187365 
L 363.469499 216.656647 
L 364.73373 216.481708 
L 365.365845 216.306768 
L 365.997961 216.000625 
L 366.630076 215.86942 
L 368.526423 214.994724 
L 370.42277 214.076293 
L 371.054885 213.638945 
L 371.687001 213.464006 
L 373.583347 212.458105 
L 374.847579 212.151961 
L 376.11181 211.495939 
L 377.376041 211.14606 
L 378.008156 211.058591 
L 379.272387 210.315099 
L 379.904503 210.183894 
L 381.168734 209.659077 
L 381.80085 209.527872 
L 382.432965 209.177994 
L 384.961427 208.78438 
L 386.225658 208.172093 
L 386.857774 207.647275 
L 387.48989 206.553905 
L 388.754121 206.291496 
L 389.386236 206.160292 
L 391.914698 204.848247 
L 392.546814 204.717043 
L 397.603738 202.311628 
L 399.500085 201.918015 
L 400.132201 201.568136 
L 403.924894 200.256092 
L 405.189125 199.468865 
L 406.453356 198.725373 
L 407.085472 198.637904 
L 407.717587 198.419229 
L 408.349703 198.375495 
L 411.51028 197.544533 
L 412.142396 197.06345 
L 413.406627 196.626102 
L 415.302974 196.013815 
L 415.935089 195.620201 
L 416.567205 195.445262 
L 417.19932 195.007914 
L 417.831436 194.745505 
L 418.463551 194.351892 
L 419.727782 193.914544 
L 421.624129 193.302256 
L 422.256245 192.996112 
L 424.152591 191.552864 
L 424.784707 191.421659 
L 426.048938 190.459493 
L 426.681054 190.328289 
L 427.313169 189.366123 
L 427.945285 189.103714 
L 428.5774 188.622631 
L 429.209516 188.535161 
L 430.473747 187.79167 
L 431.105862 187.660465 
L 431.737978 187.398056 
L 432.370093 186.916973 
L 433.002209 186.698299 
L 434.898556 185.42999 
L 437.427018 184.16168 
L 438.059133 184.07421 
L 439.323364 183.505658 
L 439.95548 183.155779 
L 440.587596 182.106144 
L 441.219711 181.537591 
L 441.851827 181.187713 
L 442.483942 181.056508 
L 443.748173 180.269281 
L 444.380289 180.138077 
L 445.64452 179.52579 
L 447.540867 178.738563 
L 448.805098 177.863867 
L 450.069329 176.551822 
L 453.229907 174.277612 
L 454.494138 173.227976 
L 455.126253 172.965568 
L 455.758369 172.26581 
L 456.390484 171.784728 
L 457.654715 171.347379 
L 458.286831 170.822562 
L 459.551062 170.166539 
L 460.183178 169.9916 
L 460.815293 169.554252 
L 461.447409 169.423048 
L 463.343755 168.417147 
L 464.607986 167.673655 
L 470.929142 165.443179 
L 471.561257 164.874627 
L 473.457604 164.17487 
L 474.721835 163.781257 
L 475.353951 163.300174 
L 477.882413 161.988129 
L 478.514528 161.638251 
L 479.77876 159.145366 
L 481.042991 157.658383 
L 482.307222 156.914891 
L 484.203568 156.171399 
L 484.835684 156.083929 
L 485.467799 155.734051 
L 487.364146 155.165498 
L 489.892608 154.028393 
L 490.524724 153.63478 
L 491.788955 153.197431 
L 495.581648 151.010691 
L 496.213764 150.354669 
L 496.845879 149.961055 
L 498.742226 149.130094 
L 499.374342 148.692746 
L 500.638573 148.080458 
L 502.534919 147.074557 
L 503.167035 146.899618 
L 503.79915 146.418535 
L 504.431266 146.156126 
L 505.063381 146.024922 
L 506.327613 145.587574 
L 508.223959 144.887817 
L 508.856075 144.450469 
L 510.120306 144.10059 
L 511.384537 143.619507 
L 512.016653 143.138424 
L 513.280884 142.744811 
L 513.912999 142.438667 
L 514.545115 142.263728 
L 515.809346 141.389032 
L 517.073577 140.820479 
L 518.337808 139.858313 
L 519.602039 139.420965 
L 520.234155 138.896147 
L 520.86627 138.808678 
L 522.130501 137.890246 
L 523.394732 137.277959 
L 524.026848 137.01555 
L 524.658963 136.403263 
L 528.451657 135.047484 
L 530.348003 134.216522 
L 532.24435 133.647969 
L 533.508581 133.47303 
L 534.140697 133.210621 
L 534.772812 133.123152 
L 536.037043 132.598334 
L 536.669159 132.554599 
L 539.197621 131.636168 
L 541.093968 130.324124 
L 541.726083 130.061715 
L 542.358199 129.668101 
L 544.254545 128.83714 
L 546.150892 127.700035 
L 546.783008 127.306421 
L 548.047239 127.000278 
L 549.31147 126.125581 
L 551.839932 125.338355 
L 552.472048 125.075946 
L 553.736279 124.769802 
L 556.896856 123.763901 
L 558.793203 123.414023 
L 561.321665 122.626796 
L 561.953781 122.364387 
L 562.585896 122.276918 
L 563.218012 121.970774 
L 564.482243 121.708365 
L 565.746474 121.271017 
L 566.37859 121.052343 
L 567.642821 120.921138 
L 568.907052 120.614995 
L 570.803398 120.308851 
L 571.435514 120.090177 
L 572.699745 119.958973 
L 578.388785 118.29705 
L 579.020901 118.078376 
L 579.653016 118.034641 
L 583.445709 116.897536 
L 584.709941 116.460187 
L 585.342056 116.372718 
L 587.238403 115.716696 
L 587.870518 115.716696 
L 589.134749 115.279347 
L 589.766865 114.66706 
L 590.39898 114.360916 
L 591.663212 113.967303 
L 594.191674 113.005137 
L 594.823789 112.873933 
L 595.455905 112.480319 
L 596.08802 112.349115 
L 596.720136 111.955502 
L 599.880714 111.03707 
L 600.512829 110.643457 
L 601.144945 110.468518 
L 601.77706 109.9437 
L 603.673407 109.593822 
L 604.937638 108.894065 
L 605.569754 108.194308 
L 606.833985 107.931899 
L 611.258794 106.925998 
L 611.890909 106.751059 
L 613.15514 106.707324 
L 613.787256 106.40118 
L 616.315718 105.963832 
L 616.947833 105.657688 
L 618.84418 105.395279 
L 621.372642 104.608053 
L 623.268989 104.170705 
L 625.165336 103.689622 
L 627.693798 102.902395 
L 628.325913 102.771191 
L 628.958029 102.465047 
L 629.590144 102.377577 
L 630.22226 102.158903 
L 630.854376 101.809025 
L 632.750722 101.153002 
L 633.382838 100.671919 
L 634.647069 100.322041 
L 635.279184 100.059632 
L 636.543415 99.709754 
L 639.071878 98.572648 
L 640.968224 98.441444 
L 643.496686 97.654217 
L 644.128802 97.260604 
L 645.393033 96.866991 
L 647.28938 95.904825 
L 647.921495 95.77362 
L 648.553611 95.467477 
L 649.185726 95.380007 
L 656.138997 93.062062 
L 658.66746 92.449774 
L 659.299575 92.274835 
L 660.563806 91.706283 
L 661.195922 91.618813 
L 662.460153 91.268934 
L 663.092268 90.787851 
L 663.724384 90.481708 
L 664.3565 89.738216 
L 664.988615 89.300868 
L 666.252846 88.907254 
L 666.884962 88.382437 
L 673.838233 85.539674 
L 675.102464 85.23353 
L 676.366695 84.664977 
L 678.263042 83.571607 
L 678.895157 83.440403 
L 679.527273 82.95932 
L 680.791504 82.347032 
L 682.055735 81.559806 
L 683.952082 80.685109 
L 684.584197 80.247761 
L 685.848428 79.766678 
L 687.112659 79.023186 
L 687.744775 78.717043 
L 688.37689 78.279695 
L 689.641121 77.842346 
L 690.273237 77.711142 
L 692.801699 76.574037 
L 695.962277 75.480666 
L 696.594393 75.436932 
L 697.226508 75.261992 
L 697.858624 74.868379 
L 698.490739 74.780909 
L 699.122855 74.562235 
L 701.019201 74.212357 
L 704.179779 72.594169 
L 705.44401 71.894412 
L 706.076126 71.806942 
L 707.972472 70.801041 
L 709.868819 70.101284 
L 711.765166 69.270323 
L 714.293628 68.264422 
L 714.925743 68.089483 
L 715.557859 67.695869 
L 716.82209 67.52093 
L 717.454206 67.127317 
L 718.086321 67.083582 
L 719.350552 66.689969 
L 720.614783 66.077681 
L 721.246899 65.990212 
L 721.879014 65.727803 
L 722.51113 65.596598 
L 724.407477 64.765637 
L 725.039592 64.634432 
L 725.671708 64.372024 
L 728.832285 63.628532 
L 730.728632 62.88504 
L 732.624979 61.747935 
L 733.88921 61.223117 
L 734.521325 60.960708 
L 735.153441 60.567095 
L 736.417672 60.304686 
L 737.049788 59.954807 
L 737.681903 59.823603 
L 738.946134 59.123846 
L 742.738828 57.374453 
L 747.163636 55.8 
L 747.163636 55.8 
" clip-path="url(#p647affa784)" style="fill: none; stroke: #1f77b4; stroke-width: 1.5; stroke-linecap: square"/>
   </g>
   <g id="line2d_34">
    <path d="M 139.068479 307.8 
L 140.964826 307.71253 
L 142.861172 307.668796 
L 146.653866 307.581326 
L 149.814444 307.450121 
L 152.342906 307.450121 
L 152.975021 307.275182 
L 155.503483 307.187713 
L 157.39983 306.969039 
L 159.296177 306.794099 
L 163.08887 306.61916 
L 163.720986 306.61916 
L 164.353101 306.487956 
L 166.881563 306.400486 
L 168.145794 306.313016 
L 173.202719 306.225547 
L 176.363297 306.094342 
L 183.948683 306.006873 
L 187.109261 305.875668 
L 190.901954 305.788199 
L 193.430416 305.700729 
L 199.119456 305.613259 
L 201.015803 305.569524 
L 202.91215 305.52579 
L 204.808496 305.307116 
L 208.601189 305.263381 
L 209.865421 305.175911 
L 214.290229 305.088442 
L 221.2435 304.694828 
L 225.668309 304.607359 
L 226.93254 304.519889 
L 228.828887 304.432419 
L 232.62158 304.25748 
L 235.150042 304.213745 
L 237.046389 304.038806 
L 247.160238 303.426519 
L 249.6887 303.339049 
L 254.113509 303.120375 
L 256.009856 303.032905 
L 262.331011 302.683027 
L 269.284282 302.595557 
L 271.812744 302.333148 
L 273.076975 302.245679 
L 281.294477 301.589656 
L 285.087171 301.108573 
L 287.615633 301.021104 
L 292.672557 300.365082 
L 295.833135 300.277612 
L 304.050637 299.62159 
L 307.211215 299.271711 
L 309.739677 299.184242 
L 311.003908 299.096772 
L 313.53237 299.009302 
L 314.796602 298.921833 
L 317.957179 298.615689 
L 318.589295 298.44075 
L 322.381988 298.26581 
L 325.542566 298.178341 
L 333.760068 297.697258 
L 335.656415 297.609788 
L 343.873917 297.128705 
L 348.298726 297.041236 
L 348.930841 296.910031 
L 353.987766 296.822562 
L 358.412574 296.603888 
L 365.365845 296.516418 
L 369.790654 296.297744 
L 374.847579 296.210274 
L 379.904503 295.947865 
L 384.329312 295.860396 
L 396.339507 295.116904 
L 401.396432 295.029434 
L 417.831436 293.979799 
L 421.624129 293.892329 
L 423.520476 293.848594 
L 425.416822 293.804859 
L 427.313169 293.62992 
L 432.370093 293.542451 
L 433.634325 293.323776 
L 434.898556 293.236307 
L 438.059133 293.105102 
L 439.323364 293.017633 
L 440.587596 292.930163 
L 446.276636 292.842694 
L 447.540867 292.711489 
L 450.069329 292.667754 
L 450.701444 292.53655 
L 451.965675 292.44908 
L 452.597791 292.317876 
L 454.494138 292.230406 
L 465.240102 291.574384 
L 467.136449 291.486914 
L 470.297026 291.35571 
L 479.146644 291.26824 
L 483.571453 291.049566 
L 488.628377 290.962096 
L 491.156839 290.874627 
L 493.685302 290.830892 
L 494.949533 290.699688 
L 497.477995 290.612218 
L 503.79915 290.262339 
L 507.591844 290.218605 
L 509.48819 290.043665 
L 511.384537 289.999931 
L 515.809346 289.912461 
L 518.337808 289.824991 
L 525.923195 289.737522 
L 529.083772 289.606317 
L 532.876466 289.518848 
L 534.772812 289.300174 
L 538.565506 289.256439 
L 540.461852 289.081499 
L 542.990314 288.99403 
L 550.575701 288.90656 
L 553.736279 288.775356 
L 564.482243 288.731621 
L 565.746474 288.644151 
L 567.642821 288.600417 
L 575.860323 288.512947 
L 577.124554 288.425477 
L 584.077825 288.338008 
L 586.606287 288.250538 
L 594.191674 288.206803 
L 595.455905 288.119334 
L 604.937638 288.075599 
L 606.833985 287.900659 
L 617.579949 287.81319 
L 619.476296 287.769455 
L 635.9113 287.681985 
L 637.807647 287.638251 
L 649.817842 287.550781 
L 652.346304 287.463311 
L 656.771113 287.375842 
L 661.828037 287.113433 
L 664.3565 287.025963 
L 666.884962 286.938494 
L 670.677655 286.851024 
L 672.574002 286.807289 
L 675.102464 286.71982 
L 676.998811 286.676085 
L 680.159388 286.588615 
L 681.423619 286.501145 
L 685.216313 286.413676 
L 688.37689 286.282471 
L 689.641121 286.238737 
L 691.537468 286.063797 
L 695.330161 285.976328 
L 697.858624 285.888858 
L 704.179779 285.801388 
L 707.340357 285.670184 
L 713.661512 285.582714 
L 718.086321 285.36404 
L 723.775361 285.276571 
L 725.039592 285.189101 
L 732.624979 285.101631 
L 734.521325 285.057897 
L 741.474596 284.970427 
L 744.003059 284.708018 
L 745.899405 284.664283 
L 747.163636 284.664283 
L 747.163636 284.664283 
" clip-path="url(#p647affa784)" style="fill: none; stroke: #ff7f0e; stroke-width: 1.5; stroke-linecap: square"/>
   </g>
   <g id="patch_3">
    <path d="M 108 320.4 
L 108 43.2 
" style="fill: none; stroke: #a9a9a9; stroke-width: 0.8; stroke-linejoin: miter; stroke-linecap: square"/>
   </g>
   <g id="patch_4">
    <path d="M 777.6 320.4 
L 777.6 43.2 
" style="fill: none"/>
   </g>
   <g id="patch_5">
    <path d="M 108 320.4 
L 777.6 320.4 
" style="fill: none; stroke: #a9a9a9; stroke-width: 0.8; stroke-linejoin: miter; stroke-linecap: square"/>
   </g>
   <g id="patch_6">
    <path d="M 108 43.2 
L 777.6 43.2 
" style="fill: none"/>
   </g>
   <g id="text_17">
    <!-- get_subscribe history -->
    <g style="fill: #a9a9a9" transform="translate(378.6075 37.2) scale(0.12 -0.12)">
     <defs>
      <path id="DejaVuSans-67" d="M 2906 1791 
Q 2906 2416 2648 2759 
Q 2391 3103 1925 3103 
Q 1463 3103 1205 2759 
Q 947 2416 947 1791 
Q 947 1169 1205 825 
Q 1463 481 1925 481 
Q 2391 481 2648 825 
Q 2906 1169 2906 1791 
z
M 3481 434 
Q 3481 -459 3084 -895 
Q 2688 -1331 1869 -1331 
Q 1566 -1331 1297 -1286 
Q 1028 -1241 775 -1147 
L 775 -588 
Q 1028 -725 1275 -790 
Q 1522 -856 1778 -856 
Q 2344 -856 2625 -561 
Q 2906 -266 2906 331 
L 2906 616 
Q 2728 306 2450 153 
Q 2172 0 1784 0 
Q 1141 0 747 490 
Q 353 981 353 1791 
Q 353 2603 747 3093 
Q 1141 3584 1784 3584 
Q 2172 3584 2450 3431 
Q 2728 3278 2906 2969 
L 2906 3500 
L 3481 3500 
L 3481 434 
z
" transform="scale(0.015625)"/>
      <path id="DejaVuSans-65" d="M 3597 1894 
L 3597 1613 
L 953 1613 
Q 991 1019 1311 708 
Q 1631 397 2203 397 
Q 2534 397 2845 478 
Q 3156 559 3463 722 
L 3463 178 
Q 3153 47 2828 -22 
Q 2503 -91 2169 -91 
Q 1331 -91 842 396 
Q 353 884 353 1716 
Q 353 2575 817 3079 
Q 1281 3584 2069 3584 
Q 2775 3584 3186 3129 
Q 3597 2675 3597 1894 
z
M 3022 2063 
Q 3016 2534 2758 2815 
Q 2500 3097 2075 3097 
Q 1594 3097 1305 2825 
Q 1016 2553 972 2059 
L 3022 2063 
z
" transform="scale(0.015625)"/>
      <path id="DejaVuSans-74" d="M 1172 4494 
L 1172 3500 
L 2356 3500 
L 2356 3053 
L 1172 3053 
L 1172 1153 
Q 1172 725 1289 603 
Q 1406 481 1766 481 
L 2356 481 
L 2356 0 
L 1766 0 
Q 1100 0 847 248 
Q 594 497 594 1153 
L 594 3053 
L 172 3053 
L 172 3500 
L 594 3500 
L 594 4494 
L 1172 4494 
z
" transform="scale(0.015625)"/>
      <path id="DejaVuSans-5f" d="M 3263 -1063 
L 3263 -1509 
L -63 -1509 
L -63 -1063 
L 3263 -1063 
z
" transform="scale(0.015625)"/>
      <path id="DejaVuSans-73" d="M 2834 3397 
L 2834 2853 
Q 2591 2978 2328 3040 
Q 2066 3103 1784 3103 
Q 1356 3103 1142 2972 
Q 928 2841 928 2578 
Q 928 2378 1081 2264 
Q 1234 2150 1697 2047 
L 1894 2003 
Q 2506 1872 2764 1633 
Q 3022 1394 3022 966 
Q 3022 478 2636 193 
Q 2250 -91 1575 -91 
Q 1294 -91 989 -36 
Q 684 19 347 128 
L 347 722 
Q 666 556 975 473 
Q 1284 391 1588 391 
Q 1994 391 2212 530 
Q 2431 669 2431 922 
Q 2431 1156 2273 1281 
Q 2116 1406 1581 1522 
L 1381 1569 
Q 847 1681 609 1914 
Q 372 2147 372 2553 
Q 372 3047 722 3315 
Q 1072 3584 1716 3584 
Q 2034 3584 2315 3537 
Q 2597 3491 2834 3397 
z
" transform="scale(0.015625)"/>
      <path id="DejaVuSans-75" d="M 544 1381 
L 544 3500 
L 1119 3500 
L 1119 1403 
Q 1119 906 1312 657 
Q 1506 409 1894 409 
Q 2359 409 2629 706 
Q 2900 1003 2900 1516 
L 2900 3500 
L 3475 3500 
L 3475 0 
L 2900 0 
L 2900 538 
Q 2691 219 2414 64 
Q 2138 -91 1772 -91 
Q 1169 -91 856 284 
Q 544 659 544 1381 
z
M 1991 3584 
L 1991 3584 
z
" transform="scale(0.015625)"/>
      <path id="DejaVuSans-62" d="M 3116 1747 
Q 3116 2381 2855 2742 
Q 2594 3103 2138 3103 
Q 1681 3103 1420 2742 
Q 1159 2381 1159 1747 
Q 1159 1113 1420 752 
Q 1681 391 2138 391 
Q 2594 391 2855 752 
Q 3116 1113 3116 1747 
z
M 1159 2969 
Q 1341 3281 1617 3432 
Q 1894 3584 2278 3584 
Q 2916 3584 3314 3078 
Q 3713 2572 3713 1747 
Q 3713 922 3314 415 
Q 2916 -91 2278 -91 
Q 1894 -91 1617 61 
Q 1341 213 1159 525 
L 1159 0 
L 581 0 
L 581 4863 
L 1159 4863 
L 1159 2969 
z
" transform="scale(0.015625)"/>
      <path id="DejaVuSans-63" d="M 3122 3366 
L 3122 2828 
Q 2878 2963 2633 3030 
Q 2388 3097 2138 3097 
Q 1578 3097 1268 2742 
Q 959 2388 959 1747 
Q 959 1106 1268 751 
Q 1578 397 2138 397 
Q 2388 397 2633 464 
Q 2878 531 3122 666 
L 3122 134 
Q 2881 22 2623 -34 
Q 2366 -91 2075 -91 
Q 1284 -91 818 406 
Q 353 903 353 1747 
Q 353 2603 823 3093 
Q 1294 3584 2113 3584 
Q 2378 3584 2631 3529 
Q 2884 3475 3122 3366 
z
" transform="scale(0.015625)"/>
      <path id="DejaVuSans-72" d="M 2631 2963 
Q 2534 3019 2420 3045 
Q 2306 3072 2169 3072 
Q 1681 3072 1420 2755 
Q 1159 2438 1159 1844 
L 1159 0 
L 581 0 
L 581 3500 
L 1159 3500 
L 1159 2956 
Q 1341 3275 1631 3429 
Q 1922 3584 2338 3584 
Q 2397 3584 2469 3576 
Q 2541 3569 2628 3553 
L 2631 2963 
z
" transform="scale(0.015625)"/>
      <path id="DejaVuSans-69" d="M 603 3500 
L 1178 3500 
L 1178 0 
L 603 0 
L 603 3500 
z
M 603 4863 
L 1178 4863 
L 1178 4134 
L 603 4134 
L 603 4863 
z
" transform="scale(0.015625)"/>
      <path id="DejaVuSans-20" transform="scale(0.015625)"/>
      <path id="DejaVuSans-68" d="M 3513 2113 
L 3513 0 
L 2938 0 
L 2938 2094 
Q 2938 2591 2744 2837 
Q 2550 3084 2163 3084 
Q 1697 3084 1428 2787 
Q 1159 2491 1159 1978 
L 1159 0 
L 581 0 
L 581 4863 
L 1159 4863 
L 1159 2956 
Q 1366 3272 1645 3428 
Q 1925 3584 2291 3584 
Q 2894 3584 3203 3211 
Q 3513 2838 3513 2113 
z
" transform="scale(0.015625)"/>
      <path id="DejaVuSans-6f" d="M 1959 3097 
Q 1497 3097 1228 2736 
Q 959 2375 959 1747 
Q 959 1119 1226 758 
Q 1494 397 1959 397 
Q 2419 397 2687 759 
Q 2956 1122 2956 1747 
Q 2956 2369 2687 2733 
Q 2419 3097 1959 3097 
z
M 1959 3584 
Q 2709 3584 3137 3096 
Q 3566 2609 3566 1747 
Q 3566 888 3137 398 
Q 2709 -91 1959 -91 
Q 1206 -91 779 398 
Q 353 888 353 1747 
Q 353 2609 779 3096 
Q 1206 3584 1959 3584 
z
" transform="scale(0.015625)"/>
      <path id="DejaVuSans-79" d="M 2059 -325 
Q 1816 -950 1584 -1140 
Q 1353 -1331 966 -1331 
L 506 -1331 
L 506 -850 
L 844 -850 
Q 1081 -850 1212 -737 
Q 1344 -625 1503 -206 
L 1606 56 
L 191 3500 
L 800 3500 
L 1894 763 
L 2988 3500 
L 3597 3500 
L 2059 -325 
z
" transform="scale(0.015625)"/>
     </defs>
     <use xlink:href="#DejaVuSans-67"/>
     <use xlink:href="#DejaVuSans-65" x="63.476562"/>
     <use xlink:href="#DejaVuSans-74" x="125"/>
     <use xlink:href="#DejaVuSans-5f" x="164.208984"/>
     <use xlink:href="#DejaVuSans-73" x="214.208984"/>
     <use xlink:href="#DejaVuSans-75" x="266.308594"/>
     <use xlink:href="#DejaVuSans-62" x="329.6875"/>
     <use xlink:href="#DejaVuSans-73" x="393.164062"/>
     <use xlink:href="#DejaVuSans-63" x="445.263672"/>
     <use xlink:href="#DejaVuSans-72" x="500.244141"/>
     <use xlink:href="#DejaVuSans-69" x="541.357422"/>
     <use xlink:href="#DejaVuSans-62" x="569.140625"/>
     <use xlink:href="#DejaVuSans-65" x="632.617188"/>
     <use xlink:href="#DejaVuSans-20" x="694.140625"/>
     <use xlink:href="#DejaVuSans-68" x="725.927734"/>
     <use xlink:href="#DejaVuSans-69" x="789.306641"/>
     <use xlink:href="#DejaVuSans-73" x="817.089844"/>
     <use xlink:href="#DejaVuSans-74" x="869.189453"/>
     <use xlink:href="#DejaVuSans-6f" x="908.398438"/>
     <use xlink:href="#DejaVuSans-72" x="969.580078"/>
     <use xlink:href="#DejaVuSans-79" x="1010.693359"/>
    </g>
   </g>
   <g id="legend_1">
    <g id="line2d_35">
     <path d="M 815.08 328.498438 
L 825.08 328.498438 
L 835.08 328.498438 
" style="fill: none; stroke: #1f77b4; stroke-width: 1.5; stroke-linecap: square"/>
    </g>
    <g id="text_18">
     <!-- star -->
     <g style="fill: #a9a9a9" transform="translate(843.08 331.998438) scale(0.1 -0.1)">
      <defs>
       <path id="DejaVuSans-61" d="M 2194 1759 
Q 1497 1759 1228 1600 
Q 959 1441 959 1056 
Q 959 750 1161 570 
Q 1363 391 1709 391 
Q 2188 391 2477 730 
Q 2766 1069 2766 1631 
L 2766 1759 
L 2194 1759 
z
M 3341 1997 
L 3341 0 
L 2766 0 
L 2766 531 
Q 2569 213 2275 61 
Q 1981 -91 1556 -91 
Q 1019 -91 701 211 
Q 384 513 384 1019 
Q 384 1609 779 1909 
Q 1175 2209 1959 2209 
L 2766 2209 
L 2766 2266 
Q 2766 2663 2505 2880 
Q 2244 3097 1772 3097 
Q 1472 3097 1187 3025 
Q 903 2953 641 2809 
L 641 3341 
Q 956 3463 1253 3523 
Q 1550 3584 1831 3584 
Q 2591 3584 2966 3190 
Q 3341 2797 3341 1997 
z
" transform="scale(0.015625)"/>
      </defs>
      <use xlink:href="#DejaVuSans-73"/>
      <use xlink:href="#DejaVuSans-74" x="52.099609"/>
      <use xlink:href="#DejaVuSans-61" x="91.308594"/>
      <use xlink:href="#DejaVuSans-72" x="152.587891"/>
     </g>
    </g>
    <g id="line2d_36">
     <path d="M 815.08 343.176562 
L 825.08 343.176562 
L 835.08 343.176562 
" style="fill: none; stroke: #ff7f0e; stroke-width: 1.5; stroke-linecap: square"/>
    </g>
    <g id="text_19">
     <!-- fork -->
     <g style="fill: #a9a9a9" transform="translate(843.08 346.676562) scale(0.1 -0.1)">
      <defs>
       <path id="DejaVuSans-66" d="M 2375 4863 
L 2375 4384 
L 1825 4384 
Q 1516 4384 1395 4259 
Q 1275 4134 1275 3809 
L 1275 3500 
L 2222 3500 
L 2222 3053 
L 1275 3053 
L 1275 0 
L 697 0 
L 697 3053 
L 147 3053 
L 147 3500 
L 697 3500 
L 697 3744 
Q 697 4328 969 4595 
Q 1241 4863 1831 4863 
L 2375 4863 
z
" transform="scale(0.015625)"/>
       <path id="DejaVuSans-6b" d="M 581 4863 
L 1159 4863 
L 1159 1991 
L 2875 3500 
L 3609 3500 
L 1753 1863 
L 3688 0 
L 2938 0 
L 1159 1709 
L 1159 0 
L 581 0 
L 581 4863 
z
" transform="scale(0.015625)"/>
      </defs>
      <use xlink:href="#DejaVuSans-66"/>
      <use xlink:href="#DejaVuSans-6f" x="35.205078"/>
      <use xlink:href="#DejaVuSans-72" x="96.386719"/>
      <use xlink:href="#DejaVuSans-6b" x="137.5"/>
     </g>
    </g>
   </g>
  </g>
 </g>
 <defs>
  <clipPath id="p647affa784">
   <rect x="108" y="43.2" width="669.6" height="277.2"/>
  </clipPath>
 </defs>
</svg>
