<?xml version="1.0" encoding="utf-8" standalone="no"?>
<!DOCTYPE svg PUBLIC "-//W3C//DTD SVG 1.1//EN"
  "http://www.w3.org/Graphics/SVG/1.1/DTD/svg11.dtd">
<svg xmlns:xlink="http://www.w3.org/1999/xlink" width="864pt" height="360pt" viewBox="0 0 864 360" xmlns="http://www.w3.org/2000/svg" version="1.1">
 <metadata>
  <rdf:RDF xmlns:dc="http://purl.org/dc/elements/1.1/" xmlns:cc="http://creativecommons.org/ns#" xmlns:rdf="http://www.w3.org/1999/02/22-rdf-syntax-ns#">
   <cc:Work>
    <dc:type rdf:resource="http://purl.org/dc/dcmitype/StillImage"/>
    <dc:date>2024-03-14T08:10:17.889528</dc:date>
    <dc:format>image/svg+xml</dc:format>
    <dc:creator>
     <cc:Agent>
      <dc:title>Matplotlib v3.8.3, https://matplotlib.org/</dc:title>
     </cc:Agent>
    </dc:creator>
   </cc:Work>
  </rdf:RDF>
 </metadata>
 <defs>
  <style type="text/css">*{stroke-linejoin: round; stroke-linecap: butt}</style>
 </defs>
 <g id="figure_1">
  <g id="patch_1">
   <path d="M 0 360 
L 864 360 
L 864 0 
L 0 0 
L 0 360 
z
" style="fill: none; opacity: 0"/>
  </g>
  <g id="axes_1">
   <g id="patch_2">
    <path d="M 108 320.4 
L 777.6 320.4 
L 777.6 43.2 
L 108 43.2 
L 108 320.4 
z
" style="fill: none; opacity: 0"/>
   </g>
   <g id="matplotlib.axis_1">
    <g id="xtick_1">
     <g id="line2d_1">
      <path d="M 163.063297 320.4 
L 163.063297 43.2 
" clip-path="url(#pb1944a3814)" style="fill: none; stroke-dasharray: 5.12,1.28,0.8,1.28; stroke-dashoffset: 0; stroke: #b0b0b0; stroke-width: 0.8"/>
     </g>
     <g id="line2d_2">
      <defs>
       <path id="mdf6fea1485" d="M 0 0 
L 0 3.5 
" style="stroke: #a9a9a9; stroke-width: 0.8"/>
      </defs>
      <g>
       <use xlink:href="#mdf6fea1485" x="163.063297" y="320.4" style="fill: #a9a9a9; stroke: #a9a9a9; stroke-width: 0.8"/>
      </g>
     </g>
     <g id="text_1">
      <!-- 2021-09 -->
      <g style="fill: #a9a9a9" transform="translate(142.171891 334.998438) scale(0.1 -0.1)">
       <defs>
        <path id="DejaVuSans-32" d="M 1228 531 
L 3431 531 
L 3431 0 
L 469 0 
L 469 531 
Q 828 903 1448 1529 
Q 2069 2156 2228 2338 
Q 2531 2678 2651 2914 
Q 2772 3150 2772 3378 
Q 2772 3750 2511 3984 
Q 2250 4219 1831 4219 
Q 1534 4219 1204 4116 
Q 875 4013 500 3803 
L 500 4441 
Q 881 4594 1212 4672 
Q 1544 4750 1819 4750 
Q 2544 4750 2975 4387 
Q 3406 4025 3406 3419 
Q 3406 3131 3298 2873 
Q 3191 2616 2906 2266 
Q 2828 2175 2409 1742 
Q 1991 1309 1228 531 
z
" transform="scale(0.015625)"/>
        <path id="DejaVuSans-30" d="M 2034 4250 
Q 1547 4250 1301 3770 
Q 1056 3291 1056 2328 
Q 1056 1369 1301 889 
Q 1547 409 2034 409 
Q 2525 409 2770 889 
Q 3016 1369 3016 2328 
Q 3016 3291 2770 3770 
Q 2525 4250 2034 4250 
z
M 2034 4750 
Q 2819 4750 3233 4129 
Q 3647 3509 3647 2328 
Q 3647 1150 3233 529 
Q 2819 -91 2034 -91 
Q 1250 -91 836 529 
Q 422 1150 422 2328 
Q 422 3509 836 4129 
Q 1250 4750 2034 4750 
z
" transform="scale(0.015625)"/>
        <path id="DejaVuSans-31" d="M 794 531 
L 1825 531 
L 1825 4091 
L 703 3866 
L 703 4441 
L 1819 4666 
L 2450 4666 
L 2450 531 
L 3481 531 
L 3481 0 
L 794 0 
L 794 531 
z
" transform="scale(0.015625)"/>
        <path id="DejaVuSans-2d" d="M 313 2009 
L 1997 2009 
L 1997 1497 
L 313 1497 
L 313 2009 
z
" transform="scale(0.015625)"/>
        <path id="DejaVuSans-39" d="M 703 97 
L 703 672 
Q 941 559 1184 500 
Q 1428 441 1663 441 
Q 2288 441 2617 861 
Q 2947 1281 2994 2138 
Q 2813 1869 2534 1725 
Q 2256 1581 1919 1581 
Q 1219 1581 811 2004 
Q 403 2428 403 3163 
Q 403 3881 828 4315 
Q 1253 4750 1959 4750 
Q 2769 4750 3195 4129 
Q 3622 3509 3622 2328 
Q 3622 1225 3098 567 
Q 2575 -91 1691 -91 
Q 1453 -91 1209 -44 
Q 966 3 703 97 
z
M 1959 2075 
Q 2384 2075 2632 2365 
Q 2881 2656 2881 3163 
Q 2881 3666 2632 3958 
Q 2384 4250 1959 4250 
Q 1534 4250 1286 3958 
Q 1038 3666 1038 3163 
Q 1038 2656 1286 2365 
Q 1534 2075 1959 2075 
z
" transform="scale(0.015625)"/>
       </defs>
       <use xlink:href="#DejaVuSans-32"/>
       <use xlink:href="#DejaVuSans-30" x="63.623047"/>
       <use xlink:href="#DejaVuSans-32" x="127.246094"/>
       <use xlink:href="#DejaVuSans-31" x="190.869141"/>
       <use xlink:href="#DejaVuSans-2d" x="254.492188"/>
       <use xlink:href="#DejaVuSans-30" x="290.576172"/>
       <use xlink:href="#DejaVuSans-39" x="354.199219"/>
      </g>
     </g>
    </g>
    <g id="xtick_2">
     <g id="line2d_3">
      <path d="M 240.101396 320.4 
L 240.101396 43.2 
" clip-path="url(#pb1944a3814)" style="fill: none; stroke-dasharray: 5.12,1.28,0.8,1.28; stroke-dashoffset: 0; stroke: #b0b0b0; stroke-width: 0.8"/>
     </g>
     <g id="line2d_4">
      <g>
       <use xlink:href="#mdf6fea1485" x="240.101396" y="320.4" style="fill: #a9a9a9; stroke: #a9a9a9; stroke-width: 0.8"/>
      </g>
     </g>
     <g id="text_2">
      <!-- 2022-01 -->
      <g style="fill: #a9a9a9" transform="translate(219.209989 334.998438) scale(0.1 -0.1)">
       <use xlink:href="#DejaVuSans-32"/>
       <use xlink:href="#DejaVuSans-30" x="63.623047"/>
       <use xlink:href="#DejaVuSans-32" x="127.246094"/>
       <use xlink:href="#DejaVuSans-32" x="190.869141"/>
       <use xlink:href="#DejaVuSans-2d" x="254.492188"/>
       <use xlink:href="#DejaVuSans-30" x="290.576172"/>
       <use xlink:href="#DejaVuSans-31" x="354.199219"/>
      </g>
     </g>
    </g>
    <g id="xtick_3">
     <g id="line2d_5">
      <path d="M 315.876575 320.4 
L 315.876575 43.2 
" clip-path="url(#pb1944a3814)" style="fill: none; stroke-dasharray: 5.12,1.28,0.8,1.28; stroke-dashoffset: 0; stroke: #b0b0b0; stroke-width: 0.8"/>
     </g>
     <g id="line2d_6">
      <g>
       <use xlink:href="#mdf6fea1485" x="315.876575" y="320.4" style="fill: #a9a9a9; stroke: #a9a9a9; stroke-width: 0.8"/>
      </g>
     </g>
     <g id="text_3">
      <!-- 2022-05 -->
      <g style="fill: #a9a9a9" transform="translate(294.985169 334.998438) scale(0.1 -0.1)">
       <defs>
        <path id="DejaVuSans-35" d="M 691 4666 
L 3169 4666 
L 3169 4134 
L 1269 4134 
L 1269 2991 
Q 1406 3038 1543 3061 
Q 1681 3084 1819 3084 
Q 2600 3084 3056 2656 
Q 3513 2228 3513 1497 
Q 3513 744 3044 326 
Q 2575 -91 1722 -91 
Q 1428 -91 1123 -41 
Q 819 9 494 109 
L 494 744 
Q 775 591 1075 516 
Q 1375 441 1709 441 
Q 2250 441 2565 725 
Q 2881 1009 2881 1497 
Q 2881 1984 2565 2268 
Q 2250 2553 1709 2553 
Q 1456 2553 1204 2497 
Q 953 2441 691 2322 
L 691 4666 
z
" transform="scale(0.015625)"/>
       </defs>
       <use xlink:href="#DejaVuSans-32"/>
       <use xlink:href="#DejaVuSans-30" x="63.623047"/>
       <use xlink:href="#DejaVuSans-32" x="127.246094"/>
       <use xlink:href="#DejaVuSans-32" x="190.869141"/>
       <use xlink:href="#DejaVuSans-2d" x="254.492188"/>
       <use xlink:href="#DejaVuSans-30" x="290.576172"/>
       <use xlink:href="#DejaVuSans-35" x="354.199219"/>
      </g>
     </g>
    </g>
    <g id="xtick_4">
     <g id="line2d_7">
      <path d="M 393.546134 320.4 
L 393.546134 43.2 
" clip-path="url(#pb1944a3814)" style="fill: none; stroke-dasharray: 5.12,1.28,0.8,1.28; stroke-dashoffset: 0; stroke: #b0b0b0; stroke-width: 0.8"/>
     </g>
     <g id="line2d_8">
      <g>
       <use xlink:href="#mdf6fea1485" x="393.546134" y="320.4" style="fill: #a9a9a9; stroke: #a9a9a9; stroke-width: 0.8"/>
      </g>
     </g>
     <g id="text_4">
      <!-- 2022-09 -->
      <g style="fill: #a9a9a9" transform="translate(372.654727 334.998438) scale(0.1 -0.1)">
       <use xlink:href="#DejaVuSans-32"/>
       <use xlink:href="#DejaVuSans-30" x="63.623047"/>
       <use xlink:href="#DejaVuSans-32" x="127.246094"/>
       <use xlink:href="#DejaVuSans-32" x="190.869141"/>
       <use xlink:href="#DejaVuSans-2d" x="254.492188"/>
       <use xlink:href="#DejaVuSans-30" x="290.576172"/>
       <use xlink:href="#DejaVuSans-39" x="354.199219"/>
      </g>
     </g>
    </g>
    <g id="xtick_5">
     <g id="line2d_9">
      <path d="M 470.584232 320.4 
L 470.584232 43.2 
" clip-path="url(#pb1944a3814)" style="fill: none; stroke-dasharray: 5.12,1.28,0.8,1.28; stroke-dashoffset: 0; stroke: #b0b0b0; stroke-width: 0.8"/>
     </g>
     <g id="line2d_10">
      <g>
       <use xlink:href="#mdf6fea1485" x="470.584232" y="320.4" style="fill: #a9a9a9; stroke: #a9a9a9; stroke-width: 0.8"/>
      </g>
     </g>
     <g id="text_5">
      <!-- 2023-01 -->
      <g style="fill: #a9a9a9" transform="translate(449.692826 334.998438) scale(0.1 -0.1)">
       <defs>
        <path id="DejaVuSans-33" d="M 2597 2516 
Q 3050 2419 3304 2112 
Q 3559 1806 3559 1356 
Q 3559 666 3084 287 
Q 2609 -91 1734 -91 
Q 1441 -91 1130 -33 
Q 819 25 488 141 
L 488 750 
Q 750 597 1062 519 
Q 1375 441 1716 441 
Q 2309 441 2620 675 
Q 2931 909 2931 1356 
Q 2931 1769 2642 2001 
Q 2353 2234 1838 2234 
L 1294 2234 
L 1294 2753 
L 1863 2753 
Q 2328 2753 2575 2939 
Q 2822 3125 2822 3475 
Q 2822 3834 2567 4026 
Q 2313 4219 1838 4219 
Q 1578 4219 1281 4162 
Q 984 4106 628 3988 
L 628 4550 
Q 988 4650 1302 4700 
Q 1616 4750 1894 4750 
Q 2613 4750 3031 4423 
Q 3450 4097 3450 3541 
Q 3450 3153 3228 2886 
Q 3006 2619 2597 2516 
z
" transform="scale(0.015625)"/>
       </defs>
       <use xlink:href="#DejaVuSans-32"/>
       <use xlink:href="#DejaVuSans-30" x="63.623047"/>
       <use xlink:href="#DejaVuSans-32" x="127.246094"/>
       <use xlink:href="#DejaVuSans-33" x="190.869141"/>
       <use xlink:href="#DejaVuSans-2d" x="254.492188"/>
       <use xlink:href="#DejaVuSans-30" x="290.576172"/>
       <use xlink:href="#DejaVuSans-31" x="354.199219"/>
      </g>
     </g>
    </g>
    <g id="xtick_6">
     <g id="line2d_11">
      <path d="M 546.359412 320.4 
L 546.359412 43.2 
" clip-path="url(#pb1944a3814)" style="fill: none; stroke-dasharray: 5.12,1.28,0.8,1.28; stroke-dashoffset: 0; stroke: #b0b0b0; stroke-width: 0.8"/>
     </g>
     <g id="line2d_12">
      <g>
       <use xlink:href="#mdf6fea1485" x="546.359412" y="320.4" style="fill: #a9a9a9; stroke: #a9a9a9; stroke-width: 0.8"/>
      </g>
     </g>
     <g id="text_6">
      <!-- 2023-05 -->
      <g style="fill: #a9a9a9" transform="translate(525.468005 334.998438) scale(0.1 -0.1)">
       <use xlink:href="#DejaVuSans-32"/>
       <use xlink:href="#DejaVuSans-30" x="63.623047"/>
       <use xlink:href="#DejaVuSans-32" x="127.246094"/>
       <use xlink:href="#DejaVuSans-33" x="190.869141"/>
       <use xlink:href="#DejaVuSans-2d" x="254.492188"/>
       <use xlink:href="#DejaVuSans-30" x="290.576172"/>
       <use xlink:href="#DejaVuSans-35" x="354.199219"/>
      </g>
     </g>
    </g>
    <g id="xtick_7">
     <g id="line2d_13">
      <path d="M 624.02897 320.4 
L 624.02897 43.2 
" clip-path="url(#pb1944a3814)" style="fill: none; stroke-dasharray: 5.12,1.28,0.8,1.28; stroke-dashoffset: 0; stroke: #b0b0b0; stroke-width: 0.8"/>
     </g>
     <g id="line2d_14">
      <g>
       <use xlink:href="#mdf6fea1485" x="624.02897" y="320.4" style="fill: #a9a9a9; stroke: #a9a9a9; stroke-width: 0.8"/>
      </g>
     </g>
     <g id="text_7">
      <!-- 2023-09 -->
      <g style="fill: #a9a9a9" transform="translate(603.137564 334.998438) scale(0.1 -0.1)">
       <use xlink:href="#DejaVuSans-32"/>
       <use xlink:href="#DejaVuSans-30" x="63.623047"/>
       <use xlink:href="#DejaVuSans-32" x="127.246094"/>
       <use xlink:href="#DejaVuSans-33" x="190.869141"/>
       <use xlink:href="#DejaVuSans-2d" x="254.492188"/>
       <use xlink:href="#DejaVuSans-30" x="290.576172"/>
       <use xlink:href="#DejaVuSans-39" x="354.199219"/>
      </g>
     </g>
    </g>
    <g id="xtick_8">
     <g id="line2d_15">
      <path d="M 701.067069 320.4 
L 701.067069 43.2 
" clip-path="url(#pb1944a3814)" style="fill: none; stroke-dasharray: 5.12,1.28,0.8,1.28; stroke-dashoffset: 0; stroke: #b0b0b0; stroke-width: 0.8"/>
     </g>
     <g id="line2d_16">
      <g>
       <use xlink:href="#mdf6fea1485" x="701.067069" y="320.4" style="fill: #a9a9a9; stroke: #a9a9a9; stroke-width: 0.8"/>
      </g>
     </g>
     <g id="text_8">
      <!-- 2024-01 -->
      <g style="fill: #a9a9a9" transform="translate(680.175663 334.998438) scale(0.1 -0.1)">
       <defs>
        <path id="DejaVuSans-34" d="M 2419 4116 
L 825 1625 
L 2419 1625 
L 2419 4116 
z
M 2253 4666 
L 3047 4666 
L 3047 1625 
L 3713 1625 
L 3713 1100 
L 3047 1100 
L 3047 0 
L 2419 0 
L 2419 1100 
L 313 1100 
L 313 1709 
L 2253 4666 
z
" transform="scale(0.015625)"/>
       </defs>
       <use xlink:href="#DejaVuSans-32"/>
       <use xlink:href="#DejaVuSans-30" x="63.623047"/>
       <use xlink:href="#DejaVuSans-32" x="127.246094"/>
       <use xlink:href="#DejaVuSans-34" x="190.869141"/>
       <use xlink:href="#DejaVuSans-2d" x="254.492188"/>
       <use xlink:href="#DejaVuSans-30" x="290.576172"/>
       <use xlink:href="#DejaVuSans-31" x="354.199219"/>
      </g>
     </g>
    </g>
    <g id="xtick_9">
     <g id="line2d_17">
      <path d="M 777.473708 320.4 
L 777.473708 43.2 
" clip-path="url(#pb1944a3814)" style="fill: none; stroke-dasharray: 5.12,1.28,0.8,1.28; stroke-dashoffset: 0; stroke: #b0b0b0; stroke-width: 0.8"/>
     </g>
     <g id="line2d_18">
      <g>
       <use xlink:href="#mdf6fea1485" x="777.473708" y="320.4" style="fill: #a9a9a9; stroke: #a9a9a9; stroke-width: 0.8"/>
      </g>
     </g>
     <g id="text_9">
      <!-- 2024-05 -->
      <g style="fill: #a9a9a9" transform="translate(756.582302 334.998438) scale(0.1 -0.1)">
       <use xlink:href="#DejaVuSans-32"/>
       <use xlink:href="#DejaVuSans-30" x="63.623047"/>
       <use xlink:href="#DejaVuSans-32" x="127.246094"/>
       <use xlink:href="#DejaVuSans-34" x="190.869141"/>
       <use xlink:href="#DejaVuSans-2d" x="254.492188"/>
       <use xlink:href="#DejaVuSans-30" x="290.576172"/>
       <use xlink:href="#DejaVuSans-35" x="354.199219"/>
      </g>
     </g>
    </g>
   </g>
   <g id="matplotlib.axis_2">
    <g id="ytick_1">
     <g id="line2d_19">
      <path d="M 108 307.843727 
L 777.6 307.843727 
" clip-path="url(#pb1944a3814)" style="fill: none; stroke-dasharray: 5.12,1.28,0.8,1.28; stroke-dashoffset: 0; stroke: #b0b0b0; stroke-width: 0.8"/>
     </g>
     <g id="line2d_20">
      <defs>
       <path id="m3ffe4bbadf" d="M 0 0 
L -3.5 0 
" style="stroke: #a9a9a9; stroke-width: 0.8"/>
      </defs>
      <g>
       <use xlink:href="#m3ffe4bbadf" x="108" y="307.843727" style="fill: #a9a9a9; stroke: #a9a9a9; stroke-width: 0.8"/>
      </g>
     </g>
     <g id="text_10">
      <!-- 0 -->
      <g style="fill: #a9a9a9" transform="translate(94.6375 311.642946) scale(0.1 -0.1)">
       <use xlink:href="#DejaVuSans-30"/>
      </g>
     </g>
    </g>
    <g id="ytick_2">
     <g id="line2d_21">
      <path d="M 108 272.861947 
L 777.6 272.861947 
" clip-path="url(#pb1944a3814)" style="fill: none; stroke-dasharray: 5.12,1.28,0.8,1.28; stroke-dashoffset: 0; stroke: #b0b0b0; stroke-width: 0.8"/>
     </g>
     <g id="line2d_22">
      <g>
       <use xlink:href="#m3ffe4bbadf" x="108" y="272.861947" style="fill: #a9a9a9; stroke: #a9a9a9; stroke-width: 0.8"/>
      </g>
     </g>
     <g id="text_11">
      <!-- 800 -->
      <g style="fill: #a9a9a9" transform="translate(81.9125 276.661166) scale(0.1 -0.1)">
       <defs>
        <path id="DejaVuSans-38" d="M 2034 2216 
Q 1584 2216 1326 1975 
Q 1069 1734 1069 1313 
Q 1069 891 1326 650 
Q 1584 409 2034 409 
Q 2484 409 2743 651 
Q 3003 894 3003 1313 
Q 3003 1734 2745 1975 
Q 2488 2216 2034 2216 
z
M 1403 2484 
Q 997 2584 770 2862 
Q 544 3141 544 3541 
Q 544 4100 942 4425 
Q 1341 4750 2034 4750 
Q 2731 4750 3128 4425 
Q 3525 4100 3525 3541 
Q 3525 3141 3298 2862 
Q 3072 2584 2669 2484 
Q 3125 2378 3379 2068 
Q 3634 1759 3634 1313 
Q 3634 634 3220 271 
Q 2806 -91 2034 -91 
Q 1263 -91 848 271 
Q 434 634 434 1313 
Q 434 1759 690 2068 
Q 947 2378 1403 2484 
z
M 1172 3481 
Q 1172 3119 1398 2916 
Q 1625 2713 2034 2713 
Q 2441 2713 2670 2916 
Q 2900 3119 2900 3481 
Q 2900 3844 2670 4047 
Q 2441 4250 2034 4250 
Q 1625 4250 1398 4047 
Q 1172 3844 1172 3481 
z
" transform="scale(0.015625)"/>
       </defs>
       <use xlink:href="#DejaVuSans-38"/>
       <use xlink:href="#DejaVuSans-30" x="63.623047"/>
       <use xlink:href="#DejaVuSans-30" x="127.246094"/>
      </g>
     </g>
    </g>
    <g id="ytick_3">
     <g id="line2d_23">
      <path d="M 108 237.880167 
L 777.6 237.880167 
" clip-path="url(#pb1944a3814)" style="fill: none; stroke-dasharray: 5.12,1.28,0.8,1.28; stroke-dashoffset: 0; stroke: #b0b0b0; stroke-width: 0.8"/>
     </g>
     <g id="line2d_24">
      <g>
       <use xlink:href="#m3ffe4bbadf" x="108" y="237.880167" style="fill: #a9a9a9; stroke: #a9a9a9; stroke-width: 0.8"/>
      </g>
     </g>
     <g id="text_12">
      <!-- 1600 -->
      <g style="fill: #a9a9a9" transform="translate(75.55 241.679385) scale(0.1 -0.1)">
       <defs>
        <path id="DejaVuSans-36" d="M 2113 2584 
Q 1688 2584 1439 2293 
Q 1191 2003 1191 1497 
Q 1191 994 1439 701 
Q 1688 409 2113 409 
Q 2538 409 2786 701 
Q 3034 994 3034 1497 
Q 3034 2003 2786 2293 
Q 2538 2584 2113 2584 
z
M 3366 4563 
L 3366 3988 
Q 3128 4100 2886 4159 
Q 2644 4219 2406 4219 
Q 1781 4219 1451 3797 
Q 1122 3375 1075 2522 
Q 1259 2794 1537 2939 
Q 1816 3084 2150 3084 
Q 2853 3084 3261 2657 
Q 3669 2231 3669 1497 
Q 3669 778 3244 343 
Q 2819 -91 2113 -91 
Q 1303 -91 875 529 
Q 447 1150 447 2328 
Q 447 3434 972 4092 
Q 1497 4750 2381 4750 
Q 2619 4750 2861 4703 
Q 3103 4656 3366 4563 
z
" transform="scale(0.015625)"/>
       </defs>
       <use xlink:href="#DejaVuSans-31"/>
       <use xlink:href="#DejaVuSans-36" x="63.623047"/>
       <use xlink:href="#DejaVuSans-30" x="127.246094"/>
       <use xlink:href="#DejaVuSans-30" x="190.869141"/>
      </g>
     </g>
    </g>
    <g id="ytick_4">
     <g id="line2d_25">
      <path d="M 108 202.898386 
L 777.6 202.898386 
" clip-path="url(#pb1944a3814)" style="fill: none; stroke-dasharray: 5.12,1.28,0.8,1.28; stroke-dashoffset: 0; stroke: #b0b0b0; stroke-width: 0.8"/>
     </g>
     <g id="line2d_26">
      <g>
       <use xlink:href="#m3ffe4bbadf" x="108" y="202.898386" style="fill: #a9a9a9; stroke: #a9a9a9; stroke-width: 0.8"/>
      </g>
     </g>
     <g id="text_13">
      <!-- 2400 -->
      <g style="fill: #a9a9a9" transform="translate(75.55 206.697605) scale(0.1 -0.1)">
       <use xlink:href="#DejaVuSans-32"/>
       <use xlink:href="#DejaVuSans-34" x="63.623047"/>
       <use xlink:href="#DejaVuSans-30" x="127.246094"/>
       <use xlink:href="#DejaVuSans-30" x="190.869141"/>
      </g>
     </g>
    </g>
    <g id="ytick_5">
     <g id="line2d_27">
      <path d="M 108 167.916606 
L 777.6 167.916606 
" clip-path="url(#pb1944a3814)" style="fill: none; stroke-dasharray: 5.12,1.28,0.8,1.28; stroke-dashoffset: 0; stroke: #b0b0b0; stroke-width: 0.8"/>
     </g>
     <g id="line2d_28">
      <g>
       <use xlink:href="#m3ffe4bbadf" x="108" y="167.916606" style="fill: #a9a9a9; stroke: #a9a9a9; stroke-width: 0.8"/>
      </g>
     </g>
     <g id="text_14">
      <!-- 3200 -->
      <g style="fill: #a9a9a9" transform="translate(75.55 171.715825) scale(0.1 -0.1)">
       <use xlink:href="#DejaVuSans-33"/>
       <use xlink:href="#DejaVuSans-32" x="63.623047"/>
       <use xlink:href="#DejaVuSans-30" x="127.246094"/>
       <use xlink:href="#DejaVuSans-30" x="190.869141"/>
      </g>
     </g>
    </g>
    <g id="ytick_6">
     <g id="line2d_29">
      <path d="M 108 132.934826 
L 777.6 132.934826 
" clip-path="url(#pb1944a3814)" style="fill: none; stroke-dasharray: 5.12,1.28,0.8,1.28; stroke-dashoffset: 0; stroke: #b0b0b0; stroke-width: 0.8"/>
     </g>
     <g id="line2d_30">
      <g>
       <use xlink:href="#m3ffe4bbadf" x="108" y="132.934826" style="fill: #a9a9a9; stroke: #a9a9a9; stroke-width: 0.8"/>
      </g>
     </g>
     <g id="text_15">
      <!-- 4000 -->
      <g style="fill: #a9a9a9" transform="translate(75.55 136.734044) scale(0.1 -0.1)">
       <use xlink:href="#DejaVuSans-34"/>
       <use xlink:href="#DejaVuSans-30" x="63.623047"/>
       <use xlink:href="#DejaVuSans-30" x="127.246094"/>
       <use xlink:href="#DejaVuSans-30" x="190.869141"/>
      </g>
     </g>
    </g>
    <g id="ytick_7">
     <g id="line2d_31">
      <path d="M 108 97.953045 
L 777.6 97.953045 
" clip-path="url(#pb1944a3814)" style="fill: none; stroke-dasharray: 5.12,1.28,0.8,1.28; stroke-dashoffset: 0; stroke: #b0b0b0; stroke-width: 0.8"/>
     </g>
     <g id="line2d_32">
      <g>
       <use xlink:href="#m3ffe4bbadf" x="108" y="97.953045" style="fill: #a9a9a9; stroke: #a9a9a9; stroke-width: 0.8"/>
      </g>
     </g>
     <g id="text_16">
      <!-- 4800 -->
      <g style="fill: #a9a9a9" transform="translate(75.55 101.752264) scale(0.1 -0.1)">
       <use xlink:href="#DejaVuSans-34"/>
       <use xlink:href="#DejaVuSans-38" x="63.623047"/>
       <use xlink:href="#DejaVuSans-30" x="127.246094"/>
       <use xlink:href="#DejaVuSans-30" x="190.869141"/>
      </g>
     </g>
    </g>
    <g id="ytick_8">
     <g id="line2d_33">
      <path d="M 108 62.971265 
L 777.6 62.971265 
" clip-path="url(#pb1944a3814)" style="fill: none; stroke-dasharray: 5.12,1.28,0.8,1.28; stroke-dashoffset: 0; stroke: #b0b0b0; stroke-width: 0.8"/>
     </g>
     <g id="line2d_34">
      <g>
       <use xlink:href="#m3ffe4bbadf" x="108" y="62.971265" style="fill: #a9a9a9; stroke: #a9a9a9; stroke-width: 0.8"/>
      </g>
     </g>
     <g id="text_17">
      <!-- 5600 -->
      <g style="fill: #a9a9a9" transform="translate(75.55 66.770484) scale(0.1 -0.1)">
       <use xlink:href="#DejaVuSans-35"/>
       <use xlink:href="#DejaVuSans-36" x="63.623047"/>
       <use xlink:href="#DejaVuSans-30" x="127.246094"/>
       <use xlink:href="#DejaVuSans-30" x="190.869141"/>
      </g>
     </g>
    </g>
   </g>
   <g id="line2d_35">
    <path d="M 138.436364 307.712546 
L 142.225123 307.406455 
L 142.856582 307.144092 
L 144.750962 306.925455 
L 148.539721 306.182093 
L 152.32848 305.876002 
L 152.95994 305.569912 
L 153.591399 305.395003 
L 154.222859 304.607913 
L 154.854319 304.17064 
L 155.485779 302.815096 
L 156.117239 302.727642 
L 156.748699 302.246642 
L 158.011618 301.634461 
L 160.537458 299.710463 
L 161.800377 299.185737 
L 162.431837 298.748464 
L 164.957676 297.655284 
L 165.589136 296.693285 
L 166.852056 295.775013 
L 167.483516 295.468922 
L 173.798114 294.594378 
L 174.429574 294.288287 
L 178.849793 293.93847 
L 180.744172 293.45747 
L 186.42731 292.714107 
L 187.05877 292.364289 
L 187.69023 292.276835 
L 188.32169 292.014472 
L 189.58461 291.795836 
L 190.216069 291.752108 
L 190.847529 291.533472 
L 193.373369 291.139927 
L 194.636288 290.790109 
L 196.530668 290.6152 
L 197.793587 290.484019 
L 198.425047 290.30911 
L 199.056507 290.265383 
L 200.950886 289.696929 
L 204.739645 289.128475 
L 205.371105 288.953566 
L 206.002565 288.079021 
L 207.896945 287.379386 
L 209.791324 286.854659 
L 210.422784 286.548568 
L 211.054244 286.504841 
L 214.211543 285.630297 
L 215.474462 285.542842 
L 216.105922 285.455388 
L 218.000302 284.886934 
L 220.526141 284.274753 
L 221.157601 284.012389 
L 221.789061 283.924935 
L 222.420521 283.618844 
L 228.735119 282.656845 
L 231.892418 281.782301 
L 232.523878 281.388756 
L 235.049717 280.732847 
L 236.312637 279.989485 
L 236.944097 279.552212 
L 238.838476 279.202395 
L 242.627235 278.065487 
L 243.890155 277.671942 
L 244.521614 277.584487 
L 245.784534 277.234669 
L 247.047454 276.928579 
L 247.678914 276.841124 
L 248.941833 276.316398 
L 249.573293 276.185216 
L 250.204753 275.922853 
L 250.836213 275.835398 
L 251.467673 275.529308 
L 252.099132 275.354399 
L 253.362052 275.266944 
L 254.624972 274.829672 
L 255.887891 274.742218 
L 256.519351 274.436127 
L 259.04519 273.998855 
L 261.57103 273.780219 
L 262.20249 273.649037 
L 263.465409 273.036856 
L 270.411467 270.107132 
L 271.042927 269.757314 
L 271.674387 269.057678 
L 272.305847 268.008225 
L 272.937307 267.177408 
L 273.568767 267.002499 
L 274.200226 267.002499 
L 275.463146 266.084227 
L 276.094606 265.909318 
L 276.726066 265.5595 
L 277.357525 265.428319 
L 277.988985 264.859865 
L 278.620445 264.684956 
L 280.514825 263.766684 
L 281.777744 262.017595 
L 282.409204 261.62405 
L 283.040664 260.574597 
L 283.672124 259.918688 
L 284.303584 259.612598 
L 284.935043 259.437689 
L 287.460883 257.950963 
L 288.723802 256.945237 
L 289.355262 256.551692 
L 289.986722 255.63342 
L 290.618182 254.190422 
L 291.249642 253.27215 
L 291.881101 252.79115 
L 292.512561 252.528787 
L 295.038401 250.342426 
L 296.30132 249.3367 
L 296.93278 248.811973 
L 297.56424 247.981156 
L 298.82716 246.887975 
L 301.352999 245.270068 
L 301.984459 244.701614 
L 302.615919 244.570432 
L 303.247378 244.308069 
L 304.510298 243.608433 
L 306.404677 242.646434 
L 307.667597 241.465799 
L 308.299057 240.722436 
L 309.561977 239.847892 
L 310.193436 239.672983 
L 310.824896 239.366892 
L 312.087816 238.536075 
L 312.719276 238.186257 
L 313.350736 238.098803 
L 314.613655 237.399167 
L 315.245115 237.049349 
L 315.876575 236.393441 
L 316.508035 235.999896 
L 317.139495 235.78126 
L 318.402414 235.037897 
L 319.033874 234.688079 
L 319.665334 234.469443 
L 321.559713 233.245081 
L 323.454093 232.676627 
L 324.085553 232.239355 
L 324.717012 232.108173 
L 325.979932 231.670901 
L 327.874312 230.927538 
L 329.768691 230.227902 
L 331.031611 230.009266 
L 332.29453 228.916085 
L 333.55745 228.303904 
L 334.82037 227.604269 
L 335.451829 227.254451 
L 336.714749 226.904633 
L 337.346209 226.511088 
L 337.977669 226.336179 
L 339.872048 225.155544 
L 343.029347 224.412181 
L 344.923727 223.319001 
L 345.555187 223.231546 
L 346.186647 223.01291 
L 347.449566 222.750547 
L 349.343946 221.351275 
L 351.238325 220.914003 
L 351.869785 220.695367 
L 352.501245 220.214368 
L 356.290004 218.990005 
L 356.921464 218.946278 
L 357.552923 218.771369 
L 358.815843 218.246642 
L 363.236062 216.716189 
L 364.498982 216.541281 
L 365.130441 216.366372 
L 365.761901 216.060281 
L 366.393361 215.929099 
L 368.28774 215.054555 
L 370.18212 214.136283 
L 370.81358 213.699011 
L 371.44504 213.524102 
L 373.339419 212.518376 
L 374.602339 212.212285 
L 375.865258 211.556377 
L 377.128178 211.206559 
L 377.759638 211.119105 
L 379.022558 210.375742 
L 379.654017 210.24456 
L 380.916937 209.719833 
L 381.548397 209.588652 
L 382.179857 209.238834 
L 384.705696 208.845289 
L 385.968616 208.233108 
L 386.600075 207.708381 
L 387.231535 206.6152 
L 388.494455 206.352837 
L 389.125915 206.221655 
L 391.651754 204.909839 
L 392.283214 204.778657 
L 397.334892 202.37366 
L 399.229272 201.980115 
L 399.860732 201.630297 
L 403.649491 200.31848 
L 404.91241 199.53139 
L 406.17533 198.788027 
L 406.80679 198.700573 
L 407.43825 198.481936 
L 408.06971 198.438209 
L 411.227009 197.607392 
L 411.858469 197.126393 
L 413.121388 196.68912 
L 415.015768 196.076939 
L 415.647227 195.683394 
L 416.278687 195.508485 
L 416.910147 195.071213 
L 417.541607 194.80885 
L 418.173067 194.415305 
L 419.435986 193.978032 
L 421.330366 193.365851 
L 421.961826 193.059761 
L 423.856205 191.616762 
L 424.487665 191.48558 
L 425.750585 190.523581 
L 426.382045 190.3924 
L 427.013504 189.430401 
L 427.644964 189.168037 
L 428.276424 188.687038 
L 428.907884 188.599584 
L 430.170803 187.856221 
L 430.802263 187.725039 
L 431.433723 187.462676 
L 432.065183 186.981676 
L 432.696643 186.76304 
L 434.591022 185.494951 
L 437.116862 184.226861 
L 437.748321 184.139407 
L 439.011241 183.570953 
L 439.642701 183.221135 
L 440.274161 182.171681 
L 440.905621 181.603227 
L 441.53708 181.25341 
L 442.16854 181.122228 
L 443.43146 180.335138 
L 444.06292 180.203956 
L 445.325839 179.591775 
L 447.220219 178.804685 
L 448.483138 177.930141 
L 449.746058 176.618324 
L 452.903357 174.344508 
L 454.166277 173.295055 
L 454.797737 173.032691 
L 455.429197 172.333056 
L 456.060656 171.852056 
L 457.323576 171.414784 
L 457.955036 170.890057 
L 459.217955 170.234149 
L 459.849415 170.05924 
L 460.480875 169.621968 
L 461.112335 169.490786 
L 463.006714 168.48506 
L 464.269634 167.741697 
L 470.584232 165.511609 
L 471.215692 164.943155 
L 473.110072 164.243519 
L 474.372991 163.849974 
L 475.004451 163.368974 
L 477.53029 162.057158 
L 478.16175 161.70734 
L 479.42467 159.214888 
L 480.68759 157.728162 
L 481.950509 156.9848 
L 483.844889 156.241437 
L 484.476349 156.153982 
L 485.107808 155.804164 
L 487.002188 155.235711 
L 489.528027 154.098803 
L 490.159487 153.705258 
L 491.422407 153.267985 
L 495.211166 151.081624 
L 495.842625 150.425716 
L 496.474085 150.032171 
L 498.368465 149.201353 
L 498.999925 148.764081 
L 500.262844 148.1519 
L 502.157224 147.146174 
L 502.788684 146.971265 
L 503.420143 146.490265 
L 504.051603 146.227902 
L 504.683063 146.09672 
L 505.945983 145.659448 
L 507.840362 144.959813 
L 508.471822 144.52254 
L 509.734742 144.172723 
L 510.997661 143.691723 
L 511.629121 143.210724 
L 512.892041 142.817179 
L 513.523501 142.511088 
L 514.15496 142.336179 
L 515.41788 141.461635 
L 516.6808 140.893181 
L 517.943719 139.931182 
L 519.206639 139.493909 
L 519.838099 138.969183 
L 520.469559 138.881728 
L 521.732478 137.963457 
L 522.995398 137.351275 
L 523.626858 137.088912 
L 524.258318 136.476731 
L 528.047077 135.121187 
L 529.941456 134.29037 
L 531.835836 133.721916 
L 533.098755 133.547007 
L 533.730215 133.284643 
L 534.361675 133.197189 
L 535.624594 132.672462 
L 536.256054 132.628735 
L 538.781894 131.710463 
L 540.676273 130.398647 
L 541.307733 130.136283 
L 541.939193 129.742738 
L 543.833572 128.911921 
L 545.727952 127.775013 
L 546.359412 127.381468 
L 547.622331 127.075377 
L 548.885251 126.200833 
L 551.41109 125.413743 
L 552.04255 125.151379 
L 553.30547 124.845289 
L 556.462769 123.839563 
L 558.357148 123.489745 
L 560.882988 122.702655 
L 561.514447 122.440292 
L 562.145907 122.352837 
L 562.777367 122.046746 
L 564.040287 121.784383 
L 565.303206 121.347111 
L 565.934666 121.128475 
L 567.197586 120.997293 
L 568.460505 120.691202 
L 570.354885 120.385112 
L 570.986345 120.166476 
L 572.249264 120.035294 
L 577.932403 118.37366 
L 578.563863 118.155023 
L 579.195323 118.111296 
L 582.984081 116.974388 
L 584.247001 116.537116 
L 584.878461 116.449662 
L 586.77284 115.793753 
L 587.4043 115.793753 
L 588.66722 115.356481 
L 589.29868 114.7443 
L 589.93014 114.438209 
L 591.193059 114.044664 
L 593.718899 113.082665 
L 594.350358 112.951484 
L 594.981818 112.557939 
L 595.613278 112.426757 
L 596.244738 112.033212 
L 599.402037 111.11494 
L 600.033497 110.721395 
L 600.664957 110.546486 
L 601.296416 110.02176 
L 603.190796 109.671942 
L 604.453716 108.972306 
L 605.085175 108.27267 
L 606.348095 108.010307 
L 610.768314 107.004581 
L 611.399774 106.829672 
L 612.662693 106.785945 
L 613.294153 106.479854 
L 615.819992 106.042582 
L 616.451452 105.736491 
L 618.345832 105.474128 
L 620.871671 104.687038 
L 622.766051 104.249766 
L 624.66043 103.768766 
L 627.186269 102.981676 
L 627.817729 102.850495 
L 628.449189 102.544404 
L 629.080649 102.45695 
L 629.712109 102.238313 
L 630.343568 101.888496 
L 632.237948 101.232587 
L 632.869408 100.751588 
L 634.132327 100.40177 
L 634.763787 100.139407 
L 636.026707 99.789589 
L 638.552546 98.652681 
L 640.446926 98.521499 
L 642.972765 97.734409 
L 643.604225 97.340864 
L 644.867144 96.947319 
L 646.761524 95.98532 
L 647.392984 95.854138 
L 648.024444 95.548048 
L 648.655903 95.460593 
L 655.601962 93.14305 
L 658.127801 92.530869 
L 658.759261 92.35596 
L 660.02218 91.787507 
L 660.65364 91.700052 
L 661.91656 91.350234 
L 662.54802 90.869235 
L 663.179479 90.563144 
L 663.810939 89.819781 
L 664.442399 89.382509 
L 665.705319 88.988964 
L 666.336779 88.464237 
L 673.282837 85.621968 
L 674.545756 85.315877 
L 675.808676 84.747423 
L 677.703055 83.654243 
L 678.334515 83.523061 
L 678.965975 83.042061 
L 680.228895 82.42988 
L 681.491814 81.64279 
L 683.386194 80.768246 
L 684.017654 80.330973 
L 685.280573 79.849974 
L 686.543493 79.106611 
L 687.174953 78.800521 
L 687.806413 78.363248 
L 689.069332 77.925976 
L 689.700792 77.794794 
L 692.226631 76.657887 
L 695.383931 75.564706 
L 696.01539 75.520979 
L 696.64685 75.34607 
L 697.27831 74.952525 
L 697.90977 74.86507 
L 698.54123 74.646434 
L 700.435609 74.296616 
L 703.592908 72.678709 
L 704.855828 71.979073 
L 705.487288 71.891619 
L 707.381667 70.885893 
L 709.276047 70.186257 
L 711.170426 69.35544 
L 713.696266 68.349714 
L 714.327725 68.174805 
L 714.959185 67.78126 
L 716.222105 67.606351 
L 716.853565 67.212806 
L 717.485025 67.169079 
L 718.747944 66.775534 
L 720.010864 66.163352 
L 720.642324 66.075898 
L 721.273783 65.813535 
L 721.905243 65.682353 
L 723.799623 64.851536 
L 724.431083 64.720354 
L 725.062542 64.457991 
L 728.219842 63.714628 
L 730.114221 62.971265 
L 732.008601 61.834357 
L 733.27152 61.30963 
L 733.90298 61.047267 
L 734.53444 60.653722 
L 735.797359 60.391359 
L 736.428819 60.041541 
L 737.060279 59.910359 
L 738.323199 59.210724 
L 742.111958 57.461635 
L 745.900717 56.149818 
L 746.532177 55.8 
L 747.163636 55.8 
L 747.163636 55.8 
" clip-path="url(#pb1944a3814)" style="fill: none; stroke: #1f77b4; stroke-width: 1.5; stroke-linecap: square"/>
   </g>
   <g id="line2d_36">
    <path d="M 139.067823 307.8 
L 140.962203 307.712546 
L 142.856582 307.668818 
L 146.645341 307.581364 
L 149.802641 307.450182 
L 152.32848 307.450182 
L 152.95994 307.275273 
L 155.485779 307.187819 
L 157.380158 306.969183 
L 159.274538 306.794274 
L 163.063297 306.619365 
L 163.694757 306.619365 
L 164.326217 306.488183 
L 166.852056 306.400729 
L 168.114975 306.313274 
L 173.166654 306.22582 
L 176.323953 306.094638 
L 183.901471 306.007184 
L 187.05877 305.876002 
L 190.847529 305.788548 
L 193.373369 305.701093 
L 199.056507 305.613639 
L 200.950886 305.569912 
L 202.845266 305.526184 
L 204.739645 305.307548 
L 208.528404 305.263821 
L 209.791324 305.176366 
L 214.211543 305.088912 
L 221.157601 304.695367 
L 225.57782 304.607913 
L 226.840739 304.520458 
L 228.735119 304.433004 
L 232.523878 304.258095 
L 235.049717 304.214368 
L 236.944097 304.039459 
L 247.047454 303.427277 
L 249.573293 303.339823 
L 253.993512 303.121187 
L 255.887891 303.033732 
L 262.20249 302.683915 
L 269.148548 302.59646 
L 271.674387 302.334097 
L 272.937307 302.246642 
L 281.146284 301.590734 
L 284.935043 301.109735 
L 287.460883 301.02228 
L 292.512561 300.366372 
L 295.66986 300.278917 
L 303.878838 299.623009 
L 307.036137 299.273191 
L 309.561977 299.185737 
L 310.824896 299.098282 
L 313.350736 299.010828 
L 314.613655 298.923373 
L 317.770954 298.617283 
L 318.402414 298.442374 
L 322.191173 298.267465 
L 325.348472 298.18001 
L 333.55745 297.699011 
L 335.451829 297.611556 
L 343.660807 297.130557 
L 348.081026 297.043103 
L 348.712486 296.911921 
L 353.764164 296.824466 
L 358.184383 296.60583 
L 365.130441 296.518376 
L 369.55066 296.29974 
L 374.602339 296.212285 
L 379.654017 295.949922 
L 384.074236 295.862467 
L 396.071973 295.119105 
L 401.123651 295.03165 
L 417.541607 293.982197 
L 421.330366 293.894742 
L 423.224745 293.851015 
L 425.119125 293.807288 
L 427.013504 293.632379 
L 432.065183 293.544925 
L 433.328103 293.326288 
L 434.591022 293.238834 
L 437.748321 293.107652 
L 439.011241 293.020198 
L 440.274161 292.932743 
L 445.957299 292.845289 
L 447.220219 292.714107 
L 449.746058 292.67038 
L 450.377518 292.539198 
L 451.640438 292.451744 
L 452.271897 292.320562 
L 454.166277 292.233108 
L 464.901094 291.577199 
L 466.795473 291.489745 
L 469.952773 291.358563 
L 478.79321 291.271109 
L 483.213429 291.052473 
L 488.265108 290.965018 
L 490.790947 290.877564 
L 493.316786 290.833837 
L 494.579706 290.702655 
L 497.105545 290.6152 
L 503.420143 290.265383 
L 507.208902 290.221655 
L 509.103282 290.046746 
L 510.997661 290.003019 
L 515.41788 289.915565 
L 517.943719 289.82811 
L 525.521237 289.740656 
L 528.678536 289.609474 
L 532.467295 289.52202 
L 534.361675 289.303384 
L 538.150434 289.259656 
L 540.044813 289.084748 
L 542.570653 288.997293 
L 550.148171 288.909839 
L 553.30547 288.778657 
L 564.040287 288.73493 
L 565.303206 288.647475 
L 567.197586 288.603748 
L 575.406564 288.516294 
L 576.669483 288.428839 
L 583.615541 288.341385 
L 586.141381 288.25393 
L 593.718899 288.210203 
L 594.981818 288.122749 
L 604.453716 288.079021 
L 606.348095 287.904112 
L 617.082912 287.816658 
L 618.977292 287.772931 
L 635.395247 287.685476 
L 637.289627 287.641749 
L 649.287363 287.554295 
L 651.813203 287.46684 
L 656.233421 287.379386 
L 661.2851 287.117022 
L 663.810939 287.029568 
L 666.336779 286.942113 
L 670.125538 286.854659 
L 672.019917 286.810932 
L 674.545756 286.723477 
L 676.440136 286.67975 
L 679.597435 286.592296 
L 680.860355 286.504841 
L 684.649114 286.417387 
L 687.806413 286.286205 
L 689.069332 286.242478 
L 690.963712 286.067569 
L 694.752471 285.980115 
L 697.27831 285.89266 
L 703.592908 285.805206 
L 706.750207 285.674024 
L 713.064806 285.586569 
L 717.485025 285.367933 
L 723.168163 285.280479 
L 724.431083 285.193024 
L 732.008601 285.10557 
L 733.90298 285.061843 
L 740.849038 284.974388 
L 743.374877 284.712025 
L 745.269257 284.668298 
L 747.163636 284.668298 
L 747.163636 284.668298 
" clip-path="url(#pb1944a3814)" style="fill: none; stroke: #ff7f0e; stroke-width: 1.5; stroke-linecap: square"/>
   </g>
   <g id="patch_3">
    <path d="M 108 320.4 
L 108 43.2 
" style="fill: none; stroke: #a9a9a9; stroke-width: 0.8; stroke-linejoin: miter; stroke-linecap: square"/>
   </g>
   <g id="patch_4">
    <path d="M 777.6 320.4 
L 777.6 43.2 
" style="fill: none"/>
   </g>
   <g id="patch_5">
    <path d="M 108 320.4 
L 777.6 320.4 
" style="fill: none; stroke: #a9a9a9; stroke-width: 0.8; stroke-linejoin: miter; stroke-linecap: square"/>
   </g>
   <g id="patch_6">
    <path d="M 108 43.2 
L 777.6 43.2 
" style="fill: none"/>
   </g>
   <g id="text_18">
    <!-- get_subscribe history -->
    <g style="fill: #a9a9a9" transform="translate(378.6075 37.2) scale(0.12 -0.12)">
     <defs>
      <path id="DejaVuSans-67" d="M 2906 1791 
Q 2906 2416 2648 2759 
Q 2391 3103 1925 3103 
Q 1463 3103 1205 2759 
Q 947 2416 947 1791 
Q 947 1169 1205 825 
Q 1463 481 1925 481 
Q 2391 481 2648 825 
Q 2906 1169 2906 1791 
z
M 3481 434 
Q 3481 -459 3084 -895 
Q 2688 -1331 1869 -1331 
Q 1566 -1331 1297 -1286 
Q 1028 -1241 775 -1147 
L 775 -588 
Q 1028 -725 1275 -790 
Q 1522 -856 1778 -856 
Q 2344 -856 2625 -561 
Q 2906 -266 2906 331 
L 2906 616 
Q 2728 306 2450 153 
Q 2172 0 1784 0 
Q 1141 0 747 490 
Q 353 981 353 1791 
Q 353 2603 747 3093 
Q 1141 3584 1784 3584 
Q 2172 3584 2450 3431 
Q 2728 3278 2906 2969 
L 2906 3500 
L 3481 3500 
L 3481 434 
z
" transform="scale(0.015625)"/>
      <path id="DejaVuSans-65" d="M 3597 1894 
L 3597 1613 
L 953 1613 
Q 991 1019 1311 708 
Q 1631 397 2203 397 
Q 2534 397 2845 478 
Q 3156 559 3463 722 
L 3463 178 
Q 3153 47 2828 -22 
Q 2503 -91 2169 -91 
Q 1331 -91 842 396 
Q 353 884 353 1716 
Q 353 2575 817 3079 
Q 1281 3584 2069 3584 
Q 2775 3584 3186 3129 
Q 3597 2675 3597 1894 
z
M 3022 2063 
Q 3016 2534 2758 2815 
Q 2500 3097 2075 3097 
Q 1594 3097 1305 2825 
Q 1016 2553 972 2059 
L 3022 2063 
z
" transform="scale(0.015625)"/>
      <path id="DejaVuSans-74" d="M 1172 4494 
L 1172 3500 
L 2356 3500 
L 2356 3053 
L 1172 3053 
L 1172 1153 
Q 1172 725 1289 603 
Q 1406 481 1766 481 
L 2356 481 
L 2356 0 
L 1766 0 
Q 1100 0 847 248 
Q 594 497 594 1153 
L 594 3053 
L 172 3053 
L 172 3500 
L 594 3500 
L 594 4494 
L 1172 4494 
z
" transform="scale(0.015625)"/>
      <path id="DejaVuSans-5f" d="M 3263 -1063 
L 3263 -1509 
L -63 -1509 
L -63 -1063 
L 3263 -1063 
z
" transform="scale(0.015625)"/>
      <path id="DejaVuSans-73" d="M 2834 3397 
L 2834 2853 
Q 2591 2978 2328 3040 
Q 2066 3103 1784 3103 
Q 1356 3103 1142 2972 
Q 928 2841 928 2578 
Q 928 2378 1081 2264 
Q 1234 2150 1697 2047 
L 1894 2003 
Q 2506 1872 2764 1633 
Q 3022 1394 3022 966 
Q 3022 478 2636 193 
Q 2250 -91 1575 -91 
Q 1294 -91 989 -36 
Q 684 19 347 128 
L 347 722 
Q 666 556 975 473 
Q 1284 391 1588 391 
Q 1994 391 2212 530 
Q 2431 669 2431 922 
Q 2431 1156 2273 1281 
Q 2116 1406 1581 1522 
L 1381 1569 
Q 847 1681 609 1914 
Q 372 2147 372 2553 
Q 372 3047 722 3315 
Q 1072 3584 1716 3584 
Q 2034 3584 2315 3537 
Q 2597 3491 2834 3397 
z
" transform="scale(0.015625)"/>
      <path id="DejaVuSans-75" d="M 544 1381 
L 544 3500 
L 1119 3500 
L 1119 1403 
Q 1119 906 1312 657 
Q 1506 409 1894 409 
Q 2359 409 2629 706 
Q 2900 1003 2900 1516 
L 2900 3500 
L 3475 3500 
L 3475 0 
L 2900 0 
L 2900 538 
Q 2691 219 2414 64 
Q 2138 -91 1772 -91 
Q 1169 -91 856 284 
Q 544 659 544 1381 
z
M 1991 3584 
L 1991 3584 
z
" transform="scale(0.015625)"/>
      <path id="DejaVuSans-62" d="M 3116 1747 
Q 3116 2381 2855 2742 
Q 2594 3103 2138 3103 
Q 1681 3103 1420 2742 
Q 1159 2381 1159 1747 
Q 1159 1113 1420 752 
Q 1681 391 2138 391 
Q 2594 391 2855 752 
Q 3116 1113 3116 1747 
z
M 1159 2969 
Q 1341 3281 1617 3432 
Q 1894 3584 2278 3584 
Q 2916 3584 3314 3078 
Q 3713 2572 3713 1747 
Q 3713 922 3314 415 
Q 2916 -91 2278 -91 
Q 1894 -91 1617 61 
Q 1341 213 1159 525 
L 1159 0 
L 581 0 
L 581 4863 
L 1159 4863 
L 1159 2969 
z
" transform="scale(0.015625)"/>
      <path id="DejaVuSans-63" d="M 3122 3366 
L 3122 2828 
Q 2878 2963 2633 3030 
Q 2388 3097 2138 3097 
Q 1578 3097 1268 2742 
Q 959 2388 959 1747 
Q 959 1106 1268 751 
Q 1578 397 2138 397 
Q 2388 397 2633 464 
Q 2878 531 3122 666 
L 3122 134 
Q 2881 22 2623 -34 
Q 2366 -91 2075 -91 
Q 1284 -91 818 406 
Q 353 903 353 1747 
Q 353 2603 823 3093 
Q 1294 3584 2113 3584 
Q 2378 3584 2631 3529 
Q 2884 3475 3122 3366 
z
" transform="scale(0.015625)"/>
      <path id="DejaVuSans-72" d="M 2631 2963 
Q 2534 3019 2420 3045 
Q 2306 3072 2169 3072 
Q 1681 3072 1420 2755 
Q 1159 2438 1159 1844 
L 1159 0 
L 581 0 
L 581 3500 
L 1159 3500 
L 1159 2956 
Q 1341 3275 1631 3429 
Q 1922 3584 2338 3584 
Q 2397 3584 2469 3576 
Q 2541 3569 2628 3553 
L 2631 2963 
z
" transform="scale(0.015625)"/>
      <path id="DejaVuSans-69" d="M 603 3500 
L 1178 3500 
L 1178 0 
L 603 0 
L 603 3500 
z
M 603 4863 
L 1178 4863 
L 1178 4134 
L 603 4134 
L 603 4863 
z
" transform="scale(0.015625)"/>
      <path id="DejaVuSans-20" transform="scale(0.015625)"/>
      <path id="DejaVuSans-68" d="M 3513 2113 
L 3513 0 
L 2938 0 
L 2938 2094 
Q 2938 2591 2744 2837 
Q 2550 3084 2163 3084 
Q 1697 3084 1428 2787 
Q 1159 2491 1159 1978 
L 1159 0 
L 581 0 
L 581 4863 
L 1159 4863 
L 1159 2956 
Q 1366 3272 1645 3428 
Q 1925 3584 2291 3584 
Q 2894 3584 3203 3211 
Q 3513 2838 3513 2113 
z
" transform="scale(0.015625)"/>
      <path id="DejaVuSans-6f" d="M 1959 3097 
Q 1497 3097 1228 2736 
Q 959 2375 959 1747 
Q 959 1119 1226 758 
Q 1494 397 1959 397 
Q 2419 397 2687 759 
Q 2956 1122 2956 1747 
Q 2956 2369 2687 2733 
Q 2419 3097 1959 3097 
z
M 1959 3584 
Q 2709 3584 3137 3096 
Q 3566 2609 3566 1747 
Q 3566 888 3137 398 
Q 2709 -91 1959 -91 
Q 1206 -91 779 398 
Q 353 888 353 1747 
Q 353 2609 779 3096 
Q 1206 3584 1959 3584 
z
" transform="scale(0.015625)"/>
      <path id="DejaVuSans-79" d="M 2059 -325 
Q 1816 -950 1584 -1140 
Q 1353 -1331 966 -1331 
L 506 -1331 
L 506 -850 
L 844 -850 
Q 1081 -850 1212 -737 
Q 1344 -625 1503 -206 
L 1606 56 
L 191 3500 
L 800 3500 
L 1894 763 
L 2988 3500 
L 3597 3500 
L 2059 -325 
z
" transform="scale(0.015625)"/>
     </defs>
     <use xlink:href="#DejaVuSans-67"/>
     <use xlink:href="#DejaVuSans-65" x="63.476562"/>
     <use xlink:href="#DejaVuSans-74" x="125"/>
     <use xlink:href="#DejaVuSans-5f" x="164.208984"/>
     <use xlink:href="#DejaVuSans-73" x="214.208984"/>
     <use xlink:href="#DejaVuSans-75" x="266.308594"/>
     <use xlink:href="#DejaVuSans-62" x="329.6875"/>
     <use xlink:href="#DejaVuSans-73" x="393.164062"/>
     <use xlink:href="#DejaVuSans-63" x="445.263672"/>
     <use xlink:href="#DejaVuSans-72" x="500.244141"/>
     <use xlink:href="#DejaVuSans-69" x="541.357422"/>
     <use xlink:href="#DejaVuSans-62" x="569.140625"/>
     <use xlink:href="#DejaVuSans-65" x="632.617188"/>
     <use xlink:href="#DejaVuSans-20" x="694.140625"/>
     <use xlink:href="#DejaVuSans-68" x="725.927734"/>
     <use xlink:href="#DejaVuSans-69" x="789.306641"/>
     <use xlink:href="#DejaVuSans-73" x="817.089844"/>
     <use xlink:href="#DejaVuSans-74" x="869.189453"/>
     <use xlink:href="#DejaVuSans-6f" x="908.398438"/>
     <use xlink:href="#DejaVuSans-72" x="969.580078"/>
     <use xlink:href="#DejaVuSans-79" x="1010.693359"/>
    </g>
   </g>
   <g id="legend_1">
    <g id="line2d_37">
     <path d="M 815.08 328.498438 
L 825.08 328.498438 
L 835.08 328.498438 
" style="fill: none; stroke: #1f77b4; stroke-width: 1.5; stroke-linecap: square"/>
    </g>
    <g id="text_19">
     <!-- star -->
     <g style="fill: #a9a9a9" transform="translate(843.08 331.998438) scale(0.1 -0.1)">
      <defs>
       <path id="DejaVuSans-61" d="M 2194 1759 
Q 1497 1759 1228 1600 
Q 959 1441 959 1056 
Q 959 750 1161 570 
Q 1363 391 1709 391 
Q 2188 391 2477 730 
Q 2766 1069 2766 1631 
L 2766 1759 
L 2194 1759 
z
M 3341 1997 
L 3341 0 
L 2766 0 
L 2766 531 
Q 2569 213 2275 61 
Q 1981 -91 1556 -91 
Q 1019 -91 701 211 
Q 384 513 384 1019 
Q 384 1609 779 1909 
Q 1175 2209 1959 2209 
L 2766 2209 
L 2766 2266 
Q 2766 2663 2505 2880 
Q 2244 3097 1772 3097 
Q 1472 3097 1187 3025 
Q 903 2953 641 2809 
L 641 3341 
Q 956 3463 1253 3523 
Q 1550 3584 1831 3584 
Q 2591 3584 2966 3190 
Q 3341 2797 3341 1997 
z
" transform="scale(0.015625)"/>
      </defs>
      <use xlink:href="#DejaVuSans-73"/>
      <use xlink:href="#DejaVuSans-74" x="52.099609"/>
      <use xlink:href="#DejaVuSans-61" x="91.308594"/>
      <use xlink:href="#DejaVuSans-72" x="152.587891"/>
     </g>
    </g>
    <g id="line2d_38">
     <path d="M 815.08 343.176562 
L 825.08 343.176562 
L 835.08 343.176562 
" style="fill: none; stroke: #ff7f0e; stroke-width: 1.5; stroke-linecap: square"/>
    </g>
    <g id="text_20">
     <!-- fork -->
     <g style="fill: #a9a9a9" transform="translate(843.08 346.676562) scale(0.1 -0.1)">
      <defs>
       <path id="DejaVuSans-66" d="M 2375 4863 
L 2375 4384 
L 1825 4384 
Q 1516 4384 1395 4259 
Q 1275 4134 1275 3809 
L 1275 3500 
L 2222 3500 
L 2222 3053 
L 1275 3053 
L 1275 0 
L 697 0 
L 697 3053 
L 147 3053 
L 147 3500 
L 697 3500 
L 697 3744 
Q 697 4328 969 4595 
Q 1241 4863 1831 4863 
L 2375 4863 
z
" transform="scale(0.015625)"/>
       <path id="DejaVuSans-6b" d="M 581 4863 
L 1159 4863 
L 1159 1991 
L 2875 3500 
L 3609 3500 
L 1753 1863 
L 3688 0 
L 2938 0 
L 1159 1709 
L 1159 0 
L 581 0 
L 581 4863 
z
" transform="scale(0.015625)"/>
      </defs>
      <use xlink:href="#DejaVuSans-66"/>
      <use xlink:href="#DejaVuSans-6f" x="35.205078"/>
      <use xlink:href="#DejaVuSans-72" x="96.386719"/>
      <use xlink:href="#DejaVuSans-6b" x="137.5"/>
     </g>
    </g>
   </g>
  </g>
 </g>
 <defs>
  <clipPath id="pb1944a3814">
   <rect x="108" y="43.2" width="669.6" height="277.2"/>
  </clipPath>
 </defs>
</svg>
