<?xml version="1.0" encoding="utf-8" standalone="no"?>
<!DOCTYPE svg PUBLIC "-//W3C//DTD SVG 1.1//EN"
  "http://www.w3.org/Graphics/SVG/1.1/DTD/svg11.dtd">
<svg xmlns:xlink="http://www.w3.org/1999/xlink" width="864pt" height="360pt" viewBox="0 0 864 360" xmlns="http://www.w3.org/2000/svg" version="1.1">
 <metadata>
  <rdf:RDF xmlns:dc="http://purl.org/dc/elements/1.1/" xmlns:cc="http://creativecommons.org/ns#" xmlns:rdf="http://www.w3.org/1999/02/22-rdf-syntax-ns#">
   <cc:Work>
    <dc:type rdf:resource="http://purl.org/dc/dcmitype/StillImage"/>
    <dc:date>2024-03-15T20:04:30.365601</dc:date>
    <dc:format>image/svg+xml</dc:format>
    <dc:creator>
     <cc:Agent>
      <dc:title>Matplotlib v3.8.3, https://matplotlib.org/</dc:title>
     </cc:Agent>
    </dc:creator>
   </cc:Work>
  </rdf:RDF>
 </metadata>
 <defs>
  <style type="text/css">*{stroke-linejoin: round; stroke-linecap: butt}</style>
 </defs>
 <g id="figure_1">
  <g id="patch_1">
   <path d="M 0 360 
L 864 360 
L 864 0 
L 0 0 
L 0 360 
z
" style="fill: none; opacity: 0"/>
  </g>
  <g id="axes_1">
   <g id="patch_2">
    <path d="M 108 320.4 
L 777.6 320.4 
L 777.6 43.2 
L 108 43.2 
L 108 320.4 
z
" style="fill: none; opacity: 0"/>
   </g>
   <g id="matplotlib.axis_1">
    <g id="xtick_1">
     <g id="line2d_1">
      <path d="M 163.037777 320.4 
L 163.037777 43.2 
" clip-path="url(#pc10113b2d6)" style="fill: none; stroke-dasharray: 5.12,1.28,0.8,1.28; stroke-dashoffset: 0; stroke: #b0b0b0; stroke-width: 0.8"/>
     </g>
     <g id="line2d_2">
      <defs>
       <path id="m7264e068f5" d="M 0 0 
L 0 3.5 
" style="stroke: #a9a9a9; stroke-width: 0.8"/>
      </defs>
      <g>
       <use xlink:href="#m7264e068f5" x="163.037777" y="320.4" style="fill: #a9a9a9; stroke: #a9a9a9; stroke-width: 0.8"/>
      </g>
     </g>
     <g id="text_1">
      <!-- 2021-09 -->
      <g style="fill: #a9a9a9" transform="translate(142.14637 334.998438) scale(0.1 -0.1)">
       <defs>
        <path id="DejaVuSans-32" d="M 1228 531 
L 3431 531 
L 3431 0 
L 469 0 
L 469 531 
Q 828 903 1448 1529 
Q 2069 2156 2228 2338 
Q 2531 2678 2651 2914 
Q 2772 3150 2772 3378 
Q 2772 3750 2511 3984 
Q 2250 4219 1831 4219 
Q 1534 4219 1204 4116 
Q 875 4013 500 3803 
L 500 4441 
Q 881 4594 1212 4672 
Q 1544 4750 1819 4750 
Q 2544 4750 2975 4387 
Q 3406 4025 3406 3419 
Q 3406 3131 3298 2873 
Q 3191 2616 2906 2266 
Q 2828 2175 2409 1742 
Q 1991 1309 1228 531 
z
" transform="scale(0.015625)"/>
        <path id="DejaVuSans-30" d="M 2034 4250 
Q 1547 4250 1301 3770 
Q 1056 3291 1056 2328 
Q 1056 1369 1301 889 
Q 1547 409 2034 409 
Q 2525 409 2770 889 
Q 3016 1369 3016 2328 
Q 3016 3291 2770 3770 
Q 2525 4250 2034 4250 
z
M 2034 4750 
Q 2819 4750 3233 4129 
Q 3647 3509 3647 2328 
Q 3647 1150 3233 529 
Q 2819 -91 2034 -91 
Q 1250 -91 836 529 
Q 422 1150 422 2328 
Q 422 3509 836 4129 
Q 1250 4750 2034 4750 
z
" transform="scale(0.015625)"/>
        <path id="DejaVuSans-31" d="M 794 531 
L 1825 531 
L 1825 4091 
L 703 3866 
L 703 4441 
L 1819 4666 
L 2450 4666 
L 2450 531 
L 3481 531 
L 3481 0 
L 794 0 
L 794 531 
z
" transform="scale(0.015625)"/>
        <path id="DejaVuSans-2d" d="M 313 2009 
L 1997 2009 
L 1997 1497 
L 313 1497 
L 313 2009 
z
" transform="scale(0.015625)"/>
        <path id="DejaVuSans-39" d="M 703 97 
L 703 672 
Q 941 559 1184 500 
Q 1428 441 1663 441 
Q 2288 441 2617 861 
Q 2947 1281 2994 2138 
Q 2813 1869 2534 1725 
Q 2256 1581 1919 1581 
Q 1219 1581 811 2004 
Q 403 2428 403 3163 
Q 403 3881 828 4315 
Q 1253 4750 1959 4750 
Q 2769 4750 3195 4129 
Q 3622 3509 3622 2328 
Q 3622 1225 3098 567 
Q 2575 -91 1691 -91 
Q 1453 -91 1209 -44 
Q 966 3 703 97 
z
M 1959 2075 
Q 2384 2075 2632 2365 
Q 2881 2656 2881 3163 
Q 2881 3666 2632 3958 
Q 2384 4250 1959 4250 
Q 1534 4250 1286 3958 
Q 1038 3666 1038 3163 
Q 1038 2656 1286 2365 
Q 1534 2075 1959 2075 
z
" transform="scale(0.015625)"/>
       </defs>
       <use xlink:href="#DejaVuSans-32"/>
       <use xlink:href="#DejaVuSans-30" x="63.623047"/>
       <use xlink:href="#DejaVuSans-32" x="127.246094"/>
       <use xlink:href="#DejaVuSans-31" x="190.869141"/>
       <use xlink:href="#DejaVuSans-2d" x="254.492188"/>
       <use xlink:href="#DejaVuSans-30" x="290.576172"/>
       <use xlink:href="#DejaVuSans-39" x="354.199219"/>
      </g>
     </g>
    </g>
    <g id="xtick_2">
     <g id="line2d_3">
      <path d="M 239.996043 320.4 
L 239.996043 43.2 
" clip-path="url(#pc10113b2d6)" style="fill: none; stroke-dasharray: 5.12,1.28,0.8,1.28; stroke-dashoffset: 0; stroke: #b0b0b0; stroke-width: 0.8"/>
     </g>
     <g id="line2d_4">
      <g>
       <use xlink:href="#m7264e068f5" x="239.996043" y="320.4" style="fill: #a9a9a9; stroke: #a9a9a9; stroke-width: 0.8"/>
      </g>
     </g>
     <g id="text_2">
      <!-- 2022-01 -->
      <g style="fill: #a9a9a9" transform="translate(219.104637 334.998438) scale(0.1 -0.1)">
       <use xlink:href="#DejaVuSans-32"/>
       <use xlink:href="#DejaVuSans-30" x="63.623047"/>
       <use xlink:href="#DejaVuSans-32" x="127.246094"/>
       <use xlink:href="#DejaVuSans-32" x="190.869141"/>
       <use xlink:href="#DejaVuSans-2d" x="254.492188"/>
       <use xlink:href="#DejaVuSans-30" x="290.576172"/>
       <use xlink:href="#DejaVuSans-31" x="354.199219"/>
      </g>
     </g>
    </g>
    <g id="xtick_3">
     <g id="line2d_5">
      <path d="M 315.692699 320.4 
L 315.692699 43.2 
" clip-path="url(#pc10113b2d6)" style="fill: none; stroke-dasharray: 5.12,1.28,0.8,1.28; stroke-dashoffset: 0; stroke: #b0b0b0; stroke-width: 0.8"/>
     </g>
     <g id="line2d_6">
      <g>
       <use xlink:href="#m7264e068f5" x="315.692699" y="320.4" style="fill: #a9a9a9; stroke: #a9a9a9; stroke-width: 0.8"/>
      </g>
     </g>
     <g id="text_3">
      <!-- 2022-05 -->
      <g style="fill: #a9a9a9" transform="translate(294.801293 334.998438) scale(0.1 -0.1)">
       <defs>
        <path id="DejaVuSans-35" d="M 691 4666 
L 3169 4666 
L 3169 4134 
L 1269 4134 
L 1269 2991 
Q 1406 3038 1543 3061 
Q 1681 3084 1819 3084 
Q 2600 3084 3056 2656 
Q 3513 2228 3513 1497 
Q 3513 744 3044 326 
Q 2575 -91 1722 -91 
Q 1428 -91 1123 -41 
Q 819 9 494 109 
L 494 744 
Q 775 591 1075 516 
Q 1375 441 1709 441 
Q 2250 441 2565 725 
Q 2881 1009 2881 1497 
Q 2881 1984 2565 2268 
Q 2250 2553 1709 2553 
Q 1456 2553 1204 2497 
Q 953 2441 691 2322 
L 691 4666 
z
" transform="scale(0.015625)"/>
       </defs>
       <use xlink:href="#DejaVuSans-32"/>
       <use xlink:href="#DejaVuSans-30" x="63.623047"/>
       <use xlink:href="#DejaVuSans-32" x="127.246094"/>
       <use xlink:href="#DejaVuSans-32" x="190.869141"/>
       <use xlink:href="#DejaVuSans-2d" x="254.492188"/>
       <use xlink:href="#DejaVuSans-30" x="290.576172"/>
       <use xlink:href="#DejaVuSans-35" x="354.199219"/>
      </g>
     </g>
    </g>
    <g id="xtick_4">
     <g id="line2d_7">
      <path d="M 393.281771 320.4 
L 393.281771 43.2 
" clip-path="url(#pc10113b2d6)" style="fill: none; stroke-dasharray: 5.12,1.28,0.8,1.28; stroke-dashoffset: 0; stroke: #b0b0b0; stroke-width: 0.8"/>
     </g>
     <g id="line2d_8">
      <g>
       <use xlink:href="#m7264e068f5" x="393.281771" y="320.4" style="fill: #a9a9a9; stroke: #a9a9a9; stroke-width: 0.8"/>
      </g>
     </g>
     <g id="text_4">
      <!-- 2022-09 -->
      <g style="fill: #a9a9a9" transform="translate(372.390365 334.998438) scale(0.1 -0.1)">
       <use xlink:href="#DejaVuSans-32"/>
       <use xlink:href="#DejaVuSans-30" x="63.623047"/>
       <use xlink:href="#DejaVuSans-32" x="127.246094"/>
       <use xlink:href="#DejaVuSans-32" x="190.869141"/>
       <use xlink:href="#DejaVuSans-2d" x="254.492188"/>
       <use xlink:href="#DejaVuSans-30" x="290.576172"/>
       <use xlink:href="#DejaVuSans-39" x="354.199219"/>
      </g>
     </g>
    </g>
    <g id="xtick_5">
     <g id="line2d_9">
      <path d="M 470.240038 320.4 
L 470.240038 43.2 
" clip-path="url(#pc10113b2d6)" style="fill: none; stroke-dasharray: 5.12,1.28,0.8,1.28; stroke-dashoffset: 0; stroke: #b0b0b0; stroke-width: 0.8"/>
     </g>
     <g id="line2d_10">
      <g>
       <use xlink:href="#m7264e068f5" x="470.240038" y="320.4" style="fill: #a9a9a9; stroke: #a9a9a9; stroke-width: 0.8"/>
      </g>
     </g>
     <g id="text_5">
      <!-- 2023-01 -->
      <g style="fill: #a9a9a9" transform="translate(449.348631 334.998438) scale(0.1 -0.1)">
       <defs>
        <path id="DejaVuSans-33" d="M 2597 2516 
Q 3050 2419 3304 2112 
Q 3559 1806 3559 1356 
Q 3559 666 3084 287 
Q 2609 -91 1734 -91 
Q 1441 -91 1130 -33 
Q 819 25 488 141 
L 488 750 
Q 750 597 1062 519 
Q 1375 441 1716 441 
Q 2309 441 2620 675 
Q 2931 909 2931 1356 
Q 2931 1769 2642 2001 
Q 2353 2234 1838 2234 
L 1294 2234 
L 1294 2753 
L 1863 2753 
Q 2328 2753 2575 2939 
Q 2822 3125 2822 3475 
Q 2822 3834 2567 4026 
Q 2313 4219 1838 4219 
Q 1578 4219 1281 4162 
Q 984 4106 628 3988 
L 628 4550 
Q 988 4650 1302 4700 
Q 1616 4750 1894 4750 
Q 2613 4750 3031 4423 
Q 3450 4097 3450 3541 
Q 3450 3153 3228 2886 
Q 3006 2619 2597 2516 
z
" transform="scale(0.015625)"/>
       </defs>
       <use xlink:href="#DejaVuSans-32"/>
       <use xlink:href="#DejaVuSans-30" x="63.623047"/>
       <use xlink:href="#DejaVuSans-32" x="127.246094"/>
       <use xlink:href="#DejaVuSans-33" x="190.869141"/>
       <use xlink:href="#DejaVuSans-2d" x="254.492188"/>
       <use xlink:href="#DejaVuSans-30" x="290.576172"/>
       <use xlink:href="#DejaVuSans-31" x="354.199219"/>
      </g>
     </g>
    </g>
    <g id="xtick_6">
     <g id="line2d_11">
      <path d="M 545.936693 320.4 
L 545.936693 43.2 
" clip-path="url(#pc10113b2d6)" style="fill: none; stroke-dasharray: 5.12,1.28,0.8,1.28; stroke-dashoffset: 0; stroke: #b0b0b0; stroke-width: 0.8"/>
     </g>
     <g id="line2d_12">
      <g>
       <use xlink:href="#m7264e068f5" x="545.936693" y="320.4" style="fill: #a9a9a9; stroke: #a9a9a9; stroke-width: 0.8"/>
      </g>
     </g>
     <g id="text_6">
      <!-- 2023-05 -->
      <g style="fill: #a9a9a9" transform="translate(525.045287 334.998438) scale(0.1 -0.1)">
       <use xlink:href="#DejaVuSans-32"/>
       <use xlink:href="#DejaVuSans-30" x="63.623047"/>
       <use xlink:href="#DejaVuSans-32" x="127.246094"/>
       <use xlink:href="#DejaVuSans-33" x="190.869141"/>
       <use xlink:href="#DejaVuSans-2d" x="254.492188"/>
       <use xlink:href="#DejaVuSans-30" x="290.576172"/>
       <use xlink:href="#DejaVuSans-35" x="354.199219"/>
      </g>
     </g>
    </g>
    <g id="xtick_7">
     <g id="line2d_13">
      <path d="M 623.525765 320.4 
L 623.525765 43.2 
" clip-path="url(#pc10113b2d6)" style="fill: none; stroke-dasharray: 5.12,1.28,0.8,1.28; stroke-dashoffset: 0; stroke: #b0b0b0; stroke-width: 0.8"/>
     </g>
     <g id="line2d_14">
      <g>
       <use xlink:href="#m7264e068f5" x="623.525765" y="320.4" style="fill: #a9a9a9; stroke: #a9a9a9; stroke-width: 0.8"/>
      </g>
     </g>
     <g id="text_7">
      <!-- 2023-09 -->
      <g style="fill: #a9a9a9" transform="translate(602.634359 334.998438) scale(0.1 -0.1)">
       <use xlink:href="#DejaVuSans-32"/>
       <use xlink:href="#DejaVuSans-30" x="63.623047"/>
       <use xlink:href="#DejaVuSans-32" x="127.246094"/>
       <use xlink:href="#DejaVuSans-33" x="190.869141"/>
       <use xlink:href="#DejaVuSans-2d" x="254.492188"/>
       <use xlink:href="#DejaVuSans-30" x="290.576172"/>
       <use xlink:href="#DejaVuSans-39" x="354.199219"/>
      </g>
     </g>
    </g>
    <g id="xtick_8">
     <g id="line2d_15">
      <path d="M 700.484032 320.4 
L 700.484032 43.2 
" clip-path="url(#pc10113b2d6)" style="fill: none; stroke-dasharray: 5.12,1.28,0.8,1.28; stroke-dashoffset: 0; stroke: #b0b0b0; stroke-width: 0.8"/>
     </g>
     <g id="line2d_16">
      <g>
       <use xlink:href="#m7264e068f5" x="700.484032" y="320.4" style="fill: #a9a9a9; stroke: #a9a9a9; stroke-width: 0.8"/>
      </g>
     </g>
     <g id="text_8">
      <!-- 2024-01 -->
      <g style="fill: #a9a9a9" transform="translate(679.592626 334.998438) scale(0.1 -0.1)">
       <defs>
        <path id="DejaVuSans-34" d="M 2419 4116 
L 825 1625 
L 2419 1625 
L 2419 4116 
z
M 2253 4666 
L 3047 4666 
L 3047 1625 
L 3713 1625 
L 3713 1100 
L 3047 1100 
L 3047 0 
L 2419 0 
L 2419 1100 
L 313 1100 
L 313 1709 
L 2253 4666 
z
" transform="scale(0.015625)"/>
       </defs>
       <use xlink:href="#DejaVuSans-32"/>
       <use xlink:href="#DejaVuSans-30" x="63.623047"/>
       <use xlink:href="#DejaVuSans-32" x="127.246094"/>
       <use xlink:href="#DejaVuSans-34" x="190.869141"/>
       <use xlink:href="#DejaVuSans-2d" x="254.492188"/>
       <use xlink:href="#DejaVuSans-30" x="290.576172"/>
       <use xlink:href="#DejaVuSans-31" x="354.199219"/>
      </g>
     </g>
    </g>
    <g id="xtick_9">
     <g id="line2d_17">
      <path d="M 776.811493 320.4 
L 776.811493 43.2 
" clip-path="url(#pc10113b2d6)" style="fill: none; stroke-dasharray: 5.12,1.28,0.8,1.28; stroke-dashoffset: 0; stroke: #b0b0b0; stroke-width: 0.8"/>
     </g>
     <g id="line2d_18">
      <g>
       <use xlink:href="#m7264e068f5" x="776.811493" y="320.4" style="fill: #a9a9a9; stroke: #a9a9a9; stroke-width: 0.8"/>
      </g>
     </g>
     <g id="text_9">
      <!-- 2024-05 -->
      <g style="fill: #a9a9a9" transform="translate(755.920087 334.998438) scale(0.1 -0.1)">
       <use xlink:href="#DejaVuSans-32"/>
       <use xlink:href="#DejaVuSans-30" x="63.623047"/>
       <use xlink:href="#DejaVuSans-32" x="127.246094"/>
       <use xlink:href="#DejaVuSans-34" x="190.869141"/>
       <use xlink:href="#DejaVuSans-2d" x="254.492188"/>
       <use xlink:href="#DejaVuSans-30" x="290.576172"/>
       <use xlink:href="#DejaVuSans-35" x="354.199219"/>
      </g>
     </g>
    </g>
   </g>
   <g id="matplotlib.axis_2">
    <g id="ytick_1">
     <g id="line2d_19">
      <path d="M 108 307.843689 
L 777.6 307.843689 
" clip-path="url(#pc10113b2d6)" style="fill: none; stroke-dasharray: 5.12,1.28,0.8,1.28; stroke-dashoffset: 0; stroke: #b0b0b0; stroke-width: 0.8"/>
     </g>
     <g id="line2d_20">
      <defs>
       <path id="m3300a3125f" d="M 0 0 
L -3.5 0 
" style="stroke: #a9a9a9; stroke-width: 0.8"/>
      </defs>
      <g>
       <use xlink:href="#m3300a3125f" x="108" y="307.843689" style="fill: #a9a9a9; stroke: #a9a9a9; stroke-width: 0.8"/>
      </g>
     </g>
     <g id="text_10">
      <!-- 0 -->
      <g style="fill: #a9a9a9" transform="translate(94.6375 311.642908) scale(0.1 -0.1)">
       <use xlink:href="#DejaVuSans-30"/>
      </g>
     </g>
    </g>
    <g id="ytick_2">
     <g id="line2d_21">
      <path d="M 108 272.892233 
L 777.6 272.892233 
" clip-path="url(#pc10113b2d6)" style="fill: none; stroke-dasharray: 5.12,1.28,0.8,1.28; stroke-dashoffset: 0; stroke: #b0b0b0; stroke-width: 0.8"/>
     </g>
     <g id="line2d_22">
      <g>
       <use xlink:href="#m3300a3125f" x="108" y="272.892233" style="fill: #a9a9a9; stroke: #a9a9a9; stroke-width: 0.8"/>
      </g>
     </g>
     <g id="text_11">
      <!-- 800 -->
      <g style="fill: #a9a9a9" transform="translate(81.9125 276.691452) scale(0.1 -0.1)">
       <defs>
        <path id="DejaVuSans-38" d="M 2034 2216 
Q 1584 2216 1326 1975 
Q 1069 1734 1069 1313 
Q 1069 891 1326 650 
Q 1584 409 2034 409 
Q 2484 409 2743 651 
Q 3003 894 3003 1313 
Q 3003 1734 2745 1975 
Q 2488 2216 2034 2216 
z
M 1403 2484 
Q 997 2584 770 2862 
Q 544 3141 544 3541 
Q 544 4100 942 4425 
Q 1341 4750 2034 4750 
Q 2731 4750 3128 4425 
Q 3525 4100 3525 3541 
Q 3525 3141 3298 2862 
Q 3072 2584 2669 2484 
Q 3125 2378 3379 2068 
Q 3634 1759 3634 1313 
Q 3634 634 3220 271 
Q 2806 -91 2034 -91 
Q 1263 -91 848 271 
Q 434 634 434 1313 
Q 434 1759 690 2068 
Q 947 2378 1403 2484 
z
M 1172 3481 
Q 1172 3119 1398 2916 
Q 1625 2713 2034 2713 
Q 2441 2713 2670 2916 
Q 2900 3119 2900 3481 
Q 2900 3844 2670 4047 
Q 2441 4250 2034 4250 
Q 1625 4250 1398 4047 
Q 1172 3844 1172 3481 
z
" transform="scale(0.015625)"/>
       </defs>
       <use xlink:href="#DejaVuSans-38"/>
       <use xlink:href="#DejaVuSans-30" x="63.623047"/>
       <use xlink:href="#DejaVuSans-30" x="127.246094"/>
      </g>
     </g>
    </g>
    <g id="ytick_3">
     <g id="line2d_23">
      <path d="M 108 237.940777 
L 777.6 237.940777 
" clip-path="url(#pc10113b2d6)" style="fill: none; stroke-dasharray: 5.12,1.28,0.8,1.28; stroke-dashoffset: 0; stroke: #b0b0b0; stroke-width: 0.8"/>
     </g>
     <g id="line2d_24">
      <g>
       <use xlink:href="#m3300a3125f" x="108" y="237.940777" style="fill: #a9a9a9; stroke: #a9a9a9; stroke-width: 0.8"/>
      </g>
     </g>
     <g id="text_12">
      <!-- 1600 -->
      <g style="fill: #a9a9a9" transform="translate(75.55 241.739995) scale(0.1 -0.1)">
       <defs>
        <path id="DejaVuSans-36" d="M 2113 2584 
Q 1688 2584 1439 2293 
Q 1191 2003 1191 1497 
Q 1191 994 1439 701 
Q 1688 409 2113 409 
Q 2538 409 2786 701 
Q 3034 994 3034 1497 
Q 3034 2003 2786 2293 
Q 2538 2584 2113 2584 
z
M 3366 4563 
L 3366 3988 
Q 3128 4100 2886 4159 
Q 2644 4219 2406 4219 
Q 1781 4219 1451 3797 
Q 1122 3375 1075 2522 
Q 1259 2794 1537 2939 
Q 1816 3084 2150 3084 
Q 2853 3084 3261 2657 
Q 3669 2231 3669 1497 
Q 3669 778 3244 343 
Q 2819 -91 2113 -91 
Q 1303 -91 875 529 
Q 447 1150 447 2328 
Q 447 3434 972 4092 
Q 1497 4750 2381 4750 
Q 2619 4750 2861 4703 
Q 3103 4656 3366 4563 
z
" transform="scale(0.015625)"/>
       </defs>
       <use xlink:href="#DejaVuSans-31"/>
       <use xlink:href="#DejaVuSans-36" x="63.623047"/>
       <use xlink:href="#DejaVuSans-30" x="127.246094"/>
       <use xlink:href="#DejaVuSans-30" x="190.869141"/>
      </g>
     </g>
    </g>
    <g id="ytick_4">
     <g id="line2d_25">
      <path d="M 108 202.98932 
L 777.6 202.98932 
" clip-path="url(#pc10113b2d6)" style="fill: none; stroke-dasharray: 5.12,1.28,0.8,1.28; stroke-dashoffset: 0; stroke: #b0b0b0; stroke-width: 0.8"/>
     </g>
     <g id="line2d_26">
      <g>
       <use xlink:href="#m3300a3125f" x="108" y="202.98932" style="fill: #a9a9a9; stroke: #a9a9a9; stroke-width: 0.8"/>
      </g>
     </g>
     <g id="text_13">
      <!-- 2400 -->
      <g style="fill: #a9a9a9" transform="translate(75.55 206.788539) scale(0.1 -0.1)">
       <use xlink:href="#DejaVuSans-32"/>
       <use xlink:href="#DejaVuSans-34" x="63.623047"/>
       <use xlink:href="#DejaVuSans-30" x="127.246094"/>
       <use xlink:href="#DejaVuSans-30" x="190.869141"/>
      </g>
     </g>
    </g>
    <g id="ytick_5">
     <g id="line2d_27">
      <path d="M 108 168.037864 
L 777.6 168.037864 
" clip-path="url(#pc10113b2d6)" style="fill: none; stroke-dasharray: 5.12,1.28,0.8,1.28; stroke-dashoffset: 0; stroke: #b0b0b0; stroke-width: 0.8"/>
     </g>
     <g id="line2d_28">
      <g>
       <use xlink:href="#m3300a3125f" x="108" y="168.037864" style="fill: #a9a9a9; stroke: #a9a9a9; stroke-width: 0.8"/>
      </g>
     </g>
     <g id="text_14">
      <!-- 3200 -->
      <g style="fill: #a9a9a9" transform="translate(75.55 171.837083) scale(0.1 -0.1)">
       <use xlink:href="#DejaVuSans-33"/>
       <use xlink:href="#DejaVuSans-32" x="63.623047"/>
       <use xlink:href="#DejaVuSans-30" x="127.246094"/>
       <use xlink:href="#DejaVuSans-30" x="190.869141"/>
      </g>
     </g>
    </g>
    <g id="ytick_6">
     <g id="line2d_29">
      <path d="M 108 133.086408 
L 777.6 133.086408 
" clip-path="url(#pc10113b2d6)" style="fill: none; stroke-dasharray: 5.12,1.28,0.8,1.28; stroke-dashoffset: 0; stroke: #b0b0b0; stroke-width: 0.8"/>
     </g>
     <g id="line2d_30">
      <g>
       <use xlink:href="#m3300a3125f" x="108" y="133.086408" style="fill: #a9a9a9; stroke: #a9a9a9; stroke-width: 0.8"/>
      </g>
     </g>
     <g id="text_15">
      <!-- 4000 -->
      <g style="fill: #a9a9a9" transform="translate(75.55 136.885627) scale(0.1 -0.1)">
       <use xlink:href="#DejaVuSans-34"/>
       <use xlink:href="#DejaVuSans-30" x="63.623047"/>
       <use xlink:href="#DejaVuSans-30" x="127.246094"/>
       <use xlink:href="#DejaVuSans-30" x="190.869141"/>
      </g>
     </g>
    </g>
    <g id="ytick_7">
     <g id="line2d_31">
      <path d="M 108 98.134951 
L 777.6 98.134951 
" clip-path="url(#pc10113b2d6)" style="fill: none; stroke-dasharray: 5.12,1.28,0.8,1.28; stroke-dashoffset: 0; stroke: #b0b0b0; stroke-width: 0.8"/>
     </g>
     <g id="line2d_32">
      <g>
       <use xlink:href="#m3300a3125f" x="108" y="98.134951" style="fill: #a9a9a9; stroke: #a9a9a9; stroke-width: 0.8"/>
      </g>
     </g>
     <g id="text_16">
      <!-- 4800 -->
      <g style="fill: #a9a9a9" transform="translate(75.55 101.93417) scale(0.1 -0.1)">
       <use xlink:href="#DejaVuSans-34"/>
       <use xlink:href="#DejaVuSans-38" x="63.623047"/>
       <use xlink:href="#DejaVuSans-30" x="127.246094"/>
       <use xlink:href="#DejaVuSans-30" x="190.869141"/>
      </g>
     </g>
    </g>
    <g id="ytick_8">
     <g id="line2d_33">
      <path d="M 108 63.183495 
L 777.6 63.183495 
" clip-path="url(#pc10113b2d6)" style="fill: none; stroke-dasharray: 5.12,1.28,0.8,1.28; stroke-dashoffset: 0; stroke: #b0b0b0; stroke-width: 0.8"/>
     </g>
     <g id="line2d_34">
      <g>
       <use xlink:href="#m3300a3125f" x="108" y="63.183495" style="fill: #a9a9a9; stroke: #a9a9a9; stroke-width: 0.8"/>
      </g>
     </g>
     <g id="text_17">
      <!-- 5600 -->
      <g style="fill: #a9a9a9" transform="translate(75.55 66.982714) scale(0.1 -0.1)">
       <use xlink:href="#DejaVuSans-35"/>
       <use xlink:href="#DejaVuSans-36" x="63.623047"/>
       <use xlink:href="#DejaVuSans-30" x="127.246094"/>
       <use xlink:href="#DejaVuSans-30" x="190.869141"/>
      </g>
     </g>
    </g>
   </g>
   <g id="line2d_35">
    <path d="M 138.436364 307.712621 
L 142.221196 307.406796 
L 142.852002 307.14466 
L 144.744418 306.926214 
L 148.529251 306.183495 
L 152.314084 305.87767 
L 152.944889 305.571845 
L 153.575695 305.397087 
L 154.2065 304.61068 
L 154.837306 304.173786 
L 155.468111 302.819417 
L 156.098917 302.732039 
L 156.729722 302.251456 
L 157.991333 301.639806 
L 160.514555 299.717476 
L 161.776166 299.193204 
L 162.406971 298.756311 
L 164.930193 297.664078 
L 165.560999 296.702913 
L 166.82261 295.785437 
L 167.453415 295.479612 
L 173.76147 294.605825 
L 174.392275 294.3 
L 178.807913 293.950485 
L 180.70033 293.469903 
L 186.377579 292.727184 
L 187.008384 292.37767 
L 187.63919 292.290291 
L 188.269995 292.028155 
L 189.531606 291.809709 
L 190.162412 291.766019 
L 190.793217 291.547573 
L 193.316439 291.154369 
L 194.57805 290.804854 
L 196.470466 290.630097 
L 197.732077 290.499029 
L 198.362883 290.324272 
L 198.993688 290.280583 
L 200.886105 289.712621 
L 204.670937 289.14466 
L 205.301743 288.969903 
L 205.932548 288.096117 
L 207.824965 287.397087 
L 209.717381 286.872816 
L 210.348187 286.56699 
L 210.978992 286.523301 
L 214.133019 285.649515 
L 215.39463 285.562136 
L 216.025436 285.474757 
L 217.917852 284.906796 
L 220.441074 284.295146 
L 221.071879 284.03301 
L 221.702685 283.945631 
L 222.33349 283.639806 
L 228.641545 282.678641 
L 231.795572 281.804854 
L 232.426378 281.41165 
L 234.9496 280.756311 
L 236.211211 280.013592 
L 236.842016 279.576699 
L 238.734432 279.227184 
L 242.519265 278.091262 
L 243.780876 277.698058 
L 244.411682 277.61068 
L 245.673293 277.261165 
L 246.934903 276.95534 
L 247.565709 276.867961 
L 248.82732 276.343689 
L 249.458125 276.212621 
L 250.088931 275.950485 
L 250.719736 275.863107 
L 251.350542 275.557282 
L 251.981347 275.382524 
L 253.242958 275.295146 
L 254.504569 274.858252 
L 255.76618 274.770874 
L 256.396985 274.465049 
L 258.920207 274.028155 
L 261.443429 273.809709 
L 262.074235 273.678641 
L 263.335846 273.06699 
L 270.274706 270.139806 
L 270.905511 269.790291 
L 271.536317 269.091262 
L 272.167122 268.042718 
L 272.797927 267.212621 
L 273.428733 267.037864 
L 274.059538 267.037864 
L 275.321149 266.120388 
L 275.951955 265.945631 
L 276.58276 265.596117 
L 277.213566 265.465049 
L 277.844371 264.897087 
L 278.475177 264.72233 
L 280.367593 263.804854 
L 281.629204 262.057282 
L 282.260009 261.664078 
L 282.890815 260.615534 
L 283.52162 259.960194 
L 284.152426 259.654369 
L 284.783231 259.479612 
L 287.306453 257.994175 
L 288.568064 256.98932 
L 289.19887 256.596117 
L 289.829675 255.678641 
L 290.46048 254.236893 
L 291.091286 253.319417 
L 291.722091 252.838835 
L 292.352897 252.576699 
L 294.876119 250.392233 
L 296.13773 249.387379 
L 296.768535 248.863107 
L 297.399341 248.03301 
L 298.660951 246.940777 
L 301.184173 245.324272 
L 301.814979 244.756311 
L 302.445784 244.625243 
L 303.07659 244.363107 
L 304.338201 243.664078 
L 306.230617 242.702913 
L 307.492228 241.523301 
L 308.123033 240.780583 
L 309.384644 239.906796 
L 310.01545 239.732039 
L 310.646255 239.426214 
L 311.907866 238.596117 
L 312.538672 238.246602 
L 313.169477 238.159223 
L 314.431088 237.460194 
L 315.061894 237.11068 
L 315.692699 236.45534 
L 316.323504 236.062136 
L 316.95431 235.843689 
L 318.215921 235.100971 
L 318.846726 234.751456 
L 319.477532 234.53301 
L 321.369948 233.309709 
L 323.262365 232.741748 
L 323.89317 232.304854 
L 324.523976 232.173786 
L 325.785586 231.736893 
L 327.678003 230.994175 
L 329.570419 230.295146 
L 330.83203 230.076699 
L 332.093641 228.984466 
L 333.355252 228.372816 
L 334.616863 227.673786 
L 335.247668 227.324272 
L 336.509279 226.974757 
L 337.140085 226.581553 
L 337.77089 226.406796 
L 339.663307 225.227184 
L 342.817334 224.484466 
L 344.70975 223.392233 
L 345.340556 223.304854 
L 345.971361 223.086408 
L 347.232972 222.824272 
L 349.125389 221.426214 
L 351.017805 220.98932 
L 351.64861 220.770874 
L 352.279416 220.290291 
L 356.064249 219.06699 
L 356.695054 219.023301 
L 357.32586 218.848544 
L 358.587471 218.324272 
L 363.003109 216.795146 
L 364.26472 216.620388 
L 364.895525 216.445631 
L 365.526331 216.139806 
L 366.157136 216.008738 
L 368.049553 215.134951 
L 369.941969 214.217476 
L 370.572774 213.780583 
L 371.20358 213.605825 
L 373.095996 212.600971 
L 374.357607 212.295146 
L 375.619218 211.639806 
L 376.880829 211.290291 
L 377.511634 211.202913 
L 378.773245 210.460194 
L 379.404051 210.329126 
L 380.665662 209.804854 
L 381.296467 209.673786 
L 381.927273 209.324272 
L 384.450495 208.931068 
L 385.712106 208.319417 
L 386.342911 207.795146 
L 386.973716 206.702913 
L 388.235327 206.440777 
L 388.866133 206.309709 
L 391.389355 204.999029 
L 392.02016 204.867961 
L 397.066604 202.465049 
L 398.95902 202.071845 
L 399.589826 201.72233 
L 403.374659 200.41165 
L 404.636269 199.625243 
L 405.89788 198.882524 
L 406.528686 198.795146 
L 407.159491 198.576699 
L 407.790297 198.53301 
L 410.944324 197.702913 
L 411.57513 197.22233 
L 412.83674 196.785437 
L 414.729157 196.173786 
L 415.359962 195.780583 
L 415.990768 195.605825 
L 416.621573 195.168932 
L 417.252379 194.906796 
L 417.883184 194.513592 
L 419.144795 194.076699 
L 421.037211 193.465049 
L 421.668017 193.159223 
L 423.560433 191.717476 
L 424.191239 191.586408 
L 425.45285 190.625243 
L 426.083655 190.494175 
L 426.714461 189.53301 
L 427.345266 189.270874 
L 427.976072 188.790291 
L 428.606877 188.702913 
L 429.868488 187.960194 
L 430.499293 187.829126 
L 431.130099 187.56699 
L 431.760904 187.086408 
L 432.39171 186.867961 
L 434.284126 185.600971 
L 436.807348 184.333981 
L 437.438154 184.246602 
L 438.699764 183.678641 
L 439.33057 183.329126 
L 439.961375 182.280583 
L 440.592181 181.712621 
L 441.222986 181.363107 
L 441.853792 181.232039 
L 443.115403 180.445631 
L 443.746208 180.314563 
L 445.007819 179.702913 
L 446.900236 178.916505 
L 448.161846 178.042718 
L 449.423457 176.732039 
L 452.577485 174.460194 
L 453.839096 173.41165 
L 454.469901 173.149515 
L 455.100707 172.450485 
L 455.731512 171.969903 
L 456.993123 171.53301 
L 457.623928 171.008738 
L 458.885539 170.353398 
L 459.516345 170.178641 
L 460.14715 169.741748 
L 460.777956 169.61068 
L 462.670372 168.605825 
L 463.931983 167.863107 
L 470.240038 165.634951 
L 470.870843 165.06699 
L 472.76326 164.367961 
L 474.02487 163.974757 
L 474.655676 163.494175 
L 477.178898 162.183495 
L 477.809703 161.833981 
L 479.071314 159.343689 
L 480.332925 157.858252 
L 481.594536 157.115534 
L 483.486952 156.372816 
L 484.117758 156.285437 
L 484.748563 155.935922 
L 486.64098 155.367961 
L 489.164202 154.232039 
L 489.795007 153.838835 
L 491.056618 153.401942 
L 494.841451 151.217476 
L 495.472256 150.562136 
L 496.103062 150.168932 
L 497.995478 149.338835 
L 498.626284 148.901942 
L 499.887894 148.290291 
L 501.780311 147.285437 
L 502.411116 147.11068 
L 503.041922 146.630097 
L 503.672727 146.367961 
L 504.303533 146.236893 
L 505.565144 145.8 
L 507.45756 145.100971 
L 508.088366 144.664078 
L 509.349976 144.314563 
L 510.611587 143.833981 
L 511.242393 143.353398 
L 512.504004 142.960194 
L 513.134809 142.654369 
L 513.765615 142.479612 
L 515.027226 141.605825 
L 516.288837 141.037864 
L 517.550447 140.076699 
L 518.812058 139.639806 
L 519.442864 139.115534 
L 520.073669 139.028155 
L 521.33528 138.11068 
L 522.596891 137.499029 
L 523.227697 137.236893 
L 523.858502 136.625243 
L 527.643335 135.270874 
L 529.535751 134.440777 
L 531.428168 133.872816 
L 532.689779 133.698058 
L 533.320584 133.435922 
L 533.95139 133.348544 
L 535.213 132.824272 
L 535.843806 132.780583 
L 538.367028 131.863107 
L 540.259444 130.552427 
L 540.89025 130.290291 
L 541.521055 129.897087 
L 543.413472 129.06699 
L 545.305888 127.931068 
L 545.936693 127.537864 
L 547.198304 127.232039 
L 548.459915 126.358252 
L 550.983137 125.571845 
L 551.613943 125.309709 
L 552.875553 125.003883 
L 556.029581 123.999029 
L 557.921997 123.649515 
L 560.445219 122.863107 
L 561.076024 122.600971 
L 561.70683 122.513592 
L 562.337635 122.207767 
L 563.599246 121.945631 
L 564.860857 121.508738 
L 565.491663 121.290291 
L 566.753274 121.159223 
L 568.014885 120.853398 
L 569.907301 120.547573 
L 570.538106 120.329126 
L 571.799717 120.198058 
L 577.476967 118.537864 
L 578.107772 118.319417 
L 578.738577 118.275728 
L 582.52341 117.139806 
L 583.785021 116.702913 
L 584.415827 116.615534 
L 586.308243 115.960194 
L 586.939049 115.960194 
L 588.200659 115.523301 
L 588.831465 114.91165 
L 589.46227 114.605825 
L 590.723881 114.212621 
L 593.247103 113.251456 
L 593.877909 113.120388 
L 594.508714 112.727184 
L 595.13952 112.596117 
L 595.770325 112.246602 
L 598.924352 111.329126 
L 599.555158 110.935922 
L 600.185963 110.804854 
L 600.816769 110.280583 
L 602.709185 109.931068 
L 603.970796 109.232039 
L 604.601602 108.53301 
L 605.863212 108.270874 
L 610.278851 107.266019 
L 610.909656 107.091262 
L 612.171267 107.047573 
L 612.802073 106.741748 
L 615.325294 106.304854 
L 615.9561 105.999029 
L 617.848516 105.736893 
L 620.371738 104.950485 
L 622.264154 104.513592 
L 624.156571 104.03301 
L 626.679793 103.246602 
L 627.310598 103.115534 
L 627.941404 102.809709 
L 628.572209 102.72233 
L 629.203015 102.503883 
L 629.83382 102.154369 
L 631.726236 101.499029 
L 632.357042 101.018447 
L 633.618653 100.668932 
L 634.249458 100.406796 
L 635.511069 100.057282 
L 638.034291 98.921359 
L 639.926707 98.790291 
L 642.449929 98.003883 
L 643.080735 97.61068 
L 644.342346 97.261165 
L 646.234762 96.3 
L 646.865568 96.168932 
L 647.496373 95.863107 
L 648.127179 95.775728 
L 655.066039 93.460194 
L 657.58926 92.848544 
L 658.220066 92.673786 
L 659.481677 92.105825 
L 660.112482 92.018447 
L 661.374093 91.668932 
L 662.004899 91.18835 
L 662.635704 90.882524 
L 663.26651 90.139806 
L 663.897315 89.702913 
L 665.158926 89.309709 
L 665.789732 88.785437 
L 672.728592 85.945631 
L 673.990203 85.639806 
L 675.882619 84.766019 
L 677.14423 84.023301 
L 677.775035 83.892233 
L 678.405841 83.41165 
L 679.667452 82.8 
L 680.929063 82.013592 
L 682.821479 81.139806 
L 683.452285 80.702913 
L 684.713895 80.22233 
L 685.975506 79.479612 
L 686.606312 79.173786 
L 687.237117 78.736893 
L 688.498728 78.3 
L 689.129534 78.168932 
L 691.652756 77.03301 
L 694.806783 75.940777 
L 695.437588 75.897087 
L 696.068394 75.72233 
L 696.699199 75.329126 
L 697.330005 75.241748 
L 697.96081 75.023301 
L 699.853227 74.673786 
L 703.007254 73.057282 
L 704.268865 72.358252 
L 704.89967 72.270874 
L 706.792087 71.266019 
L 708.684503 70.56699 
L 710.576919 69.736893 
L 713.100141 68.732039 
L 713.730947 68.557282 
L 714.361752 68.164078 
L 715.623363 67.98932 
L 716.254169 67.596117 
L 716.884974 67.552427 
L 718.146585 67.159223 
L 719.408196 66.547573 
L 720.039001 66.460194 
L 720.669807 66.198058 
L 721.300612 66.06699 
L 723.193029 65.236893 
L 723.823834 65.105825 
L 724.45464 64.843689 
L 727.608667 64.100971 
L 729.501083 63.358252 
L 731.3935 62.22233 
L 732.655111 61.698058 
L 733.285916 61.435922 
L 733.916722 61.042718 
L 735.178333 60.780583 
L 735.809138 60.431068 
L 736.439943 60.3 
L 737.701554 59.600971 
L 741.486387 57.853398 
L 745.27122 56.542718 
L 746.532831 55.887379 
L 747.163636 55.8 
L 747.163636 55.8 
" clip-path="url(#pc10113b2d6)" style="fill: none; stroke: #1f77b4; stroke-width: 1.5; stroke-linecap: square"/>
   </g>
   <g id="line2d_36">
    <path d="M 139.067169 307.8 
L 140.959585 307.712621 
L 142.852002 307.668932 
L 146.636835 307.581553 
L 149.790862 307.450485 
L 152.314084 307.450485 
L 152.944889 307.275728 
L 155.468111 307.18835 
L 157.360528 306.969903 
L 159.252944 306.795146 
L 163.037777 306.620388 
L 163.668582 306.620388 
L 164.299388 306.48932 
L 166.82261 306.401942 
L 168.08422 306.314563 
L 173.130664 306.227184 
L 176.284691 306.096117 
L 183.854357 306.008738 
L 187.008384 305.87767 
L 190.793217 305.790291 
L 193.316439 305.702913 
L 198.993688 305.615534 
L 200.886105 305.571845 
L 202.778521 305.528155 
L 204.670937 305.309709 
L 208.45577 305.266019 
L 209.717381 305.178641 
L 214.133019 305.091262 
L 221.071879 304.698058 
L 225.487518 304.61068 
L 226.749129 304.523301 
L 228.641545 304.435922 
L 232.426378 304.261165 
L 234.9496 304.217476 
L 236.842016 304.042718 
L 246.934903 303.431068 
L 249.458125 303.343689 
L 253.873764 303.125243 
L 255.76618 303.037864 
L 262.074235 302.68835 
L 269.013095 302.600971 
L 271.536317 302.338835 
L 272.797927 302.251456 
L 280.998398 301.596117 
L 284.783231 301.115534 
L 287.306453 301.028155 
L 292.352897 300.372816 
L 295.506924 300.285437 
L 303.707395 299.630097 
L 306.861423 299.280583 
L 309.384644 299.193204 
L 310.646255 299.105825 
L 313.169477 299.018447 
L 314.431088 298.931068 
L 317.585115 298.625243 
L 318.215921 298.450485 
L 322.000754 298.275728 
L 325.154781 298.18835 
L 333.355252 297.707767 
L 335.247668 297.620388 
L 343.448139 297.139806 
L 347.863778 297.052427 
L 348.494583 296.921359 
L 353.541027 296.833981 
L 357.956665 296.615534 
L 364.895525 296.528155 
L 369.311163 296.309709 
L 374.357607 296.22233 
L 379.404051 295.960194 
L 383.819689 295.872816 
L 395.804993 295.130097 
L 400.851437 295.042718 
L 417.252379 293.994175 
L 421.037211 293.906796 
L 422.929628 293.863107 
L 424.822044 293.819417 
L 426.714461 293.64466 
L 431.760904 293.557282 
L 433.022515 293.338835 
L 434.284126 293.251456 
L 437.438154 293.120388 
L 438.699764 293.03301 
L 439.961375 292.945631 
L 445.638625 292.858252 
L 446.900236 292.727184 
L 449.423457 292.683495 
L 450.054263 292.552427 
L 451.315874 292.465049 
L 451.946679 292.333981 
L 453.839096 292.246602 
L 464.562789 291.591262 
L 466.455205 291.503883 
L 469.609232 291.372816 
L 478.440509 291.285437 
L 482.856147 291.06699 
L 487.902591 290.979612 
L 490.425813 290.892233 
L 492.949034 290.848544 
L 494.210645 290.717476 
L 496.733867 290.630097 
L 503.041922 290.280583 
L 506.826755 290.236893 
L 508.719171 290.062136 
L 510.611587 290.018447 
L 515.027226 289.931068 
L 517.550447 289.843689 
L 525.120113 289.756311 
L 528.27414 289.625243 
L 532.058973 289.537864 
L 533.95139 289.319417 
L 537.736222 289.275728 
L 539.628639 289.100971 
L 542.151861 289.013592 
L 549.721526 288.926214 
L 552.875553 288.795146 
L 563.599246 288.751456 
L 564.860857 288.664078 
L 566.753274 288.620388 
L 574.953745 288.53301 
L 576.215356 288.445631 
L 583.154216 288.358252 
L 585.677438 288.270874 
L 593.247103 288.227184 
L 594.508714 288.139806 
L 603.970796 288.096117 
L 605.863212 287.921359 
L 616.586905 287.833981 
L 618.479322 287.790291 
L 634.880264 287.702913 
L 636.77268 287.659223 
L 648.757984 287.571845 
L 651.281206 287.484466 
L 655.696844 287.397087 
L 660.743288 287.134951 
L 663.26651 287.047573 
L 665.789732 286.960194 
L 669.574564 286.872816 
L 671.466981 286.829126 
L 673.990203 286.741748 
L 675.882619 286.698058 
L 679.036646 286.61068 
L 680.298257 286.523301 
L 684.08309 286.435922 
L 687.237117 286.304854 
L 688.498728 286.261165 
L 690.391145 286.086408 
L 694.175977 285.999029 
L 696.699199 285.91165 
L 703.007254 285.824272 
L 706.161281 285.693204 
L 712.469336 285.605825 
L 716.884974 285.387379 
L 722.562223 285.3 
L 723.823834 285.212621 
L 731.3935 285.125243 
L 733.285916 285.081553 
L 740.224776 284.994175 
L 742.747998 284.732039 
L 744.640415 284.68835 
L 747.163636 284.600971 
L 747.163636 284.600971 
" clip-path="url(#pc10113b2d6)" style="fill: none; stroke: #ff7f0e; stroke-width: 1.5; stroke-linecap: square"/>
   </g>
   <g id="patch_3">
    <path d="M 108 320.4 
L 108 43.2 
" style="fill: none; stroke: #a9a9a9; stroke-width: 0.8; stroke-linejoin: miter; stroke-linecap: square"/>
   </g>
   <g id="patch_4">
    <path d="M 777.6 320.4 
L 777.6 43.2 
" style="fill: none"/>
   </g>
   <g id="patch_5">
    <path d="M 108 320.4 
L 777.6 320.4 
" style="fill: none; stroke: #a9a9a9; stroke-width: 0.8; stroke-linejoin: miter; stroke-linecap: square"/>
   </g>
   <g id="patch_6">
    <path d="M 108 43.2 
L 777.6 43.2 
" style="fill: none"/>
   </g>
   <g id="text_18">
    <!-- get_subscribe history -->
    <g style="fill: #a9a9a9" transform="translate(378.6075 37.2) scale(0.12 -0.12)">
     <defs>
      <path id="DejaVuSans-67" d="M 2906 1791 
Q 2906 2416 2648 2759 
Q 2391 3103 1925 3103 
Q 1463 3103 1205 2759 
Q 947 2416 947 1791 
Q 947 1169 1205 825 
Q 1463 481 1925 481 
Q 2391 481 2648 825 
Q 2906 1169 2906 1791 
z
M 3481 434 
Q 3481 -459 3084 -895 
Q 2688 -1331 1869 -1331 
Q 1566 -1331 1297 -1286 
Q 1028 -1241 775 -1147 
L 775 -588 
Q 1028 -725 1275 -790 
Q 1522 -856 1778 -856 
Q 2344 -856 2625 -561 
Q 2906 -266 2906 331 
L 2906 616 
Q 2728 306 2450 153 
Q 2172 0 1784 0 
Q 1141 0 747 490 
Q 353 981 353 1791 
Q 353 2603 747 3093 
Q 1141 3584 1784 3584 
Q 2172 3584 2450 3431 
Q 2728 3278 2906 2969 
L 2906 3500 
L 3481 3500 
L 3481 434 
z
" transform="scale(0.015625)"/>
      <path id="DejaVuSans-65" d="M 3597 1894 
L 3597 1613 
L 953 1613 
Q 991 1019 1311 708 
Q 1631 397 2203 397 
Q 2534 397 2845 478 
Q 3156 559 3463 722 
L 3463 178 
Q 3153 47 2828 -22 
Q 2503 -91 2169 -91 
Q 1331 -91 842 396 
Q 353 884 353 1716 
Q 353 2575 817 3079 
Q 1281 3584 2069 3584 
Q 2775 3584 3186 3129 
Q 3597 2675 3597 1894 
z
M 3022 2063 
Q 3016 2534 2758 2815 
Q 2500 3097 2075 3097 
Q 1594 3097 1305 2825 
Q 1016 2553 972 2059 
L 3022 2063 
z
" transform="scale(0.015625)"/>
      <path id="DejaVuSans-74" d="M 1172 4494 
L 1172 3500 
L 2356 3500 
L 2356 3053 
L 1172 3053 
L 1172 1153 
Q 1172 725 1289 603 
Q 1406 481 1766 481 
L 2356 481 
L 2356 0 
L 1766 0 
Q 1100 0 847 248 
Q 594 497 594 1153 
L 594 3053 
L 172 3053 
L 172 3500 
L 594 3500 
L 594 4494 
L 1172 4494 
z
" transform="scale(0.015625)"/>
      <path id="DejaVuSans-5f" d="M 3263 -1063 
L 3263 -1509 
L -63 -1509 
L -63 -1063 
L 3263 -1063 
z
" transform="scale(0.015625)"/>
      <path id="DejaVuSans-73" d="M 2834 3397 
L 2834 2853 
Q 2591 2978 2328 3040 
Q 2066 3103 1784 3103 
Q 1356 3103 1142 2972 
Q 928 2841 928 2578 
Q 928 2378 1081 2264 
Q 1234 2150 1697 2047 
L 1894 2003 
Q 2506 1872 2764 1633 
Q 3022 1394 3022 966 
Q 3022 478 2636 193 
Q 2250 -91 1575 -91 
Q 1294 -91 989 -36 
Q 684 19 347 128 
L 347 722 
Q 666 556 975 473 
Q 1284 391 1588 391 
Q 1994 391 2212 530 
Q 2431 669 2431 922 
Q 2431 1156 2273 1281 
Q 2116 1406 1581 1522 
L 1381 1569 
Q 847 1681 609 1914 
Q 372 2147 372 2553 
Q 372 3047 722 3315 
Q 1072 3584 1716 3584 
Q 2034 3584 2315 3537 
Q 2597 3491 2834 3397 
z
" transform="scale(0.015625)"/>
      <path id="DejaVuSans-75" d="M 544 1381 
L 544 3500 
L 1119 3500 
L 1119 1403 
Q 1119 906 1312 657 
Q 1506 409 1894 409 
Q 2359 409 2629 706 
Q 2900 1003 2900 1516 
L 2900 3500 
L 3475 3500 
L 3475 0 
L 2900 0 
L 2900 538 
Q 2691 219 2414 64 
Q 2138 -91 1772 -91 
Q 1169 -91 856 284 
Q 544 659 544 1381 
z
M 1991 3584 
L 1991 3584 
z
" transform="scale(0.015625)"/>
      <path id="DejaVuSans-62" d="M 3116 1747 
Q 3116 2381 2855 2742 
Q 2594 3103 2138 3103 
Q 1681 3103 1420 2742 
Q 1159 2381 1159 1747 
Q 1159 1113 1420 752 
Q 1681 391 2138 391 
Q 2594 391 2855 752 
Q 3116 1113 3116 1747 
z
M 1159 2969 
Q 1341 3281 1617 3432 
Q 1894 3584 2278 3584 
Q 2916 3584 3314 3078 
Q 3713 2572 3713 1747 
Q 3713 922 3314 415 
Q 2916 -91 2278 -91 
Q 1894 -91 1617 61 
Q 1341 213 1159 525 
L 1159 0 
L 581 0 
L 581 4863 
L 1159 4863 
L 1159 2969 
z
" transform="scale(0.015625)"/>
      <path id="DejaVuSans-63" d="M 3122 3366 
L 3122 2828 
Q 2878 2963 2633 3030 
Q 2388 3097 2138 3097 
Q 1578 3097 1268 2742 
Q 959 2388 959 1747 
Q 959 1106 1268 751 
Q 1578 397 2138 397 
Q 2388 397 2633 464 
Q 2878 531 3122 666 
L 3122 134 
Q 2881 22 2623 -34 
Q 2366 -91 2075 -91 
Q 1284 -91 818 406 
Q 353 903 353 1747 
Q 353 2603 823 3093 
Q 1294 3584 2113 3584 
Q 2378 3584 2631 3529 
Q 2884 3475 3122 3366 
z
" transform="scale(0.015625)"/>
      <path id="DejaVuSans-72" d="M 2631 2963 
Q 2534 3019 2420 3045 
Q 2306 3072 2169 3072 
Q 1681 3072 1420 2755 
Q 1159 2438 1159 1844 
L 1159 0 
L 581 0 
L 581 3500 
L 1159 3500 
L 1159 2956 
Q 1341 3275 1631 3429 
Q 1922 3584 2338 3584 
Q 2397 3584 2469 3576 
Q 2541 3569 2628 3553 
L 2631 2963 
z
" transform="scale(0.015625)"/>
      <path id="DejaVuSans-69" d="M 603 3500 
L 1178 3500 
L 1178 0 
L 603 0 
L 603 3500 
z
M 603 4863 
L 1178 4863 
L 1178 4134 
L 603 4134 
L 603 4863 
z
" transform="scale(0.015625)"/>
      <path id="DejaVuSans-20" transform="scale(0.015625)"/>
      <path id="DejaVuSans-68" d="M 3513 2113 
L 3513 0 
L 2938 0 
L 2938 2094 
Q 2938 2591 2744 2837 
Q 2550 3084 2163 3084 
Q 1697 3084 1428 2787 
Q 1159 2491 1159 1978 
L 1159 0 
L 581 0 
L 581 4863 
L 1159 4863 
L 1159 2956 
Q 1366 3272 1645 3428 
Q 1925 3584 2291 3584 
Q 2894 3584 3203 3211 
Q 3513 2838 3513 2113 
z
" transform="scale(0.015625)"/>
      <path id="DejaVuSans-6f" d="M 1959 3097 
Q 1497 3097 1228 2736 
Q 959 2375 959 1747 
Q 959 1119 1226 758 
Q 1494 397 1959 397 
Q 2419 397 2687 759 
Q 2956 1122 2956 1747 
Q 2956 2369 2687 2733 
Q 2419 3097 1959 3097 
z
M 1959 3584 
Q 2709 3584 3137 3096 
Q 3566 2609 3566 1747 
Q 3566 888 3137 398 
Q 2709 -91 1959 -91 
Q 1206 -91 779 398 
Q 353 888 353 1747 
Q 353 2609 779 3096 
Q 1206 3584 1959 3584 
z
" transform="scale(0.015625)"/>
      <path id="DejaVuSans-79" d="M 2059 -325 
Q 1816 -950 1584 -1140 
Q 1353 -1331 966 -1331 
L 506 -1331 
L 506 -850 
L 844 -850 
Q 1081 -850 1212 -737 
Q 1344 -625 1503 -206 
L 1606 56 
L 191 3500 
L 800 3500 
L 1894 763 
L 2988 3500 
L 3597 3500 
L 2059 -325 
z
" transform="scale(0.015625)"/>
     </defs>
     <use xlink:href="#DejaVuSans-67"/>
     <use xlink:href="#DejaVuSans-65" x="63.476562"/>
     <use xlink:href="#DejaVuSans-74" x="125"/>
     <use xlink:href="#DejaVuSans-5f" x="164.208984"/>
     <use xlink:href="#DejaVuSans-73" x="214.208984"/>
     <use xlink:href="#DejaVuSans-75" x="266.308594"/>
     <use xlink:href="#DejaVuSans-62" x="329.6875"/>
     <use xlink:href="#DejaVuSans-73" x="393.164062"/>
     <use xlink:href="#DejaVuSans-63" x="445.263672"/>
     <use xlink:href="#DejaVuSans-72" x="500.244141"/>
     <use xlink:href="#DejaVuSans-69" x="541.357422"/>
     <use xlink:href="#DejaVuSans-62" x="569.140625"/>
     <use xlink:href="#DejaVuSans-65" x="632.617188"/>
     <use xlink:href="#DejaVuSans-20" x="694.140625"/>
     <use xlink:href="#DejaVuSans-68" x="725.927734"/>
     <use xlink:href="#DejaVuSans-69" x="789.306641"/>
     <use xlink:href="#DejaVuSans-73" x="817.089844"/>
     <use xlink:href="#DejaVuSans-74" x="869.189453"/>
     <use xlink:href="#DejaVuSans-6f" x="908.398438"/>
     <use xlink:href="#DejaVuSans-72" x="969.580078"/>
     <use xlink:href="#DejaVuSans-79" x="1010.693359"/>
    </g>
   </g>
   <g id="legend_1">
    <g id="line2d_37">
     <path d="M 815.08 328.498438 
L 825.08 328.498438 
L 835.08 328.498438 
" style="fill: none; stroke: #1f77b4; stroke-width: 1.5; stroke-linecap: square"/>
    </g>
    <g id="text_19">
     <!-- star -->
     <g style="fill: #a9a9a9" transform="translate(843.08 331.998438) scale(0.1 -0.1)">
      <defs>
       <path id="DejaVuSans-61" d="M 2194 1759 
Q 1497 1759 1228 1600 
Q 959 1441 959 1056 
Q 959 750 1161 570 
Q 1363 391 1709 391 
Q 2188 391 2477 730 
Q 2766 1069 2766 1631 
L 2766 1759 
L 2194 1759 
z
M 3341 1997 
L 3341 0 
L 2766 0 
L 2766 531 
Q 2569 213 2275 61 
Q 1981 -91 1556 -91 
Q 1019 -91 701 211 
Q 384 513 384 1019 
Q 384 1609 779 1909 
Q 1175 2209 1959 2209 
L 2766 2209 
L 2766 2266 
Q 2766 2663 2505 2880 
Q 2244 3097 1772 3097 
Q 1472 3097 1187 3025 
Q 903 2953 641 2809 
L 641 3341 
Q 956 3463 1253 3523 
Q 1550 3584 1831 3584 
Q 2591 3584 2966 3190 
Q 3341 2797 3341 1997 
z
" transform="scale(0.015625)"/>
      </defs>
      <use xlink:href="#DejaVuSans-73"/>
      <use xlink:href="#DejaVuSans-74" x="52.099609"/>
      <use xlink:href="#DejaVuSans-61" x="91.308594"/>
      <use xlink:href="#DejaVuSans-72" x="152.587891"/>
     </g>
    </g>
    <g id="line2d_38">
     <path d="M 815.08 343.176562 
L 825.08 343.176562 
L 835.08 343.176562 
" style="fill: none; stroke: #ff7f0e; stroke-width: 1.5; stroke-linecap: square"/>
    </g>
    <g id="text_20">
     <!-- fork -->
     <g style="fill: #a9a9a9" transform="translate(843.08 346.676562) scale(0.1 -0.1)">
      <defs>
       <path id="DejaVuSans-66" d="M 2375 4863 
L 2375 4384 
L 1825 4384 
Q 1516 4384 1395 4259 
Q 1275 4134 1275 3809 
L 1275 3500 
L 2222 3500 
L 2222 3053 
L 1275 3053 
L 1275 0 
L 697 0 
L 697 3053 
L 147 3053 
L 147 3500 
L 697 3500 
L 697 3744 
Q 697 4328 969 4595 
Q 1241 4863 1831 4863 
L 2375 4863 
z
" transform="scale(0.015625)"/>
       <path id="DejaVuSans-6b" d="M 581 4863 
L 1159 4863 
L 1159 1991 
L 2875 3500 
L 3609 3500 
L 1753 1863 
L 3688 0 
L 2938 0 
L 1159 1709 
L 1159 0 
L 581 0 
L 581 4863 
z
" transform="scale(0.015625)"/>
      </defs>
      <use xlink:href="#DejaVuSans-66"/>
      <use xlink:href="#DejaVuSans-6f" x="35.205078"/>
      <use xlink:href="#DejaVuSans-72" x="96.386719"/>
      <use xlink:href="#DejaVuSans-6b" x="137.5"/>
     </g>
    </g>
   </g>
  </g>
 </g>
 <defs>
  <clipPath id="pc10113b2d6">
   <rect x="108" y="43.2" width="669.6" height="277.2"/>
  </clipPath>
 </defs>
</svg>
