<?xml version="1.0" encoding="utf-8" standalone="no"?>
<!DOCTYPE svg PUBLIC "-//W3C//DTD SVG 1.1//EN"
  "http://www.w3.org/Graphics/SVG/1.1/DTD/svg11.dtd">
<svg xmlns:xlink="http://www.w3.org/1999/xlink" width="864pt" height="360pt" viewBox="0 0 864 360" xmlns="http://www.w3.org/2000/svg" version="1.1">
 <metadata>
  <rdf:RDF xmlns:dc="http://purl.org/dc/elements/1.1/" xmlns:cc="http://creativecommons.org/ns#" xmlns:rdf="http://www.w3.org/1999/02/22-rdf-syntax-ns#">
   <cc:Work>
    <dc:type rdf:resource="http://purl.org/dc/dcmitype/StillImage"/>
    <dc:date>2024-03-16T08:10:04.853328</dc:date>
    <dc:format>image/svg+xml</dc:format>
    <dc:creator>
     <cc:Agent>
      <dc:title>Matplotlib v3.8.3, https://matplotlib.org/</dc:title>
     </cc:Agent>
    </dc:creator>
   </cc:Work>
  </rdf:RDF>
 </metadata>
 <defs>
  <style type="text/css">*{stroke-linejoin: round; stroke-linecap: butt}</style>
 </defs>
 <g id="figure_1">
  <g id="patch_1">
   <path d="M 0 360 
L 864 360 
L 864 0 
L 0 0 
L 0 360 
z
" style="fill: none; opacity: 0"/>
  </g>
  <g id="axes_1">
   <g id="patch_2">
    <path d="M 108 320.4 
L 777.6 320.4 
L 777.6 43.2 
L 108 43.2 
L 108 320.4 
z
" style="fill: none; opacity: 0"/>
   </g>
   <g id="matplotlib.axis_1">
    <g id="xtick_1">
     <g id="line2d_1">
      <path d="M 163.012309 320.4 
L 163.012309 43.2 
" clip-path="url(#pbf7ac3fbf7)" style="fill: none; stroke-dasharray: 5.12,1.28,0.8,1.28; stroke-dashoffset: 0; stroke: #b0b0b0; stroke-width: 0.8"/>
     </g>
     <g id="line2d_2">
      <defs>
       <path id="m2e2cfd2be7" d="M 0 0 
L 0 3.5 
" style="stroke: #a9a9a9; stroke-width: 0.8"/>
      </defs>
      <g>
       <use xlink:href="#m2e2cfd2be7" x="163.012309" y="320.4" style="fill: #a9a9a9; stroke: #a9a9a9; stroke-width: 0.8"/>
      </g>
     </g>
     <g id="text_1">
      <!-- 2021-09 -->
      <g style="fill: #a9a9a9" transform="translate(142.120903 334.998438) scale(0.1 -0.1)">
       <defs>
        <path id="DejaVuSans-32" d="M 1228 531 
L 3431 531 
L 3431 0 
L 469 0 
L 469 531 
Q 828 903 1448 1529 
Q 2069 2156 2228 2338 
Q 2531 2678 2651 2914 
Q 2772 3150 2772 3378 
Q 2772 3750 2511 3984 
Q 2250 4219 1831 4219 
Q 1534 4219 1204 4116 
Q 875 4013 500 3803 
L 500 4441 
Q 881 4594 1212 4672 
Q 1544 4750 1819 4750 
Q 2544 4750 2975 4387 
Q 3406 4025 3406 3419 
Q 3406 3131 3298 2873 
Q 3191 2616 2906 2266 
Q 2828 2175 2409 1742 
Q 1991 1309 1228 531 
z
" transform="scale(0.015625)"/>
        <path id="DejaVuSans-30" d="M 2034 4250 
Q 1547 4250 1301 3770 
Q 1056 3291 1056 2328 
Q 1056 1369 1301 889 
Q 1547 409 2034 409 
Q 2525 409 2770 889 
Q 3016 1369 3016 2328 
Q 3016 3291 2770 3770 
Q 2525 4250 2034 4250 
z
M 2034 4750 
Q 2819 4750 3233 4129 
Q 3647 3509 3647 2328 
Q 3647 1150 3233 529 
Q 2819 -91 2034 -91 
Q 1250 -91 836 529 
Q 422 1150 422 2328 
Q 422 3509 836 4129 
Q 1250 4750 2034 4750 
z
" transform="scale(0.015625)"/>
        <path id="DejaVuSans-31" d="M 794 531 
L 1825 531 
L 1825 4091 
L 703 3866 
L 703 4441 
L 1819 4666 
L 2450 4666 
L 2450 531 
L 3481 531 
L 3481 0 
L 794 0 
L 794 531 
z
" transform="scale(0.015625)"/>
        <path id="DejaVuSans-2d" d="M 313 2009 
L 1997 2009 
L 1997 1497 
L 313 1497 
L 313 2009 
z
" transform="scale(0.015625)"/>
        <path id="DejaVuSans-39" d="M 703 97 
L 703 672 
Q 941 559 1184 500 
Q 1428 441 1663 441 
Q 2288 441 2617 861 
Q 2947 1281 2994 2138 
Q 2813 1869 2534 1725 
Q 2256 1581 1919 1581 
Q 1219 1581 811 2004 
Q 403 2428 403 3163 
Q 403 3881 828 4315 
Q 1253 4750 1959 4750 
Q 2769 4750 3195 4129 
Q 3622 3509 3622 2328 
Q 3622 1225 3098 567 
Q 2575 -91 1691 -91 
Q 1453 -91 1209 -44 
Q 966 3 703 97 
z
M 1959 2075 
Q 2384 2075 2632 2365 
Q 2881 2656 2881 3163 
Q 2881 3666 2632 3958 
Q 2384 4250 1959 4250 
Q 1534 4250 1286 3958 
Q 1038 3666 1038 3163 
Q 1038 2656 1286 2365 
Q 1534 2075 1959 2075 
z
" transform="scale(0.015625)"/>
       </defs>
       <use xlink:href="#DejaVuSans-32"/>
       <use xlink:href="#DejaVuSans-30" x="63.623047"/>
       <use xlink:href="#DejaVuSans-32" x="127.246094"/>
       <use xlink:href="#DejaVuSans-31" x="190.869141"/>
       <use xlink:href="#DejaVuSans-2d" x="254.492188"/>
       <use xlink:href="#DejaVuSans-30" x="290.576172"/>
       <use xlink:href="#DejaVuSans-39" x="354.199219"/>
      </g>
     </g>
    </g>
    <g id="xtick_2">
     <g id="line2d_3">
      <path d="M 239.890909 320.4 
L 239.890909 43.2 
" clip-path="url(#pbf7ac3fbf7)" style="fill: none; stroke-dasharray: 5.12,1.28,0.8,1.28; stroke-dashoffset: 0; stroke: #b0b0b0; stroke-width: 0.8"/>
     </g>
     <g id="line2d_4">
      <g>
       <use xlink:href="#m2e2cfd2be7" x="239.890909" y="320.4" style="fill: #a9a9a9; stroke: #a9a9a9; stroke-width: 0.8"/>
      </g>
     </g>
     <g id="text_2">
      <!-- 2022-01 -->
      <g style="fill: #a9a9a9" transform="translate(218.999503 334.998438) scale(0.1 -0.1)">
       <use xlink:href="#DejaVuSans-32"/>
       <use xlink:href="#DejaVuSans-30" x="63.623047"/>
       <use xlink:href="#DejaVuSans-32" x="127.246094"/>
       <use xlink:href="#DejaVuSans-32" x="190.869141"/>
       <use xlink:href="#DejaVuSans-2d" x="254.492188"/>
       <use xlink:href="#DejaVuSans-30" x="290.576172"/>
       <use xlink:href="#DejaVuSans-31" x="354.199219"/>
      </g>
     </g>
    </g>
    <g id="xtick_3">
     <g id="line2d_5">
      <path d="M 315.509204 320.4 
L 315.509204 43.2 
" clip-path="url(#pbf7ac3fbf7)" style="fill: none; stroke-dasharray: 5.12,1.28,0.8,1.28; stroke-dashoffset: 0; stroke: #b0b0b0; stroke-width: 0.8"/>
     </g>
     <g id="line2d_6">
      <g>
       <use xlink:href="#m2e2cfd2be7" x="315.509204" y="320.4" style="fill: #a9a9a9; stroke: #a9a9a9; stroke-width: 0.8"/>
      </g>
     </g>
     <g id="text_3">
      <!-- 2022-05 -->
      <g style="fill: #a9a9a9" transform="translate(294.617798 334.998438) scale(0.1 -0.1)">
       <defs>
        <path id="DejaVuSans-35" d="M 691 4666 
L 3169 4666 
L 3169 4134 
L 1269 4134 
L 1269 2991 
Q 1406 3038 1543 3061 
Q 1681 3084 1819 3084 
Q 2600 3084 3056 2656 
Q 3513 2228 3513 1497 
Q 3513 744 3044 326 
Q 2575 -91 1722 -91 
Q 1428 -91 1123 -41 
Q 819 9 494 109 
L 494 744 
Q 775 591 1075 516 
Q 1375 441 1709 441 
Q 2250 441 2565 725 
Q 2881 1009 2881 1497 
Q 2881 1984 2565 2268 
Q 2250 2553 1709 2553 
Q 1456 2553 1204 2497 
Q 953 2441 691 2322 
L 691 4666 
z
" transform="scale(0.015625)"/>
       </defs>
       <use xlink:href="#DejaVuSans-32"/>
       <use xlink:href="#DejaVuSans-30" x="63.623047"/>
       <use xlink:href="#DejaVuSans-32" x="127.246094"/>
       <use xlink:href="#DejaVuSans-32" x="190.869141"/>
       <use xlink:href="#DejaVuSans-2d" x="254.492188"/>
       <use xlink:href="#DejaVuSans-30" x="290.576172"/>
       <use xlink:href="#DejaVuSans-35" x="354.199219"/>
      </g>
     </g>
    </g>
    <g id="xtick_4">
     <g id="line2d_7">
      <path d="M 393.017956 320.4 
L 393.017956 43.2 
" clip-path="url(#pbf7ac3fbf7)" style="fill: none; stroke-dasharray: 5.12,1.28,0.8,1.28; stroke-dashoffset: 0; stroke: #b0b0b0; stroke-width: 0.8"/>
     </g>
     <g id="line2d_8">
      <g>
       <use xlink:href="#m2e2cfd2be7" x="393.017956" y="320.4" style="fill: #a9a9a9; stroke: #a9a9a9; stroke-width: 0.8"/>
      </g>
     </g>
     <g id="text_4">
      <!-- 2022-09 -->
      <g style="fill: #a9a9a9" transform="translate(372.12655 334.998438) scale(0.1 -0.1)">
       <use xlink:href="#DejaVuSans-32"/>
       <use xlink:href="#DejaVuSans-30" x="63.623047"/>
       <use xlink:href="#DejaVuSans-32" x="127.246094"/>
       <use xlink:href="#DejaVuSans-32" x="190.869141"/>
       <use xlink:href="#DejaVuSans-2d" x="254.492188"/>
       <use xlink:href="#DejaVuSans-30" x="290.576172"/>
       <use xlink:href="#DejaVuSans-39" x="354.199219"/>
      </g>
     </g>
    </g>
    <g id="xtick_5">
     <g id="line2d_9">
      <path d="M 469.896556 320.4 
L 469.896556 43.2 
" clip-path="url(#pbf7ac3fbf7)" style="fill: none; stroke-dasharray: 5.12,1.28,0.8,1.28; stroke-dashoffset: 0; stroke: #b0b0b0; stroke-width: 0.8"/>
     </g>
     <g id="line2d_10">
      <g>
       <use xlink:href="#m2e2cfd2be7" x="469.896556" y="320.4" style="fill: #a9a9a9; stroke: #a9a9a9; stroke-width: 0.8"/>
      </g>
     </g>
     <g id="text_5">
      <!-- 2023-01 -->
      <g style="fill: #a9a9a9" transform="translate(449.005149 334.998438) scale(0.1 -0.1)">
       <defs>
        <path id="DejaVuSans-33" d="M 2597 2516 
Q 3050 2419 3304 2112 
Q 3559 1806 3559 1356 
Q 3559 666 3084 287 
Q 2609 -91 1734 -91 
Q 1441 -91 1130 -33 
Q 819 25 488 141 
L 488 750 
Q 750 597 1062 519 
Q 1375 441 1716 441 
Q 2309 441 2620 675 
Q 2931 909 2931 1356 
Q 2931 1769 2642 2001 
Q 2353 2234 1838 2234 
L 1294 2234 
L 1294 2753 
L 1863 2753 
Q 2328 2753 2575 2939 
Q 2822 3125 2822 3475 
Q 2822 3834 2567 4026 
Q 2313 4219 1838 4219 
Q 1578 4219 1281 4162 
Q 984 4106 628 3988 
L 628 4550 
Q 988 4650 1302 4700 
Q 1616 4750 1894 4750 
Q 2613 4750 3031 4423 
Q 3450 4097 3450 3541 
Q 3450 3153 3228 2886 
Q 3006 2619 2597 2516 
z
" transform="scale(0.015625)"/>
       </defs>
       <use xlink:href="#DejaVuSans-32"/>
       <use xlink:href="#DejaVuSans-30" x="63.623047"/>
       <use xlink:href="#DejaVuSans-32" x="127.246094"/>
       <use xlink:href="#DejaVuSans-33" x="190.869141"/>
       <use xlink:href="#DejaVuSans-2d" x="254.492188"/>
       <use xlink:href="#DejaVuSans-30" x="290.576172"/>
       <use xlink:href="#DejaVuSans-31" x="354.199219"/>
      </g>
     </g>
    </g>
    <g id="xtick_6">
     <g id="line2d_11">
      <path d="M 545.51485 320.4 
L 545.51485 43.2 
" clip-path="url(#pbf7ac3fbf7)" style="fill: none; stroke-dasharray: 5.12,1.28,0.8,1.28; stroke-dashoffset: 0; stroke: #b0b0b0; stroke-width: 0.8"/>
     </g>
     <g id="line2d_12">
      <g>
       <use xlink:href="#m2e2cfd2be7" x="545.51485" y="320.4" style="fill: #a9a9a9; stroke: #a9a9a9; stroke-width: 0.8"/>
      </g>
     </g>
     <g id="text_6">
      <!-- 2023-05 -->
      <g style="fill: #a9a9a9" transform="translate(524.623444 334.998438) scale(0.1 -0.1)">
       <use xlink:href="#DejaVuSans-32"/>
       <use xlink:href="#DejaVuSans-30" x="63.623047"/>
       <use xlink:href="#DejaVuSans-32" x="127.246094"/>
       <use xlink:href="#DejaVuSans-33" x="190.869141"/>
       <use xlink:href="#DejaVuSans-2d" x="254.492188"/>
       <use xlink:href="#DejaVuSans-30" x="290.576172"/>
       <use xlink:href="#DejaVuSans-35" x="354.199219"/>
      </g>
     </g>
    </g>
    <g id="xtick_7">
     <g id="line2d_13">
      <path d="M 623.023602 320.4 
L 623.023602 43.2 
" clip-path="url(#pbf7ac3fbf7)" style="fill: none; stroke-dasharray: 5.12,1.28,0.8,1.28; stroke-dashoffset: 0; stroke: #b0b0b0; stroke-width: 0.8"/>
     </g>
     <g id="line2d_14">
      <g>
       <use xlink:href="#m2e2cfd2be7" x="623.023602" y="320.4" style="fill: #a9a9a9; stroke: #a9a9a9; stroke-width: 0.8"/>
      </g>
     </g>
     <g id="text_7">
      <!-- 2023-09 -->
      <g style="fill: #a9a9a9" transform="translate(602.132196 334.998438) scale(0.1 -0.1)">
       <use xlink:href="#DejaVuSans-32"/>
       <use xlink:href="#DejaVuSans-30" x="63.623047"/>
       <use xlink:href="#DejaVuSans-32" x="127.246094"/>
       <use xlink:href="#DejaVuSans-33" x="190.869141"/>
       <use xlink:href="#DejaVuSans-2d" x="254.492188"/>
       <use xlink:href="#DejaVuSans-30" x="290.576172"/>
       <use xlink:href="#DejaVuSans-39" x="354.199219"/>
      </g>
     </g>
    </g>
    <g id="xtick_8">
     <g id="line2d_15">
      <path d="M 699.902202 320.4 
L 699.902202 43.2 
" clip-path="url(#pbf7ac3fbf7)" style="fill: none; stroke-dasharray: 5.12,1.28,0.8,1.28; stroke-dashoffset: 0; stroke: #b0b0b0; stroke-width: 0.8"/>
     </g>
     <g id="line2d_16">
      <g>
       <use xlink:href="#m2e2cfd2be7" x="699.902202" y="320.4" style="fill: #a9a9a9; stroke: #a9a9a9; stroke-width: 0.8"/>
      </g>
     </g>
     <g id="text_8">
      <!-- 2024-01 -->
      <g style="fill: #a9a9a9" transform="translate(679.010796 334.998438) scale(0.1 -0.1)">
       <defs>
        <path id="DejaVuSans-34" d="M 2419 4116 
L 825 1625 
L 2419 1625 
L 2419 4116 
z
M 2253 4666 
L 3047 4666 
L 3047 1625 
L 3713 1625 
L 3713 1100 
L 3047 1100 
L 3047 0 
L 2419 0 
L 2419 1100 
L 313 1100 
L 313 1709 
L 2253 4666 
z
" transform="scale(0.015625)"/>
       </defs>
       <use xlink:href="#DejaVuSans-32"/>
       <use xlink:href="#DejaVuSans-30" x="63.623047"/>
       <use xlink:href="#DejaVuSans-32" x="127.246094"/>
       <use xlink:href="#DejaVuSans-34" x="190.869141"/>
       <use xlink:href="#DejaVuSans-2d" x="254.492188"/>
       <use xlink:href="#DejaVuSans-30" x="290.576172"/>
       <use xlink:href="#DejaVuSans-31" x="354.199219"/>
      </g>
     </g>
    </g>
    <g id="xtick_9">
     <g id="line2d_17">
      <path d="M 776.150649 320.4 
L 776.150649 43.2 
" clip-path="url(#pbf7ac3fbf7)" style="fill: none; stroke-dasharray: 5.12,1.28,0.8,1.28; stroke-dashoffset: 0; stroke: #b0b0b0; stroke-width: 0.8"/>
     </g>
     <g id="line2d_18">
      <g>
       <use xlink:href="#m2e2cfd2be7" x="776.150649" y="320.4" style="fill: #a9a9a9; stroke: #a9a9a9; stroke-width: 0.8"/>
      </g>
     </g>
     <g id="text_9">
      <!-- 2024-05 -->
      <g style="fill: #a9a9a9" transform="translate(755.259243 334.998438) scale(0.1 -0.1)">
       <use xlink:href="#DejaVuSans-32"/>
       <use xlink:href="#DejaVuSans-30" x="63.623047"/>
       <use xlink:href="#DejaVuSans-32" x="127.246094"/>
       <use xlink:href="#DejaVuSans-34" x="190.869141"/>
       <use xlink:href="#DejaVuSans-2d" x="254.492188"/>
       <use xlink:href="#DejaVuSans-30" x="290.576172"/>
       <use xlink:href="#DejaVuSans-35" x="354.199219"/>
      </g>
     </g>
    </g>
   </g>
   <g id="matplotlib.axis_2">
    <g id="ytick_1">
     <g id="line2d_19">
      <path d="M 108 307.843667 
L 777.6 307.843667 
" clip-path="url(#pbf7ac3fbf7)" style="fill: none; stroke-dasharray: 5.12,1.28,0.8,1.28; stroke-dashoffset: 0; stroke: #b0b0b0; stroke-width: 0.8"/>
     </g>
     <g id="line2d_20">
      <defs>
       <path id="m258356c728" d="M 0 0 
L -3.5 0 
" style="stroke: #a9a9a9; stroke-width: 0.8"/>
      </defs>
      <g>
       <use xlink:href="#m258356c728" x="108" y="307.843667" style="fill: #a9a9a9; stroke: #a9a9a9; stroke-width: 0.8"/>
      </g>
     </g>
     <g id="text_10">
      <!-- 0 -->
      <g style="fill: #a9a9a9" transform="translate(94.6375 311.642885) scale(0.1 -0.1)">
       <use xlink:href="#DejaVuSans-30"/>
      </g>
     </g>
    </g>
    <g id="ytick_2">
     <g id="line2d_21">
      <path d="M 108 272.910379 
L 777.6 272.910379 
" clip-path="url(#pbf7ac3fbf7)" style="fill: none; stroke-dasharray: 5.12,1.28,0.8,1.28; stroke-dashoffset: 0; stroke: #b0b0b0; stroke-width: 0.8"/>
     </g>
     <g id="line2d_22">
      <g>
       <use xlink:href="#m258356c728" x="108" y="272.910379" style="fill: #a9a9a9; stroke: #a9a9a9; stroke-width: 0.8"/>
      </g>
     </g>
     <g id="text_11">
      <!-- 800 -->
      <g style="fill: #a9a9a9" transform="translate(81.9125 276.709598) scale(0.1 -0.1)">
       <defs>
        <path id="DejaVuSans-38" d="M 2034 2216 
Q 1584 2216 1326 1975 
Q 1069 1734 1069 1313 
Q 1069 891 1326 650 
Q 1584 409 2034 409 
Q 2484 409 2743 651 
Q 3003 894 3003 1313 
Q 3003 1734 2745 1975 
Q 2488 2216 2034 2216 
z
M 1403 2484 
Q 997 2584 770 2862 
Q 544 3141 544 3541 
Q 544 4100 942 4425 
Q 1341 4750 2034 4750 
Q 2731 4750 3128 4425 
Q 3525 4100 3525 3541 
Q 3525 3141 3298 2862 
Q 3072 2584 2669 2484 
Q 3125 2378 3379 2068 
Q 3634 1759 3634 1313 
Q 3634 634 3220 271 
Q 2806 -91 2034 -91 
Q 1263 -91 848 271 
Q 434 634 434 1313 
Q 434 1759 690 2068 
Q 947 2378 1403 2484 
z
M 1172 3481 
Q 1172 3119 1398 2916 
Q 1625 2713 2034 2713 
Q 2441 2713 2670 2916 
Q 2900 3119 2900 3481 
Q 2900 3844 2670 4047 
Q 2441 4250 2034 4250 
Q 1625 4250 1398 4047 
Q 1172 3844 1172 3481 
z
" transform="scale(0.015625)"/>
       </defs>
       <use xlink:href="#DejaVuSans-38"/>
       <use xlink:href="#DejaVuSans-30" x="63.623047"/>
       <use xlink:href="#DejaVuSans-30" x="127.246094"/>
      </g>
     </g>
    </g>
    <g id="ytick_3">
     <g id="line2d_23">
      <path d="M 108 237.977092 
L 777.6 237.977092 
" clip-path="url(#pbf7ac3fbf7)" style="fill: none; stroke-dasharray: 5.12,1.28,0.8,1.28; stroke-dashoffset: 0; stroke: #b0b0b0; stroke-width: 0.8"/>
     </g>
     <g id="line2d_24">
      <g>
       <use xlink:href="#m258356c728" x="108" y="237.977092" style="fill: #a9a9a9; stroke: #a9a9a9; stroke-width: 0.8"/>
      </g>
     </g>
     <g id="text_12">
      <!-- 1600 -->
      <g style="fill: #a9a9a9" transform="translate(75.55 241.776311) scale(0.1 -0.1)">
       <defs>
        <path id="DejaVuSans-36" d="M 2113 2584 
Q 1688 2584 1439 2293 
Q 1191 2003 1191 1497 
Q 1191 994 1439 701 
Q 1688 409 2113 409 
Q 2538 409 2786 701 
Q 3034 994 3034 1497 
Q 3034 2003 2786 2293 
Q 2538 2584 2113 2584 
z
M 3366 4563 
L 3366 3988 
Q 3128 4100 2886 4159 
Q 2644 4219 2406 4219 
Q 1781 4219 1451 3797 
Q 1122 3375 1075 2522 
Q 1259 2794 1537 2939 
Q 1816 3084 2150 3084 
Q 2853 3084 3261 2657 
Q 3669 2231 3669 1497 
Q 3669 778 3244 343 
Q 2819 -91 2113 -91 
Q 1303 -91 875 529 
Q 447 1150 447 2328 
Q 447 3434 972 4092 
Q 1497 4750 2381 4750 
Q 2619 4750 2861 4703 
Q 3103 4656 3366 4563 
z
" transform="scale(0.015625)"/>
       </defs>
       <use xlink:href="#DejaVuSans-31"/>
       <use xlink:href="#DejaVuSans-36" x="63.623047"/>
       <use xlink:href="#DejaVuSans-30" x="127.246094"/>
       <use xlink:href="#DejaVuSans-30" x="190.869141"/>
      </g>
     </g>
    </g>
    <g id="ytick_4">
     <g id="line2d_25">
      <path d="M 108 203.043805 
L 777.6 203.043805 
" clip-path="url(#pbf7ac3fbf7)" style="fill: none; stroke-dasharray: 5.12,1.28,0.8,1.28; stroke-dashoffset: 0; stroke: #b0b0b0; stroke-width: 0.8"/>
     </g>
     <g id="line2d_26">
      <g>
       <use xlink:href="#m258356c728" x="108" y="203.043805" style="fill: #a9a9a9; stroke: #a9a9a9; stroke-width: 0.8"/>
      </g>
     </g>
     <g id="text_13">
      <!-- 2400 -->
      <g style="fill: #a9a9a9" transform="translate(75.55 206.843024) scale(0.1 -0.1)">
       <use xlink:href="#DejaVuSans-32"/>
       <use xlink:href="#DejaVuSans-34" x="63.623047"/>
       <use xlink:href="#DejaVuSans-30" x="127.246094"/>
       <use xlink:href="#DejaVuSans-30" x="190.869141"/>
      </g>
     </g>
    </g>
    <g id="ytick_5">
     <g id="line2d_27">
      <path d="M 108 168.110518 
L 777.6 168.110518 
" clip-path="url(#pbf7ac3fbf7)" style="fill: none; stroke-dasharray: 5.12,1.28,0.8,1.28; stroke-dashoffset: 0; stroke: #b0b0b0; stroke-width: 0.8"/>
     </g>
     <g id="line2d_28">
      <g>
       <use xlink:href="#m258356c728" x="108" y="168.110518" style="fill: #a9a9a9; stroke: #a9a9a9; stroke-width: 0.8"/>
      </g>
     </g>
     <g id="text_14">
      <!-- 3200 -->
      <g style="fill: #a9a9a9" transform="translate(75.55 171.909737) scale(0.1 -0.1)">
       <use xlink:href="#DejaVuSans-33"/>
       <use xlink:href="#DejaVuSans-32" x="63.623047"/>
       <use xlink:href="#DejaVuSans-30" x="127.246094"/>
       <use xlink:href="#DejaVuSans-30" x="190.869141"/>
      </g>
     </g>
    </g>
    <g id="ytick_6">
     <g id="line2d_29">
      <path d="M 108 133.177231 
L 777.6 133.177231 
" clip-path="url(#pbf7ac3fbf7)" style="fill: none; stroke-dasharray: 5.12,1.28,0.8,1.28; stroke-dashoffset: 0; stroke: #b0b0b0; stroke-width: 0.8"/>
     </g>
     <g id="line2d_30">
      <g>
       <use xlink:href="#m258356c728" x="108" y="133.177231" style="fill: #a9a9a9; stroke: #a9a9a9; stroke-width: 0.8"/>
      </g>
     </g>
     <g id="text_15">
      <!-- 4000 -->
      <g style="fill: #a9a9a9" transform="translate(75.55 136.97645) scale(0.1 -0.1)">
       <use xlink:href="#DejaVuSans-34"/>
       <use xlink:href="#DejaVuSans-30" x="63.623047"/>
       <use xlink:href="#DejaVuSans-30" x="127.246094"/>
       <use xlink:href="#DejaVuSans-30" x="190.869141"/>
      </g>
     </g>
    </g>
    <g id="ytick_7">
     <g id="line2d_31">
      <path d="M 108 98.243944 
L 777.6 98.243944 
" clip-path="url(#pbf7ac3fbf7)" style="fill: none; stroke-dasharray: 5.12,1.28,0.8,1.28; stroke-dashoffset: 0; stroke: #b0b0b0; stroke-width: 0.8"/>
     </g>
     <g id="line2d_32">
      <g>
       <use xlink:href="#m258356c728" x="108" y="98.243944" style="fill: #a9a9a9; stroke: #a9a9a9; stroke-width: 0.8"/>
      </g>
     </g>
     <g id="text_16">
      <!-- 4800 -->
      <g style="fill: #a9a9a9" transform="translate(75.55 102.043163) scale(0.1 -0.1)">
       <use xlink:href="#DejaVuSans-34"/>
       <use xlink:href="#DejaVuSans-38" x="63.623047"/>
       <use xlink:href="#DejaVuSans-30" x="127.246094"/>
       <use xlink:href="#DejaVuSans-30" x="190.869141"/>
      </g>
     </g>
    </g>
    <g id="ytick_8">
     <g id="line2d_33">
      <path d="M 108 63.310657 
L 777.6 63.310657 
" clip-path="url(#pbf7ac3fbf7)" style="fill: none; stroke-dasharray: 5.12,1.28,0.8,1.28; stroke-dashoffset: 0; stroke: #b0b0b0; stroke-width: 0.8"/>
     </g>
     <g id="line2d_34">
      <g>
       <use xlink:href="#m258356c728" x="108" y="63.310657" style="fill: #a9a9a9; stroke: #a9a9a9; stroke-width: 0.8"/>
      </g>
     </g>
     <g id="text_17">
      <!-- 5600 -->
      <g style="fill: #a9a9a9" transform="translate(75.55 67.109875) scale(0.1 -0.1)">
       <use xlink:href="#DejaVuSans-35"/>
       <use xlink:href="#DejaVuSans-36" x="63.623047"/>
       <use xlink:href="#DejaVuSans-30" x="127.246094"/>
       <use xlink:href="#DejaVuSans-30" x="190.869141"/>
      </g>
     </g>
    </g>
   </g>
   <g id="line2d_35">
    <path d="M 138.436364 307.712667 
L 142.217278 307.407001 
L 142.847431 307.145001 
L 144.737888 306.926668 
L 148.518803 306.184335 
L 152.299718 305.878669 
L 152.92987 305.573003 
L 153.560023 305.398337 
L 154.190175 304.612338 
L 154.820327 304.175671 
L 155.45048 302.822007 
L 156.080632 302.734673 
L 156.710785 302.254341 
L 157.97109 301.643008 
L 160.4917 299.721677 
L 161.752005 299.197678 
L 162.382157 298.761012 
L 164.902767 297.669347 
L 165.532919 296.708681 
L 166.793224 295.791683 
L 167.423377 295.486016 
L 173.724901 294.612684 
L 174.355054 294.307018 
L 178.766121 293.957685 
L 180.656578 293.477352 
L 186.32795 292.73502 
L 186.958103 292.385687 
L 187.588255 292.298354 
L 188.218408 292.036354 
L 189.478713 291.818021 
L 190.108865 291.774355 
L 190.739018 291.556021 
L 193.259627 291.163022 
L 194.519932 290.813689 
L 196.41039 290.639023 
L 197.670695 290.508023 
L 198.300847 290.333356 
L 198.930999 290.28969 
L 200.821457 289.722024 
L 204.602372 289.154358 
L 205.232524 288.979692 
L 205.862676 288.106359 
L 207.753134 287.407694 
L 209.643591 286.883694 
L 210.273744 286.578028 
L 210.903896 286.534361 
L 214.054658 285.661029 
L 215.314963 285.573696 
L 215.945116 285.486363 
L 217.835573 284.918697 
L 220.356183 284.307364 
L 220.986335 284.045365 
L 221.616488 283.958032 
L 222.24664 283.652365 
L 228.548165 282.6917 
L 231.698927 281.818368 
L 232.32908 281.425368 
L 234.849689 280.770369 
L 236.109994 280.028037 
L 236.740147 279.591371 
L 238.630604 279.242038 
L 242.411519 278.106706 
L 243.671824 277.713706 
L 244.301976 277.626373 
L 245.562281 277.27704 
L 246.822586 276.971374 
L 247.452739 276.884041 
L 248.713043 276.360042 
L 249.343196 276.229042 
L 249.973348 275.967042 
L 250.603501 275.879709 
L 251.233653 275.574043 
L 251.863806 275.399376 
L 253.124111 275.312043 
L 254.384416 274.875377 
L 255.64472 274.788044 
L 256.274873 274.482377 
L 258.795483 274.045711 
L 261.316093 273.827378 
L 261.946245 273.696378 
L 263.20655 273.085046 
L 270.138227 270.159383 
L 270.768379 269.81005 
L 271.398532 269.111385 
L 272.028684 268.063386 
L 272.658837 267.23372 
L 273.288989 267.059054 
L 273.919142 267.059054 
L 275.179447 266.142055 
L 275.809599 265.967389 
L 276.439752 265.618056 
L 277.069904 265.487056 
L 277.700056 264.91939 
L 278.330209 264.744724 
L 280.220666 263.827725 
L 281.480971 262.08106 
L 282.111124 261.688061 
L 282.741276 260.640062 
L 283.371429 259.985063 
L 284.001581 259.679397 
L 284.631733 259.504731 
L 287.152343 258.020066 
L 288.412648 257.015734 
L 289.042801 256.622734 
L 289.672953 255.705736 
L 290.303106 254.264737 
L 290.933258 253.347739 
L 291.563411 252.867406 
L 292.193563 252.605406 
L 294.714173 250.422076 
L 295.974478 249.417744 
L 296.60463 248.893745 
L 297.234783 248.064079 
L 298.495088 246.972414 
L 301.015697 245.356749 
L 301.64585 244.789083 
L 302.276002 244.658084 
L 302.906155 244.396084 
L 304.16646 243.697418 
L 306.056917 242.736753 
L 307.317222 241.557754 
L 307.947374 240.815422 
L 309.207679 239.94209 
L 309.837832 239.767423 
L 310.467984 239.461757 
L 311.728289 238.632091 
L 312.358442 238.282759 
L 312.988594 238.195425 
L 314.248899 237.49676 
L 314.879051 237.147427 
L 315.509204 236.492428 
L 316.139356 236.099428 
L 316.769509 235.881095 
L 318.029814 235.138763 
L 318.659966 234.78943 
L 319.290119 234.571097 
L 321.180576 233.348432 
L 323.071033 232.780766 
L 323.701186 232.3441 
L 324.331338 232.2131 
L 325.591643 231.776434 
L 327.482101 231.034102 
L 329.372558 230.335436 
L 330.632863 230.117103 
L 331.893168 229.025438 
L 333.153473 228.414105 
L 334.413778 227.715439 
L 335.04393 227.366106 
L 336.304235 227.016774 
L 336.934387 226.623774 
L 337.56454 226.449108 
L 339.454997 225.270109 
L 342.605759 224.527777 
L 344.496217 223.436112 
L 345.126369 223.348778 
L 345.756522 223.130445 
L 347.016827 222.868446 
L 348.907284 221.471114 
L 350.797741 221.034448 
L 351.427894 220.816115 
L 352.058046 220.335782 
L 355.838961 219.113117 
L 356.469113 219.069451 
L 357.099266 218.894784 
L 358.359571 218.370785 
L 362.770638 216.842454 
L 364.030943 216.667787 
L 364.661095 216.493121 
L 365.291248 216.187455 
L 365.9214 216.056455 
L 367.811858 215.183123 
L 369.702315 214.266124 
L 370.332468 213.829458 
L 370.96262 213.654791 
L 372.853077 212.650459 
L 374.113382 212.344793 
L 375.373687 211.689794 
L 376.633992 211.340461 
L 377.264145 211.253128 
L 378.524449 210.510795 
L 379.154602 210.379796 
L 380.414907 209.855796 
L 381.045059 209.724796 
L 381.675212 209.375464 
L 384.195822 208.982464 
L 385.456126 208.371132 
L 386.086279 207.847132 
L 386.716431 206.755467 
L 387.976736 206.493467 
L 388.606889 206.362468 
L 391.127499 205.052469 
L 391.757651 204.921469 
L 396.798871 202.519806 
L 398.689328 202.126806 
L 399.319481 201.777474 
L 403.100395 200.467475 
L 404.3607 199.681476 
L 405.621005 198.939144 
L 406.251158 198.851811 
L 406.88131 198.633478 
L 407.511462 198.589811 
L 410.662225 197.760146 
L 411.292377 197.279813 
L 412.552682 196.843147 
L 414.443139 196.231814 
L 415.073292 195.838815 
L 415.703444 195.664148 
L 416.333597 195.227482 
L 416.963749 194.965483 
L 417.593902 194.572483 
L 418.854207 194.135817 
L 420.744664 193.524484 
L 421.374816 193.218818 
L 423.265274 191.77782 
L 423.895426 191.64682 
L 425.155731 190.686155 
L 425.785884 190.555155 
L 426.416036 189.59449 
L 427.046189 189.33249 
L 427.676341 188.852157 
L 428.306494 188.764824 
L 429.566798 188.022492 
L 430.196951 187.891492 
L 430.827103 187.629492 
L 431.457256 187.14916 
L 432.087408 186.930827 
L 433.977866 185.664495 
L 436.498475 184.398163 
L 437.128628 184.31083 
L 438.388933 183.743164 
L 439.019085 183.393831 
L 439.649238 182.345833 
L 440.27939 181.778167 
L 440.909543 181.428834 
L 441.539695 181.297834 
L 442.8 180.511835 
L 443.430152 180.380835 
L 444.690457 179.769503 
L 446.580915 178.983504 
L 447.84122 178.110172 
L 449.101525 176.800173 
L 452.252287 174.52951 
L 453.512592 173.481511 
L 454.142744 173.219511 
L 454.772897 172.520846 
L 455.403049 172.040513 
L 456.663354 171.603847 
L 457.293506 171.079848 
L 458.553811 170.424848 
L 459.183964 170.250182 
L 459.814116 169.813516 
L 460.444269 169.682516 
L 462.334726 168.678184 
L 463.595031 167.935852 
L 469.896556 165.708855 
L 470.526708 165.141189 
L 472.417165 164.442523 
L 473.67747 164.049523 
L 474.307623 163.569191 
L 476.828233 162.259193 
L 477.458385 161.90986 
L 478.71869 159.420863 
L 479.978995 157.936198 
L 481.2393 157.193866 
L 483.129757 156.451534 
L 483.75991 156.3642 
L 484.390062 156.014867 
L 486.280519 155.447202 
L 488.801129 154.31187 
L 489.431282 153.91887 
L 490.691587 153.482204 
L 494.472501 151.298874 
L 495.102654 150.643875 
L 495.732806 150.250875 
L 497.623264 149.421209 
L 498.253416 148.984543 
L 499.513721 148.373211 
L 501.404178 147.368879 
L 502.034331 147.194212 
L 502.664483 146.71388 
L 503.294636 146.45188 
L 503.924788 146.32088 
L 505.185093 145.884214 
L 507.075551 145.185548 
L 507.705703 144.748882 
L 508.966008 144.399549 
L 510.226313 143.919217 
L 510.856465 143.438884 
L 512.11677 143.045885 
L 512.746923 142.740218 
L 513.377075 142.565552 
L 514.63738 141.69222 
L 515.897685 141.124554 
L 517.15799 140.163888 
L 518.418295 139.727222 
L 519.048447 139.203223 
L 519.6786 139.11589 
L 520.938905 138.198891 
L 522.199209 137.587558 
L 522.829362 137.325559 
L 523.459514 136.714226 
L 527.240429 135.360561 
L 529.130887 134.530896 
L 531.021344 133.96323 
L 532.281649 133.788564 
L 532.911801 133.526564 
L 533.541954 133.439231 
L 534.802259 132.915231 
L 535.432411 132.871565 
L 537.953021 131.954566 
L 539.843478 130.644568 
L 540.473631 130.382568 
L 541.103783 129.989569 
L 542.994241 129.159903 
L 544.884698 128.024571 
L 545.51485 127.631572 
L 546.775155 127.325905 
L 548.03546 126.452573 
L 550.55607 125.666574 
L 551.186222 125.404575 
L 552.446527 125.098908 
L 555.59729 124.094576 
L 557.487747 123.745243 
L 560.008357 122.959244 
L 560.638509 122.697245 
L 561.268662 122.609912 
L 561.898814 122.304245 
L 563.159119 122.042246 
L 564.419424 121.60558 
L 565.049577 121.387247 
L 566.309881 121.256247 
L 567.570186 120.95058 
L 569.460644 120.644914 
L 570.090796 120.426581 
L 571.351101 120.295581 
L 577.022473 118.63625 
L 577.652626 118.417917 
L 578.282778 118.374251 
L 582.063693 117.238919 
L 583.323998 116.802253 
L 583.95415 116.714919 
L 585.844608 116.05992 
L 586.47476 116.05992 
L 587.735065 115.623254 
L 588.365217 115.011922 
L 588.99537 114.706255 
L 590.255675 114.313256 
L 592.776285 113.352591 
L 593.406437 113.221591 
L 594.036589 112.828591 
L 594.666742 112.697591 
L 595.296894 112.348259 
L 598.447657 111.43126 
L 599.077809 111.03826 
L 599.707962 110.90726 
L 600.338114 110.383261 
L 602.228571 110.033928 
L 603.488876 109.335263 
L 604.119029 108.636597 
L 605.379334 108.374597 
L 609.790401 107.370265 
L 610.420553 107.195599 
L 611.680858 107.151932 
L 612.311011 106.846266 
L 614.831621 106.4096 
L 615.461773 106.103933 
L 617.35223 105.841934 
L 619.87284 105.055935 
L 621.763298 104.619269 
L 623.653755 104.138936 
L 626.174365 103.352937 
L 626.804517 103.221937 
L 627.43467 102.916271 
L 628.064822 102.828938 
L 628.694975 102.610605 
L 629.325127 102.261272 
L 631.215584 101.606273 
L 631.845737 101.12594 
L 633.106042 100.776607 
L 633.736194 100.514608 
L 634.996499 100.165275 
L 637.517109 99.029943 
L 639.407566 98.898943 
L 641.928176 98.112944 
L 642.558329 97.719945 
L 643.818634 97.370612 
L 645.709091 96.409946 
L 646.339243 96.278946 
L 646.969396 95.97328 
L 647.599548 95.885947 
L 654.531225 93.571617 
L 657.051835 92.960284 
L 657.681988 92.785618 
L 658.942292 92.217952 
L 659.572445 92.130619 
L 660.83275 91.781286 
L 661.462902 91.300953 
L 662.093055 90.995287 
L 662.723207 90.252954 
L 663.35336 89.816288 
L 664.613665 89.423289 
L 665.243817 88.89929 
L 672.175494 86.06096 
L 673.435799 85.755294 
L 675.326256 84.881962 
L 676.586561 84.139629 
L 677.216714 84.008629 
L 677.846866 83.528297 
L 679.107171 82.916964 
L 680.367476 82.130965 
L 682.257933 81.257633 
L 682.888086 80.820967 
L 684.148391 80.340634 
L 685.408696 79.598302 
L 686.038848 79.292636 
L 686.669001 78.85597 
L 687.929305 78.419303 
L 688.559458 78.288304 
L 691.080068 77.152972 
L 694.23083 76.061307 
L 694.860982 76.01764 
L 695.491135 75.842973 
L 696.121287 75.449974 
L 696.75144 75.362641 
L 697.381592 75.144308 
L 699.27205 74.794975 
L 702.422812 73.17931 
L 703.683117 72.480645 
L 704.313269 72.393311 
L 706.203727 71.388979 
L 708.094184 70.690314 
L 709.984641 69.860648 
L 712.505251 68.856316 
L 713.135404 68.68165 
L 713.765556 68.28865 
L 715.025861 68.113984 
L 715.656014 67.720984 
L 716.286166 67.677318 
L 717.546471 67.284318 
L 718.806776 66.672986 
L 719.436928 66.585652 
L 720.067081 66.323653 
L 720.697233 66.192653 
L 722.587691 65.362987 
L 723.217843 65.231988 
L 723.847995 64.969988 
L 726.998758 64.227656 
L 728.889215 63.485323 
L 730.779673 62.349991 
L 732.039977 61.825992 
L 732.67013 61.563992 
L 733.300282 61.170993 
L 734.560587 60.908993 
L 735.19074 60.55966 
L 735.820892 60.428661 
L 737.081197 59.729995 
L 740.862112 57.98333 
L 744.643027 56.673332 
L 745.903331 56.018333 
L 746.533484 55.8 
L 747.163636 55.8 
L 747.163636 55.8 
" clip-path="url(#pbf7ac3fbf7)" style="fill: none; stroke: #1f77b4; stroke-width: 1.5; stroke-linecap: square"/>
   </g>
   <g id="line2d_36">
    <path d="M 139.066516 307.8 
L 140.956973 307.712667 
L 142.847431 307.669 
L 146.628346 307.581667 
L 149.779108 307.450667 
L 152.299718 307.450667 
L 152.92987 307.276001 
L 155.45048 307.188667 
L 157.340937 306.970334 
L 159.231395 306.795668 
L 163.012309 306.621002 
L 163.642462 306.621002 
L 164.272614 306.490002 
L 166.793224 306.402669 
L 168.053529 306.315335 
L 173.094749 306.228002 
L 176.245511 306.097002 
L 183.80734 306.009669 
L 186.958103 305.878669 
L 190.739018 305.791336 
L 193.259627 305.704003 
L 198.930999 305.61667 
L 200.821457 305.573003 
L 202.711914 305.529336 
L 204.602372 305.311003 
L 208.383286 305.267337 
L 209.643591 305.180003 
L 214.054658 305.09267 
L 220.986335 304.699671 
L 225.397403 304.612338 
L 226.657708 304.525004 
L 228.548165 304.437671 
L 232.32908 304.263005 
L 234.849689 304.219338 
L 236.740147 304.044672 
L 246.822586 303.433339 
L 249.343196 303.346006 
L 253.754263 303.127673 
L 255.64472 303.04034 
L 261.946245 302.691007 
L 268.877922 302.603674 
L 271.398532 302.341674 
L 272.658837 302.254341 
L 280.850819 301.599342 
L 284.631733 301.119009 
L 287.152343 301.031676 
L 292.193563 300.376676 
L 295.344325 300.289343 
L 303.536307 299.634344 
L 306.687069 299.285011 
L 309.207679 299.197678 
L 310.467984 299.110345 
L 312.988594 299.023012 
L 314.248899 298.935678 
L 317.399661 298.630012 
L 318.029814 298.455346 
L 321.810728 298.280679 
L 324.961491 298.193346 
L 333.153473 297.713013 
L 335.04393 297.62568 
L 343.235912 297.145347 
L 347.646979 297.058014 
L 348.277132 296.927014 
L 353.318351 296.839681 
L 357.729418 296.621348 
L 364.661095 296.534015 
L 369.072163 296.315682 
L 374.113382 296.228349 
L 379.154602 295.966349 
L 383.565669 295.879016 
L 395.538566 295.136683 
L 400.579785 295.04935 
L 416.963749 294.001352 
L 420.744664 293.914018 
L 422.635121 293.870352 
L 424.525579 293.826685 
L 426.416036 293.652019 
L 431.457256 293.564685 
L 432.717561 293.346352 
L 433.977866 293.259019 
L 437.128628 293.128019 
L 438.388933 293.040686 
L 439.649238 292.953353 
L 445.32061 292.86602 
L 446.580915 292.73502 
L 449.101525 292.691353 
L 449.731677 292.560353 
L 450.991982 292.47302 
L 451.622134 292.34202 
L 453.512592 292.254687 
L 464.225184 291.599688 
L 466.115641 291.512355 
L 469.266403 291.381355 
L 478.088538 291.294022 
L 482.499605 291.075689 
L 487.540824 290.988356 
L 490.061434 290.901022 
L 492.582044 290.857356 
L 493.842349 290.726356 
L 496.362959 290.639023 
L 502.664483 290.28969 
L 506.445398 290.246023 
L 508.335855 290.071357 
L 510.226313 290.02769 
L 514.63738 289.940357 
L 517.15799 289.853024 
L 524.719819 289.765691 
L 527.870582 289.634691 
L 531.651496 289.547357 
L 533.541954 289.329024 
L 537.322868 289.285358 
L 539.213326 289.110691 
L 541.733936 289.023358 
L 549.295765 288.936025 
L 552.446527 288.805025 
L 563.159119 288.761359 
L 564.419424 288.674025 
L 566.309881 288.630359 
L 574.501863 288.543025 
L 575.762168 288.455692 
L 582.693845 288.368359 
L 585.214455 288.281026 
L 592.776285 288.237359 
L 594.036589 288.150026 
L 603.488876 288.106359 
L 605.379334 287.931693 
L 616.091925 287.84436 
L 617.982383 287.800693 
L 634.366347 287.71336 
L 636.256804 287.669693 
L 648.229701 287.58236 
L 650.750311 287.495027 
L 655.161378 287.407694 
L 660.202597 287.145694 
L 662.723207 287.058361 
L 665.243817 286.971028 
L 669.024732 286.883694 
L 670.915189 286.840028 
L 673.435799 286.752695 
L 675.326256 286.709028 
L 678.477019 286.621695 
L 679.737324 286.534361 
L 683.518238 286.447028 
L 686.669001 286.316028 
L 687.929305 286.272362 
L 689.819763 286.097695 
L 693.600678 286.010362 
L 696.121287 285.923029 
L 702.422812 285.835696 
L 705.573574 285.704696 
L 711.875099 285.617363 
L 716.286166 285.39903 
L 721.957538 285.311696 
L 723.217843 285.224363 
L 730.779673 285.13703 
L 732.67013 285.093363 
L 739.601807 285.00603 
L 742.122417 284.74403 
L 744.012874 284.700364 
L 747.163636 284.613031 
L 747.163636 284.613031 
" clip-path="url(#pbf7ac3fbf7)" style="fill: none; stroke: #ff7f0e; stroke-width: 1.5; stroke-linecap: square"/>
   </g>
   <g id="patch_3">
    <path d="M 108 320.4 
L 108 43.2 
" style="fill: none; stroke: #a9a9a9; stroke-width: 0.8; stroke-linejoin: miter; stroke-linecap: square"/>
   </g>
   <g id="patch_4">
    <path d="M 777.6 320.4 
L 777.6 43.2 
" style="fill: none"/>
   </g>
   <g id="patch_5">
    <path d="M 108 320.4 
L 777.6 320.4 
" style="fill: none; stroke: #a9a9a9; stroke-width: 0.8; stroke-linejoin: miter; stroke-linecap: square"/>
   </g>
   <g id="patch_6">
    <path d="M 108 43.2 
L 777.6 43.2 
" style="fill: none"/>
   </g>
   <g id="text_18">
    <!-- get_subscribe history -->
    <g style="fill: #a9a9a9" transform="translate(378.6075 37.2) scale(0.12 -0.12)">
     <defs>
      <path id="DejaVuSans-67" d="M 2906 1791 
Q 2906 2416 2648 2759 
Q 2391 3103 1925 3103 
Q 1463 3103 1205 2759 
Q 947 2416 947 1791 
Q 947 1169 1205 825 
Q 1463 481 1925 481 
Q 2391 481 2648 825 
Q 2906 1169 2906 1791 
z
M 3481 434 
Q 3481 -459 3084 -895 
Q 2688 -1331 1869 -1331 
Q 1566 -1331 1297 -1286 
Q 1028 -1241 775 -1147 
L 775 -588 
Q 1028 -725 1275 -790 
Q 1522 -856 1778 -856 
Q 2344 -856 2625 -561 
Q 2906 -266 2906 331 
L 2906 616 
Q 2728 306 2450 153 
Q 2172 0 1784 0 
Q 1141 0 747 490 
Q 353 981 353 1791 
Q 353 2603 747 3093 
Q 1141 3584 1784 3584 
Q 2172 3584 2450 3431 
Q 2728 3278 2906 2969 
L 2906 3500 
L 3481 3500 
L 3481 434 
z
" transform="scale(0.015625)"/>
      <path id="DejaVuSans-65" d="M 3597 1894 
L 3597 1613 
L 953 1613 
Q 991 1019 1311 708 
Q 1631 397 2203 397 
Q 2534 397 2845 478 
Q 3156 559 3463 722 
L 3463 178 
Q 3153 47 2828 -22 
Q 2503 -91 2169 -91 
Q 1331 -91 842 396 
Q 353 884 353 1716 
Q 353 2575 817 3079 
Q 1281 3584 2069 3584 
Q 2775 3584 3186 3129 
Q 3597 2675 3597 1894 
z
M 3022 2063 
Q 3016 2534 2758 2815 
Q 2500 3097 2075 3097 
Q 1594 3097 1305 2825 
Q 1016 2553 972 2059 
L 3022 2063 
z
" transform="scale(0.015625)"/>
      <path id="DejaVuSans-74" d="M 1172 4494 
L 1172 3500 
L 2356 3500 
L 2356 3053 
L 1172 3053 
L 1172 1153 
Q 1172 725 1289 603 
Q 1406 481 1766 481 
L 2356 481 
L 2356 0 
L 1766 0 
Q 1100 0 847 248 
Q 594 497 594 1153 
L 594 3053 
L 172 3053 
L 172 3500 
L 594 3500 
L 594 4494 
L 1172 4494 
z
" transform="scale(0.015625)"/>
      <path id="DejaVuSans-5f" d="M 3263 -1063 
L 3263 -1509 
L -63 -1509 
L -63 -1063 
L 3263 -1063 
z
" transform="scale(0.015625)"/>
      <path id="DejaVuSans-73" d="M 2834 3397 
L 2834 2853 
Q 2591 2978 2328 3040 
Q 2066 3103 1784 3103 
Q 1356 3103 1142 2972 
Q 928 2841 928 2578 
Q 928 2378 1081 2264 
Q 1234 2150 1697 2047 
L 1894 2003 
Q 2506 1872 2764 1633 
Q 3022 1394 3022 966 
Q 3022 478 2636 193 
Q 2250 -91 1575 -91 
Q 1294 -91 989 -36 
Q 684 19 347 128 
L 347 722 
Q 666 556 975 473 
Q 1284 391 1588 391 
Q 1994 391 2212 530 
Q 2431 669 2431 922 
Q 2431 1156 2273 1281 
Q 2116 1406 1581 1522 
L 1381 1569 
Q 847 1681 609 1914 
Q 372 2147 372 2553 
Q 372 3047 722 3315 
Q 1072 3584 1716 3584 
Q 2034 3584 2315 3537 
Q 2597 3491 2834 3397 
z
" transform="scale(0.015625)"/>
      <path id="DejaVuSans-75" d="M 544 1381 
L 544 3500 
L 1119 3500 
L 1119 1403 
Q 1119 906 1312 657 
Q 1506 409 1894 409 
Q 2359 409 2629 706 
Q 2900 1003 2900 1516 
L 2900 3500 
L 3475 3500 
L 3475 0 
L 2900 0 
L 2900 538 
Q 2691 219 2414 64 
Q 2138 -91 1772 -91 
Q 1169 -91 856 284 
Q 544 659 544 1381 
z
M 1991 3584 
L 1991 3584 
z
" transform="scale(0.015625)"/>
      <path id="DejaVuSans-62" d="M 3116 1747 
Q 3116 2381 2855 2742 
Q 2594 3103 2138 3103 
Q 1681 3103 1420 2742 
Q 1159 2381 1159 1747 
Q 1159 1113 1420 752 
Q 1681 391 2138 391 
Q 2594 391 2855 752 
Q 3116 1113 3116 1747 
z
M 1159 2969 
Q 1341 3281 1617 3432 
Q 1894 3584 2278 3584 
Q 2916 3584 3314 3078 
Q 3713 2572 3713 1747 
Q 3713 922 3314 415 
Q 2916 -91 2278 -91 
Q 1894 -91 1617 61 
Q 1341 213 1159 525 
L 1159 0 
L 581 0 
L 581 4863 
L 1159 4863 
L 1159 2969 
z
" transform="scale(0.015625)"/>
      <path id="DejaVuSans-63" d="M 3122 3366 
L 3122 2828 
Q 2878 2963 2633 3030 
Q 2388 3097 2138 3097 
Q 1578 3097 1268 2742 
Q 959 2388 959 1747 
Q 959 1106 1268 751 
Q 1578 397 2138 397 
Q 2388 397 2633 464 
Q 2878 531 3122 666 
L 3122 134 
Q 2881 22 2623 -34 
Q 2366 -91 2075 -91 
Q 1284 -91 818 406 
Q 353 903 353 1747 
Q 353 2603 823 3093 
Q 1294 3584 2113 3584 
Q 2378 3584 2631 3529 
Q 2884 3475 3122 3366 
z
" transform="scale(0.015625)"/>
      <path id="DejaVuSans-72" d="M 2631 2963 
Q 2534 3019 2420 3045 
Q 2306 3072 2169 3072 
Q 1681 3072 1420 2755 
Q 1159 2438 1159 1844 
L 1159 0 
L 581 0 
L 581 3500 
L 1159 3500 
L 1159 2956 
Q 1341 3275 1631 3429 
Q 1922 3584 2338 3584 
Q 2397 3584 2469 3576 
Q 2541 3569 2628 3553 
L 2631 2963 
z
" transform="scale(0.015625)"/>
      <path id="DejaVuSans-69" d="M 603 3500 
L 1178 3500 
L 1178 0 
L 603 0 
L 603 3500 
z
M 603 4863 
L 1178 4863 
L 1178 4134 
L 603 4134 
L 603 4863 
z
" transform="scale(0.015625)"/>
      <path id="DejaVuSans-20" transform="scale(0.015625)"/>
      <path id="DejaVuSans-68" d="M 3513 2113 
L 3513 0 
L 2938 0 
L 2938 2094 
Q 2938 2591 2744 2837 
Q 2550 3084 2163 3084 
Q 1697 3084 1428 2787 
Q 1159 2491 1159 1978 
L 1159 0 
L 581 0 
L 581 4863 
L 1159 4863 
L 1159 2956 
Q 1366 3272 1645 3428 
Q 1925 3584 2291 3584 
Q 2894 3584 3203 3211 
Q 3513 2838 3513 2113 
z
" transform="scale(0.015625)"/>
      <path id="DejaVuSans-6f" d="M 1959 3097 
Q 1497 3097 1228 2736 
Q 959 2375 959 1747 
Q 959 1119 1226 758 
Q 1494 397 1959 397 
Q 2419 397 2687 759 
Q 2956 1122 2956 1747 
Q 2956 2369 2687 2733 
Q 2419 3097 1959 3097 
z
M 1959 3584 
Q 2709 3584 3137 3096 
Q 3566 2609 3566 1747 
Q 3566 888 3137 398 
Q 2709 -91 1959 -91 
Q 1206 -91 779 398 
Q 353 888 353 1747 
Q 353 2609 779 3096 
Q 1206 3584 1959 3584 
z
" transform="scale(0.015625)"/>
      <path id="DejaVuSans-79" d="M 2059 -325 
Q 1816 -950 1584 -1140 
Q 1353 -1331 966 -1331 
L 506 -1331 
L 506 -850 
L 844 -850 
Q 1081 -850 1212 -737 
Q 1344 -625 1503 -206 
L 1606 56 
L 191 3500 
L 800 3500 
L 1894 763 
L 2988 3500 
L 3597 3500 
L 2059 -325 
z
" transform="scale(0.015625)"/>
     </defs>
     <use xlink:href="#DejaVuSans-67"/>
     <use xlink:href="#DejaVuSans-65" x="63.476562"/>
     <use xlink:href="#DejaVuSans-74" x="125"/>
     <use xlink:href="#DejaVuSans-5f" x="164.208984"/>
     <use xlink:href="#DejaVuSans-73" x="214.208984"/>
     <use xlink:href="#DejaVuSans-75" x="266.308594"/>
     <use xlink:href="#DejaVuSans-62" x="329.6875"/>
     <use xlink:href="#DejaVuSans-73" x="393.164062"/>
     <use xlink:href="#DejaVuSans-63" x="445.263672"/>
     <use xlink:href="#DejaVuSans-72" x="500.244141"/>
     <use xlink:href="#DejaVuSans-69" x="541.357422"/>
     <use xlink:href="#DejaVuSans-62" x="569.140625"/>
     <use xlink:href="#DejaVuSans-65" x="632.617188"/>
     <use xlink:href="#DejaVuSans-20" x="694.140625"/>
     <use xlink:href="#DejaVuSans-68" x="725.927734"/>
     <use xlink:href="#DejaVuSans-69" x="789.306641"/>
     <use xlink:href="#DejaVuSans-73" x="817.089844"/>
     <use xlink:href="#DejaVuSans-74" x="869.189453"/>
     <use xlink:href="#DejaVuSans-6f" x="908.398438"/>
     <use xlink:href="#DejaVuSans-72" x="969.580078"/>
     <use xlink:href="#DejaVuSans-79" x="1010.693359"/>
    </g>
   </g>
   <g id="legend_1">
    <g id="line2d_37">
     <path d="M 815.08 328.498438 
L 825.08 328.498438 
L 835.08 328.498438 
" style="fill: none; stroke: #1f77b4; stroke-width: 1.5; stroke-linecap: square"/>
    </g>
    <g id="text_19">
     <!-- star -->
     <g style="fill: #a9a9a9" transform="translate(843.08 331.998438) scale(0.1 -0.1)">
      <defs>
       <path id="DejaVuSans-61" d="M 2194 1759 
Q 1497 1759 1228 1600 
Q 959 1441 959 1056 
Q 959 750 1161 570 
Q 1363 391 1709 391 
Q 2188 391 2477 730 
Q 2766 1069 2766 1631 
L 2766 1759 
L 2194 1759 
z
M 3341 1997 
L 3341 0 
L 2766 0 
L 2766 531 
Q 2569 213 2275 61 
Q 1981 -91 1556 -91 
Q 1019 -91 701 211 
Q 384 513 384 1019 
Q 384 1609 779 1909 
Q 1175 2209 1959 2209 
L 2766 2209 
L 2766 2266 
Q 2766 2663 2505 2880 
Q 2244 3097 1772 3097 
Q 1472 3097 1187 3025 
Q 903 2953 641 2809 
L 641 3341 
Q 956 3463 1253 3523 
Q 1550 3584 1831 3584 
Q 2591 3584 2966 3190 
Q 3341 2797 3341 1997 
z
" transform="scale(0.015625)"/>
      </defs>
      <use xlink:href="#DejaVuSans-73"/>
      <use xlink:href="#DejaVuSans-74" x="52.099609"/>
      <use xlink:href="#DejaVuSans-61" x="91.308594"/>
      <use xlink:href="#DejaVuSans-72" x="152.587891"/>
     </g>
    </g>
    <g id="line2d_38">
     <path d="M 815.08 343.176562 
L 825.08 343.176562 
L 835.08 343.176562 
" style="fill: none; stroke: #ff7f0e; stroke-width: 1.5; stroke-linecap: square"/>
    </g>
    <g id="text_20">
     <!-- fork -->
     <g style="fill: #a9a9a9" transform="translate(843.08 346.676562) scale(0.1 -0.1)">
      <defs>
       <path id="DejaVuSans-66" d="M 2375 4863 
L 2375 4384 
L 1825 4384 
Q 1516 4384 1395 4259 
Q 1275 4134 1275 3809 
L 1275 3500 
L 2222 3500 
L 2222 3053 
L 1275 3053 
L 1275 0 
L 697 0 
L 697 3053 
L 147 3053 
L 147 3500 
L 697 3500 
L 697 3744 
Q 697 4328 969 4595 
Q 1241 4863 1831 4863 
L 2375 4863 
z
" transform="scale(0.015625)"/>
       <path id="DejaVuSans-6b" d="M 581 4863 
L 1159 4863 
L 1159 1991 
L 2875 3500 
L 3609 3500 
L 1753 1863 
L 3688 0 
L 2938 0 
L 1159 1709 
L 1159 0 
L 581 0 
L 581 4863 
z
" transform="scale(0.015625)"/>
      </defs>
      <use xlink:href="#DejaVuSans-66"/>
      <use xlink:href="#DejaVuSans-6f" x="35.205078"/>
      <use xlink:href="#DejaVuSans-72" x="96.386719"/>
      <use xlink:href="#DejaVuSans-6b" x="137.5"/>
     </g>
    </g>
   </g>
  </g>
 </g>
 <defs>
  <clipPath id="pbf7ac3fbf7">
   <rect x="108" y="43.2" width="669.6" height="277.2"/>
  </clipPath>
 </defs>
</svg>
