<?xml version="1.0" encoding="utf-8" standalone="no"?>
<!DOCTYPE svg PUBLIC "-//W3C//DTD SVG 1.1//EN"
  "http://www.w3.org/Graphics/SVG/1.1/DTD/svg11.dtd">
<svg xmlns:xlink="http://www.w3.org/1999/xlink" width="864pt" height="360pt" viewBox="0 0 864 360" xmlns="http://www.w3.org/2000/svg" version="1.1">
 <metadata>
  <rdf:RDF xmlns:dc="http://purl.org/dc/elements/1.1/" xmlns:cc="http://creativecommons.org/ns#" xmlns:rdf="http://www.w3.org/1999/02/22-rdf-syntax-ns#">
   <cc:Work>
    <dc:type rdf:resource="http://purl.org/dc/dcmitype/StillImage"/>
    <dc:date>2024-03-12T20:04:57.105596</dc:date>
    <dc:format>image/svg+xml</dc:format>
    <dc:creator>
     <cc:Agent>
      <dc:title>Matplotlib v3.8.3, https://matplotlib.org/</dc:title>
     </cc:Agent>
    </dc:creator>
   </cc:Work>
  </rdf:RDF>
 </metadata>
 <defs>
  <style type="text/css">*{stroke-linejoin: round; stroke-linecap: butt}</style>
 </defs>
 <g id="figure_1">
  <g id="patch_1">
   <path d="M 0 360 
L 864 360 
L 864 0 
L 0 0 
L 0 360 
z
" style="fill: none; opacity: 0"/>
  </g>
  <g id="axes_1">
   <g id="patch_2">
    <path d="M 108 320.4 
L 777.6 320.4 
L 777.6 43.2 
L 108 43.2 
L 108 320.4 
z
" style="fill: none; opacity: 0"/>
   </g>
   <g id="matplotlib.axis_1">
    <g id="xtick_1">
     <g id="line2d_1">
      <path d="M 163.114496 320.4 
L 163.114496 43.2 
" clip-path="url(#paddcf88930)" style="fill: none; stroke-dasharray: 5.12,1.28,0.8,1.28; stroke-dashoffset: 0; stroke: #b0b0b0; stroke-width: 0.8"/>
     </g>
     <g id="line2d_2">
      <defs>
       <path id="m30b8bc7e76" d="M 0 0 
L 0 3.5 
" style="stroke: #a9a9a9; stroke-width: 0.8"/>
      </defs>
      <g>
       <use xlink:href="#m30b8bc7e76" x="163.114496" y="320.4" style="fill: #a9a9a9; stroke: #a9a9a9; stroke-width: 0.8"/>
      </g>
     </g>
     <g id="text_1">
      <!-- 2021-09 -->
      <g style="fill: #a9a9a9" transform="translate(142.22309 334.998438) scale(0.1 -0.1)">
       <defs>
        <path id="DejaVuSans-32" d="M 1228 531 
L 3431 531 
L 3431 0 
L 469 0 
L 469 531 
Q 828 903 1448 1529 
Q 2069 2156 2228 2338 
Q 2531 2678 2651 2914 
Q 2772 3150 2772 3378 
Q 2772 3750 2511 3984 
Q 2250 4219 1831 4219 
Q 1534 4219 1204 4116 
Q 875 4013 500 3803 
L 500 4441 
Q 881 4594 1212 4672 
Q 1544 4750 1819 4750 
Q 2544 4750 2975 4387 
Q 3406 4025 3406 3419 
Q 3406 3131 3298 2873 
Q 3191 2616 2906 2266 
Q 2828 2175 2409 1742 
Q 1991 1309 1228 531 
z
" transform="scale(0.015625)"/>
        <path id="DejaVuSans-30" d="M 2034 4250 
Q 1547 4250 1301 3770 
Q 1056 3291 1056 2328 
Q 1056 1369 1301 889 
Q 1547 409 2034 409 
Q 2525 409 2770 889 
Q 3016 1369 3016 2328 
Q 3016 3291 2770 3770 
Q 2525 4250 2034 4250 
z
M 2034 4750 
Q 2819 4750 3233 4129 
Q 3647 3509 3647 2328 
Q 3647 1150 3233 529 
Q 2819 -91 2034 -91 
Q 1250 -91 836 529 
Q 422 1150 422 2328 
Q 422 3509 836 4129 
Q 1250 4750 2034 4750 
z
" transform="scale(0.015625)"/>
        <path id="DejaVuSans-31" d="M 794 531 
L 1825 531 
L 1825 4091 
L 703 3866 
L 703 4441 
L 1819 4666 
L 2450 4666 
L 2450 531 
L 3481 531 
L 3481 0 
L 794 0 
L 794 531 
z
" transform="scale(0.015625)"/>
        <path id="DejaVuSans-2d" d="M 313 2009 
L 1997 2009 
L 1997 1497 
L 313 1497 
L 313 2009 
z
" transform="scale(0.015625)"/>
        <path id="DejaVuSans-39" d="M 703 97 
L 703 672 
Q 941 559 1184 500 
Q 1428 441 1663 441 
Q 2288 441 2617 861 
Q 2947 1281 2994 2138 
Q 2813 1869 2534 1725 
Q 2256 1581 1919 1581 
Q 1219 1581 811 2004 
Q 403 2428 403 3163 
Q 403 3881 828 4315 
Q 1253 4750 1959 4750 
Q 2769 4750 3195 4129 
Q 3622 3509 3622 2328 
Q 3622 1225 3098 567 
Q 2575 -91 1691 -91 
Q 1453 -91 1209 -44 
Q 966 3 703 97 
z
M 1959 2075 
Q 2384 2075 2632 2365 
Q 2881 2656 2881 3163 
Q 2881 3666 2632 3958 
Q 2384 4250 1959 4250 
Q 1534 4250 1286 3958 
Q 1038 3666 1038 3163 
Q 1038 2656 1286 2365 
Q 1534 2075 1959 2075 
z
" transform="scale(0.015625)"/>
       </defs>
       <use xlink:href="#DejaVuSans-32"/>
       <use xlink:href="#DejaVuSans-30" x="63.623047"/>
       <use xlink:href="#DejaVuSans-32" x="127.246094"/>
       <use xlink:href="#DejaVuSans-31" x="190.869141"/>
       <use xlink:href="#DejaVuSans-2d" x="254.492188"/>
       <use xlink:href="#DejaVuSans-30" x="290.576172"/>
       <use xlink:href="#DejaVuSans-39" x="354.199219"/>
      </g>
     </g>
    </g>
    <g id="xtick_2">
     <g id="line2d_3">
      <path d="M 240.312758 320.4 
L 240.312758 43.2 
" clip-path="url(#paddcf88930)" style="fill: none; stroke-dasharray: 5.12,1.28,0.8,1.28; stroke-dashoffset: 0; stroke: #b0b0b0; stroke-width: 0.8"/>
     </g>
     <g id="line2d_4">
      <g>
       <use xlink:href="#m30b8bc7e76" x="240.312758" y="320.4" style="fill: #a9a9a9; stroke: #a9a9a9; stroke-width: 0.8"/>
      </g>
     </g>
     <g id="text_2">
      <!-- 2022-01 -->
      <g style="fill: #a9a9a9" transform="translate(219.421351 334.998438) scale(0.1 -0.1)">
       <use xlink:href="#DejaVuSans-32"/>
       <use xlink:href="#DejaVuSans-30" x="63.623047"/>
       <use xlink:href="#DejaVuSans-32" x="127.246094"/>
       <use xlink:href="#DejaVuSans-32" x="190.869141"/>
       <use xlink:href="#DejaVuSans-2d" x="254.492188"/>
       <use xlink:href="#DejaVuSans-30" x="290.576172"/>
       <use xlink:href="#DejaVuSans-31" x="354.199219"/>
      </g>
     </g>
    </g>
    <g id="xtick_3">
     <g id="line2d_5">
      <path d="M 316.245473 320.4 
L 316.245473 43.2 
" clip-path="url(#paddcf88930)" style="fill: none; stroke-dasharray: 5.12,1.28,0.8,1.28; stroke-dashoffset: 0; stroke: #b0b0b0; stroke-width: 0.8"/>
     </g>
     <g id="line2d_6">
      <g>
       <use xlink:href="#m30b8bc7e76" x="316.245473" y="320.4" style="fill: #a9a9a9; stroke: #a9a9a9; stroke-width: 0.8"/>
      </g>
     </g>
     <g id="text_3">
      <!-- 2022-05 -->
      <g style="fill: #a9a9a9" transform="translate(295.354067 334.998438) scale(0.1 -0.1)">
       <defs>
        <path id="DejaVuSans-35" d="M 691 4666 
L 3169 4666 
L 3169 4134 
L 1269 4134 
L 1269 2991 
Q 1406 3038 1543 3061 
Q 1681 3084 1819 3084 
Q 2600 3084 3056 2656 
Q 3513 2228 3513 1497 
Q 3513 744 3044 326 
Q 2575 -91 1722 -91 
Q 1428 -91 1123 -41 
Q 819 9 494 109 
L 494 744 
Q 775 591 1075 516 
Q 1375 441 1709 441 
Q 2250 441 2565 725 
Q 2881 1009 2881 1497 
Q 2881 1984 2565 2268 
Q 2250 2553 1709 2553 
Q 1456 2553 1204 2497 
Q 953 2441 691 2322 
L 691 4666 
z
" transform="scale(0.015625)"/>
       </defs>
       <use xlink:href="#DejaVuSans-32"/>
       <use xlink:href="#DejaVuSans-30" x="63.623047"/>
       <use xlink:href="#DejaVuSans-32" x="127.246094"/>
       <use xlink:href="#DejaVuSans-32" x="190.869141"/>
       <use xlink:href="#DejaVuSans-2d" x="254.492188"/>
       <use xlink:href="#DejaVuSans-30" x="290.576172"/>
       <use xlink:href="#DejaVuSans-35" x="354.199219"/>
      </g>
     </g>
    </g>
    <g id="xtick_4">
     <g id="line2d_7">
      <path d="M 394.076507 320.4 
L 394.076507 43.2 
" clip-path="url(#paddcf88930)" style="fill: none; stroke-dasharray: 5.12,1.28,0.8,1.28; stroke-dashoffset: 0; stroke: #b0b0b0; stroke-width: 0.8"/>
     </g>
     <g id="line2d_8">
      <g>
       <use xlink:href="#m30b8bc7e76" x="394.076507" y="320.4" style="fill: #a9a9a9; stroke: #a9a9a9; stroke-width: 0.8"/>
      </g>
     </g>
     <g id="text_4">
      <!-- 2022-09 -->
      <g style="fill: #a9a9a9" transform="translate(373.185101 334.998438) scale(0.1 -0.1)">
       <use xlink:href="#DejaVuSans-32"/>
       <use xlink:href="#DejaVuSans-30" x="63.623047"/>
       <use xlink:href="#DejaVuSans-32" x="127.246094"/>
       <use xlink:href="#DejaVuSans-32" x="190.869141"/>
       <use xlink:href="#DejaVuSans-2d" x="254.492188"/>
       <use xlink:href="#DejaVuSans-30" x="290.576172"/>
       <use xlink:href="#DejaVuSans-39" x="354.199219"/>
      </g>
     </g>
    </g>
    <g id="xtick_5">
     <g id="line2d_9">
      <path d="M 471.274768 320.4 
L 471.274768 43.2 
" clip-path="url(#paddcf88930)" style="fill: none; stroke-dasharray: 5.12,1.28,0.8,1.28; stroke-dashoffset: 0; stroke: #b0b0b0; stroke-width: 0.8"/>
     </g>
     <g id="line2d_10">
      <g>
       <use xlink:href="#m30b8bc7e76" x="471.274768" y="320.4" style="fill: #a9a9a9; stroke: #a9a9a9; stroke-width: 0.8"/>
      </g>
     </g>
     <g id="text_5">
      <!-- 2023-01 -->
      <g style="fill: #a9a9a9" transform="translate(450.383362 334.998438) scale(0.1 -0.1)">
       <defs>
        <path id="DejaVuSans-33" d="M 2597 2516 
Q 3050 2419 3304 2112 
Q 3559 1806 3559 1356 
Q 3559 666 3084 287 
Q 2609 -91 1734 -91 
Q 1441 -91 1130 -33 
Q 819 25 488 141 
L 488 750 
Q 750 597 1062 519 
Q 1375 441 1716 441 
Q 2309 441 2620 675 
Q 2931 909 2931 1356 
Q 2931 1769 2642 2001 
Q 2353 2234 1838 2234 
L 1294 2234 
L 1294 2753 
L 1863 2753 
Q 2328 2753 2575 2939 
Q 2822 3125 2822 3475 
Q 2822 3834 2567 4026 
Q 2313 4219 1838 4219 
Q 1578 4219 1281 4162 
Q 984 4106 628 3988 
L 628 4550 
Q 988 4650 1302 4700 
Q 1616 4750 1894 4750 
Q 2613 4750 3031 4423 
Q 3450 4097 3450 3541 
Q 3450 3153 3228 2886 
Q 3006 2619 2597 2516 
z
" transform="scale(0.015625)"/>
       </defs>
       <use xlink:href="#DejaVuSans-32"/>
       <use xlink:href="#DejaVuSans-30" x="63.623047"/>
       <use xlink:href="#DejaVuSans-32" x="127.246094"/>
       <use xlink:href="#DejaVuSans-33" x="190.869141"/>
       <use xlink:href="#DejaVuSans-2d" x="254.492188"/>
       <use xlink:href="#DejaVuSans-30" x="290.576172"/>
       <use xlink:href="#DejaVuSans-31" x="354.199219"/>
      </g>
     </g>
    </g>
    <g id="xtick_6">
     <g id="line2d_11">
      <path d="M 547.207484 320.4 
L 547.207484 43.2 
" clip-path="url(#paddcf88930)" style="fill: none; stroke-dasharray: 5.12,1.28,0.8,1.28; stroke-dashoffset: 0; stroke: #b0b0b0; stroke-width: 0.8"/>
     </g>
     <g id="line2d_12">
      <g>
       <use xlink:href="#m30b8bc7e76" x="547.207484" y="320.4" style="fill: #a9a9a9; stroke: #a9a9a9; stroke-width: 0.8"/>
      </g>
     </g>
     <g id="text_6">
      <!-- 2023-05 -->
      <g style="fill: #a9a9a9" transform="translate(526.316078 334.998438) scale(0.1 -0.1)">
       <use xlink:href="#DejaVuSans-32"/>
       <use xlink:href="#DejaVuSans-30" x="63.623047"/>
       <use xlink:href="#DejaVuSans-32" x="127.246094"/>
       <use xlink:href="#DejaVuSans-33" x="190.869141"/>
       <use xlink:href="#DejaVuSans-2d" x="254.492188"/>
       <use xlink:href="#DejaVuSans-30" x="290.576172"/>
       <use xlink:href="#DejaVuSans-35" x="354.199219"/>
      </g>
     </g>
    </g>
    <g id="xtick_7">
     <g id="line2d_13">
      <path d="M 625.038518 320.4 
L 625.038518 43.2 
" clip-path="url(#paddcf88930)" style="fill: none; stroke-dasharray: 5.12,1.28,0.8,1.28; stroke-dashoffset: 0; stroke: #b0b0b0; stroke-width: 0.8"/>
     </g>
     <g id="line2d_14">
      <g>
       <use xlink:href="#m30b8bc7e76" x="625.038518" y="320.4" style="fill: #a9a9a9; stroke: #a9a9a9; stroke-width: 0.8"/>
      </g>
     </g>
     <g id="text_7">
      <!-- 2023-09 -->
      <g style="fill: #a9a9a9" transform="translate(604.147112 334.998438) scale(0.1 -0.1)">
       <use xlink:href="#DejaVuSans-32"/>
       <use xlink:href="#DejaVuSans-30" x="63.623047"/>
       <use xlink:href="#DejaVuSans-32" x="127.246094"/>
       <use xlink:href="#DejaVuSans-33" x="190.869141"/>
       <use xlink:href="#DejaVuSans-2d" x="254.492188"/>
       <use xlink:href="#DejaVuSans-30" x="290.576172"/>
       <use xlink:href="#DejaVuSans-39" x="354.199219"/>
      </g>
     </g>
    </g>
    <g id="xtick_8">
     <g id="line2d_15">
      <path d="M 702.236779 320.4 
L 702.236779 43.2 
" clip-path="url(#paddcf88930)" style="fill: none; stroke-dasharray: 5.12,1.28,0.8,1.28; stroke-dashoffset: 0; stroke: #b0b0b0; stroke-width: 0.8"/>
     </g>
     <g id="line2d_16">
      <g>
       <use xlink:href="#m30b8bc7e76" x="702.236779" y="320.4" style="fill: #a9a9a9; stroke: #a9a9a9; stroke-width: 0.8"/>
      </g>
     </g>
     <g id="text_8">
      <!-- 2024-01 -->
      <g style="fill: #a9a9a9" transform="translate(681.345373 334.998438) scale(0.1 -0.1)">
       <defs>
        <path id="DejaVuSans-34" d="M 2419 4116 
L 825 1625 
L 2419 1625 
L 2419 4116 
z
M 2253 4666 
L 3047 4666 
L 3047 1625 
L 3713 1625 
L 3713 1100 
L 3047 1100 
L 3047 0 
L 2419 0 
L 2419 1100 
L 313 1100 
L 313 1709 
L 2253 4666 
z
" transform="scale(0.015625)"/>
       </defs>
       <use xlink:href="#DejaVuSans-32"/>
       <use xlink:href="#DejaVuSans-30" x="63.623047"/>
       <use xlink:href="#DejaVuSans-32" x="127.246094"/>
       <use xlink:href="#DejaVuSans-34" x="190.869141"/>
       <use xlink:href="#DejaVuSans-2d" x="254.492188"/>
       <use xlink:href="#DejaVuSans-30" x="290.576172"/>
       <use xlink:href="#DejaVuSans-31" x="354.199219"/>
      </g>
     </g>
    </g>
   </g>
   <g id="matplotlib.axis_2">
    <g id="ytick_1">
     <g id="line2d_17">
      <path d="M 108 307.84378 
L 777.6 307.84378 
" clip-path="url(#paddcf88930)" style="fill: none; stroke-dasharray: 5.12,1.28,0.8,1.28; stroke-dashoffset: 0; stroke: #b0b0b0; stroke-width: 0.8"/>
     </g>
     <g id="line2d_18">
      <defs>
       <path id="m8dcda0f916" d="M 0 0 
L -3.5 0 
" style="stroke: #a9a9a9; stroke-width: 0.8"/>
      </defs>
      <g>
       <use xlink:href="#m8dcda0f916" x="108" y="307.84378" style="fill: #a9a9a9; stroke: #a9a9a9; stroke-width: 0.8"/>
      </g>
     </g>
     <g id="text_9">
      <!-- 0 -->
      <g style="fill: #a9a9a9" transform="translate(94.6375 311.642999) scale(0.1 -0.1)">
       <use xlink:href="#DejaVuSans-30"/>
      </g>
     </g>
    </g>
    <g id="ytick_2">
     <g id="line2d_19">
      <path d="M 108 272.819458 
L 777.6 272.819458 
" clip-path="url(#paddcf88930)" style="fill: none; stroke-dasharray: 5.12,1.28,0.8,1.28; stroke-dashoffset: 0; stroke: #b0b0b0; stroke-width: 0.8"/>
     </g>
     <g id="line2d_20">
      <g>
       <use xlink:href="#m8dcda0f916" x="108" y="272.819458" style="fill: #a9a9a9; stroke: #a9a9a9; stroke-width: 0.8"/>
      </g>
     </g>
     <g id="text_10">
      <!-- 800 -->
      <g style="fill: #a9a9a9" transform="translate(81.9125 276.618677) scale(0.1 -0.1)">
       <defs>
        <path id="DejaVuSans-38" d="M 2034 2216 
Q 1584 2216 1326 1975 
Q 1069 1734 1069 1313 
Q 1069 891 1326 650 
Q 1584 409 2034 409 
Q 2484 409 2743 651 
Q 3003 894 3003 1313 
Q 3003 1734 2745 1975 
Q 2488 2216 2034 2216 
z
M 1403 2484 
Q 997 2584 770 2862 
Q 544 3141 544 3541 
Q 544 4100 942 4425 
Q 1341 4750 2034 4750 
Q 2731 4750 3128 4425 
Q 3525 4100 3525 3541 
Q 3525 3141 3298 2862 
Q 3072 2584 2669 2484 
Q 3125 2378 3379 2068 
Q 3634 1759 3634 1313 
Q 3634 634 3220 271 
Q 2806 -91 2034 -91 
Q 1263 -91 848 271 
Q 434 634 434 1313 
Q 434 1759 690 2068 
Q 947 2378 1403 2484 
z
M 1172 3481 
Q 1172 3119 1398 2916 
Q 1625 2713 2034 2713 
Q 2441 2713 2670 2916 
Q 2900 3119 2900 3481 
Q 2900 3844 2670 4047 
Q 2441 4250 2034 4250 
Q 1625 4250 1398 4047 
Q 1172 3844 1172 3481 
z
" transform="scale(0.015625)"/>
       </defs>
       <use xlink:href="#DejaVuSans-38"/>
       <use xlink:href="#DejaVuSans-30" x="63.623047"/>
       <use xlink:href="#DejaVuSans-30" x="127.246094"/>
      </g>
     </g>
    </g>
    <g id="ytick_3">
     <g id="line2d_21">
      <path d="M 108 237.795136 
L 777.6 237.795136 
" clip-path="url(#paddcf88930)" style="fill: none; stroke-dasharray: 5.12,1.28,0.8,1.28; stroke-dashoffset: 0; stroke: #b0b0b0; stroke-width: 0.8"/>
     </g>
     <g id="line2d_22">
      <g>
       <use xlink:href="#m8dcda0f916" x="108" y="237.795136" style="fill: #a9a9a9; stroke: #a9a9a9; stroke-width: 0.8"/>
      </g>
     </g>
     <g id="text_11">
      <!-- 1600 -->
      <g style="fill: #a9a9a9" transform="translate(75.55 241.594354) scale(0.1 -0.1)">
       <defs>
        <path id="DejaVuSans-36" d="M 2113 2584 
Q 1688 2584 1439 2293 
Q 1191 2003 1191 1497 
Q 1191 994 1439 701 
Q 1688 409 2113 409 
Q 2538 409 2786 701 
Q 3034 994 3034 1497 
Q 3034 2003 2786 2293 
Q 2538 2584 2113 2584 
z
M 3366 4563 
L 3366 3988 
Q 3128 4100 2886 4159 
Q 2644 4219 2406 4219 
Q 1781 4219 1451 3797 
Q 1122 3375 1075 2522 
Q 1259 2794 1537 2939 
Q 1816 3084 2150 3084 
Q 2853 3084 3261 2657 
Q 3669 2231 3669 1497 
Q 3669 778 3244 343 
Q 2819 -91 2113 -91 
Q 1303 -91 875 529 
Q 447 1150 447 2328 
Q 447 3434 972 4092 
Q 1497 4750 2381 4750 
Q 2619 4750 2861 4703 
Q 3103 4656 3366 4563 
z
" transform="scale(0.015625)"/>
       </defs>
       <use xlink:href="#DejaVuSans-31"/>
       <use xlink:href="#DejaVuSans-36" x="63.623047"/>
       <use xlink:href="#DejaVuSans-30" x="127.246094"/>
       <use xlink:href="#DejaVuSans-30" x="190.869141"/>
      </g>
     </g>
    </g>
    <g id="ytick_4">
     <g id="line2d_23">
      <path d="M 108 202.770813 
L 777.6 202.770813 
" clip-path="url(#paddcf88930)" style="fill: none; stroke-dasharray: 5.12,1.28,0.8,1.28; stroke-dashoffset: 0; stroke: #b0b0b0; stroke-width: 0.8"/>
     </g>
     <g id="line2d_24">
      <g>
       <use xlink:href="#m8dcda0f916" x="108" y="202.770813" style="fill: #a9a9a9; stroke: #a9a9a9; stroke-width: 0.8"/>
      </g>
     </g>
     <g id="text_12">
      <!-- 2400 -->
      <g style="fill: #a9a9a9" transform="translate(75.55 206.570032) scale(0.1 -0.1)">
       <use xlink:href="#DejaVuSans-32"/>
       <use xlink:href="#DejaVuSans-34" x="63.623047"/>
       <use xlink:href="#DejaVuSans-30" x="127.246094"/>
       <use xlink:href="#DejaVuSans-30" x="190.869141"/>
      </g>
     </g>
    </g>
    <g id="ytick_5">
     <g id="line2d_25">
      <path d="M 108 167.746491 
L 777.6 167.746491 
" clip-path="url(#paddcf88930)" style="fill: none; stroke-dasharray: 5.12,1.28,0.8,1.28; stroke-dashoffset: 0; stroke: #b0b0b0; stroke-width: 0.8"/>
     </g>
     <g id="line2d_26">
      <g>
       <use xlink:href="#m8dcda0f916" x="108" y="167.746491" style="fill: #a9a9a9; stroke: #a9a9a9; stroke-width: 0.8"/>
      </g>
     </g>
     <g id="text_13">
      <!-- 3200 -->
      <g style="fill: #a9a9a9" transform="translate(75.55 171.545709) scale(0.1 -0.1)">
       <use xlink:href="#DejaVuSans-33"/>
       <use xlink:href="#DejaVuSans-32" x="63.623047"/>
       <use xlink:href="#DejaVuSans-30" x="127.246094"/>
       <use xlink:href="#DejaVuSans-30" x="190.869141"/>
      </g>
     </g>
    </g>
    <g id="ytick_6">
     <g id="line2d_27">
      <path d="M 108 132.722168 
L 777.6 132.722168 
" clip-path="url(#paddcf88930)" style="fill: none; stroke-dasharray: 5.12,1.28,0.8,1.28; stroke-dashoffset: 0; stroke: #b0b0b0; stroke-width: 0.8"/>
     </g>
     <g id="line2d_28">
      <g>
       <use xlink:href="#m8dcda0f916" x="108" y="132.722168" style="fill: #a9a9a9; stroke: #a9a9a9; stroke-width: 0.8"/>
      </g>
     </g>
     <g id="text_14">
      <!-- 4000 -->
      <g style="fill: #a9a9a9" transform="translate(75.55 136.521387) scale(0.1 -0.1)">
       <use xlink:href="#DejaVuSans-34"/>
       <use xlink:href="#DejaVuSans-30" x="63.623047"/>
       <use xlink:href="#DejaVuSans-30" x="127.246094"/>
       <use xlink:href="#DejaVuSans-30" x="190.869141"/>
      </g>
     </g>
    </g>
    <g id="ytick_7">
     <g id="line2d_29">
      <path d="M 108 97.697846 
L 777.6 97.697846 
" clip-path="url(#paddcf88930)" style="fill: none; stroke-dasharray: 5.12,1.28,0.8,1.28; stroke-dashoffset: 0; stroke: #b0b0b0; stroke-width: 0.8"/>
     </g>
     <g id="line2d_30">
      <g>
       <use xlink:href="#m8dcda0f916" x="108" y="97.697846" style="fill: #a9a9a9; stroke: #a9a9a9; stroke-width: 0.8"/>
      </g>
     </g>
     <g id="text_15">
      <!-- 4800 -->
      <g style="fill: #a9a9a9" transform="translate(75.55 101.497064) scale(0.1 -0.1)">
       <use xlink:href="#DejaVuSans-34"/>
       <use xlink:href="#DejaVuSans-38" x="63.623047"/>
       <use xlink:href="#DejaVuSans-30" x="127.246094"/>
       <use xlink:href="#DejaVuSans-30" x="190.869141"/>
      </g>
     </g>
    </g>
    <g id="ytick_8">
     <g id="line2d_31">
      <path d="M 108 62.673523 
L 777.6 62.673523 
" clip-path="url(#paddcf88930)" style="fill: none; stroke-dasharray: 5.12,1.28,0.8,1.28; stroke-dashoffset: 0; stroke: #b0b0b0; stroke-width: 0.8"/>
     </g>
     <g id="line2d_32">
      <g>
       <use xlink:href="#m8dcda0f916" x="108" y="62.673523" style="fill: #a9a9a9; stroke: #a9a9a9; stroke-width: 0.8"/>
      </g>
     </g>
     <g id="text_16">
      <!-- 5600 -->
      <g style="fill: #a9a9a9" transform="translate(75.55 66.472742) scale(0.1 -0.1)">
       <use xlink:href="#DejaVuSans-35"/>
       <use xlink:href="#DejaVuSans-36" x="63.623047"/>
       <use xlink:href="#DejaVuSans-30" x="127.246094"/>
       <use xlink:href="#DejaVuSans-30" x="190.869141"/>
      </g>
     </g>
    </g>
   </g>
   <g id="line2d_33">
    <path d="M 138.436364 307.712439 
L 142.232999 307.405976 
L 142.865772 307.143294 
L 144.76409 306.924392 
L 148.560726 306.180125 
L 152.357362 305.873662 
L 152.990134 305.567199 
L 153.622907 305.392078 
L 154.255679 304.604031 
L 154.888452 304.166227 
L 155.521225 302.809034 
L 156.153997 302.721473 
L 156.78677 302.239889 
L 158.052315 301.626963 
L 160.583406 299.700625 
L 161.848951 299.175261 
L 162.481724 298.737457 
L 165.012814 297.642946 
L 165.645587 296.635997 
L 166.911132 295.716609 
L 167.543905 295.410146 
L 173.871631 294.534538 
L 174.504404 294.228075 
L 178.933812 293.877832 
L 180.83213 293.396247 
L 186.527084 292.651981 
L 187.159856 292.301737 
L 187.792629 292.214177 
L 188.425402 291.951494 
L 189.690947 291.732592 
L 190.32372 291.688812 
L 190.956492 291.46991 
L 193.487583 291.075886 
L 194.753128 290.725643 
L 196.651446 290.550521 
L 197.916991 290.41918 
L 198.549764 290.244058 
L 199.182536 290.200278 
L 201.080854 289.631133 
L 204.87749 289.061987 
L 205.510263 288.886866 
L 206.143035 288.011258 
L 208.041353 287.310771 
L 209.939671 286.785407 
L 210.572444 286.478944 
L 211.205216 286.435163 
L 214.36908 285.559555 
L 215.634625 285.471994 
L 216.267397 285.384434 
L 218.165715 284.815288 
L 220.696806 284.202363 
L 221.329579 283.93968 
L 221.962351 283.85212 
L 222.595124 283.545657 
L 228.92285 282.582488 
L 232.086713 281.70688 
L 232.719486 281.312856 
L 235.250576 280.65615 
L 236.516122 279.911883 
L 237.148894 279.474079 
L 239.047212 279.123836 
L 242.843848 277.985546 
L 244.109393 277.591522 
L 244.742166 277.503961 
L 246.007711 277.153718 
L 247.273256 276.847255 
L 247.906029 276.759694 
L 249.171574 276.234329 
L 249.804347 276.102988 
L 250.43712 275.840306 
L 251.069892 275.752745 
L 251.702665 275.446282 
L 252.335438 275.271161 
L 253.600983 275.1836 
L 254.866528 274.745796 
L 256.132073 274.658235 
L 256.764846 274.351772 
L 259.295936 273.913968 
L 261.827027 273.695066 
L 262.4598 273.563725 
L 263.725345 272.950799 
L 270.685844 270.017512 
L 271.318617 269.667269 
L 271.951389 268.966782 
L 272.584162 267.916053 
L 273.216934 267.084225 
L 273.849707 266.909104 
L 274.48248 266.909104 
L 275.748025 265.989715 
L 276.380798 265.814593 
L 277.01357 265.46435 
L 277.646343 265.333009 
L 278.279115 264.763864 
L 278.911888 264.588742 
L 280.810206 263.669354 
L 282.075751 261.918138 
L 282.708524 261.524114 
L 283.341297 260.473384 
L 283.974069 259.816678 
L 284.606842 259.510215 
L 285.239614 259.335094 
L 287.770705 257.84656 
L 289.03625 256.839611 
L 289.669023 256.445587 
L 290.301796 255.526199 
L 290.934568 254.081445 
L 291.567341 253.162057 
L 292.200113 252.680473 
L 292.832886 252.41779 
L 295.363977 250.22877 
L 296.629522 249.221821 
L 297.262294 248.696456 
L 297.895067 247.864628 
L 299.160612 246.770118 
L 301.691703 245.150243 
L 302.324476 244.581098 
L 302.957248 244.449757 
L 303.590021 244.187074 
L 304.855566 243.486588 
L 306.753884 242.523419 
L 308.019429 241.341348 
L 308.652202 240.597081 
L 309.917747 239.721473 
L 310.55052 239.546352 
L 311.183292 239.239889 
L 312.448838 238.408061 
L 313.08161 238.057818 
L 313.714383 237.970257 
L 314.979928 237.269771 
L 315.612701 236.919527 
L 316.245473 236.262821 
L 316.878246 235.868798 
L 317.511019 235.649896 
L 318.776564 234.905629 
L 319.409337 234.555386 
L 320.042109 234.336484 
L 321.940427 233.110632 
L 323.838745 232.541487 
L 324.471518 232.103683 
L 325.10429 231.972342 
L 326.369836 231.534538 
L 328.268153 230.790271 
L 330.166471 230.089785 
L 331.432017 229.870883 
L 332.697562 228.776372 
L 333.963107 228.163447 
L 335.228652 227.46296 
L 335.861425 227.112717 
L 337.12697 226.762474 
L 337.759743 226.36845 
L 338.392516 226.193329 
L 340.290833 225.011258 
L 343.454697 224.266991 
L 345.353015 223.172481 
L 345.985787 223.08492 
L 346.61856 222.866018 
L 347.884105 222.603336 
L 349.782423 221.202363 
L 351.680741 220.764559 
L 352.313514 220.545657 
L 352.946286 220.064072 
L 356.742922 218.838221 
L 357.375695 218.794441 
L 358.008467 218.619319 
L 359.274012 218.093954 
L 363.703421 216.56164 
L 364.968966 216.386518 
L 365.601739 216.211397 
L 366.234511 215.904934 
L 366.867284 215.773593 
L 368.765602 214.897985 
L 370.66392 213.978596 
L 371.296692 213.540792 
L 371.929465 213.365671 
L 373.827783 212.358721 
L 375.093328 212.052259 
L 376.358874 211.395552 
L 377.624419 211.045309 
L 378.257191 210.957748 
L 379.522737 210.213482 
L 380.155509 210.08214 
L 381.421055 209.556776 
L 382.053827 209.425434 
L 382.6866 209.075191 
L 385.21769 208.681167 
L 386.483236 208.068242 
L 387.116008 207.542877 
L 387.748781 206.448367 
L 389.014326 206.185685 
L 389.647099 206.054343 
L 392.178189 204.740931 
L 392.810962 204.60959 
L 397.873143 202.201668 
L 399.771461 201.807644 
L 400.404234 201.457401 
L 404.200869 200.143989 
L 405.466415 199.355942 
L 406.73196 198.611675 
L 407.364733 198.524114 
L 407.997505 198.305212 
L 408.630278 198.261432 
L 411.794141 197.429604 
L 412.426914 196.948019 
L 413.692459 196.510215 
L 415.590777 195.89729 
L 416.223549 195.503266 
L 416.856322 195.328145 
L 417.489095 194.890341 
L 418.121867 194.627658 
L 418.75464 194.233634 
L 420.020185 193.79583 
L 421.918503 193.182905 
L 422.551276 192.876442 
L 424.449594 191.431689 
L 425.082366 191.300347 
L 426.347912 190.337179 
L 426.980684 190.205837 
L 427.613457 189.242669 
L 428.246229 188.979986 
L 428.879002 188.498402 
L 429.511775 188.410841 
L 430.77732 187.666574 
L 431.410093 187.535233 
L 432.042865 187.27255 
L 432.675638 186.790966 
L 433.308411 186.572064 
L 435.206728 185.302432 
L 437.737819 184.032801 
L 438.370592 183.94524 
L 439.636137 183.376095 
L 440.268909 183.025851 
L 440.901682 181.975122 
L 441.534455 181.405976 
L 442.167227 181.055733 
L 442.8 180.924392 
L 444.065545 180.136345 
L 444.698318 180.005003 
L 445.963863 179.392078 
L 447.862181 178.604031 
L 449.127726 177.728423 
L 450.393272 176.41501 
L 453.557135 174.138429 
L 454.82268 173.0877 
L 455.455453 172.825017 
L 456.088225 172.124531 
L 456.720998 171.642946 
L 457.986543 171.205142 
L 458.619316 170.679778 
L 459.884861 170.023072 
L 460.517634 169.84795 
L 461.150406 169.410146 
L 461.783179 169.278805 
L 463.681497 168.271855 
L 464.947042 167.527589 
L 471.274768 165.294788 
L 471.907541 164.725643 
L 473.805859 164.025156 
L 475.071404 163.631133 
L 475.704177 163.149548 
L 478.235267 161.836136 
L 478.86804 161.485893 
L 480.133585 158.99041 
L 481.399131 157.501876 
L 482.664676 156.757609 
L 484.562994 156.013343 
L 485.195766 155.925782 
L 485.828539 155.575539 
L 487.726857 155.006393 
L 490.257947 153.868103 
L 490.89072 153.474079 
L 492.156265 153.036275 
L 495.952901 150.847255 
L 496.585674 150.190549 
L 497.218446 149.796525 
L 499.116764 148.964698 
L 499.749537 148.526894 
L 501.015082 147.913968 
L 502.9134 146.907019 
L 503.546173 146.731897 
L 504.178945 146.250313 
L 504.811718 145.98763 
L 505.444491 145.856289 
L 506.710036 145.418485 
L 508.608354 144.717999 
L 509.241126 144.280195 
L 510.506672 143.929951 
L 511.772217 143.448367 
L 512.40499 142.966782 
L 513.670535 142.572759 
L 514.303308 142.266296 
L 514.93608 142.091174 
L 516.201625 141.215566 
L 517.467171 140.646421 
L 518.732716 139.683252 
L 519.998261 139.245448 
L 520.631034 138.720083 
L 521.263806 138.632523 
L 522.529352 137.713134 
L 523.794897 137.100208 
L 524.42767 136.837526 
L 525.060442 136.2246 
L 528.857078 134.867408 
L 530.755396 134.03558 
L 532.653714 133.466435 
L 533.919259 133.291313 
L 534.552032 133.028631 
L 535.184804 132.94107 
L 536.45035 132.415705 
L 537.083122 132.371925 
L 539.614213 131.452536 
L 541.512531 130.139124 
L 542.145303 129.876442 
L 542.778076 129.482418 
L 544.676394 128.650591 
L 546.574712 127.5123 
L 547.207484 127.118277 
L 548.47303 126.811814 
L 549.738575 125.936206 
L 552.269665 125.148158 
L 552.902438 124.885476 
L 554.167983 124.579013 
L 557.331847 123.572064 
L 559.230164 123.221821 
L 561.761255 122.433773 
L 562.394028 122.171091 
L 563.0268 122.08353 
L 563.659573 121.777067 
L 564.925118 121.514385 
L 565.557891 121.207922 
L 567.456209 120.770118 
L 568.721754 120.507436 
L 572.51839 119.806949 
L 573.783935 119.544267 
L 574.416708 119.412926 
L 575.04948 119.150243 
L 575.682253 119.106463 
L 577.580571 118.581098 
L 578.213343 118.230855 
L 581.377207 117.442808 
L 582.009979 117.311466 
L 583.275524 116.873662 
L 585.173842 116.216956 
L 585.806615 116.129395 
L 587.704933 115.472689 
L 588.337706 115.472689 
L 589.603251 115.034885 
L 590.236023 114.42196 
L 590.868796 114.115497 
L 592.134341 113.721473 
L 594.665432 112.758304 
L 595.298204 112.626963 
L 595.930977 112.23294 
L 596.56375 112.101598 
L 597.196522 111.707575 
L 600.360386 110.788186 
L 600.993158 110.394163 
L 601.625931 110.219041 
L 602.258703 109.693676 
L 604.157021 109.343433 
L 605.422567 108.642946 
L 606.055339 107.94246 
L 607.320885 107.679778 
L 611.750293 106.672828 
L 612.383066 106.497707 
L 613.648611 106.453926 
L 614.281383 106.147464 
L 616.812474 105.709659 
L 617.445247 105.403197 
L 619.343565 105.140514 
L 621.874655 104.352467 
L 623.772973 103.914663 
L 625.671291 103.433079 
L 628.202381 102.645031 
L 628.835154 102.51369 
L 629.467927 102.207227 
L 630.100699 102.119666 
L 630.733472 101.900764 
L 631.366245 101.550521 
L 633.264562 100.893815 
L 633.897335 100.412231 
L 635.16288 100.061987 
L 635.795653 99.799305 
L 637.061198 99.449062 
L 639.592289 98.310771 
L 641.490607 98.17943 
L 644.021697 97.391383 
L 644.65447 96.997359 
L 645.920015 96.603336 
L 647.818333 95.640167 
L 648.451106 95.508826 
L 649.083878 95.202363 
L 649.716651 95.114802 
L 656.67715 92.794441 
L 659.20824 92.181515 
L 659.841013 92.006393 
L 661.106558 91.437248 
L 661.739331 91.349687 
L 663.004876 90.999444 
L 663.637649 90.51786 
L 664.270421 90.211397 
L 664.903194 89.46713 
L 665.535967 89.029326 
L 666.801512 88.635302 
L 667.434285 88.109937 
L 674.394784 85.264211 
L 675.660329 84.957748 
L 676.925874 84.388603 
L 678.824192 83.294093 
L 679.456965 83.162752 
L 680.089737 82.681167 
L 681.355283 82.068242 
L 682.620828 81.280195 
L 684.519146 80.404587 
L 685.151918 79.966782 
L 686.417464 79.485198 
L 687.683009 78.740931 
L 688.315782 78.434468 
L 688.948554 77.996664 
L 690.214099 77.55886 
L 690.846872 77.427519 
L 693.377963 76.289229 
L 696.541826 75.194719 
L 697.174598 75.150938 
L 697.807371 74.975817 
L 698.440144 74.581793 
L 699.072916 74.494232 
L 699.705689 74.27533 
L 701.604007 73.925087 
L 704.76787 72.305212 
L 706.033415 71.604726 
L 706.666188 71.517165 
L 708.564506 70.510215 
L 710.462824 69.809729 
L 712.361142 68.977901 
L 714.892232 67.970952 
L 715.525005 67.79583 
L 716.157777 67.401807 
L 717.423323 67.226685 
L 718.056095 66.832662 
L 718.688868 66.788881 
L 719.954413 66.394858 
L 721.219958 65.781932 
L 721.852731 65.694371 
L 722.485504 65.431689 
L 723.118276 65.300347 
L 725.016594 64.46852 
L 725.649367 64.337179 
L 726.282139 64.074496 
L 729.446003 63.330229 
L 731.344321 62.585962 
L 733.242638 61.447672 
L 734.508184 60.922307 
L 735.140956 60.659625 
L 735.773729 60.265601 
L 737.039274 60.002919 
L 737.672047 59.652675 
L 738.30482 59.521334 
L 739.570365 58.820848 
L 743.367001 57.069632 
L 747.163636 55.8 
L 747.163636 55.8 
" clip-path="url(#paddcf88930)" style="fill: none; stroke: #1f77b4; stroke-width: 1.5; stroke-linecap: square"/>
   </g>
   <g id="line2d_34">
    <path d="M 139.069136 307.8 
L 140.967454 307.712439 
L 142.865772 307.668659 
L 146.662408 307.581098 
L 149.826271 307.449757 
L 152.357362 307.449757 
L 152.990134 307.274635 
L 155.521225 307.187074 
L 157.419543 306.968172 
L 159.317861 306.793051 
L 163.114496 306.617929 
L 163.747269 306.617929 
L 164.380042 306.486588 
L 166.911132 306.399027 
L 168.176677 306.311466 
L 173.238858 306.223905 
L 176.402722 306.092564 
L 183.995993 306.005003 
L 187.159856 305.873662 
L 190.956492 305.786101 
L 193.487583 305.698541 
L 199.182536 305.61098 
L 201.080854 305.567199 
L 202.979172 305.523419 
L 204.87749 305.304517 
L 208.674126 305.260737 
L 209.939671 305.173176 
L 214.36908 305.085615 
L 221.329579 304.691591 
L 225.758987 304.604031 
L 227.024532 304.51647 
L 228.92285 304.428909 
L 232.719486 304.253787 
L 235.250576 304.210007 
L 237.148894 304.034885 
L 247.273256 303.42196 
L 249.804347 303.334399 
L 254.233755 303.115497 
L 256.132073 303.027936 
L 262.4598 302.677693 
L 269.420299 302.590132 
L 271.951389 302.32745 
L 273.216934 302.239889 
L 281.442979 301.583183 
L 285.239614 301.101598 
L 287.770705 301.014038 
L 292.832886 300.357331 
L 295.996749 300.269771 
L 304.222793 299.613065 
L 307.386657 299.262821 
L 309.917747 299.175261 
L 311.183292 299.0877 
L 313.714383 299.000139 
L 314.979928 298.912578 
L 318.143791 298.606115 
L 318.776564 298.430994 
L 322.5732 298.255872 
L 325.737063 298.168311 
L 333.963107 297.686727 
L 335.861425 297.599166 
L 344.087469 297.117582 
L 348.516878 297.030021 
L 349.14965 296.89868 
L 354.211831 296.811119 
L 358.64124 296.592217 
L 365.601739 296.504656 
L 370.031147 296.285754 
L 375.093328 296.198193 
L 380.155509 295.935511 
L 384.584918 295.84795 
L 396.607598 295.103683 
L 401.669779 295.016122 
L 418.121867 293.965393 
L 421.918503 293.877832 
L 423.816821 293.834051 
L 425.715139 293.790271 
L 427.613457 293.615149 
L 432.675638 293.527589 
L 433.941183 293.308687 
L 435.206728 293.221126 
L 438.370592 293.089785 
L 439.636137 293.002224 
L 440.901682 292.914663 
L 446.596636 292.827102 
L 447.862181 292.695761 
L 450.393272 292.651981 
L 451.026044 292.520639 
L 452.291589 292.433079 
L 452.924362 292.301737 
L 454.82268 292.214177 
L 465.579815 291.55747 
L 467.478133 291.46991 
L 470.641996 291.338568 
L 479.500813 291.251008 
L 483.930221 291.032106 
L 488.992402 290.944545 
L 491.523493 290.856984 
L 494.054583 290.813204 
L 495.320129 290.681862 
L 497.851219 290.594302 
L 504.178945 290.244058 
L 507.975581 290.200278 
L 509.873899 290.025156 
L 511.772217 289.981376 
L 516.201625 289.893815 
L 518.732716 289.806254 
L 526.325988 289.718694 
L 529.489851 289.587352 
L 533.286486 289.499792 
L 535.184804 289.28089 
L 538.98144 289.237109 
L 540.879758 289.061987 
L 543.410849 288.974427 
L 551.00412 288.886866 
L 554.167983 288.755525 
L 564.925118 288.711744 
L 566.190663 288.624183 
L 568.088981 288.580403 
L 576.315026 288.492842 
L 577.580571 288.405281 
L 584.54107 288.317721 
L 587.07216 288.23016 
L 594.665432 288.186379 
L 595.930977 288.098819 
L 605.422567 288.055038 
L 607.320885 287.879917 
L 618.078019 287.792356 
L 619.976337 287.748575 
L 636.428426 287.661015 
L 638.326744 287.617234 
L 650.349424 287.529673 
L 652.880514 287.442113 
L 657.309923 287.354552 
L 662.372104 287.091869 
L 664.903194 287.004309 
L 667.434285 286.916748 
L 671.23092 286.829187 
L 673.129238 286.785407 
L 675.660329 286.697846 
L 677.558647 286.654065 
L 680.72251 286.566505 
L 681.988055 286.478944 
L 685.784691 286.391383 
L 688.948554 286.260042 
L 690.214099 286.216261 
L 692.112417 286.04114 
L 695.909053 285.953579 
L 698.440144 285.866018 
L 704.76787 285.778457 
L 707.931733 285.647116 
L 714.259459 285.559555 
L 718.688868 285.340653 
L 724.383822 285.253092 
L 725.649367 285.165532 
L 733.242638 285.077971 
L 735.140956 285.03419 
L 742.101455 284.94663 
L 744.632546 284.683947 
L 746.530864 284.640167 
L 747.163636 284.640167 
L 747.163636 284.640167 
" clip-path="url(#paddcf88930)" style="fill: none; stroke: #ff7f0e; stroke-width: 1.5; stroke-linecap: square"/>
   </g>
   <g id="patch_3">
    <path d="M 108 320.4 
L 108 43.2 
" style="fill: none; stroke: #a9a9a9; stroke-width: 0.8; stroke-linejoin: miter; stroke-linecap: square"/>
   </g>
   <g id="patch_4">
    <path d="M 777.6 320.4 
L 777.6 43.2 
" style="fill: none"/>
   </g>
   <g id="patch_5">
    <path d="M 108 320.4 
L 777.6 320.4 
" style="fill: none; stroke: #a9a9a9; stroke-width: 0.8; stroke-linejoin: miter; stroke-linecap: square"/>
   </g>
   <g id="patch_6">
    <path d="M 108 43.2 
L 777.6 43.2 
" style="fill: none"/>
   </g>
   <g id="text_17">
    <!-- get_subscribe history -->
    <g style="fill: #a9a9a9" transform="translate(378.6075 37.2) scale(0.12 -0.12)">
     <defs>
      <path id="DejaVuSans-67" d="M 2906 1791 
Q 2906 2416 2648 2759 
Q 2391 3103 1925 3103 
Q 1463 3103 1205 2759 
Q 947 2416 947 1791 
Q 947 1169 1205 825 
Q 1463 481 1925 481 
Q 2391 481 2648 825 
Q 2906 1169 2906 1791 
z
M 3481 434 
Q 3481 -459 3084 -895 
Q 2688 -1331 1869 -1331 
Q 1566 -1331 1297 -1286 
Q 1028 -1241 775 -1147 
L 775 -588 
Q 1028 -725 1275 -790 
Q 1522 -856 1778 -856 
Q 2344 -856 2625 -561 
Q 2906 -266 2906 331 
L 2906 616 
Q 2728 306 2450 153 
Q 2172 0 1784 0 
Q 1141 0 747 490 
Q 353 981 353 1791 
Q 353 2603 747 3093 
Q 1141 3584 1784 3584 
Q 2172 3584 2450 3431 
Q 2728 3278 2906 2969 
L 2906 3500 
L 3481 3500 
L 3481 434 
z
" transform="scale(0.015625)"/>
      <path id="DejaVuSans-65" d="M 3597 1894 
L 3597 1613 
L 953 1613 
Q 991 1019 1311 708 
Q 1631 397 2203 397 
Q 2534 397 2845 478 
Q 3156 559 3463 722 
L 3463 178 
Q 3153 47 2828 -22 
Q 2503 -91 2169 -91 
Q 1331 -91 842 396 
Q 353 884 353 1716 
Q 353 2575 817 3079 
Q 1281 3584 2069 3584 
Q 2775 3584 3186 3129 
Q 3597 2675 3597 1894 
z
M 3022 2063 
Q 3016 2534 2758 2815 
Q 2500 3097 2075 3097 
Q 1594 3097 1305 2825 
Q 1016 2553 972 2059 
L 3022 2063 
z
" transform="scale(0.015625)"/>
      <path id="DejaVuSans-74" d="M 1172 4494 
L 1172 3500 
L 2356 3500 
L 2356 3053 
L 1172 3053 
L 1172 1153 
Q 1172 725 1289 603 
Q 1406 481 1766 481 
L 2356 481 
L 2356 0 
L 1766 0 
Q 1100 0 847 248 
Q 594 497 594 1153 
L 594 3053 
L 172 3053 
L 172 3500 
L 594 3500 
L 594 4494 
L 1172 4494 
z
" transform="scale(0.015625)"/>
      <path id="DejaVuSans-5f" d="M 3263 -1063 
L 3263 -1509 
L -63 -1509 
L -63 -1063 
L 3263 -1063 
z
" transform="scale(0.015625)"/>
      <path id="DejaVuSans-73" d="M 2834 3397 
L 2834 2853 
Q 2591 2978 2328 3040 
Q 2066 3103 1784 3103 
Q 1356 3103 1142 2972 
Q 928 2841 928 2578 
Q 928 2378 1081 2264 
Q 1234 2150 1697 2047 
L 1894 2003 
Q 2506 1872 2764 1633 
Q 3022 1394 3022 966 
Q 3022 478 2636 193 
Q 2250 -91 1575 -91 
Q 1294 -91 989 -36 
Q 684 19 347 128 
L 347 722 
Q 666 556 975 473 
Q 1284 391 1588 391 
Q 1994 391 2212 530 
Q 2431 669 2431 922 
Q 2431 1156 2273 1281 
Q 2116 1406 1581 1522 
L 1381 1569 
Q 847 1681 609 1914 
Q 372 2147 372 2553 
Q 372 3047 722 3315 
Q 1072 3584 1716 3584 
Q 2034 3584 2315 3537 
Q 2597 3491 2834 3397 
z
" transform="scale(0.015625)"/>
      <path id="DejaVuSans-75" d="M 544 1381 
L 544 3500 
L 1119 3500 
L 1119 1403 
Q 1119 906 1312 657 
Q 1506 409 1894 409 
Q 2359 409 2629 706 
Q 2900 1003 2900 1516 
L 2900 3500 
L 3475 3500 
L 3475 0 
L 2900 0 
L 2900 538 
Q 2691 219 2414 64 
Q 2138 -91 1772 -91 
Q 1169 -91 856 284 
Q 544 659 544 1381 
z
M 1991 3584 
L 1991 3584 
z
" transform="scale(0.015625)"/>
      <path id="DejaVuSans-62" d="M 3116 1747 
Q 3116 2381 2855 2742 
Q 2594 3103 2138 3103 
Q 1681 3103 1420 2742 
Q 1159 2381 1159 1747 
Q 1159 1113 1420 752 
Q 1681 391 2138 391 
Q 2594 391 2855 752 
Q 3116 1113 3116 1747 
z
M 1159 2969 
Q 1341 3281 1617 3432 
Q 1894 3584 2278 3584 
Q 2916 3584 3314 3078 
Q 3713 2572 3713 1747 
Q 3713 922 3314 415 
Q 2916 -91 2278 -91 
Q 1894 -91 1617 61 
Q 1341 213 1159 525 
L 1159 0 
L 581 0 
L 581 4863 
L 1159 4863 
L 1159 2969 
z
" transform="scale(0.015625)"/>
      <path id="DejaVuSans-63" d="M 3122 3366 
L 3122 2828 
Q 2878 2963 2633 3030 
Q 2388 3097 2138 3097 
Q 1578 3097 1268 2742 
Q 959 2388 959 1747 
Q 959 1106 1268 751 
Q 1578 397 2138 397 
Q 2388 397 2633 464 
Q 2878 531 3122 666 
L 3122 134 
Q 2881 22 2623 -34 
Q 2366 -91 2075 -91 
Q 1284 -91 818 406 
Q 353 903 353 1747 
Q 353 2603 823 3093 
Q 1294 3584 2113 3584 
Q 2378 3584 2631 3529 
Q 2884 3475 3122 3366 
z
" transform="scale(0.015625)"/>
      <path id="DejaVuSans-72" d="M 2631 2963 
Q 2534 3019 2420 3045 
Q 2306 3072 2169 3072 
Q 1681 3072 1420 2755 
Q 1159 2438 1159 1844 
L 1159 0 
L 581 0 
L 581 3500 
L 1159 3500 
L 1159 2956 
Q 1341 3275 1631 3429 
Q 1922 3584 2338 3584 
Q 2397 3584 2469 3576 
Q 2541 3569 2628 3553 
L 2631 2963 
z
" transform="scale(0.015625)"/>
      <path id="DejaVuSans-69" d="M 603 3500 
L 1178 3500 
L 1178 0 
L 603 0 
L 603 3500 
z
M 603 4863 
L 1178 4863 
L 1178 4134 
L 603 4134 
L 603 4863 
z
" transform="scale(0.015625)"/>
      <path id="DejaVuSans-20" transform="scale(0.015625)"/>
      <path id="DejaVuSans-68" d="M 3513 2113 
L 3513 0 
L 2938 0 
L 2938 2094 
Q 2938 2591 2744 2837 
Q 2550 3084 2163 3084 
Q 1697 3084 1428 2787 
Q 1159 2491 1159 1978 
L 1159 0 
L 581 0 
L 581 4863 
L 1159 4863 
L 1159 2956 
Q 1366 3272 1645 3428 
Q 1925 3584 2291 3584 
Q 2894 3584 3203 3211 
Q 3513 2838 3513 2113 
z
" transform="scale(0.015625)"/>
      <path id="DejaVuSans-6f" d="M 1959 3097 
Q 1497 3097 1228 2736 
Q 959 2375 959 1747 
Q 959 1119 1226 758 
Q 1494 397 1959 397 
Q 2419 397 2687 759 
Q 2956 1122 2956 1747 
Q 2956 2369 2687 2733 
Q 2419 3097 1959 3097 
z
M 1959 3584 
Q 2709 3584 3137 3096 
Q 3566 2609 3566 1747 
Q 3566 888 3137 398 
Q 2709 -91 1959 -91 
Q 1206 -91 779 398 
Q 353 888 353 1747 
Q 353 2609 779 3096 
Q 1206 3584 1959 3584 
z
" transform="scale(0.015625)"/>
      <path id="DejaVuSans-79" d="M 2059 -325 
Q 1816 -950 1584 -1140 
Q 1353 -1331 966 -1331 
L 506 -1331 
L 506 -850 
L 844 -850 
Q 1081 -850 1212 -737 
Q 1344 -625 1503 -206 
L 1606 56 
L 191 3500 
L 800 3500 
L 1894 763 
L 2988 3500 
L 3597 3500 
L 2059 -325 
z
" transform="scale(0.015625)"/>
     </defs>
     <use xlink:href="#DejaVuSans-67"/>
     <use xlink:href="#DejaVuSans-65" x="63.476562"/>
     <use xlink:href="#DejaVuSans-74" x="125"/>
     <use xlink:href="#DejaVuSans-5f" x="164.208984"/>
     <use xlink:href="#DejaVuSans-73" x="214.208984"/>
     <use xlink:href="#DejaVuSans-75" x="266.308594"/>
     <use xlink:href="#DejaVuSans-62" x="329.6875"/>
     <use xlink:href="#DejaVuSans-73" x="393.164062"/>
     <use xlink:href="#DejaVuSans-63" x="445.263672"/>
     <use xlink:href="#DejaVuSans-72" x="500.244141"/>
     <use xlink:href="#DejaVuSans-69" x="541.357422"/>
     <use xlink:href="#DejaVuSans-62" x="569.140625"/>
     <use xlink:href="#DejaVuSans-65" x="632.617188"/>
     <use xlink:href="#DejaVuSans-20" x="694.140625"/>
     <use xlink:href="#DejaVuSans-68" x="725.927734"/>
     <use xlink:href="#DejaVuSans-69" x="789.306641"/>
     <use xlink:href="#DejaVuSans-73" x="817.089844"/>
     <use xlink:href="#DejaVuSans-74" x="869.189453"/>
     <use xlink:href="#DejaVuSans-6f" x="908.398438"/>
     <use xlink:href="#DejaVuSans-72" x="969.580078"/>
     <use xlink:href="#DejaVuSans-79" x="1010.693359"/>
    </g>
   </g>
   <g id="legend_1">
    <g id="line2d_35">
     <path d="M 815.08 328.498438 
L 825.08 328.498438 
L 835.08 328.498438 
" style="fill: none; stroke: #1f77b4; stroke-width: 1.5; stroke-linecap: square"/>
    </g>
    <g id="text_18">
     <!-- star -->
     <g style="fill: #a9a9a9" transform="translate(843.08 331.998438) scale(0.1 -0.1)">
      <defs>
       <path id="DejaVuSans-61" d="M 2194 1759 
Q 1497 1759 1228 1600 
Q 959 1441 959 1056 
Q 959 750 1161 570 
Q 1363 391 1709 391 
Q 2188 391 2477 730 
Q 2766 1069 2766 1631 
L 2766 1759 
L 2194 1759 
z
M 3341 1997 
L 3341 0 
L 2766 0 
L 2766 531 
Q 2569 213 2275 61 
Q 1981 -91 1556 -91 
Q 1019 -91 701 211 
Q 384 513 384 1019 
Q 384 1609 779 1909 
Q 1175 2209 1959 2209 
L 2766 2209 
L 2766 2266 
Q 2766 2663 2505 2880 
Q 2244 3097 1772 3097 
Q 1472 3097 1187 3025 
Q 903 2953 641 2809 
L 641 3341 
Q 956 3463 1253 3523 
Q 1550 3584 1831 3584 
Q 2591 3584 2966 3190 
Q 3341 2797 3341 1997 
z
" transform="scale(0.015625)"/>
      </defs>
      <use xlink:href="#DejaVuSans-73"/>
      <use xlink:href="#DejaVuSans-74" x="52.099609"/>
      <use xlink:href="#DejaVuSans-61" x="91.308594"/>
      <use xlink:href="#DejaVuSans-72" x="152.587891"/>
     </g>
    </g>
    <g id="line2d_36">
     <path d="M 815.08 343.176562 
L 825.08 343.176562 
L 835.08 343.176562 
" style="fill: none; stroke: #ff7f0e; stroke-width: 1.5; stroke-linecap: square"/>
    </g>
    <g id="text_19">
     <!-- fork -->
     <g style="fill: #a9a9a9" transform="translate(843.08 346.676562) scale(0.1 -0.1)">
      <defs>
       <path id="DejaVuSans-66" d="M 2375 4863 
L 2375 4384 
L 1825 4384 
Q 1516 4384 1395 4259 
Q 1275 4134 1275 3809 
L 1275 3500 
L 2222 3500 
L 2222 3053 
L 1275 3053 
L 1275 0 
L 697 0 
L 697 3053 
L 147 3053 
L 147 3500 
L 697 3500 
L 697 3744 
Q 697 4328 969 4595 
Q 1241 4863 1831 4863 
L 2375 4863 
z
" transform="scale(0.015625)"/>
       <path id="DejaVuSans-6b" d="M 581 4863 
L 1159 4863 
L 1159 1991 
L 2875 3500 
L 3609 3500 
L 1753 1863 
L 3688 0 
L 2938 0 
L 1159 1709 
L 1159 0 
L 581 0 
L 581 4863 
z
" transform="scale(0.015625)"/>
      </defs>
      <use xlink:href="#DejaVuSans-66"/>
      <use xlink:href="#DejaVuSans-6f" x="35.205078"/>
      <use xlink:href="#DejaVuSans-72" x="96.386719"/>
      <use xlink:href="#DejaVuSans-6b" x="137.5"/>
     </g>
    </g>
   </g>
  </g>
 </g>
 <defs>
  <clipPath id="paddcf88930">
   <rect x="108" y="43.2" width="669.6" height="277.2"/>
  </clipPath>
 </defs>
</svg>
