<?xml version="1.0" encoding="utf-8" standalone="no"?>
<!DOCTYPE svg PUBLIC "-//W3C//DTD SVG 1.1//EN"
  "http://www.w3.org/Graphics/SVG/1.1/DTD/svg11.dtd">
<svg xmlns:xlink="http://www.w3.org/1999/xlink" width="864pt" height="360pt" viewBox="0 0 864 360" xmlns="http://www.w3.org/2000/svg" version="1.1">
 <metadata>
  <rdf:RDF xmlns:dc="http://purl.org/dc/elements/1.1/" xmlns:cc="http://creativecommons.org/ns#" xmlns:rdf="http://www.w3.org/1999/02/22-rdf-syntax-ns#">
   <cc:Work>
    <dc:type rdf:resource="http://purl.org/dc/dcmitype/StillImage"/>
    <dc:date>2024-03-17T20:05:30.769230</dc:date>
    <dc:format>image/svg+xml</dc:format>
    <dc:creator>
     <cc:Agent>
      <dc:title>Matplotlib v3.8.3, https://matplotlib.org/</dc:title>
     </cc:Agent>
    </dc:creator>
   </cc:Work>
  </rdf:RDF>
 </metadata>
 <defs>
  <style type="text/css">*{stroke-linejoin: round; stroke-linecap: butt}</style>
 </defs>
 <g id="figure_1">
  <g id="patch_1">
   <path d="M 0 360 
L 864 360 
L 864 0 
L 0 0 
L 0 360 
z
" style="fill: none; opacity: 0"/>
  </g>
  <g id="axes_1">
   <g id="patch_2">
    <path d="M 108 320.4 
L 777.6 320.4 
L 777.6 43.2 
L 108 43.2 
L 108 320.4 
z
" style="fill: none; opacity: 0"/>
   </g>
   <g id="matplotlib.axis_1">
    <g id="xtick_1">
     <g id="line2d_1">
      <path d="M 162.986895 320.4 
L 162.986895 43.2 
" clip-path="url(#p0ef9e79ef7)" style="fill: none; stroke-dasharray: 5.12,1.28,0.8,1.28; stroke-dashoffset: 0; stroke: #b0b0b0; stroke-width: 0.8"/>
     </g>
     <g id="line2d_2">
      <defs>
       <path id="m6122dbe193" d="M 0 0 
L 0 3.5 
" style="stroke: #a9a9a9; stroke-width: 0.8"/>
      </defs>
      <g>
       <use xlink:href="#m6122dbe193" x="162.986895" y="320.4" style="fill: #a9a9a9; stroke: #a9a9a9; stroke-width: 0.8"/>
      </g>
     </g>
     <g id="text_1">
      <!-- 2021-09 -->
      <g style="fill: #a9a9a9" transform="translate(142.095489 334.998438) scale(0.1 -0.1)">
       <defs>
        <path id="DejaVuSans-32" d="M 1228 531 
L 3431 531 
L 3431 0 
L 469 0 
L 469 531 
Q 828 903 1448 1529 
Q 2069 2156 2228 2338 
Q 2531 2678 2651 2914 
Q 2772 3150 2772 3378 
Q 2772 3750 2511 3984 
Q 2250 4219 1831 4219 
Q 1534 4219 1204 4116 
Q 875 4013 500 3803 
L 500 4441 
Q 881 4594 1212 4672 
Q 1544 4750 1819 4750 
Q 2544 4750 2975 4387 
Q 3406 4025 3406 3419 
Q 3406 3131 3298 2873 
Q 3191 2616 2906 2266 
Q 2828 2175 2409 1742 
Q 1991 1309 1228 531 
z
" transform="scale(0.015625)"/>
        <path id="DejaVuSans-30" d="M 2034 4250 
Q 1547 4250 1301 3770 
Q 1056 3291 1056 2328 
Q 1056 1369 1301 889 
Q 1547 409 2034 409 
Q 2525 409 2770 889 
Q 3016 1369 3016 2328 
Q 3016 3291 2770 3770 
Q 2525 4250 2034 4250 
z
M 2034 4750 
Q 2819 4750 3233 4129 
Q 3647 3509 3647 2328 
Q 3647 1150 3233 529 
Q 2819 -91 2034 -91 
Q 1250 -91 836 529 
Q 422 1150 422 2328 
Q 422 3509 836 4129 
Q 1250 4750 2034 4750 
z
" transform="scale(0.015625)"/>
        <path id="DejaVuSans-31" d="M 794 531 
L 1825 531 
L 1825 4091 
L 703 3866 
L 703 4441 
L 1819 4666 
L 2450 4666 
L 2450 531 
L 3481 531 
L 3481 0 
L 794 0 
L 794 531 
z
" transform="scale(0.015625)"/>
        <path id="DejaVuSans-2d" d="M 313 2009 
L 1997 2009 
L 1997 1497 
L 313 1497 
L 313 2009 
z
" transform="scale(0.015625)"/>
        <path id="DejaVuSans-39" d="M 703 97 
L 703 672 
Q 941 559 1184 500 
Q 1428 441 1663 441 
Q 2288 441 2617 861 
Q 2947 1281 2994 2138 
Q 2813 1869 2534 1725 
Q 2256 1581 1919 1581 
Q 1219 1581 811 2004 
Q 403 2428 403 3163 
Q 403 3881 828 4315 
Q 1253 4750 1959 4750 
Q 2769 4750 3195 4129 
Q 3622 3509 3622 2328 
Q 3622 1225 3098 567 
Q 2575 -91 1691 -91 
Q 1453 -91 1209 -44 
Q 966 3 703 97 
z
M 1959 2075 
Q 2384 2075 2632 2365 
Q 2881 2656 2881 3163 
Q 2881 3666 2632 3958 
Q 2384 4250 1959 4250 
Q 1534 4250 1286 3958 
Q 1038 3666 1038 3163 
Q 1038 2656 1286 2365 
Q 1534 2075 1959 2075 
z
" transform="scale(0.015625)"/>
       </defs>
       <use xlink:href="#DejaVuSans-32"/>
       <use xlink:href="#DejaVuSans-30" x="63.623047"/>
       <use xlink:href="#DejaVuSans-32" x="127.246094"/>
       <use xlink:href="#DejaVuSans-31" x="190.869141"/>
       <use xlink:href="#DejaVuSans-2d" x="254.492188"/>
       <use xlink:href="#DejaVuSans-30" x="290.576172"/>
       <use xlink:href="#DejaVuSans-39" x="354.199219"/>
      </g>
     </g>
    </g>
    <g id="xtick_2">
     <g id="line2d_3">
      <path d="M 239.785992 320.4 
L 239.785992 43.2 
" clip-path="url(#p0ef9e79ef7)" style="fill: none; stroke-dasharray: 5.12,1.28,0.8,1.28; stroke-dashoffset: 0; stroke: #b0b0b0; stroke-width: 0.8"/>
     </g>
     <g id="line2d_4">
      <g>
       <use xlink:href="#m6122dbe193" x="239.785992" y="320.4" style="fill: #a9a9a9; stroke: #a9a9a9; stroke-width: 0.8"/>
      </g>
     </g>
     <g id="text_2">
      <!-- 2022-01 -->
      <g style="fill: #a9a9a9" transform="translate(218.894586 334.998438) scale(0.1 -0.1)">
       <use xlink:href="#DejaVuSans-32"/>
       <use xlink:href="#DejaVuSans-30" x="63.623047"/>
       <use xlink:href="#DejaVuSans-32" x="127.246094"/>
       <use xlink:href="#DejaVuSans-32" x="190.869141"/>
       <use xlink:href="#DejaVuSans-2d" x="254.492188"/>
       <use xlink:href="#DejaVuSans-30" x="290.576172"/>
       <use xlink:href="#DejaVuSans-31" x="354.199219"/>
      </g>
     </g>
    </g>
    <g id="xtick_3">
     <g id="line2d_5">
      <path d="M 315.326088 320.4 
L 315.326088 43.2 
" clip-path="url(#p0ef9e79ef7)" style="fill: none; stroke-dasharray: 5.12,1.28,0.8,1.28; stroke-dashoffset: 0; stroke: #b0b0b0; stroke-width: 0.8"/>
     </g>
     <g id="line2d_6">
      <g>
       <use xlink:href="#m6122dbe193" x="315.326088" y="320.4" style="fill: #a9a9a9; stroke: #a9a9a9; stroke-width: 0.8"/>
      </g>
     </g>
     <g id="text_3">
      <!-- 2022-05 -->
      <g style="fill: #a9a9a9" transform="translate(294.434682 334.998438) scale(0.1 -0.1)">
       <defs>
        <path id="DejaVuSans-35" d="M 691 4666 
L 3169 4666 
L 3169 4134 
L 1269 4134 
L 1269 2991 
Q 1406 3038 1543 3061 
Q 1681 3084 1819 3084 
Q 2600 3084 3056 2656 
Q 3513 2228 3513 1497 
Q 3513 744 3044 326 
Q 2575 -91 1722 -91 
Q 1428 -91 1123 -41 
Q 819 9 494 109 
L 494 744 
Q 775 591 1075 516 
Q 1375 441 1709 441 
Q 2250 441 2565 725 
Q 2881 1009 2881 1497 
Q 2881 1984 2565 2268 
Q 2250 2553 1709 2553 
Q 1456 2553 1204 2497 
Q 953 2441 691 2322 
L 691 4666 
z
" transform="scale(0.015625)"/>
       </defs>
       <use xlink:href="#DejaVuSans-32"/>
       <use xlink:href="#DejaVuSans-30" x="63.623047"/>
       <use xlink:href="#DejaVuSans-32" x="127.246094"/>
       <use xlink:href="#DejaVuSans-32" x="190.869141"/>
       <use xlink:href="#DejaVuSans-2d" x="254.492188"/>
       <use xlink:href="#DejaVuSans-30" x="290.576172"/>
       <use xlink:href="#DejaVuSans-35" x="354.199219"/>
      </g>
     </g>
    </g>
    <g id="xtick_4">
     <g id="line2d_7">
      <path d="M 392.754686 320.4 
L 392.754686 43.2 
" clip-path="url(#p0ef9e79ef7)" style="fill: none; stroke-dasharray: 5.12,1.28,0.8,1.28; stroke-dashoffset: 0; stroke: #b0b0b0; stroke-width: 0.8"/>
     </g>
     <g id="line2d_8">
      <g>
       <use xlink:href="#m6122dbe193" x="392.754686" y="320.4" style="fill: #a9a9a9; stroke: #a9a9a9; stroke-width: 0.8"/>
      </g>
     </g>
     <g id="text_4">
      <!-- 2022-09 -->
      <g style="fill: #a9a9a9" transform="translate(371.86328 334.998438) scale(0.1 -0.1)">
       <use xlink:href="#DejaVuSans-32"/>
       <use xlink:href="#DejaVuSans-30" x="63.623047"/>
       <use xlink:href="#DejaVuSans-32" x="127.246094"/>
       <use xlink:href="#DejaVuSans-32" x="190.869141"/>
       <use xlink:href="#DejaVuSans-2d" x="254.492188"/>
       <use xlink:href="#DejaVuSans-30" x="290.576172"/>
       <use xlink:href="#DejaVuSans-39" x="354.199219"/>
      </g>
     </g>
    </g>
    <g id="xtick_5">
     <g id="line2d_9">
      <path d="M 469.553784 320.4 
L 469.553784 43.2 
" clip-path="url(#p0ef9e79ef7)" style="fill: none; stroke-dasharray: 5.12,1.28,0.8,1.28; stroke-dashoffset: 0; stroke: #b0b0b0; stroke-width: 0.8"/>
     </g>
     <g id="line2d_10">
      <g>
       <use xlink:href="#m6122dbe193" x="469.553784" y="320.4" style="fill: #a9a9a9; stroke: #a9a9a9; stroke-width: 0.8"/>
      </g>
     </g>
     <g id="text_5">
      <!-- 2023-01 -->
      <g style="fill: #a9a9a9" transform="translate(448.662378 334.998438) scale(0.1 -0.1)">
       <defs>
        <path id="DejaVuSans-33" d="M 2597 2516 
Q 3050 2419 3304 2112 
Q 3559 1806 3559 1356 
Q 3559 666 3084 287 
Q 2609 -91 1734 -91 
Q 1441 -91 1130 -33 
Q 819 25 488 141 
L 488 750 
Q 750 597 1062 519 
Q 1375 441 1716 441 
Q 2309 441 2620 675 
Q 2931 909 2931 1356 
Q 2931 1769 2642 2001 
Q 2353 2234 1838 2234 
L 1294 2234 
L 1294 2753 
L 1863 2753 
Q 2328 2753 2575 2939 
Q 2822 3125 2822 3475 
Q 2822 3834 2567 4026 
Q 2313 4219 1838 4219 
Q 1578 4219 1281 4162 
Q 984 4106 628 3988 
L 628 4550 
Q 988 4650 1302 4700 
Q 1616 4750 1894 4750 
Q 2613 4750 3031 4423 
Q 3450 4097 3450 3541 
Q 3450 3153 3228 2886 
Q 3006 2619 2597 2516 
z
" transform="scale(0.015625)"/>
       </defs>
       <use xlink:href="#DejaVuSans-32"/>
       <use xlink:href="#DejaVuSans-30" x="63.623047"/>
       <use xlink:href="#DejaVuSans-32" x="127.246094"/>
       <use xlink:href="#DejaVuSans-33" x="190.869141"/>
       <use xlink:href="#DejaVuSans-2d" x="254.492188"/>
       <use xlink:href="#DejaVuSans-30" x="290.576172"/>
       <use xlink:href="#DejaVuSans-31" x="354.199219"/>
      </g>
     </g>
    </g>
    <g id="xtick_6">
     <g id="line2d_11">
      <path d="M 545.09388 320.4 
L 545.09388 43.2 
" clip-path="url(#p0ef9e79ef7)" style="fill: none; stroke-dasharray: 5.12,1.28,0.8,1.28; stroke-dashoffset: 0; stroke: #b0b0b0; stroke-width: 0.8"/>
     </g>
     <g id="line2d_12">
      <g>
       <use xlink:href="#m6122dbe193" x="545.09388" y="320.4" style="fill: #a9a9a9; stroke: #a9a9a9; stroke-width: 0.8"/>
      </g>
     </g>
     <g id="text_6">
      <!-- 2023-05 -->
      <g style="fill: #a9a9a9" transform="translate(524.202474 334.998438) scale(0.1 -0.1)">
       <use xlink:href="#DejaVuSans-32"/>
       <use xlink:href="#DejaVuSans-30" x="63.623047"/>
       <use xlink:href="#DejaVuSans-32" x="127.246094"/>
       <use xlink:href="#DejaVuSans-33" x="190.869141"/>
       <use xlink:href="#DejaVuSans-2d" x="254.492188"/>
       <use xlink:href="#DejaVuSans-30" x="290.576172"/>
       <use xlink:href="#DejaVuSans-35" x="354.199219"/>
      </g>
     </g>
    </g>
    <g id="xtick_7">
     <g id="line2d_13">
      <path d="M 622.522478 320.4 
L 622.522478 43.2 
" clip-path="url(#p0ef9e79ef7)" style="fill: none; stroke-dasharray: 5.12,1.28,0.8,1.28; stroke-dashoffset: 0; stroke: #b0b0b0; stroke-width: 0.8"/>
     </g>
     <g id="line2d_14">
      <g>
       <use xlink:href="#m6122dbe193" x="622.522478" y="320.4" style="fill: #a9a9a9; stroke: #a9a9a9; stroke-width: 0.8"/>
      </g>
     </g>
     <g id="text_7">
      <!-- 2023-09 -->
      <g style="fill: #a9a9a9" transform="translate(601.631072 334.998438) scale(0.1 -0.1)">
       <use xlink:href="#DejaVuSans-32"/>
       <use xlink:href="#DejaVuSans-30" x="63.623047"/>
       <use xlink:href="#DejaVuSans-32" x="127.246094"/>
       <use xlink:href="#DejaVuSans-33" x="190.869141"/>
       <use xlink:href="#DejaVuSans-2d" x="254.492188"/>
       <use xlink:href="#DejaVuSans-30" x="290.576172"/>
       <use xlink:href="#DejaVuSans-39" x="354.199219"/>
      </g>
     </g>
    </g>
    <g id="xtick_8">
     <g id="line2d_15">
      <path d="M 699.321576 320.4 
L 699.321576 43.2 
" clip-path="url(#p0ef9e79ef7)" style="fill: none; stroke-dasharray: 5.12,1.28,0.8,1.28; stroke-dashoffset: 0; stroke: #b0b0b0; stroke-width: 0.8"/>
     </g>
     <g id="line2d_16">
      <g>
       <use xlink:href="#m6122dbe193" x="699.321576" y="320.4" style="fill: #a9a9a9; stroke: #a9a9a9; stroke-width: 0.8"/>
      </g>
     </g>
     <g id="text_8">
      <!-- 2024-01 -->
      <g style="fill: #a9a9a9" transform="translate(678.430169 334.998438) scale(0.1 -0.1)">
       <defs>
        <path id="DejaVuSans-34" d="M 2419 4116 
L 825 1625 
L 2419 1625 
L 2419 4116 
z
M 2253 4666 
L 3047 4666 
L 3047 1625 
L 3713 1625 
L 3713 1100 
L 3047 1100 
L 3047 0 
L 2419 0 
L 2419 1100 
L 313 1100 
L 313 1709 
L 2253 4666 
z
" transform="scale(0.015625)"/>
       </defs>
       <use xlink:href="#DejaVuSans-32"/>
       <use xlink:href="#DejaVuSans-30" x="63.623047"/>
       <use xlink:href="#DejaVuSans-32" x="127.246094"/>
       <use xlink:href="#DejaVuSans-34" x="190.869141"/>
       <use xlink:href="#DejaVuSans-2d" x="254.492188"/>
       <use xlink:href="#DejaVuSans-30" x="290.576172"/>
       <use xlink:href="#DejaVuSans-31" x="354.199219"/>
      </g>
     </g>
    </g>
    <g id="xtick_9">
     <g id="line2d_17">
      <path d="M 775.491172 320.4 
L 775.491172 43.2 
" clip-path="url(#p0ef9e79ef7)" style="fill: none; stroke-dasharray: 5.12,1.28,0.8,1.28; stroke-dashoffset: 0; stroke: #b0b0b0; stroke-width: 0.8"/>
     </g>
     <g id="line2d_18">
      <g>
       <use xlink:href="#m6122dbe193" x="775.491172" y="320.4" style="fill: #a9a9a9; stroke: #a9a9a9; stroke-width: 0.8"/>
      </g>
     </g>
     <g id="text_9">
      <!-- 2024-05 -->
      <g style="fill: #a9a9a9" transform="translate(754.599766 334.998438) scale(0.1 -0.1)">
       <use xlink:href="#DejaVuSans-32"/>
       <use xlink:href="#DejaVuSans-30" x="63.623047"/>
       <use xlink:href="#DejaVuSans-32" x="127.246094"/>
       <use xlink:href="#DejaVuSans-34" x="190.869141"/>
       <use xlink:href="#DejaVuSans-2d" x="254.492188"/>
       <use xlink:href="#DejaVuSans-30" x="290.576172"/>
       <use xlink:href="#DejaVuSans-35" x="354.199219"/>
      </g>
     </g>
    </g>
   </g>
   <g id="matplotlib.axis_2">
    <g id="ytick_1">
     <g id="line2d_19">
      <path d="M 108 307.843621 
L 777.6 307.843621 
" clip-path="url(#p0ef9e79ef7)" style="fill: none; stroke-dasharray: 5.12,1.28,0.8,1.28; stroke-dashoffset: 0; stroke: #b0b0b0; stroke-width: 0.8"/>
     </g>
     <g id="line2d_20">
      <defs>
       <path id="m0963093acf" d="M 0 0 
L -3.5 0 
" style="stroke: #a9a9a9; stroke-width: 0.8"/>
      </defs>
      <g>
       <use xlink:href="#m0963093acf" x="108" y="307.843621" style="fill: #a9a9a9; stroke: #a9a9a9; stroke-width: 0.8"/>
      </g>
     </g>
     <g id="text_10">
      <!-- 0 -->
      <g style="fill: #a9a9a9" transform="translate(94.6375 311.64284) scale(0.1 -0.1)">
       <use xlink:href="#DejaVuSans-30"/>
      </g>
     </g>
    </g>
    <g id="ytick_2">
     <g id="line2d_21">
      <path d="M 108 272.946616 
L 777.6 272.946616 
" clip-path="url(#p0ef9e79ef7)" style="fill: none; stroke-dasharray: 5.12,1.28,0.8,1.28; stroke-dashoffset: 0; stroke: #b0b0b0; stroke-width: 0.8"/>
     </g>
     <g id="line2d_22">
      <g>
       <use xlink:href="#m0963093acf" x="108" y="272.946616" style="fill: #a9a9a9; stroke: #a9a9a9; stroke-width: 0.8"/>
      </g>
     </g>
     <g id="text_11">
      <!-- 800 -->
      <g style="fill: #a9a9a9" transform="translate(81.9125 276.745835) scale(0.1 -0.1)">
       <defs>
        <path id="DejaVuSans-38" d="M 2034 2216 
Q 1584 2216 1326 1975 
Q 1069 1734 1069 1313 
Q 1069 891 1326 650 
Q 1584 409 2034 409 
Q 2484 409 2743 651 
Q 3003 894 3003 1313 
Q 3003 1734 2745 1975 
Q 2488 2216 2034 2216 
z
M 1403 2484 
Q 997 2584 770 2862 
Q 544 3141 544 3541 
Q 544 4100 942 4425 
Q 1341 4750 2034 4750 
Q 2731 4750 3128 4425 
Q 3525 4100 3525 3541 
Q 3525 3141 3298 2862 
Q 3072 2584 2669 2484 
Q 3125 2378 3379 2068 
Q 3634 1759 3634 1313 
Q 3634 634 3220 271 
Q 2806 -91 2034 -91 
Q 1263 -91 848 271 
Q 434 634 434 1313 
Q 434 1759 690 2068 
Q 947 2378 1403 2484 
z
M 1172 3481 
Q 1172 3119 1398 2916 
Q 1625 2713 2034 2713 
Q 2441 2713 2670 2916 
Q 2900 3119 2900 3481 
Q 2900 3844 2670 4047 
Q 2441 4250 2034 4250 
Q 1625 4250 1398 4047 
Q 1172 3844 1172 3481 
z
" transform="scale(0.015625)"/>
       </defs>
       <use xlink:href="#DejaVuSans-38"/>
       <use xlink:href="#DejaVuSans-30" x="63.623047"/>
       <use xlink:href="#DejaVuSans-30" x="127.246094"/>
      </g>
     </g>
    </g>
    <g id="ytick_3">
     <g id="line2d_23">
      <path d="M 108 238.049611 
L 777.6 238.049611 
" clip-path="url(#p0ef9e79ef7)" style="fill: none; stroke-dasharray: 5.12,1.28,0.8,1.28; stroke-dashoffset: 0; stroke: #b0b0b0; stroke-width: 0.8"/>
     </g>
     <g id="line2d_24">
      <g>
       <use xlink:href="#m0963093acf" x="108" y="238.049611" style="fill: #a9a9a9; stroke: #a9a9a9; stroke-width: 0.8"/>
      </g>
     </g>
     <g id="text_12">
      <!-- 1600 -->
      <g style="fill: #a9a9a9" transform="translate(75.55 241.848829) scale(0.1 -0.1)">
       <defs>
        <path id="DejaVuSans-36" d="M 2113 2584 
Q 1688 2584 1439 2293 
Q 1191 2003 1191 1497 
Q 1191 994 1439 701 
Q 1688 409 2113 409 
Q 2538 409 2786 701 
Q 3034 994 3034 1497 
Q 3034 2003 2786 2293 
Q 2538 2584 2113 2584 
z
M 3366 4563 
L 3366 3988 
Q 3128 4100 2886 4159 
Q 2644 4219 2406 4219 
Q 1781 4219 1451 3797 
Q 1122 3375 1075 2522 
Q 1259 2794 1537 2939 
Q 1816 3084 2150 3084 
Q 2853 3084 3261 2657 
Q 3669 2231 3669 1497 
Q 3669 778 3244 343 
Q 2819 -91 2113 -91 
Q 1303 -91 875 529 
Q 447 1150 447 2328 
Q 447 3434 972 4092 
Q 1497 4750 2381 4750 
Q 2619 4750 2861 4703 
Q 3103 4656 3366 4563 
z
" transform="scale(0.015625)"/>
       </defs>
       <use xlink:href="#DejaVuSans-31"/>
       <use xlink:href="#DejaVuSans-36" x="63.623047"/>
       <use xlink:href="#DejaVuSans-30" x="127.246094"/>
       <use xlink:href="#DejaVuSans-30" x="190.869141"/>
      </g>
     </g>
    </g>
    <g id="ytick_4">
     <g id="line2d_25">
      <path d="M 108 203.152605 
L 777.6 203.152605 
" clip-path="url(#p0ef9e79ef7)" style="fill: none; stroke-dasharray: 5.12,1.28,0.8,1.28; stroke-dashoffset: 0; stroke: #b0b0b0; stroke-width: 0.8"/>
     </g>
     <g id="line2d_26">
      <g>
       <use xlink:href="#m0963093acf" x="108" y="203.152605" style="fill: #a9a9a9; stroke: #a9a9a9; stroke-width: 0.8"/>
      </g>
     </g>
     <g id="text_13">
      <!-- 2400 -->
      <g style="fill: #a9a9a9" transform="translate(75.55 206.951824) scale(0.1 -0.1)">
       <use xlink:href="#DejaVuSans-32"/>
       <use xlink:href="#DejaVuSans-34" x="63.623047"/>
       <use xlink:href="#DejaVuSans-30" x="127.246094"/>
       <use xlink:href="#DejaVuSans-30" x="190.869141"/>
      </g>
     </g>
    </g>
    <g id="ytick_5">
     <g id="line2d_27">
      <path d="M 108 168.2556 
L 777.6 168.2556 
" clip-path="url(#p0ef9e79ef7)" style="fill: none; stroke-dasharray: 5.12,1.28,0.8,1.28; stroke-dashoffset: 0; stroke: #b0b0b0; stroke-width: 0.8"/>
     </g>
     <g id="line2d_28">
      <g>
       <use xlink:href="#m0963093acf" x="108" y="168.2556" style="fill: #a9a9a9; stroke: #a9a9a9; stroke-width: 0.8"/>
      </g>
     </g>
     <g id="text_14">
      <!-- 3200 -->
      <g style="fill: #a9a9a9" transform="translate(75.55 172.054819) scale(0.1 -0.1)">
       <use xlink:href="#DejaVuSans-33"/>
       <use xlink:href="#DejaVuSans-32" x="63.623047"/>
       <use xlink:href="#DejaVuSans-30" x="127.246094"/>
       <use xlink:href="#DejaVuSans-30" x="190.869141"/>
      </g>
     </g>
    </g>
    <g id="ytick_6">
     <g id="line2d_29">
      <path d="M 108 133.358594 
L 777.6 133.358594 
" clip-path="url(#p0ef9e79ef7)" style="fill: none; stroke-dasharray: 5.12,1.28,0.8,1.28; stroke-dashoffset: 0; stroke: #b0b0b0; stroke-width: 0.8"/>
     </g>
     <g id="line2d_30">
      <g>
       <use xlink:href="#m0963093acf" x="108" y="133.358594" style="fill: #a9a9a9; stroke: #a9a9a9; stroke-width: 0.8"/>
      </g>
     </g>
     <g id="text_15">
      <!-- 4000 -->
      <g style="fill: #a9a9a9" transform="translate(75.55 137.157813) scale(0.1 -0.1)">
       <use xlink:href="#DejaVuSans-34"/>
       <use xlink:href="#DejaVuSans-30" x="63.623047"/>
       <use xlink:href="#DejaVuSans-30" x="127.246094"/>
       <use xlink:href="#DejaVuSans-30" x="190.869141"/>
      </g>
     </g>
    </g>
    <g id="ytick_7">
     <g id="line2d_31">
      <path d="M 108 98.461589 
L 777.6 98.461589 
" clip-path="url(#p0ef9e79ef7)" style="fill: none; stroke-dasharray: 5.12,1.28,0.8,1.28; stroke-dashoffset: 0; stroke: #b0b0b0; stroke-width: 0.8"/>
     </g>
     <g id="line2d_32">
      <g>
       <use xlink:href="#m0963093acf" x="108" y="98.461589" style="fill: #a9a9a9; stroke: #a9a9a9; stroke-width: 0.8"/>
      </g>
     </g>
     <g id="text_16">
      <!-- 4800 -->
      <g style="fill: #a9a9a9" transform="translate(75.55 102.260808) scale(0.1 -0.1)">
       <use xlink:href="#DejaVuSans-34"/>
       <use xlink:href="#DejaVuSans-38" x="63.623047"/>
       <use xlink:href="#DejaVuSans-30" x="127.246094"/>
       <use xlink:href="#DejaVuSans-30" x="190.869141"/>
      </g>
     </g>
    </g>
    <g id="ytick_8">
     <g id="line2d_33">
      <path d="M 108 63.564584 
L 777.6 63.564584 
" clip-path="url(#p0ef9e79ef7)" style="fill: none; stroke-dasharray: 5.12,1.28,0.8,1.28; stroke-dashoffset: 0; stroke: #b0b0b0; stroke-width: 0.8"/>
     </g>
     <g id="line2d_34">
      <g>
       <use xlink:href="#m0963093acf" x="108" y="63.564584" style="fill: #a9a9a9; stroke: #a9a9a9; stroke-width: 0.8"/>
      </g>
     </g>
     <g id="text_17">
      <!-- 5600 -->
      <g style="fill: #a9a9a9" transform="translate(75.55 67.363802) scale(0.1 -0.1)">
       <use xlink:href="#DejaVuSans-35"/>
       <use xlink:href="#DejaVuSans-36" x="63.623047"/>
       <use xlink:href="#DejaVuSans-30" x="127.246094"/>
       <use xlink:href="#DejaVuSans-30" x="190.869141"/>
      </g>
     </g>
    </g>
   </g>
   <g id="line2d_35">
    <path d="M 138.436364 307.712757 
L 142.213368 307.407409 
L 142.842869 307.145681 
L 144.731372 306.927575 
L 148.508376 306.186014 
L 152.285381 305.880665 
L 152.914882 305.575316 
L 153.544383 305.400831 
L 154.173884 304.615648 
L 154.803384 304.179436 
L 155.432885 302.827177 
L 156.062386 302.739934 
L 156.691887 302.2601 
L 157.950888 301.649403 
L 160.468892 299.730068 
L 161.727893 299.206612 
L 162.357394 298.7704 
L 164.875397 297.679868 
L 165.504898 296.720201 
L 166.7639 295.804154 
L 167.3934 295.498806 
L 173.688408 294.62638 
L 174.317909 294.321032 
L 178.724415 293.972062 
L 180.612917 293.492228 
L 186.278424 292.750666 
L 186.907925 292.401696 
L 187.537426 292.314454 
L 188.166927 292.052726 
L 189.425928 291.83462 
L 190.055429 291.790999 
L 191.314431 291.529271 
L 191.943932 291.48565 
L 194.461935 290.874952 
L 196.350437 290.700467 
L 197.609439 290.569604 
L 198.23894 290.395119 
L 198.86844 290.351497 
L 200.756943 289.784421 
L 204.533948 289.217345 
L 205.163448 289.04286 
L 205.792949 288.170434 
L 207.681452 287.472494 
L 209.569954 286.949039 
L 210.199455 286.64369 
L 210.828956 286.600069 
L 213.97646 285.727644 
L 215.235461 285.640402 
L 215.864962 285.553159 
L 217.753464 284.986083 
L 220.271468 284.375385 
L 220.900968 284.113658 
L 221.530469 284.026415 
L 222.15997 283.721066 
L 228.454978 282.761399 
L 231.602482 281.888974 
L 232.231983 281.496382 
L 234.749986 280.842063 
L 236.008987 280.100502 
L 236.638488 279.664289 
L 238.526991 279.315319 
L 242.303995 278.181167 
L 243.562997 277.788575 
L 244.192498 277.701333 
L 245.451499 277.352363 
L 246.710501 277.047014 
L 247.340002 276.959772 
L 248.599003 276.436316 
L 249.228504 276.305453 
L 249.858005 276.043725 
L 250.487506 275.956483 
L 251.117007 275.651134 
L 251.746507 275.476649 
L 253.005509 275.389406 
L 254.264511 274.953194 
L 255.523512 274.865951 
L 256.153013 274.560602 
L 258.671016 274.12439 
L 261.189019 273.906284 
L 261.81852 273.77542 
L 263.077522 273.164722 
L 270.002031 270.242098 
L 270.631531 269.893128 
L 271.261032 269.195188 
L 271.890533 268.148278 
L 272.520034 267.319474 
L 273.149535 267.144989 
L 273.779035 267.144989 
L 275.038037 266.228942 
L 275.667538 266.054457 
L 276.297039 265.705487 
L 276.926539 265.574624 
L 277.55604 265.007547 
L 278.185541 264.833062 
L 280.074043 263.917016 
L 281.333045 262.172165 
L 281.962546 261.779574 
L 282.592047 260.732664 
L 283.221547 260.078345 
L 283.851048 259.772996 
L 284.480549 259.598511 
L 286.998552 258.115389 
L 288.257554 257.1121 
L 288.887055 256.719508 
L 289.516555 255.803462 
L 290.146056 254.363961 
L 290.775557 253.447914 
L 291.405058 252.96808 
L 292.034559 252.706353 
L 294.552562 250.52529 
L 295.811563 249.522001 
L 296.441064 248.998546 
L 297.070565 248.169742 
L 298.329567 247.079211 
L 300.84757 245.465224 
L 301.477071 244.898148 
L 302.106571 244.767284 
L 302.736072 244.505557 
L 304.624575 243.458646 
L 305.883576 242.847949 
L 307.142578 241.670175 
L 307.772079 240.928613 
L 309.03108 240.056188 
L 309.660581 239.881703 
L 310.290082 239.576355 
L 311.549083 238.747551 
L 312.178584 238.398581 
L 312.808085 238.311338 
L 318.473592 234.90888 
L 319.103093 234.690774 
L 320.991595 233.469379 
L 322.880098 232.902302 
L 323.509599 232.46609 
L 324.139099 232.335226 
L 325.398101 231.899013 
L 327.286603 231.157452 
L 329.175106 230.459512 
L 330.434107 230.241406 
L 331.693109 229.150874 
L 332.952111 228.540177 
L 334.211112 227.842236 
L 334.840613 227.493266 
L 336.099615 227.144296 
L 336.729115 226.751705 
L 337.358616 226.57722 
L 339.247119 225.399446 
L 342.394623 224.657885 
L 344.283125 223.567353 
L 344.912626 223.480111 
L 345.542127 223.262005 
L 346.801128 223.000277 
L 348.689631 221.604397 
L 350.578133 221.168184 
L 351.207634 220.950078 
L 351.837135 220.470244 
L 355.614139 219.248849 
L 356.24364 219.205228 
L 356.873141 219.030743 
L 358.132143 218.507288 
L 362.538648 216.980544 
L 363.79765 216.806059 
L 364.427151 216.631573 
L 365.056651 216.326225 
L 365.686152 216.195361 
L 367.574655 215.322936 
L 369.463157 214.406889 
L 370.092658 213.970677 
L 370.722159 213.796192 
L 372.610661 212.792903 
L 373.869662 212.487554 
L 375.128664 211.833235 
L 376.387666 211.484265 
L 377.017166 211.397023 
L 378.276168 210.655461 
L 378.905669 210.524598 
L 380.16467 210.001142 
L 380.794171 209.870279 
L 381.423672 209.521309 
L 383.941675 209.128717 
L 385.200677 208.51802 
L 385.830178 207.994565 
L 386.459678 206.904033 
L 387.71868 206.642306 
L 388.348181 206.511442 
L 390.866184 205.202804 
L 391.495685 205.07194 
L 396.531691 202.672771 
L 398.420194 202.28018 
L 399.049694 201.93121 
L 402.826699 200.622572 
L 404.085701 199.83739 
L 405.344702 199.095828 
L 405.974203 199.008586 
L 406.603704 198.790479 
L 407.233205 198.746858 
L 410.380709 197.918054 
L 411.01021 197.438221 
L 412.269211 197.002008 
L 414.157714 196.39131 
L 414.787214 195.998719 
L 415.416715 195.824234 
L 416.046216 195.388021 
L 416.675717 195.126294 
L 417.934718 194.471975 
L 420.452722 193.686792 
L 421.082222 193.381444 
L 422.970725 191.941942 
L 423.600226 191.811078 
L 424.859227 190.851411 
L 425.488728 190.720547 
L 426.118229 189.760879 
L 426.74773 189.499152 
L 427.37723 189.019318 
L 428.006731 188.932075 
L 429.265733 188.190514 
L 429.895234 188.05965 
L 430.524734 187.797923 
L 431.154235 187.318089 
L 431.783736 187.099983 
L 433.672238 185.834966 
L 436.190242 184.56995 
L 436.819742 184.482707 
L 438.078744 183.915631 
L 438.708245 183.566661 
L 439.337746 182.519751 
L 439.967246 181.952674 
L 440.596747 181.603704 
L 441.226248 181.472841 
L 442.48525 180.687658 
L 443.11475 180.556794 
L 444.373752 179.946097 
L 446.262254 179.160914 
L 447.521256 178.288489 
L 448.780258 176.979851 
L 451.927762 174.711546 
L 453.186763 173.664636 
L 453.816264 173.402908 
L 454.445765 172.704968 
L 455.075266 172.225134 
L 456.334267 171.788922 
L 456.963768 171.265467 
L 458.22277 170.611148 
L 458.85227 170.436663 
L 459.481771 170.00045 
L 460.111272 169.869586 
L 461.999774 168.866297 
L 463.258776 168.124736 
L 469.553784 165.900052 
L 470.183285 165.332976 
L 472.071787 164.635035 
L 473.330789 164.242444 
L 473.96029 163.76261 
L 476.478293 162.453973 
L 477.107794 162.105003 
L 478.366795 159.618591 
L 479.625797 158.135468 
L 480.884798 157.393907 
L 482.773301 156.652346 
L 483.402802 156.565103 
L 484.032302 156.216133 
L 485.920805 155.649057 
L 488.438808 154.514904 
L 489.068309 154.122313 
L 490.32731 153.6861 
L 494.104315 151.505037 
L 494.733816 150.850718 
L 495.992818 150.1964 
L 496.622318 149.847429 
L 497.251819 149.629323 
L 497.88132 149.193111 
L 499.140322 148.582413 
L 501.028824 147.579124 
L 501.658325 147.404639 
L 502.287826 146.924805 
L 502.917326 146.663078 
L 503.546827 146.532214 
L 504.805829 146.096001 
L 506.694331 145.398061 
L 507.323832 144.961849 
L 508.582834 144.612879 
L 509.841835 144.133045 
L 510.471336 143.653211 
L 511.730338 143.26062 
L 512.359838 142.955271 
L 512.989339 142.780786 
L 514.248341 141.908361 
L 515.507342 141.341284 
L 516.766344 140.381617 
L 518.025345 139.945404 
L 518.654846 139.421949 
L 519.284347 139.334707 
L 520.543349 138.41866 
L 521.80235 137.807963 
L 522.431851 137.546235 
L 523.061352 136.935537 
L 526.838357 135.583279 
L 528.726859 134.754475 
L 530.615361 134.187398 
L 531.874363 134.012913 
L 532.503864 133.751186 
L 533.133365 133.663943 
L 534.392366 133.140488 
L 535.021867 133.096867 
L 537.53987 132.18082 
L 539.428373 130.872183 
L 540.057873 130.610455 
L 541.316875 129.956136 
L 541.946376 129.73803 
L 544.464379 128.254907 
L 545.09388 127.862316 
L 546.352881 127.556967 
L 548.241384 126.510057 
L 550.129886 125.89936 
L 550.759387 125.637632 
L 552.018389 125.332283 
L 555.165893 124.328994 
L 557.054395 123.980024 
L 559.572398 123.194842 
L 560.201899 122.933114 
L 560.8314 122.845872 
L 561.460901 122.540523 
L 562.719902 122.278795 
L 563.978904 121.842583 
L 564.608405 121.624476 
L 565.867406 121.493613 
L 567.126408 121.188264 
L 569.01491 120.882915 
L 569.644411 120.664809 
L 570.903413 120.533945 
L 576.56892 118.876337 
L 577.198421 118.658231 
L 577.827921 118.61461 
L 581.604926 117.480457 
L 582.863928 117.044244 
L 583.493429 116.957002 
L 585.381931 116.302683 
L 586.011432 116.302683 
L 587.270433 115.86647 
L 587.899934 115.255773 
L 588.529435 114.950424 
L 589.788437 114.557833 
L 592.30644 113.598165 
L 592.935941 113.467301 
L 593.565441 113.07471 
L 594.194942 112.943846 
L 594.824443 112.594876 
L 597.971947 111.67883 
L 598.601448 111.286239 
L 599.230949 111.155375 
L 599.860449 110.63192 
L 601.748952 110.28295 
L 603.007953 109.58501 
L 603.637454 108.887069 
L 604.896456 108.625342 
L 609.302961 107.622053 
L 609.932462 107.447568 
L 611.191464 107.403947 
L 611.820965 107.098598 
L 614.338968 106.662385 
L 614.968469 106.357037 
L 616.856971 106.095309 
L 619.374974 105.310126 
L 621.263477 104.873914 
L 623.151979 104.39408 
L 625.669982 103.608897 
L 626.299483 103.478034 
L 626.928984 103.172685 
L 627.558485 103.085442 
L 628.187985 102.867336 
L 628.817486 102.518366 
L 630.705989 101.864047 
L 631.335489 101.384213 
L 632.594491 101.035243 
L 633.223992 100.773516 
L 634.482993 100.424546 
L 637.000997 99.290393 
L 638.889499 99.159529 
L 641.407502 98.374347 
L 642.037003 97.981755 
L 643.296005 97.632785 
L 645.184507 96.673118 
L 645.814008 96.542254 
L 646.443509 96.236905 
L 647.073009 96.149662 
L 653.997518 93.837736 
L 656.515521 93.227038 
L 657.145022 93.052553 
L 658.404024 92.485477 
L 659.033524 92.398234 
L 660.292526 92.049264 
L 660.922027 91.569431 
L 661.551528 91.264082 
L 662.181028 90.52252 
L 662.810529 90.086308 
L 664.069531 89.693716 
L 664.699032 89.170261 
L 671.62354 86.33488 
L 672.882542 86.029531 
L 674.771044 85.157106 
L 676.030046 84.415544 
L 676.659547 84.284681 
L 677.289048 83.804847 
L 678.548049 83.194149 
L 679.807051 82.408967 
L 681.695553 81.536541 
L 682.325054 81.100329 
L 683.584056 80.620495 
L 684.843057 79.878934 
L 685.472558 79.573585 
L 686.102059 79.137372 
L 687.36106 78.70116 
L 687.990561 78.570296 
L 690.508564 77.436143 
L 693.656068 76.345612 
L 694.285569 76.301991 
L 694.91507 76.127506 
L 695.544571 75.734914 
L 696.174072 75.647672 
L 696.803572 75.429566 
L 698.692075 75.080595 
L 701.839579 73.466609 
L 703.09858 72.768669 
L 703.728081 72.681426 
L 705.616584 71.678137 
L 707.505086 70.980197 
L 709.393588 70.151393 
L 711.911592 69.148105 
L 712.541092 68.97362 
L 713.170593 68.581028 
L 714.429595 68.406543 
L 715.059096 68.013952 
L 715.688596 67.970331 
L 716.947598 67.577739 
L 718.2066 66.967042 
L 718.8361 66.879799 
L 719.465601 66.618072 
L 720.095102 66.487208 
L 721.983604 65.658404 
L 722.613105 65.52754 
L 723.242606 65.265813 
L 726.39011 64.524251 
L 728.278612 63.78269 
L 730.796616 62.343189 
L 732.055617 61.863355 
L 732.685118 61.470763 
L 733.94412 61.209036 
L 734.57362 60.860066 
L 735.203121 60.729202 
L 736.462123 60.031262 
L 740.239128 58.286412 
L 744.016132 56.977774 
L 745.275134 56.323455 
L 746.534136 55.930864 
L 747.163636 55.8 
L 747.163636 55.8 
" clip-path="url(#p0ef9e79ef7)" style="fill: none; stroke: #1f77b4; stroke-width: 1.5; stroke-linecap: square"/>
   </g>
   <g id="line2d_36">
    <path d="M 139.065864 307.8 
L 140.954367 307.712757 
L 142.842869 307.669136 
L 146.619874 307.581894 
L 149.767378 307.45103 
L 152.285381 307.45103 
L 152.914882 307.276545 
L 155.432885 307.189302 
L 157.321388 306.971196 
L 159.20989 306.796711 
L 162.986895 306.622226 
L 163.616396 306.622226 
L 164.245896 306.491362 
L 166.7639 306.40412 
L 168.022901 306.316877 
L 173.058908 306.229635 
L 176.206412 306.098771 
L 183.760421 306.011528 
L 186.907925 305.880665 
L 190.68493 305.793422 
L 193.202933 305.70618 
L 198.86844 305.618937 
L 200.756943 305.575316 
L 202.645445 305.531695 
L 204.533948 305.313588 
L 208.310952 305.269967 
L 209.569954 305.182725 
L 213.97646 305.095482 
L 220.900968 304.702891 
L 225.307474 304.615648 
L 226.566476 304.528406 
L 228.454978 304.441163 
L 232.231983 304.266678 
L 234.749986 304.223057 
L 236.638488 304.048572 
L 246.710501 303.437874 
L 249.228504 303.350632 
L 253.63501 303.132526 
L 255.523512 303.045283 
L 261.81852 302.696313 
L 268.743029 302.60907 
L 271.261032 302.347343 
L 272.520034 302.2601 
L 280.703544 301.605782 
L 284.480549 301.125948 
L 286.998552 301.038705 
L 292.034559 300.384386 
L 295.182063 300.297144 
L 303.365573 299.642825 
L 306.513077 299.293855 
L 309.03108 299.206612 
L 310.290082 299.11937 
L 312.808085 299.032127 
L 314.067087 298.944885 
L 317.214591 298.639536 
L 317.844091 298.465051 
L 321.621096 298.290566 
L 324.7686 298.203324 
L 332.952111 297.72349 
L 334.840613 297.636247 
L 343.024123 297.156413 
L 347.430629 297.069171 
L 348.06013 296.938307 
L 353.096136 296.851065 
L 357.502642 296.632958 
L 364.427151 296.545716 
L 368.833656 296.327609 
L 373.869662 296.240367 
L 378.905669 295.978639 
L 383.312174 295.891397 
L 395.27269 295.149836 
L 400.308696 295.062593 
L 416.675717 294.015683 
L 420.452722 293.92844 
L 422.341224 293.884819 
L 424.229726 293.841198 
L 426.118229 293.666713 
L 431.154235 293.57947 
L 432.413237 293.361364 
L 433.672238 293.274122 
L 436.819742 293.143258 
L 438.078744 293.056015 
L 439.337746 292.968773 
L 445.003253 292.88153 
L 446.262254 292.750666 
L 448.780258 292.707045 
L 449.409758 292.576181 
L 450.66876 292.488939 
L 451.298261 292.358075 
L 453.186763 292.270833 
L 463.888277 291.616514 
L 465.776779 291.529271 
L 468.924283 291.398407 
L 477.737294 291.311165 
L 482.1438 291.093059 
L 487.179806 291.005816 
L 489.69781 290.918574 
L 492.215813 290.874952 
L 493.474814 290.744089 
L 495.992818 290.656846 
L 502.287826 290.307876 
L 506.06483 290.264255 
L 507.953333 290.08977 
L 509.841835 290.046149 
L 514.248341 289.958906 
L 516.766344 289.871663 
L 524.320353 289.784421 
L 527.467857 289.653557 
L 531.244862 289.566315 
L 533.133365 289.348208 
L 536.910369 289.304587 
L 538.798872 289.130102 
L 541.316875 289.04286 
L 548.870885 288.955617 
L 552.018389 288.824753 
L 562.719902 288.781132 
L 563.978904 288.69389 
L 565.867406 288.650268 
L 574.050917 288.563026 
L 575.309918 288.475783 
L 582.234427 288.388541 
L 584.75243 288.301298 
L 592.30644 288.257677 
L 593.565441 288.170434 
L 603.007953 288.126813 
L 604.896456 287.952328 
L 615.597969 287.865086 
L 617.486472 287.821464 
L 633.853493 287.734222 
L 635.741995 287.690601 
L 647.70251 287.603358 
L 650.220513 287.516116 
L 654.627019 287.428873 
L 659.663025 287.167146 
L 662.181028 287.079903 
L 664.699032 286.992661 
L 668.476036 286.905418 
L 670.364539 286.861797 
L 672.882542 286.774554 
L 674.771044 286.730933 
L 677.918548 286.64369 
L 679.17755 286.556448 
L 682.954555 286.469205 
L 686.102059 286.338342 
L 687.36106 286.29472 
L 689.249563 286.120235 
L 693.026568 286.032993 
L 695.544571 285.94575 
L 701.839579 285.858508 
L 704.987083 285.727644 
L 711.282091 285.640402 
L 715.688596 285.422295 
L 721.354104 285.335053 
L 722.613105 285.24781 
L 730.167115 285.160568 
L 732.055617 285.116947 
L 738.980126 285.029704 
L 741.498129 284.767976 
L 743.386632 284.724355 
L 747.163636 284.637113 
L 747.163636 284.637113 
" clip-path="url(#p0ef9e79ef7)" style="fill: none; stroke: #ff7f0e; stroke-width: 1.5; stroke-linecap: square"/>
   </g>
   <g id="patch_3">
    <path d="M 108 320.4 
L 108 43.2 
" style="fill: none; stroke: #a9a9a9; stroke-width: 0.8; stroke-linejoin: miter; stroke-linecap: square"/>
   </g>
   <g id="patch_4">
    <path d="M 777.6 320.4 
L 777.6 43.2 
" style="fill: none"/>
   </g>
   <g id="patch_5">
    <path d="M 108 320.4 
L 777.6 320.4 
" style="fill: none; stroke: #a9a9a9; stroke-width: 0.8; stroke-linejoin: miter; stroke-linecap: square"/>
   </g>
   <g id="patch_6">
    <path d="M 108 43.2 
L 777.6 43.2 
" style="fill: none"/>
   </g>
   <g id="text_18">
    <!-- get_subscribe history -->
    <g style="fill: #a9a9a9" transform="translate(378.6075 37.2) scale(0.12 -0.12)">
     <defs>
      <path id="DejaVuSans-67" d="M 2906 1791 
Q 2906 2416 2648 2759 
Q 2391 3103 1925 3103 
Q 1463 3103 1205 2759 
Q 947 2416 947 1791 
Q 947 1169 1205 825 
Q 1463 481 1925 481 
Q 2391 481 2648 825 
Q 2906 1169 2906 1791 
z
M 3481 434 
Q 3481 -459 3084 -895 
Q 2688 -1331 1869 -1331 
Q 1566 -1331 1297 -1286 
Q 1028 -1241 775 -1147 
L 775 -588 
Q 1028 -725 1275 -790 
Q 1522 -856 1778 -856 
Q 2344 -856 2625 -561 
Q 2906 -266 2906 331 
L 2906 616 
Q 2728 306 2450 153 
Q 2172 0 1784 0 
Q 1141 0 747 490 
Q 353 981 353 1791 
Q 353 2603 747 3093 
Q 1141 3584 1784 3584 
Q 2172 3584 2450 3431 
Q 2728 3278 2906 2969 
L 2906 3500 
L 3481 3500 
L 3481 434 
z
" transform="scale(0.015625)"/>
      <path id="DejaVuSans-65" d="M 3597 1894 
L 3597 1613 
L 953 1613 
Q 991 1019 1311 708 
Q 1631 397 2203 397 
Q 2534 397 2845 478 
Q 3156 559 3463 722 
L 3463 178 
Q 3153 47 2828 -22 
Q 2503 -91 2169 -91 
Q 1331 -91 842 396 
Q 353 884 353 1716 
Q 353 2575 817 3079 
Q 1281 3584 2069 3584 
Q 2775 3584 3186 3129 
Q 3597 2675 3597 1894 
z
M 3022 2063 
Q 3016 2534 2758 2815 
Q 2500 3097 2075 3097 
Q 1594 3097 1305 2825 
Q 1016 2553 972 2059 
L 3022 2063 
z
" transform="scale(0.015625)"/>
      <path id="DejaVuSans-74" d="M 1172 4494 
L 1172 3500 
L 2356 3500 
L 2356 3053 
L 1172 3053 
L 1172 1153 
Q 1172 725 1289 603 
Q 1406 481 1766 481 
L 2356 481 
L 2356 0 
L 1766 0 
Q 1100 0 847 248 
Q 594 497 594 1153 
L 594 3053 
L 172 3053 
L 172 3500 
L 594 3500 
L 594 4494 
L 1172 4494 
z
" transform="scale(0.015625)"/>
      <path id="DejaVuSans-5f" d="M 3263 -1063 
L 3263 -1509 
L -63 -1509 
L -63 -1063 
L 3263 -1063 
z
" transform="scale(0.015625)"/>
      <path id="DejaVuSans-73" d="M 2834 3397 
L 2834 2853 
Q 2591 2978 2328 3040 
Q 2066 3103 1784 3103 
Q 1356 3103 1142 2972 
Q 928 2841 928 2578 
Q 928 2378 1081 2264 
Q 1234 2150 1697 2047 
L 1894 2003 
Q 2506 1872 2764 1633 
Q 3022 1394 3022 966 
Q 3022 478 2636 193 
Q 2250 -91 1575 -91 
Q 1294 -91 989 -36 
Q 684 19 347 128 
L 347 722 
Q 666 556 975 473 
Q 1284 391 1588 391 
Q 1994 391 2212 530 
Q 2431 669 2431 922 
Q 2431 1156 2273 1281 
Q 2116 1406 1581 1522 
L 1381 1569 
Q 847 1681 609 1914 
Q 372 2147 372 2553 
Q 372 3047 722 3315 
Q 1072 3584 1716 3584 
Q 2034 3584 2315 3537 
Q 2597 3491 2834 3397 
z
" transform="scale(0.015625)"/>
      <path id="DejaVuSans-75" d="M 544 1381 
L 544 3500 
L 1119 3500 
L 1119 1403 
Q 1119 906 1312 657 
Q 1506 409 1894 409 
Q 2359 409 2629 706 
Q 2900 1003 2900 1516 
L 2900 3500 
L 3475 3500 
L 3475 0 
L 2900 0 
L 2900 538 
Q 2691 219 2414 64 
Q 2138 -91 1772 -91 
Q 1169 -91 856 284 
Q 544 659 544 1381 
z
M 1991 3584 
L 1991 3584 
z
" transform="scale(0.015625)"/>
      <path id="DejaVuSans-62" d="M 3116 1747 
Q 3116 2381 2855 2742 
Q 2594 3103 2138 3103 
Q 1681 3103 1420 2742 
Q 1159 2381 1159 1747 
Q 1159 1113 1420 752 
Q 1681 391 2138 391 
Q 2594 391 2855 752 
Q 3116 1113 3116 1747 
z
M 1159 2969 
Q 1341 3281 1617 3432 
Q 1894 3584 2278 3584 
Q 2916 3584 3314 3078 
Q 3713 2572 3713 1747 
Q 3713 922 3314 415 
Q 2916 -91 2278 -91 
Q 1894 -91 1617 61 
Q 1341 213 1159 525 
L 1159 0 
L 581 0 
L 581 4863 
L 1159 4863 
L 1159 2969 
z
" transform="scale(0.015625)"/>
      <path id="DejaVuSans-63" d="M 3122 3366 
L 3122 2828 
Q 2878 2963 2633 3030 
Q 2388 3097 2138 3097 
Q 1578 3097 1268 2742 
Q 959 2388 959 1747 
Q 959 1106 1268 751 
Q 1578 397 2138 397 
Q 2388 397 2633 464 
Q 2878 531 3122 666 
L 3122 134 
Q 2881 22 2623 -34 
Q 2366 -91 2075 -91 
Q 1284 -91 818 406 
Q 353 903 353 1747 
Q 353 2603 823 3093 
Q 1294 3584 2113 3584 
Q 2378 3584 2631 3529 
Q 2884 3475 3122 3366 
z
" transform="scale(0.015625)"/>
      <path id="DejaVuSans-72" d="M 2631 2963 
Q 2534 3019 2420 3045 
Q 2306 3072 2169 3072 
Q 1681 3072 1420 2755 
Q 1159 2438 1159 1844 
L 1159 0 
L 581 0 
L 581 3500 
L 1159 3500 
L 1159 2956 
Q 1341 3275 1631 3429 
Q 1922 3584 2338 3584 
Q 2397 3584 2469 3576 
Q 2541 3569 2628 3553 
L 2631 2963 
z
" transform="scale(0.015625)"/>
      <path id="DejaVuSans-69" d="M 603 3500 
L 1178 3500 
L 1178 0 
L 603 0 
L 603 3500 
z
M 603 4863 
L 1178 4863 
L 1178 4134 
L 603 4134 
L 603 4863 
z
" transform="scale(0.015625)"/>
      <path id="DejaVuSans-20" transform="scale(0.015625)"/>
      <path id="DejaVuSans-68" d="M 3513 2113 
L 3513 0 
L 2938 0 
L 2938 2094 
Q 2938 2591 2744 2837 
Q 2550 3084 2163 3084 
Q 1697 3084 1428 2787 
Q 1159 2491 1159 1978 
L 1159 0 
L 581 0 
L 581 4863 
L 1159 4863 
L 1159 2956 
Q 1366 3272 1645 3428 
Q 1925 3584 2291 3584 
Q 2894 3584 3203 3211 
Q 3513 2838 3513 2113 
z
" transform="scale(0.015625)"/>
      <path id="DejaVuSans-6f" d="M 1959 3097 
Q 1497 3097 1228 2736 
Q 959 2375 959 1747 
Q 959 1119 1226 758 
Q 1494 397 1959 397 
Q 2419 397 2687 759 
Q 2956 1122 2956 1747 
Q 2956 2369 2687 2733 
Q 2419 3097 1959 3097 
z
M 1959 3584 
Q 2709 3584 3137 3096 
Q 3566 2609 3566 1747 
Q 3566 888 3137 398 
Q 2709 -91 1959 -91 
Q 1206 -91 779 398 
Q 353 888 353 1747 
Q 353 2609 779 3096 
Q 1206 3584 1959 3584 
z
" transform="scale(0.015625)"/>
      <path id="DejaVuSans-79" d="M 2059 -325 
Q 1816 -950 1584 -1140 
Q 1353 -1331 966 -1331 
L 506 -1331 
L 506 -850 
L 844 -850 
Q 1081 -850 1212 -737 
Q 1344 -625 1503 -206 
L 1606 56 
L 191 3500 
L 800 3500 
L 1894 763 
L 2988 3500 
L 3597 3500 
L 2059 -325 
z
" transform="scale(0.015625)"/>
     </defs>
     <use xlink:href="#DejaVuSans-67"/>
     <use xlink:href="#DejaVuSans-65" x="63.476562"/>
     <use xlink:href="#DejaVuSans-74" x="125"/>
     <use xlink:href="#DejaVuSans-5f" x="164.208984"/>
     <use xlink:href="#DejaVuSans-73" x="214.208984"/>
     <use xlink:href="#DejaVuSans-75" x="266.308594"/>
     <use xlink:href="#DejaVuSans-62" x="329.6875"/>
     <use xlink:href="#DejaVuSans-73" x="393.164062"/>
     <use xlink:href="#DejaVuSans-63" x="445.263672"/>
     <use xlink:href="#DejaVuSans-72" x="500.244141"/>
     <use xlink:href="#DejaVuSans-69" x="541.357422"/>
     <use xlink:href="#DejaVuSans-62" x="569.140625"/>
     <use xlink:href="#DejaVuSans-65" x="632.617188"/>
     <use xlink:href="#DejaVuSans-20" x="694.140625"/>
     <use xlink:href="#DejaVuSans-68" x="725.927734"/>
     <use xlink:href="#DejaVuSans-69" x="789.306641"/>
     <use xlink:href="#DejaVuSans-73" x="817.089844"/>
     <use xlink:href="#DejaVuSans-74" x="869.189453"/>
     <use xlink:href="#DejaVuSans-6f" x="908.398438"/>
     <use xlink:href="#DejaVuSans-72" x="969.580078"/>
     <use xlink:href="#DejaVuSans-79" x="1010.693359"/>
    </g>
   </g>
   <g id="legend_1">
    <g id="line2d_37">
     <path d="M 815.08 328.498438 
L 825.08 328.498438 
L 835.08 328.498438 
" style="fill: none; stroke: #1f77b4; stroke-width: 1.5; stroke-linecap: square"/>
    </g>
    <g id="text_19">
     <!-- star -->
     <g style="fill: #a9a9a9" transform="translate(843.08 331.998438) scale(0.1 -0.1)">
      <defs>
       <path id="DejaVuSans-61" d="M 2194 1759 
Q 1497 1759 1228 1600 
Q 959 1441 959 1056 
Q 959 750 1161 570 
Q 1363 391 1709 391 
Q 2188 391 2477 730 
Q 2766 1069 2766 1631 
L 2766 1759 
L 2194 1759 
z
M 3341 1997 
L 3341 0 
L 2766 0 
L 2766 531 
Q 2569 213 2275 61 
Q 1981 -91 1556 -91 
Q 1019 -91 701 211 
Q 384 513 384 1019 
Q 384 1609 779 1909 
Q 1175 2209 1959 2209 
L 2766 2209 
L 2766 2266 
Q 2766 2663 2505 2880 
Q 2244 3097 1772 3097 
Q 1472 3097 1187 3025 
Q 903 2953 641 2809 
L 641 3341 
Q 956 3463 1253 3523 
Q 1550 3584 1831 3584 
Q 2591 3584 2966 3190 
Q 3341 2797 3341 1997 
z
" transform="scale(0.015625)"/>
      </defs>
      <use xlink:href="#DejaVuSans-73"/>
      <use xlink:href="#DejaVuSans-74" x="52.099609"/>
      <use xlink:href="#DejaVuSans-61" x="91.308594"/>
      <use xlink:href="#DejaVuSans-72" x="152.587891"/>
     </g>
    </g>
    <g id="line2d_38">
     <path d="M 815.08 343.176562 
L 825.08 343.176562 
L 835.08 343.176562 
" style="fill: none; stroke: #ff7f0e; stroke-width: 1.5; stroke-linecap: square"/>
    </g>
    <g id="text_20">
     <!-- fork -->
     <g style="fill: #a9a9a9" transform="translate(843.08 346.676562) scale(0.1 -0.1)">
      <defs>
       <path id="DejaVuSans-66" d="M 2375 4863 
L 2375 4384 
L 1825 4384 
Q 1516 4384 1395 4259 
Q 1275 4134 1275 3809 
L 1275 3500 
L 2222 3500 
L 2222 3053 
L 1275 3053 
L 1275 0 
L 697 0 
L 697 3053 
L 147 3053 
L 147 3500 
L 697 3500 
L 697 3744 
Q 697 4328 969 4595 
Q 1241 4863 1831 4863 
L 2375 4863 
z
" transform="scale(0.015625)"/>
       <path id="DejaVuSans-6b" d="M 581 4863 
L 1159 4863 
L 1159 1991 
L 2875 3500 
L 3609 3500 
L 1753 1863 
L 3688 0 
L 2938 0 
L 1159 1709 
L 1159 0 
L 581 0 
L 581 4863 
z
" transform="scale(0.015625)"/>
      </defs>
      <use xlink:href="#DejaVuSans-66"/>
      <use xlink:href="#DejaVuSans-6f" x="35.205078"/>
      <use xlink:href="#DejaVuSans-72" x="96.386719"/>
      <use xlink:href="#DejaVuSans-6b" x="137.5"/>
     </g>
    </g>
   </g>
  </g>
 </g>
 <defs>
  <clipPath id="p0ef9e79ef7">
   <rect x="108" y="43.2" width="669.6" height="277.2"/>
  </clipPath>
 </defs>
</svg>
