<?xml version="1.0" encoding="utf-8" standalone="no"?>
<!DOCTYPE svg PUBLIC "-//W3C//DTD SVG 1.1//EN"
  "http://www.w3.org/Graphics/SVG/1.1/DTD/svg11.dtd">
<svg xmlns:xlink="http://www.w3.org/1999/xlink" width="864pt" height="360pt" viewBox="0 0 864 360" xmlns="http://www.w3.org/2000/svg" version="1.1">
 <metadata>
  <rdf:RDF xmlns:dc="http://purl.org/dc/elements/1.1/" xmlns:cc="http://creativecommons.org/ns#" xmlns:rdf="http://www.w3.org/1999/02/22-rdf-syntax-ns#">
   <cc:Work>
    <dc:type rdf:resource="http://purl.org/dc/dcmitype/StillImage"/>
    <dc:date>2024-03-15T08:10:12.687848</dc:date>
    <dc:format>image/svg+xml</dc:format>
    <dc:creator>
     <cc:Agent>
      <dc:title>Matplotlib v3.8.3, https://matplotlib.org/</dc:title>
     </cc:Agent>
    </dc:creator>
   </cc:Work>
  </rdf:RDF>
 </metadata>
 <defs>
  <style type="text/css">*{stroke-linejoin: round; stroke-linecap: butt}</style>
 </defs>
 <g id="figure_1">
  <g id="patch_1">
   <path d="M 0 360 
L 864 360 
L 864 0 
L 0 0 
L 0 360 
z
" style="fill: none; opacity: 0"/>
  </g>
  <g id="axes_1">
   <g id="patch_2">
    <path d="M 108 320.4 
L 777.6 320.4 
L 777.6 43.2 
L 108 43.2 
L 108 320.4 
z
" style="fill: none; opacity: 0"/>
   </g>
   <g id="matplotlib.axis_1">
    <g id="xtick_1">
     <g id="line2d_1">
      <path d="M 163.037777 320.4 
L 163.037777 43.2 
" clip-path="url(#pa45787ea42)" style="fill: none; stroke-dasharray: 5.12,1.28,0.8,1.28; stroke-dashoffset: 0; stroke: #b0b0b0; stroke-width: 0.8"/>
     </g>
     <g id="line2d_2">
      <defs>
       <path id="m53d18a7495" d="M 0 0 
L 0 3.5 
" style="stroke: #a9a9a9; stroke-width: 0.8"/>
      </defs>
      <g>
       <use xlink:href="#m53d18a7495" x="163.037777" y="320.4" style="fill: #a9a9a9; stroke: #a9a9a9; stroke-width: 0.8"/>
      </g>
     </g>
     <g id="text_1">
      <!-- 2021-09 -->
      <g style="fill: #a9a9a9" transform="translate(142.14637 334.998438) scale(0.1 -0.1)">
       <defs>
        <path id="DejaVuSans-32" d="M 1228 531 
L 3431 531 
L 3431 0 
L 469 0 
L 469 531 
Q 828 903 1448 1529 
Q 2069 2156 2228 2338 
Q 2531 2678 2651 2914 
Q 2772 3150 2772 3378 
Q 2772 3750 2511 3984 
Q 2250 4219 1831 4219 
Q 1534 4219 1204 4116 
Q 875 4013 500 3803 
L 500 4441 
Q 881 4594 1212 4672 
Q 1544 4750 1819 4750 
Q 2544 4750 2975 4387 
Q 3406 4025 3406 3419 
Q 3406 3131 3298 2873 
Q 3191 2616 2906 2266 
Q 2828 2175 2409 1742 
Q 1991 1309 1228 531 
z
" transform="scale(0.015625)"/>
        <path id="DejaVuSans-30" d="M 2034 4250 
Q 1547 4250 1301 3770 
Q 1056 3291 1056 2328 
Q 1056 1369 1301 889 
Q 1547 409 2034 409 
Q 2525 409 2770 889 
Q 3016 1369 3016 2328 
Q 3016 3291 2770 3770 
Q 2525 4250 2034 4250 
z
M 2034 4750 
Q 2819 4750 3233 4129 
Q 3647 3509 3647 2328 
Q 3647 1150 3233 529 
Q 2819 -91 2034 -91 
Q 1250 -91 836 529 
Q 422 1150 422 2328 
Q 422 3509 836 4129 
Q 1250 4750 2034 4750 
z
" transform="scale(0.015625)"/>
        <path id="DejaVuSans-31" d="M 794 531 
L 1825 531 
L 1825 4091 
L 703 3866 
L 703 4441 
L 1819 4666 
L 2450 4666 
L 2450 531 
L 3481 531 
L 3481 0 
L 794 0 
L 794 531 
z
" transform="scale(0.015625)"/>
        <path id="DejaVuSans-2d" d="M 313 2009 
L 1997 2009 
L 1997 1497 
L 313 1497 
L 313 2009 
z
" transform="scale(0.015625)"/>
        <path id="DejaVuSans-39" d="M 703 97 
L 703 672 
Q 941 559 1184 500 
Q 1428 441 1663 441 
Q 2288 441 2617 861 
Q 2947 1281 2994 2138 
Q 2813 1869 2534 1725 
Q 2256 1581 1919 1581 
Q 1219 1581 811 2004 
Q 403 2428 403 3163 
Q 403 3881 828 4315 
Q 1253 4750 1959 4750 
Q 2769 4750 3195 4129 
Q 3622 3509 3622 2328 
Q 3622 1225 3098 567 
Q 2575 -91 1691 -91 
Q 1453 -91 1209 -44 
Q 966 3 703 97 
z
M 1959 2075 
Q 2384 2075 2632 2365 
Q 2881 2656 2881 3163 
Q 2881 3666 2632 3958 
Q 2384 4250 1959 4250 
Q 1534 4250 1286 3958 
Q 1038 3666 1038 3163 
Q 1038 2656 1286 2365 
Q 1534 2075 1959 2075 
z
" transform="scale(0.015625)"/>
       </defs>
       <use xlink:href="#DejaVuSans-32"/>
       <use xlink:href="#DejaVuSans-30" x="63.623047"/>
       <use xlink:href="#DejaVuSans-32" x="127.246094"/>
       <use xlink:href="#DejaVuSans-31" x="190.869141"/>
       <use xlink:href="#DejaVuSans-2d" x="254.492188"/>
       <use xlink:href="#DejaVuSans-30" x="290.576172"/>
       <use xlink:href="#DejaVuSans-39" x="354.199219"/>
      </g>
     </g>
    </g>
    <g id="xtick_2">
     <g id="line2d_3">
      <path d="M 239.996043 320.4 
L 239.996043 43.2 
" clip-path="url(#pa45787ea42)" style="fill: none; stroke-dasharray: 5.12,1.28,0.8,1.28; stroke-dashoffset: 0; stroke: #b0b0b0; stroke-width: 0.8"/>
     </g>
     <g id="line2d_4">
      <g>
       <use xlink:href="#m53d18a7495" x="239.996043" y="320.4" style="fill: #a9a9a9; stroke: #a9a9a9; stroke-width: 0.8"/>
      </g>
     </g>
     <g id="text_2">
      <!-- 2022-01 -->
      <g style="fill: #a9a9a9" transform="translate(219.104637 334.998438) scale(0.1 -0.1)">
       <use xlink:href="#DejaVuSans-32"/>
       <use xlink:href="#DejaVuSans-30" x="63.623047"/>
       <use xlink:href="#DejaVuSans-32" x="127.246094"/>
       <use xlink:href="#DejaVuSans-32" x="190.869141"/>
       <use xlink:href="#DejaVuSans-2d" x="254.492188"/>
       <use xlink:href="#DejaVuSans-30" x="290.576172"/>
       <use xlink:href="#DejaVuSans-31" x="354.199219"/>
      </g>
     </g>
    </g>
    <g id="xtick_3">
     <g id="line2d_5">
      <path d="M 315.692699 320.4 
L 315.692699 43.2 
" clip-path="url(#pa45787ea42)" style="fill: none; stroke-dasharray: 5.12,1.28,0.8,1.28; stroke-dashoffset: 0; stroke: #b0b0b0; stroke-width: 0.8"/>
     </g>
     <g id="line2d_6">
      <g>
       <use xlink:href="#m53d18a7495" x="315.692699" y="320.4" style="fill: #a9a9a9; stroke: #a9a9a9; stroke-width: 0.8"/>
      </g>
     </g>
     <g id="text_3">
      <!-- 2022-05 -->
      <g style="fill: #a9a9a9" transform="translate(294.801293 334.998438) scale(0.1 -0.1)">
       <defs>
        <path id="DejaVuSans-35" d="M 691 4666 
L 3169 4666 
L 3169 4134 
L 1269 4134 
L 1269 2991 
Q 1406 3038 1543 3061 
Q 1681 3084 1819 3084 
Q 2600 3084 3056 2656 
Q 3513 2228 3513 1497 
Q 3513 744 3044 326 
Q 2575 -91 1722 -91 
Q 1428 -91 1123 -41 
Q 819 9 494 109 
L 494 744 
Q 775 591 1075 516 
Q 1375 441 1709 441 
Q 2250 441 2565 725 
Q 2881 1009 2881 1497 
Q 2881 1984 2565 2268 
Q 2250 2553 1709 2553 
Q 1456 2553 1204 2497 
Q 953 2441 691 2322 
L 691 4666 
z
" transform="scale(0.015625)"/>
       </defs>
       <use xlink:href="#DejaVuSans-32"/>
       <use xlink:href="#DejaVuSans-30" x="63.623047"/>
       <use xlink:href="#DejaVuSans-32" x="127.246094"/>
       <use xlink:href="#DejaVuSans-32" x="190.869141"/>
       <use xlink:href="#DejaVuSans-2d" x="254.492188"/>
       <use xlink:href="#DejaVuSans-30" x="290.576172"/>
       <use xlink:href="#DejaVuSans-35" x="354.199219"/>
      </g>
     </g>
    </g>
    <g id="xtick_4">
     <g id="line2d_7">
      <path d="M 393.281771 320.4 
L 393.281771 43.2 
" clip-path="url(#pa45787ea42)" style="fill: none; stroke-dasharray: 5.12,1.28,0.8,1.28; stroke-dashoffset: 0; stroke: #b0b0b0; stroke-width: 0.8"/>
     </g>
     <g id="line2d_8">
      <g>
       <use xlink:href="#m53d18a7495" x="393.281771" y="320.4" style="fill: #a9a9a9; stroke: #a9a9a9; stroke-width: 0.8"/>
      </g>
     </g>
     <g id="text_4">
      <!-- 2022-09 -->
      <g style="fill: #a9a9a9" transform="translate(372.390365 334.998438) scale(0.1 -0.1)">
       <use xlink:href="#DejaVuSans-32"/>
       <use xlink:href="#DejaVuSans-30" x="63.623047"/>
       <use xlink:href="#DejaVuSans-32" x="127.246094"/>
       <use xlink:href="#DejaVuSans-32" x="190.869141"/>
       <use xlink:href="#DejaVuSans-2d" x="254.492188"/>
       <use xlink:href="#DejaVuSans-30" x="290.576172"/>
       <use xlink:href="#DejaVuSans-39" x="354.199219"/>
      </g>
     </g>
    </g>
    <g id="xtick_5">
     <g id="line2d_9">
      <path d="M 470.240038 320.4 
L 470.240038 43.2 
" clip-path="url(#pa45787ea42)" style="fill: none; stroke-dasharray: 5.12,1.28,0.8,1.28; stroke-dashoffset: 0; stroke: #b0b0b0; stroke-width: 0.8"/>
     </g>
     <g id="line2d_10">
      <g>
       <use xlink:href="#m53d18a7495" x="470.240038" y="320.4" style="fill: #a9a9a9; stroke: #a9a9a9; stroke-width: 0.8"/>
      </g>
     </g>
     <g id="text_5">
      <!-- 2023-01 -->
      <g style="fill: #a9a9a9" transform="translate(449.348631 334.998438) scale(0.1 -0.1)">
       <defs>
        <path id="DejaVuSans-33" d="M 2597 2516 
Q 3050 2419 3304 2112 
Q 3559 1806 3559 1356 
Q 3559 666 3084 287 
Q 2609 -91 1734 -91 
Q 1441 -91 1130 -33 
Q 819 25 488 141 
L 488 750 
Q 750 597 1062 519 
Q 1375 441 1716 441 
Q 2309 441 2620 675 
Q 2931 909 2931 1356 
Q 2931 1769 2642 2001 
Q 2353 2234 1838 2234 
L 1294 2234 
L 1294 2753 
L 1863 2753 
Q 2328 2753 2575 2939 
Q 2822 3125 2822 3475 
Q 2822 3834 2567 4026 
Q 2313 4219 1838 4219 
Q 1578 4219 1281 4162 
Q 984 4106 628 3988 
L 628 4550 
Q 988 4650 1302 4700 
Q 1616 4750 1894 4750 
Q 2613 4750 3031 4423 
Q 3450 4097 3450 3541 
Q 3450 3153 3228 2886 
Q 3006 2619 2597 2516 
z
" transform="scale(0.015625)"/>
       </defs>
       <use xlink:href="#DejaVuSans-32"/>
       <use xlink:href="#DejaVuSans-30" x="63.623047"/>
       <use xlink:href="#DejaVuSans-32" x="127.246094"/>
       <use xlink:href="#DejaVuSans-33" x="190.869141"/>
       <use xlink:href="#DejaVuSans-2d" x="254.492188"/>
       <use xlink:href="#DejaVuSans-30" x="290.576172"/>
       <use xlink:href="#DejaVuSans-31" x="354.199219"/>
      </g>
     </g>
    </g>
    <g id="xtick_6">
     <g id="line2d_11">
      <path d="M 545.936693 320.4 
L 545.936693 43.2 
" clip-path="url(#pa45787ea42)" style="fill: none; stroke-dasharray: 5.12,1.28,0.8,1.28; stroke-dashoffset: 0; stroke: #b0b0b0; stroke-width: 0.8"/>
     </g>
     <g id="line2d_12">
      <g>
       <use xlink:href="#m53d18a7495" x="545.936693" y="320.4" style="fill: #a9a9a9; stroke: #a9a9a9; stroke-width: 0.8"/>
      </g>
     </g>
     <g id="text_6">
      <!-- 2023-05 -->
      <g style="fill: #a9a9a9" transform="translate(525.045287 334.998438) scale(0.1 -0.1)">
       <use xlink:href="#DejaVuSans-32"/>
       <use xlink:href="#DejaVuSans-30" x="63.623047"/>
       <use xlink:href="#DejaVuSans-32" x="127.246094"/>
       <use xlink:href="#DejaVuSans-33" x="190.869141"/>
       <use xlink:href="#DejaVuSans-2d" x="254.492188"/>
       <use xlink:href="#DejaVuSans-30" x="290.576172"/>
       <use xlink:href="#DejaVuSans-35" x="354.199219"/>
      </g>
     </g>
    </g>
    <g id="xtick_7">
     <g id="line2d_13">
      <path d="M 623.525765 320.4 
L 623.525765 43.2 
" clip-path="url(#pa45787ea42)" style="fill: none; stroke-dasharray: 5.12,1.28,0.8,1.28; stroke-dashoffset: 0; stroke: #b0b0b0; stroke-width: 0.8"/>
     </g>
     <g id="line2d_14">
      <g>
       <use xlink:href="#m53d18a7495" x="623.525765" y="320.4" style="fill: #a9a9a9; stroke: #a9a9a9; stroke-width: 0.8"/>
      </g>
     </g>
     <g id="text_7">
      <!-- 2023-09 -->
      <g style="fill: #a9a9a9" transform="translate(602.634359 334.998438) scale(0.1 -0.1)">
       <use xlink:href="#DejaVuSans-32"/>
       <use xlink:href="#DejaVuSans-30" x="63.623047"/>
       <use xlink:href="#DejaVuSans-32" x="127.246094"/>
       <use xlink:href="#DejaVuSans-33" x="190.869141"/>
       <use xlink:href="#DejaVuSans-2d" x="254.492188"/>
       <use xlink:href="#DejaVuSans-30" x="290.576172"/>
       <use xlink:href="#DejaVuSans-39" x="354.199219"/>
      </g>
     </g>
    </g>
    <g id="xtick_8">
     <g id="line2d_15">
      <path d="M 700.484032 320.4 
L 700.484032 43.2 
" clip-path="url(#pa45787ea42)" style="fill: none; stroke-dasharray: 5.12,1.28,0.8,1.28; stroke-dashoffset: 0; stroke: #b0b0b0; stroke-width: 0.8"/>
     </g>
     <g id="line2d_16">
      <g>
       <use xlink:href="#m53d18a7495" x="700.484032" y="320.4" style="fill: #a9a9a9; stroke: #a9a9a9; stroke-width: 0.8"/>
      </g>
     </g>
     <g id="text_8">
      <!-- 2024-01 -->
      <g style="fill: #a9a9a9" transform="translate(679.592626 334.998438) scale(0.1 -0.1)">
       <defs>
        <path id="DejaVuSans-34" d="M 2419 4116 
L 825 1625 
L 2419 1625 
L 2419 4116 
z
M 2253 4666 
L 3047 4666 
L 3047 1625 
L 3713 1625 
L 3713 1100 
L 3047 1100 
L 3047 0 
L 2419 0 
L 2419 1100 
L 313 1100 
L 313 1709 
L 2253 4666 
z
" transform="scale(0.015625)"/>
       </defs>
       <use xlink:href="#DejaVuSans-32"/>
       <use xlink:href="#DejaVuSans-30" x="63.623047"/>
       <use xlink:href="#DejaVuSans-32" x="127.246094"/>
       <use xlink:href="#DejaVuSans-34" x="190.869141"/>
       <use xlink:href="#DejaVuSans-2d" x="254.492188"/>
       <use xlink:href="#DejaVuSans-30" x="290.576172"/>
       <use xlink:href="#DejaVuSans-31" x="354.199219"/>
      </g>
     </g>
    </g>
    <g id="xtick_9">
     <g id="line2d_17">
      <path d="M 776.811493 320.4 
L 776.811493 43.2 
" clip-path="url(#pa45787ea42)" style="fill: none; stroke-dasharray: 5.12,1.28,0.8,1.28; stroke-dashoffset: 0; stroke: #b0b0b0; stroke-width: 0.8"/>
     </g>
     <g id="line2d_18">
      <g>
       <use xlink:href="#m53d18a7495" x="776.811493" y="320.4" style="fill: #a9a9a9; stroke: #a9a9a9; stroke-width: 0.8"/>
      </g>
     </g>
     <g id="text_9">
      <!-- 2024-05 -->
      <g style="fill: #a9a9a9" transform="translate(755.920087 334.998438) scale(0.1 -0.1)">
       <use xlink:href="#DejaVuSans-32"/>
       <use xlink:href="#DejaVuSans-30" x="63.623047"/>
       <use xlink:href="#DejaVuSans-32" x="127.246094"/>
       <use xlink:href="#DejaVuSans-34" x="190.869141"/>
       <use xlink:href="#DejaVuSans-2d" x="254.492188"/>
       <use xlink:href="#DejaVuSans-30" x="290.576172"/>
       <use xlink:href="#DejaVuSans-35" x="354.199219"/>
      </g>
     </g>
    </g>
   </g>
   <g id="matplotlib.axis_2">
    <g id="ytick_1">
     <g id="line2d_19">
      <path d="M 108 307.843682 
L 777.6 307.843682 
" clip-path="url(#pa45787ea42)" style="fill: none; stroke-dasharray: 5.12,1.28,0.8,1.28; stroke-dashoffset: 0; stroke: #b0b0b0; stroke-width: 0.8"/>
     </g>
     <g id="line2d_20">
      <defs>
       <path id="mae8ec0ef9d" d="M 0 0 
L -3.5 0 
" style="stroke: #a9a9a9; stroke-width: 0.8"/>
      </defs>
      <g>
       <use xlink:href="#mae8ec0ef9d" x="108" y="307.843682" style="fill: #a9a9a9; stroke: #a9a9a9; stroke-width: 0.8"/>
      </g>
     </g>
     <g id="text_10">
      <!-- 0 -->
      <g style="fill: #a9a9a9" transform="translate(94.6375 311.6429) scale(0.1 -0.1)">
       <use xlink:href="#DejaVuSans-30"/>
      </g>
     </g>
    </g>
    <g id="ytick_2">
     <g id="line2d_21">
      <path d="M 108 272.898284 
L 777.6 272.898284 
" clip-path="url(#pa45787ea42)" style="fill: none; stroke-dasharray: 5.12,1.28,0.8,1.28; stroke-dashoffset: 0; stroke: #b0b0b0; stroke-width: 0.8"/>
     </g>
     <g id="line2d_22">
      <g>
       <use xlink:href="#mae8ec0ef9d" x="108" y="272.898284" style="fill: #a9a9a9; stroke: #a9a9a9; stroke-width: 0.8"/>
      </g>
     </g>
     <g id="text_11">
      <!-- 800 -->
      <g style="fill: #a9a9a9" transform="translate(81.9125 276.697503) scale(0.1 -0.1)">
       <defs>
        <path id="DejaVuSans-38" d="M 2034 2216 
Q 1584 2216 1326 1975 
Q 1069 1734 1069 1313 
Q 1069 891 1326 650 
Q 1584 409 2034 409 
Q 2484 409 2743 651 
Q 3003 894 3003 1313 
Q 3003 1734 2745 1975 
Q 2488 2216 2034 2216 
z
M 1403 2484 
Q 997 2584 770 2862 
Q 544 3141 544 3541 
Q 544 4100 942 4425 
Q 1341 4750 2034 4750 
Q 2731 4750 3128 4425 
Q 3525 4100 3525 3541 
Q 3525 3141 3298 2862 
Q 3072 2584 2669 2484 
Q 3125 2378 3379 2068 
Q 3634 1759 3634 1313 
Q 3634 634 3220 271 
Q 2806 -91 2034 -91 
Q 1263 -91 848 271 
Q 434 634 434 1313 
Q 434 1759 690 2068 
Q 947 2378 1403 2484 
z
M 1172 3481 
Q 1172 3119 1398 2916 
Q 1625 2713 2034 2713 
Q 2441 2713 2670 2916 
Q 2900 3119 2900 3481 
Q 2900 3844 2670 4047 
Q 2441 4250 2034 4250 
Q 1625 4250 1398 4047 
Q 1172 3844 1172 3481 
z
" transform="scale(0.015625)"/>
       </defs>
       <use xlink:href="#DejaVuSans-38"/>
       <use xlink:href="#DejaVuSans-30" x="63.623047"/>
       <use xlink:href="#DejaVuSans-30" x="127.246094"/>
      </g>
     </g>
    </g>
    <g id="ytick_3">
     <g id="line2d_23">
      <path d="M 108 237.952886 
L 777.6 237.952886 
" clip-path="url(#pa45787ea42)" style="fill: none; stroke-dasharray: 5.12,1.28,0.8,1.28; stroke-dashoffset: 0; stroke: #b0b0b0; stroke-width: 0.8"/>
     </g>
     <g id="line2d_24">
      <g>
       <use xlink:href="#mae8ec0ef9d" x="108" y="237.952886" style="fill: #a9a9a9; stroke: #a9a9a9; stroke-width: 0.8"/>
      </g>
     </g>
     <g id="text_12">
      <!-- 1600 -->
      <g style="fill: #a9a9a9" transform="translate(75.55 241.752105) scale(0.1 -0.1)">
       <defs>
        <path id="DejaVuSans-36" d="M 2113 2584 
Q 1688 2584 1439 2293 
Q 1191 2003 1191 1497 
Q 1191 994 1439 701 
Q 1688 409 2113 409 
Q 2538 409 2786 701 
Q 3034 994 3034 1497 
Q 3034 2003 2786 2293 
Q 2538 2584 2113 2584 
z
M 3366 4563 
L 3366 3988 
Q 3128 4100 2886 4159 
Q 2644 4219 2406 4219 
Q 1781 4219 1451 3797 
Q 1122 3375 1075 2522 
Q 1259 2794 1537 2939 
Q 1816 3084 2150 3084 
Q 2853 3084 3261 2657 
Q 3669 2231 3669 1497 
Q 3669 778 3244 343 
Q 2819 -91 2113 -91 
Q 1303 -91 875 529 
Q 447 1150 447 2328 
Q 447 3434 972 4092 
Q 1497 4750 2381 4750 
Q 2619 4750 2861 4703 
Q 3103 4656 3366 4563 
z
" transform="scale(0.015625)"/>
       </defs>
       <use xlink:href="#DejaVuSans-31"/>
       <use xlink:href="#DejaVuSans-36" x="63.623047"/>
       <use xlink:href="#DejaVuSans-30" x="127.246094"/>
       <use xlink:href="#DejaVuSans-30" x="190.869141"/>
      </g>
     </g>
    </g>
    <g id="ytick_4">
     <g id="line2d_25">
      <path d="M 108 203.007488 
L 777.6 203.007488 
" clip-path="url(#pa45787ea42)" style="fill: none; stroke-dasharray: 5.12,1.28,0.8,1.28; stroke-dashoffset: 0; stroke: #b0b0b0; stroke-width: 0.8"/>
     </g>
     <g id="line2d_26">
      <g>
       <use xlink:href="#mae8ec0ef9d" x="108" y="203.007488" style="fill: #a9a9a9; stroke: #a9a9a9; stroke-width: 0.8"/>
      </g>
     </g>
     <g id="text_13">
      <!-- 2400 -->
      <g style="fill: #a9a9a9" transform="translate(75.55 206.806707) scale(0.1 -0.1)">
       <use xlink:href="#DejaVuSans-32"/>
       <use xlink:href="#DejaVuSans-34" x="63.623047"/>
       <use xlink:href="#DejaVuSans-30" x="127.246094"/>
       <use xlink:href="#DejaVuSans-30" x="190.869141"/>
      </g>
     </g>
    </g>
    <g id="ytick_5">
     <g id="line2d_27">
      <path d="M 108 168.06209 
L 777.6 168.06209 
" clip-path="url(#pa45787ea42)" style="fill: none; stroke-dasharray: 5.12,1.28,0.8,1.28; stroke-dashoffset: 0; stroke: #b0b0b0; stroke-width: 0.8"/>
     </g>
     <g id="line2d_28">
      <g>
       <use xlink:href="#mae8ec0ef9d" x="108" y="168.06209" style="fill: #a9a9a9; stroke: #a9a9a9; stroke-width: 0.8"/>
      </g>
     </g>
     <g id="text_14">
      <!-- 3200 -->
      <g style="fill: #a9a9a9" transform="translate(75.55 171.861309) scale(0.1 -0.1)">
       <use xlink:href="#DejaVuSans-33"/>
       <use xlink:href="#DejaVuSans-32" x="63.623047"/>
       <use xlink:href="#DejaVuSans-30" x="127.246094"/>
       <use xlink:href="#DejaVuSans-30" x="190.869141"/>
      </g>
     </g>
    </g>
    <g id="ytick_6">
     <g id="line2d_29">
      <path d="M 108 133.116693 
L 777.6 133.116693 
" clip-path="url(#pa45787ea42)" style="fill: none; stroke-dasharray: 5.12,1.28,0.8,1.28; stroke-dashoffset: 0; stroke: #b0b0b0; stroke-width: 0.8"/>
     </g>
     <g id="line2d_30">
      <g>
       <use xlink:href="#mae8ec0ef9d" x="108" y="133.116693" style="fill: #a9a9a9; stroke: #a9a9a9; stroke-width: 0.8"/>
      </g>
     </g>
     <g id="text_15">
      <!-- 4000 -->
      <g style="fill: #a9a9a9" transform="translate(75.55 136.915911) scale(0.1 -0.1)">
       <use xlink:href="#DejaVuSans-34"/>
       <use xlink:href="#DejaVuSans-30" x="63.623047"/>
       <use xlink:href="#DejaVuSans-30" x="127.246094"/>
       <use xlink:href="#DejaVuSans-30" x="190.869141"/>
      </g>
     </g>
    </g>
    <g id="ytick_7">
     <g id="line2d_31">
      <path d="M 108 98.171295 
L 777.6 98.171295 
" clip-path="url(#pa45787ea42)" style="fill: none; stroke-dasharray: 5.12,1.28,0.8,1.28; stroke-dashoffset: 0; stroke: #b0b0b0; stroke-width: 0.8"/>
     </g>
     <g id="line2d_32">
      <g>
       <use xlink:href="#mae8ec0ef9d" x="108" y="98.171295" style="fill: #a9a9a9; stroke: #a9a9a9; stroke-width: 0.8"/>
      </g>
     </g>
     <g id="text_16">
      <!-- 4800 -->
      <g style="fill: #a9a9a9" transform="translate(75.55 101.970514) scale(0.1 -0.1)">
       <use xlink:href="#DejaVuSans-34"/>
       <use xlink:href="#DejaVuSans-38" x="63.623047"/>
       <use xlink:href="#DejaVuSans-30" x="127.246094"/>
       <use xlink:href="#DejaVuSans-30" x="190.869141"/>
      </g>
     </g>
    </g>
    <g id="ytick_8">
     <g id="line2d_33">
      <path d="M 108 63.225897 
L 777.6 63.225897 
" clip-path="url(#pa45787ea42)" style="fill: none; stroke-dasharray: 5.12,1.28,0.8,1.28; stroke-dashoffset: 0; stroke: #b0b0b0; stroke-width: 0.8"/>
     </g>
     <g id="line2d_34">
      <g>
       <use xlink:href="#mae8ec0ef9d" x="108" y="63.225897" style="fill: #a9a9a9; stroke: #a9a9a9; stroke-width: 0.8"/>
      </g>
     </g>
     <g id="text_17">
      <!-- 5600 -->
      <g style="fill: #a9a9a9" transform="translate(75.55 67.025116) scale(0.1 -0.1)">
       <use xlink:href="#DejaVuSans-35"/>
       <use xlink:href="#DejaVuSans-36" x="63.623047"/>
       <use xlink:href="#DejaVuSans-30" x="127.246094"/>
       <use xlink:href="#DejaVuSans-30" x="190.869141"/>
      </g>
     </g>
    </g>
   </g>
   <g id="line2d_35">
    <path d="M 138.436364 307.712637 
L 142.221196 307.406864 
L 142.852002 307.144774 
L 144.744418 306.926365 
L 148.529251 306.183775 
L 152.314084 305.878003 
L 152.944889 305.572231 
L 153.575695 305.397504 
L 154.2065 304.611232 
L 154.837306 304.174415 
L 155.468111 302.820281 
L 156.098917 302.732917 
L 156.729722 302.252418 
L 157.991333 301.640874 
L 160.514555 299.718877 
L 161.776166 299.194696 
L 162.406971 298.757878 
L 164.930193 297.665835 
L 165.560999 296.704836 
L 166.82261 295.78752 
L 167.453415 295.481747 
L 173.76147 294.608112 
L 174.392275 294.30234 
L 178.807913 293.952886 
L 180.70033 293.472387 
L 186.377579 292.729797 
L 187.008384 292.380343 
L 187.63919 292.29298 
L 188.269995 292.030889 
L 189.531606 291.81248 
L 190.162412 291.768799 
L 190.793217 291.55039 
L 193.316439 291.157254 
L 194.57805 290.8078 
L 196.470466 290.633073 
L 197.732077 290.502028 
L 198.362883 290.327301 
L 198.993688 290.283619 
L 200.886105 289.715757 
L 204.670937 289.147894 
L 205.301743 288.973167 
L 205.932548 288.099532 
L 207.824965 287.400624 
L 209.717381 286.876443 
L 210.348187 286.570671 
L 210.978992 286.526989 
L 214.133019 285.653354 
L 215.39463 285.565991 
L 216.025436 285.478627 
L 217.917852 284.910764 
L 220.441074 284.29922 
L 221.071879 284.037129 
L 221.702685 283.949766 
L 222.33349 283.643994 
L 228.641545 282.682995 
L 231.795572 281.80936 
L 232.426378 281.416225 
L 234.9496 280.760998 
L 236.211211 280.018409 
L 236.842016 279.581591 
L 238.734432 279.232137 
L 242.519265 278.096412 
L 243.780876 277.703276 
L 244.411682 277.615913 
L 245.673293 277.266459 
L 246.934903 276.960686 
L 247.565709 276.873323 
L 248.82732 276.349142 
L 249.458125 276.218097 
L 250.088931 275.956006 
L 250.719736 275.868643 
L 251.350542 275.562871 
L 251.981347 275.388144 
L 253.242958 275.30078 
L 254.504569 274.863963 
L 255.76618 274.776599 
L 256.396985 274.470827 
L 258.920207 274.034009 
L 261.443429 273.815601 
L 262.074235 273.684555 
L 263.335846 273.073011 
L 270.274706 270.146334 
L 270.905511 269.79688 
L 271.536317 269.097972 
L 272.167122 268.04961 
L 272.797927 267.219657 
L 273.428733 267.04493 
L 274.059538 267.04493 
L 275.321149 266.127613 
L 275.951955 265.952886 
L 276.58276 265.603432 
L 277.213566 265.472387 
L 277.844371 264.904524 
L 278.475177 264.729797 
L 280.367593 263.81248 
L 281.629204 262.065211 
L 282.260009 261.672075 
L 282.890815 260.623713 
L 283.52162 259.968487 
L 284.152426 259.662715 
L 284.783231 259.487988 
L 287.306453 258.002808 
L 288.568064 256.998128 
L 289.19887 256.604992 
L 289.829675 255.687676 
L 290.46048 254.246178 
L 291.091286 253.328861 
L 291.722091 252.848362 
L 292.352897 252.586271 
L 294.876119 250.402184 
L 296.13773 249.397504 
L 296.768535 248.873323 
L 297.399341 248.04337 
L 298.660951 246.951326 
L 301.184173 245.335101 
L 301.814979 244.767239 
L 302.445784 244.636193 
L 303.07659 244.374103 
L 304.338201 243.675195 
L 306.230617 242.714197 
L 307.492228 241.534789 
L 308.123033 240.7922 
L 309.384644 239.918565 
L 310.01545 239.743838 
L 310.646255 239.438066 
L 311.907866 238.608112 
L 312.538672 238.258658 
L 313.169477 238.171295 
L 314.431088 237.472387 
L 315.061894 237.122933 
L 315.692699 236.467707 
L 316.323504 236.074571 
L 316.95431 235.856162 
L 318.215921 235.113573 
L 318.846726 234.764119 
L 319.477532 234.54571 
L 321.369948 233.322621 
L 323.262365 232.754758 
L 323.89317 232.317941 
L 324.523976 232.186895 
L 325.785586 231.750078 
L 327.678003 231.007488 
L 329.570419 230.30858 
L 330.83203 230.090172 
L 332.093641 228.998128 
L 333.355252 228.386583 
L 334.616863 227.687676 
L 335.247668 227.338222 
L 336.509279 226.988768 
L 337.140085 226.595632 
L 337.77089 226.420905 
L 339.663307 225.241498 
L 342.817334 224.498908 
L 344.70975 223.406864 
L 345.340556 223.319501 
L 345.971361 223.101092 
L 347.232972 222.839002 
L 349.125389 221.441186 
L 351.017805 221.004368 
L 351.64861 220.785959 
L 352.279416 220.30546 
L 356.064249 219.082371 
L 356.695054 219.03869 
L 357.32586 218.863963 
L 358.587471 218.339782 
L 363.003109 216.81092 
L 364.26472 216.636193 
L 364.895525 216.461466 
L 365.526331 216.155694 
L 366.157136 216.024649 
L 368.049553 215.151014 
L 369.941969 214.233697 
L 370.572774 213.79688 
L 371.20358 213.622153 
L 373.095996 212.617473 
L 374.357607 212.3117 
L 375.619218 211.656474 
L 376.880829 211.30702 
L 377.511634 211.219657 
L 378.773245 210.477067 
L 379.404051 210.346022 
L 380.665662 209.821841 
L 381.296467 209.690796 
L 381.927273 209.341342 
L 384.450495 208.948206 
L 385.712106 208.336661 
L 386.342911 207.81248 
L 386.973716 206.720437 
L 388.235327 206.458346 
L 388.866133 206.327301 
L 391.389355 205.016849 
L 392.02016 204.885803 
L 397.066604 202.483307 
L 398.95902 202.090172 
L 399.589826 201.740718 
L 403.374659 200.430265 
L 404.636269 199.643994 
L 405.89788 198.901404 
L 406.528686 198.814041 
L 407.159491 198.595632 
L 407.790297 198.55195 
L 410.944324 197.721997 
L 411.57513 197.241498 
L 412.83674 196.80468 
L 414.729157 196.193136 
L 415.359962 195.8 
L 415.990768 195.625273 
L 416.621573 195.188456 
L 417.252379 194.926365 
L 417.883184 194.533229 
L 419.144795 194.096412 
L 421.037211 193.484867 
L 421.668017 193.179095 
L 423.560433 191.737598 
L 424.191239 191.606552 
L 425.45285 190.645554 
L 426.083655 190.514509 
L 426.714461 189.55351 
L 427.345266 189.29142 
L 427.976072 188.81092 
L 428.606877 188.723557 
L 429.868488 187.980967 
L 430.499293 187.849922 
L 431.130099 187.587832 
L 431.760904 187.107332 
L 432.39171 186.888924 
L 434.284126 185.622153 
L 436.807348 184.355382 
L 437.438154 184.268019 
L 438.699764 183.700156 
L 439.33057 183.350702 
L 439.961375 182.30234 
L 440.592181 181.734477 
L 441.222986 181.385023 
L 441.853792 181.253978 
L 443.115403 180.467707 
L 443.746208 180.336661 
L 445.007819 179.725117 
L 446.900236 178.938846 
L 448.161846 178.065211 
L 449.423457 176.754758 
L 452.577485 174.483307 
L 453.839096 173.434945 
L 454.469901 173.172855 
L 455.100707 172.473947 
L 455.731512 171.993448 
L 456.993123 171.55663 
L 457.623928 171.032449 
L 458.885539 170.377223 
L 459.516345 170.202496 
L 460.14715 169.765679 
L 460.777956 169.634633 
L 462.670372 168.629953 
L 463.931983 167.887363 
L 470.240038 165.659594 
L 470.870843 165.091732 
L 472.76326 164.392824 
L 474.02487 163.999688 
L 474.655676 163.519189 
L 477.178898 162.208736 
L 477.809703 161.859282 
L 479.071314 159.369423 
L 480.332925 157.884243 
L 481.594536 157.141654 
L 483.486952 156.399064 
L 484.117758 156.3117 
L 484.748563 155.962246 
L 486.64098 155.394384 
L 489.164202 154.258658 
L 489.795007 153.865523 
L 491.056618 153.428705 
L 494.841451 151.244618 
L 495.472256 150.589392 
L 496.103062 150.196256 
L 497.995478 149.366303 
L 498.626284 148.929485 
L 499.887894 148.317941 
L 501.780311 147.313261 
L 502.411116 147.138534 
L 503.041922 146.658034 
L 503.672727 146.395944 
L 504.303533 146.264899 
L 505.565144 145.828081 
L 507.45756 145.129173 
L 508.088366 144.692356 
L 509.349976 144.342902 
L 510.611587 143.862402 
L 511.242393 143.381903 
L 512.504004 142.988768 
L 513.134809 142.682995 
L 513.765615 142.508268 
L 515.027226 141.634633 
L 516.288837 141.066771 
L 517.550447 140.105772 
L 518.812058 139.668955 
L 519.442864 139.144774 
L 520.073669 139.05741 
L 521.33528 138.140094 
L 522.596891 137.528549 
L 523.227697 137.266459 
L 523.858502 136.654914 
L 527.643335 135.30078 
L 529.535751 134.470827 
L 531.428168 133.902964 
L 532.689779 133.728237 
L 533.320584 133.466147 
L 533.95139 133.378783 
L 535.213 132.854602 
L 535.843806 132.81092 
L 538.367028 131.893604 
L 540.259444 130.583151 
L 540.89025 130.321061 
L 541.521055 129.927925 
L 543.413472 129.097972 
L 545.305888 127.962246 
L 545.936693 127.569111 
L 547.198304 127.263339 
L 548.459915 126.389704 
L 550.983137 125.603432 
L 551.613943 125.341342 
L 552.875553 125.035569 
L 556.029581 124.030889 
L 557.921997 123.681435 
L 560.445219 122.895164 
L 561.076024 122.633073 
L 561.70683 122.54571 
L 562.337635 122.239938 
L 563.599246 121.977847 
L 564.860857 121.54103 
L 565.491663 121.322621 
L 566.753274 121.191576 
L 568.014885 120.885803 
L 569.907301 120.580031 
L 570.538106 120.361622 
L 571.799717 120.230577 
L 577.476967 118.570671 
L 578.107772 118.352262 
L 578.738577 118.30858 
L 582.52341 117.172855 
L 583.785021 116.736037 
L 584.415827 116.648674 
L 586.308243 115.993448 
L 586.939049 115.993448 
L 588.200659 115.55663 
L 588.831465 114.945086 
L 589.46227 114.639314 
L 590.723881 114.246178 
L 593.247103 113.285179 
L 593.877909 113.154134 
L 594.508714 112.760998 
L 595.13952 112.629953 
L 595.770325 112.280499 
L 598.924352 111.363183 
L 599.555158 110.970047 
L 600.185963 110.79532 
L 600.816769 110.271139 
L 602.709185 109.921685 
L 603.970796 109.222777 
L 604.601602 108.523869 
L 605.863212 108.261778 
L 610.278851 107.257098 
L 610.909656 107.082371 
L 612.171267 107.03869 
L 612.802073 106.732917 
L 615.325294 106.2961 
L 615.9561 105.990328 
L 617.848516 105.728237 
L 620.371738 104.941966 
L 622.264154 104.505148 
L 624.156571 104.024649 
L 626.679793 103.238378 
L 627.310598 103.107332 
L 627.941404 102.80156 
L 628.572209 102.714197 
L 629.203015 102.495788 
L 629.83382 102.146334 
L 631.726236 101.491108 
L 632.357042 101.010608 
L 633.618653 100.661154 
L 634.249458 100.399064 
L 635.511069 100.04961 
L 638.034291 98.913885 
L 639.926707 98.782839 
L 642.449929 97.996568 
L 643.080735 97.603432 
L 644.342346 97.210296 
L 646.234762 96.249298 
L 646.865568 96.118253 
L 647.496373 95.81248 
L 648.127179 95.725117 
L 655.066039 93.409984 
L 657.58926 92.79844 
L 658.220066 92.623713 
L 659.481677 92.05585 
L 660.112482 91.968487 
L 661.374093 91.619033 
L 662.004899 91.138534 
L 662.635704 90.832761 
L 663.26651 90.090172 
L 663.897315 89.653354 
L 665.158926 89.260218 
L 665.789732 88.736037 
L 672.728592 85.896724 
L 673.990203 85.590952 
L 675.251813 85.023089 
L 677.14423 83.931045 
L 677.775035 83.8 
L 678.405841 83.319501 
L 679.667452 82.707956 
L 680.929063 81.921685 
L 682.821479 81.04805 
L 683.452285 80.611232 
L 684.713895 80.130733 
L 685.975506 79.388144 
L 686.606312 79.082371 
L 687.237117 78.645554 
L 688.498728 78.208736 
L 689.129534 78.077691 
L 691.652756 76.941966 
L 694.806783 75.849922 
L 695.437588 75.80624 
L 696.068394 75.631513 
L 696.699199 75.238378 
L 697.330005 75.151014 
L 697.96081 74.932605 
L 699.853227 74.583151 
L 703.007254 72.966927 
L 704.268865 72.268019 
L 704.89967 72.180655 
L 706.792087 71.175975 
L 708.684503 70.477067 
L 710.576919 69.647114 
L 713.100141 68.642434 
L 713.730947 68.467707 
L 714.361752 68.074571 
L 715.623363 67.899844 
L 716.254169 67.506708 
L 716.884974 67.463027 
L 718.146585 67.069891 
L 719.408196 66.458346 
L 720.039001 66.370983 
L 720.669807 66.108892 
L 721.300612 65.977847 
L 723.193029 65.147894 
L 723.823834 65.016849 
L 724.45464 64.754758 
L 727.608667 64.012168 
L 729.501083 63.269579 
L 731.3935 62.133853 
L 732.655111 61.609672 
L 733.285916 61.347582 
L 733.916722 60.954446 
L 735.178333 60.692356 
L 735.809138 60.342902 
L 736.439943 60.211856 
L 737.701554 59.512949 
L 741.486387 57.765679 
L 745.27122 56.455226 
L 746.532831 55.8 
L 747.163636 55.8 
L 747.163636 55.8 
" clip-path="url(#pa45787ea42)" style="fill: none; stroke: #1f77b4; stroke-width: 1.5; stroke-linecap: square"/>
   </g>
   <g id="line2d_36">
    <path d="M 139.067169 307.8 
L 140.959585 307.712637 
L 142.852002 307.668955 
L 146.636835 307.581591 
L 149.790862 307.450546 
L 152.314084 307.450546 
L 152.944889 307.275819 
L 155.468111 307.188456 
L 157.360528 306.970047 
L 159.252944 306.79532 
L 163.037777 306.620593 
L 163.668582 306.620593 
L 164.299388 306.489548 
L 166.82261 306.402184 
L 168.08422 306.314821 
L 173.130664 306.227457 
L 176.284691 306.096412 
L 183.854357 306.009048 
L 187.008384 305.878003 
L 190.793217 305.79064 
L 193.316439 305.703276 
L 198.993688 305.615913 
L 200.886105 305.572231 
L 202.778521 305.528549 
L 204.670937 305.31014 
L 208.45577 305.266459 
L 209.717381 305.179095 
L 214.133019 305.091732 
L 221.071879 304.698596 
L 225.487518 304.611232 
L 226.749129 304.523869 
L 228.641545 304.436505 
L 232.426378 304.261778 
L 234.9496 304.218097 
L 236.842016 304.04337 
L 246.934903 303.431825 
L 249.458125 303.344462 
L 253.873764 303.126053 
L 255.76618 303.03869 
L 262.074235 302.689236 
L 269.013095 302.601872 
L 271.536317 302.339782 
L 272.797927 302.252418 
L 280.998398 301.597192 
L 284.783231 301.116693 
L 287.306453 301.029329 
L 292.352897 300.374103 
L 295.506924 300.286739 
L 303.707395 299.631513 
L 306.861423 299.282059 
L 309.384644 299.194696 
L 310.646255 299.107332 
L 313.169477 299.019969 
L 314.431088 298.932605 
L 317.585115 298.626833 
L 318.215921 298.452106 
L 322.000754 298.277379 
L 325.154781 298.190016 
L 333.355252 297.709516 
L 335.247668 297.622153 
L 343.448139 297.141654 
L 347.863778 297.05429 
L 348.494583 296.923245 
L 353.541027 296.835881 
L 357.956665 296.617473 
L 364.895525 296.530109 
L 369.311163 296.3117 
L 374.357607 296.224337 
L 379.404051 295.962246 
L 383.819689 295.874883 
L 395.804993 295.132293 
L 400.851437 295.04493 
L 417.252379 293.996568 
L 421.037211 293.909204 
L 422.929628 293.865523 
L 424.822044 293.821841 
L 426.714461 293.647114 
L 431.760904 293.55975 
L 433.022515 293.341342 
L 434.284126 293.253978 
L 437.438154 293.122933 
L 438.699764 293.035569 
L 439.961375 292.948206 
L 445.638625 292.860842 
L 446.900236 292.729797 
L 449.423457 292.686115 
L 450.054263 292.55507 
L 451.315874 292.467707 
L 451.946679 292.336661 
L 453.839096 292.249298 
L 464.562789 291.594072 
L 466.455205 291.506708 
L 469.609232 291.375663 
L 478.440509 291.2883 
L 482.856147 291.069891 
L 487.902591 290.982527 
L 490.425813 290.895164 
L 492.949034 290.851482 
L 494.210645 290.720437 
L 496.733867 290.633073 
L 503.041922 290.283619 
L 506.826755 290.239938 
L 508.719171 290.065211 
L 510.611587 290.021529 
L 515.027226 289.934165 
L 517.550447 289.846802 
L 525.120113 289.759438 
L 528.27414 289.628393 
L 532.058973 289.54103 
L 533.95139 289.322621 
L 537.736222 289.278939 
L 539.628639 289.104212 
L 542.151861 289.016849 
L 549.721526 288.929485 
L 552.875553 288.79844 
L 563.599246 288.754758 
L 564.860857 288.667395 
L 566.753274 288.623713 
L 574.953745 288.536349 
L 576.215356 288.448986 
L 583.154216 288.361622 
L 585.677438 288.274259 
L 593.247103 288.230577 
L 594.508714 288.143214 
L 603.970796 288.099532 
L 605.863212 287.924805 
L 616.586905 287.837441 
L 618.479322 287.79376 
L 634.880264 287.706396 
L 636.77268 287.662715 
L 648.757984 287.575351 
L 651.281206 287.487988 
L 655.696844 287.400624 
L 660.743288 287.138534 
L 663.26651 287.05117 
L 665.789732 286.963807 
L 669.574564 286.876443 
L 671.466981 286.832761 
L 673.990203 286.745398 
L 675.882619 286.701716 
L 679.036646 286.614353 
L 680.298257 286.526989 
L 684.08309 286.439626 
L 687.237117 286.30858 
L 688.498728 286.264899 
L 690.391145 286.090172 
L 694.175977 286.002808 
L 696.699199 285.915445 
L 703.007254 285.828081 
L 706.161281 285.697036 
L 712.469336 285.609672 
L 716.884974 285.391264 
L 722.562223 285.3039 
L 723.823834 285.216537 
L 731.3935 285.129173 
L 733.285916 285.085491 
L 740.224776 284.998128 
L 742.747998 284.736037 
L 744.640415 284.692356 
L 747.163636 284.648674 
L 747.163636 284.648674 
" clip-path="url(#pa45787ea42)" style="fill: none; stroke: #ff7f0e; stroke-width: 1.5; stroke-linecap: square"/>
   </g>
   <g id="patch_3">
    <path d="M 108 320.4 
L 108 43.2 
" style="fill: none; stroke: #a9a9a9; stroke-width: 0.8; stroke-linejoin: miter; stroke-linecap: square"/>
   </g>
   <g id="patch_4">
    <path d="M 777.6 320.4 
L 777.6 43.2 
" style="fill: none"/>
   </g>
   <g id="patch_5">
    <path d="M 108 320.4 
L 777.6 320.4 
" style="fill: none; stroke: #a9a9a9; stroke-width: 0.8; stroke-linejoin: miter; stroke-linecap: square"/>
   </g>
   <g id="patch_6">
    <path d="M 108 43.2 
L 777.6 43.2 
" style="fill: none"/>
   </g>
   <g id="text_18">
    <!-- get_subscribe history -->
    <g style="fill: #a9a9a9" transform="translate(378.6075 37.2) scale(0.12 -0.12)">
     <defs>
      <path id="DejaVuSans-67" d="M 2906 1791 
Q 2906 2416 2648 2759 
Q 2391 3103 1925 3103 
Q 1463 3103 1205 2759 
Q 947 2416 947 1791 
Q 947 1169 1205 825 
Q 1463 481 1925 481 
Q 2391 481 2648 825 
Q 2906 1169 2906 1791 
z
M 3481 434 
Q 3481 -459 3084 -895 
Q 2688 -1331 1869 -1331 
Q 1566 -1331 1297 -1286 
Q 1028 -1241 775 -1147 
L 775 -588 
Q 1028 -725 1275 -790 
Q 1522 -856 1778 -856 
Q 2344 -856 2625 -561 
Q 2906 -266 2906 331 
L 2906 616 
Q 2728 306 2450 153 
Q 2172 0 1784 0 
Q 1141 0 747 490 
Q 353 981 353 1791 
Q 353 2603 747 3093 
Q 1141 3584 1784 3584 
Q 2172 3584 2450 3431 
Q 2728 3278 2906 2969 
L 2906 3500 
L 3481 3500 
L 3481 434 
z
" transform="scale(0.015625)"/>
      <path id="DejaVuSans-65" d="M 3597 1894 
L 3597 1613 
L 953 1613 
Q 991 1019 1311 708 
Q 1631 397 2203 397 
Q 2534 397 2845 478 
Q 3156 559 3463 722 
L 3463 178 
Q 3153 47 2828 -22 
Q 2503 -91 2169 -91 
Q 1331 -91 842 396 
Q 353 884 353 1716 
Q 353 2575 817 3079 
Q 1281 3584 2069 3584 
Q 2775 3584 3186 3129 
Q 3597 2675 3597 1894 
z
M 3022 2063 
Q 3016 2534 2758 2815 
Q 2500 3097 2075 3097 
Q 1594 3097 1305 2825 
Q 1016 2553 972 2059 
L 3022 2063 
z
" transform="scale(0.015625)"/>
      <path id="DejaVuSans-74" d="M 1172 4494 
L 1172 3500 
L 2356 3500 
L 2356 3053 
L 1172 3053 
L 1172 1153 
Q 1172 725 1289 603 
Q 1406 481 1766 481 
L 2356 481 
L 2356 0 
L 1766 0 
Q 1100 0 847 248 
Q 594 497 594 1153 
L 594 3053 
L 172 3053 
L 172 3500 
L 594 3500 
L 594 4494 
L 1172 4494 
z
" transform="scale(0.015625)"/>
      <path id="DejaVuSans-5f" d="M 3263 -1063 
L 3263 -1509 
L -63 -1509 
L -63 -1063 
L 3263 -1063 
z
" transform="scale(0.015625)"/>
      <path id="DejaVuSans-73" d="M 2834 3397 
L 2834 2853 
Q 2591 2978 2328 3040 
Q 2066 3103 1784 3103 
Q 1356 3103 1142 2972 
Q 928 2841 928 2578 
Q 928 2378 1081 2264 
Q 1234 2150 1697 2047 
L 1894 2003 
Q 2506 1872 2764 1633 
Q 3022 1394 3022 966 
Q 3022 478 2636 193 
Q 2250 -91 1575 -91 
Q 1294 -91 989 -36 
Q 684 19 347 128 
L 347 722 
Q 666 556 975 473 
Q 1284 391 1588 391 
Q 1994 391 2212 530 
Q 2431 669 2431 922 
Q 2431 1156 2273 1281 
Q 2116 1406 1581 1522 
L 1381 1569 
Q 847 1681 609 1914 
Q 372 2147 372 2553 
Q 372 3047 722 3315 
Q 1072 3584 1716 3584 
Q 2034 3584 2315 3537 
Q 2597 3491 2834 3397 
z
" transform="scale(0.015625)"/>
      <path id="DejaVuSans-75" d="M 544 1381 
L 544 3500 
L 1119 3500 
L 1119 1403 
Q 1119 906 1312 657 
Q 1506 409 1894 409 
Q 2359 409 2629 706 
Q 2900 1003 2900 1516 
L 2900 3500 
L 3475 3500 
L 3475 0 
L 2900 0 
L 2900 538 
Q 2691 219 2414 64 
Q 2138 -91 1772 -91 
Q 1169 -91 856 284 
Q 544 659 544 1381 
z
M 1991 3584 
L 1991 3584 
z
" transform="scale(0.015625)"/>
      <path id="DejaVuSans-62" d="M 3116 1747 
Q 3116 2381 2855 2742 
Q 2594 3103 2138 3103 
Q 1681 3103 1420 2742 
Q 1159 2381 1159 1747 
Q 1159 1113 1420 752 
Q 1681 391 2138 391 
Q 2594 391 2855 752 
Q 3116 1113 3116 1747 
z
M 1159 2969 
Q 1341 3281 1617 3432 
Q 1894 3584 2278 3584 
Q 2916 3584 3314 3078 
Q 3713 2572 3713 1747 
Q 3713 922 3314 415 
Q 2916 -91 2278 -91 
Q 1894 -91 1617 61 
Q 1341 213 1159 525 
L 1159 0 
L 581 0 
L 581 4863 
L 1159 4863 
L 1159 2969 
z
" transform="scale(0.015625)"/>
      <path id="DejaVuSans-63" d="M 3122 3366 
L 3122 2828 
Q 2878 2963 2633 3030 
Q 2388 3097 2138 3097 
Q 1578 3097 1268 2742 
Q 959 2388 959 1747 
Q 959 1106 1268 751 
Q 1578 397 2138 397 
Q 2388 397 2633 464 
Q 2878 531 3122 666 
L 3122 134 
Q 2881 22 2623 -34 
Q 2366 -91 2075 -91 
Q 1284 -91 818 406 
Q 353 903 353 1747 
Q 353 2603 823 3093 
Q 1294 3584 2113 3584 
Q 2378 3584 2631 3529 
Q 2884 3475 3122 3366 
z
" transform="scale(0.015625)"/>
      <path id="DejaVuSans-72" d="M 2631 2963 
Q 2534 3019 2420 3045 
Q 2306 3072 2169 3072 
Q 1681 3072 1420 2755 
Q 1159 2438 1159 1844 
L 1159 0 
L 581 0 
L 581 3500 
L 1159 3500 
L 1159 2956 
Q 1341 3275 1631 3429 
Q 1922 3584 2338 3584 
Q 2397 3584 2469 3576 
Q 2541 3569 2628 3553 
L 2631 2963 
z
" transform="scale(0.015625)"/>
      <path id="DejaVuSans-69" d="M 603 3500 
L 1178 3500 
L 1178 0 
L 603 0 
L 603 3500 
z
M 603 4863 
L 1178 4863 
L 1178 4134 
L 603 4134 
L 603 4863 
z
" transform="scale(0.015625)"/>
      <path id="DejaVuSans-20" transform="scale(0.015625)"/>
      <path id="DejaVuSans-68" d="M 3513 2113 
L 3513 0 
L 2938 0 
L 2938 2094 
Q 2938 2591 2744 2837 
Q 2550 3084 2163 3084 
Q 1697 3084 1428 2787 
Q 1159 2491 1159 1978 
L 1159 0 
L 581 0 
L 581 4863 
L 1159 4863 
L 1159 2956 
Q 1366 3272 1645 3428 
Q 1925 3584 2291 3584 
Q 2894 3584 3203 3211 
Q 3513 2838 3513 2113 
z
" transform="scale(0.015625)"/>
      <path id="DejaVuSans-6f" d="M 1959 3097 
Q 1497 3097 1228 2736 
Q 959 2375 959 1747 
Q 959 1119 1226 758 
Q 1494 397 1959 397 
Q 2419 397 2687 759 
Q 2956 1122 2956 1747 
Q 2956 2369 2687 2733 
Q 2419 3097 1959 3097 
z
M 1959 3584 
Q 2709 3584 3137 3096 
Q 3566 2609 3566 1747 
Q 3566 888 3137 398 
Q 2709 -91 1959 -91 
Q 1206 -91 779 398 
Q 353 888 353 1747 
Q 353 2609 779 3096 
Q 1206 3584 1959 3584 
z
" transform="scale(0.015625)"/>
      <path id="DejaVuSans-79" d="M 2059 -325 
Q 1816 -950 1584 -1140 
Q 1353 -1331 966 -1331 
L 506 -1331 
L 506 -850 
L 844 -850 
Q 1081 -850 1212 -737 
Q 1344 -625 1503 -206 
L 1606 56 
L 191 3500 
L 800 3500 
L 1894 763 
L 2988 3500 
L 3597 3500 
L 2059 -325 
z
" transform="scale(0.015625)"/>
     </defs>
     <use xlink:href="#DejaVuSans-67"/>
     <use xlink:href="#DejaVuSans-65" x="63.476562"/>
     <use xlink:href="#DejaVuSans-74" x="125"/>
     <use xlink:href="#DejaVuSans-5f" x="164.208984"/>
     <use xlink:href="#DejaVuSans-73" x="214.208984"/>
     <use xlink:href="#DejaVuSans-75" x="266.308594"/>
     <use xlink:href="#DejaVuSans-62" x="329.6875"/>
     <use xlink:href="#DejaVuSans-73" x="393.164062"/>
     <use xlink:href="#DejaVuSans-63" x="445.263672"/>
     <use xlink:href="#DejaVuSans-72" x="500.244141"/>
     <use xlink:href="#DejaVuSans-69" x="541.357422"/>
     <use xlink:href="#DejaVuSans-62" x="569.140625"/>
     <use xlink:href="#DejaVuSans-65" x="632.617188"/>
     <use xlink:href="#DejaVuSans-20" x="694.140625"/>
     <use xlink:href="#DejaVuSans-68" x="725.927734"/>
     <use xlink:href="#DejaVuSans-69" x="789.306641"/>
     <use xlink:href="#DejaVuSans-73" x="817.089844"/>
     <use xlink:href="#DejaVuSans-74" x="869.189453"/>
     <use xlink:href="#DejaVuSans-6f" x="908.398438"/>
     <use xlink:href="#DejaVuSans-72" x="969.580078"/>
     <use xlink:href="#DejaVuSans-79" x="1010.693359"/>
    </g>
   </g>
   <g id="legend_1">
    <g id="line2d_37">
     <path d="M 815.08 328.498438 
L 825.08 328.498438 
L 835.08 328.498438 
" style="fill: none; stroke: #1f77b4; stroke-width: 1.5; stroke-linecap: square"/>
    </g>
    <g id="text_19">
     <!-- star -->
     <g style="fill: #a9a9a9" transform="translate(843.08 331.998438) scale(0.1 -0.1)">
      <defs>
       <path id="DejaVuSans-61" d="M 2194 1759 
Q 1497 1759 1228 1600 
Q 959 1441 959 1056 
Q 959 750 1161 570 
Q 1363 391 1709 391 
Q 2188 391 2477 730 
Q 2766 1069 2766 1631 
L 2766 1759 
L 2194 1759 
z
M 3341 1997 
L 3341 0 
L 2766 0 
L 2766 531 
Q 2569 213 2275 61 
Q 1981 -91 1556 -91 
Q 1019 -91 701 211 
Q 384 513 384 1019 
Q 384 1609 779 1909 
Q 1175 2209 1959 2209 
L 2766 2209 
L 2766 2266 
Q 2766 2663 2505 2880 
Q 2244 3097 1772 3097 
Q 1472 3097 1187 3025 
Q 903 2953 641 2809 
L 641 3341 
Q 956 3463 1253 3523 
Q 1550 3584 1831 3584 
Q 2591 3584 2966 3190 
Q 3341 2797 3341 1997 
z
" transform="scale(0.015625)"/>
      </defs>
      <use xlink:href="#DejaVuSans-73"/>
      <use xlink:href="#DejaVuSans-74" x="52.099609"/>
      <use xlink:href="#DejaVuSans-61" x="91.308594"/>
      <use xlink:href="#DejaVuSans-72" x="152.587891"/>
     </g>
    </g>
    <g id="line2d_38">
     <path d="M 815.08 343.176562 
L 825.08 343.176562 
L 835.08 343.176562 
" style="fill: none; stroke: #ff7f0e; stroke-width: 1.5; stroke-linecap: square"/>
    </g>
    <g id="text_20">
     <!-- fork -->
     <g style="fill: #a9a9a9" transform="translate(843.08 346.676562) scale(0.1 -0.1)">
      <defs>
       <path id="DejaVuSans-66" d="M 2375 4863 
L 2375 4384 
L 1825 4384 
Q 1516 4384 1395 4259 
Q 1275 4134 1275 3809 
L 1275 3500 
L 2222 3500 
L 2222 3053 
L 1275 3053 
L 1275 0 
L 697 0 
L 697 3053 
L 147 3053 
L 147 3500 
L 697 3500 
L 697 3744 
Q 697 4328 969 4595 
Q 1241 4863 1831 4863 
L 2375 4863 
z
" transform="scale(0.015625)"/>
       <path id="DejaVuSans-6b" d="M 581 4863 
L 1159 4863 
L 1159 1991 
L 2875 3500 
L 3609 3500 
L 1753 1863 
L 3688 0 
L 2938 0 
L 1159 1709 
L 1159 0 
L 581 0 
L 581 4863 
z
" transform="scale(0.015625)"/>
      </defs>
      <use xlink:href="#DejaVuSans-66"/>
      <use xlink:href="#DejaVuSans-6f" x="35.205078"/>
      <use xlink:href="#DejaVuSans-72" x="96.386719"/>
      <use xlink:href="#DejaVuSans-6b" x="137.5"/>
     </g>
    </g>
   </g>
  </g>
 </g>
 <defs>
  <clipPath id="pa45787ea42">
   <rect x="108" y="43.2" width="669.6" height="277.2"/>
  </clipPath>
 </defs>
</svg>
