<?xml version="1.0" encoding="utf-8" standalone="no"?>
<!DOCTYPE svg PUBLIC "-//W3C//DTD SVG 1.1//EN"
  "http://www.w3.org/Graphics/SVG/1.1/DTD/svg11.dtd">
<svg xmlns:xlink="http://www.w3.org/1999/xlink" width="864pt" height="360pt" viewBox="0 0 864 360" xmlns="http://www.w3.org/2000/svg" version="1.1">
 <metadata>
  <rdf:RDF xmlns:dc="http://purl.org/dc/elements/1.1/" xmlns:cc="http://creativecommons.org/ns#" xmlns:rdf="http://www.w3.org/1999/02/22-rdf-syntax-ns#">
   <cc:Work>
    <dc:type rdf:resource="http://purl.org/dc/dcmitype/StillImage"/>
    <dc:date>2024-03-14T20:05:38.391549</dc:date>
    <dc:format>image/svg+xml</dc:format>
    <dc:creator>
     <cc:Agent>
      <dc:title>Matplotlib v3.8.3, https://matplotlib.org/</dc:title>
     </cc:Agent>
    </dc:creator>
   </cc:Work>
  </rdf:RDF>
 </metadata>
 <defs>
  <style type="text/css">*{stroke-linejoin: round; stroke-linecap: butt}</style>
 </defs>
 <g id="figure_1">
  <g id="patch_1">
   <path d="M 0 360 
L 864 360 
L 864 0 
L 0 0 
L 0 360 
z
" style="fill: none; opacity: 0"/>
  </g>
  <g id="axes_1">
   <g id="patch_2">
    <path d="M 108 320.4 
L 777.6 320.4 
L 777.6 43.2 
L 108 43.2 
L 108 320.4 
z
" style="fill: none; opacity: 0"/>
   </g>
   <g id="matplotlib.axis_1">
    <g id="xtick_1">
     <g id="line2d_1">
      <path d="M 163.063297 320.4 
L 163.063297 43.2 
" clip-path="url(#pf3bcb8bf42)" style="fill: none; stroke-dasharray: 5.12,1.28,0.8,1.28; stroke-dashoffset: 0; stroke: #b0b0b0; stroke-width: 0.8"/>
     </g>
     <g id="line2d_2">
      <defs>
       <path id="m1464347f54" d="M 0 0 
L 0 3.5 
" style="stroke: #a9a9a9; stroke-width: 0.8"/>
      </defs>
      <g>
       <use xlink:href="#m1464347f54" x="163.063297" y="320.4" style="fill: #a9a9a9; stroke: #a9a9a9; stroke-width: 0.8"/>
      </g>
     </g>
     <g id="text_1">
      <!-- 2021-09 -->
      <g style="fill: #a9a9a9" transform="translate(142.171891 334.998438) scale(0.1 -0.1)">
       <defs>
        <path id="DejaVuSans-32" d="M 1228 531 
L 3431 531 
L 3431 0 
L 469 0 
L 469 531 
Q 828 903 1448 1529 
Q 2069 2156 2228 2338 
Q 2531 2678 2651 2914 
Q 2772 3150 2772 3378 
Q 2772 3750 2511 3984 
Q 2250 4219 1831 4219 
Q 1534 4219 1204 4116 
Q 875 4013 500 3803 
L 500 4441 
Q 881 4594 1212 4672 
Q 1544 4750 1819 4750 
Q 2544 4750 2975 4387 
Q 3406 4025 3406 3419 
Q 3406 3131 3298 2873 
Q 3191 2616 2906 2266 
Q 2828 2175 2409 1742 
Q 1991 1309 1228 531 
z
" transform="scale(0.015625)"/>
        <path id="DejaVuSans-30" d="M 2034 4250 
Q 1547 4250 1301 3770 
Q 1056 3291 1056 2328 
Q 1056 1369 1301 889 
Q 1547 409 2034 409 
Q 2525 409 2770 889 
Q 3016 1369 3016 2328 
Q 3016 3291 2770 3770 
Q 2525 4250 2034 4250 
z
M 2034 4750 
Q 2819 4750 3233 4129 
Q 3647 3509 3647 2328 
Q 3647 1150 3233 529 
Q 2819 -91 2034 -91 
Q 1250 -91 836 529 
Q 422 1150 422 2328 
Q 422 3509 836 4129 
Q 1250 4750 2034 4750 
z
" transform="scale(0.015625)"/>
        <path id="DejaVuSans-31" d="M 794 531 
L 1825 531 
L 1825 4091 
L 703 3866 
L 703 4441 
L 1819 4666 
L 2450 4666 
L 2450 531 
L 3481 531 
L 3481 0 
L 794 0 
L 794 531 
z
" transform="scale(0.015625)"/>
        <path id="DejaVuSans-2d" d="M 313 2009 
L 1997 2009 
L 1997 1497 
L 313 1497 
L 313 2009 
z
" transform="scale(0.015625)"/>
        <path id="DejaVuSans-39" d="M 703 97 
L 703 672 
Q 941 559 1184 500 
Q 1428 441 1663 441 
Q 2288 441 2617 861 
Q 2947 1281 2994 2138 
Q 2813 1869 2534 1725 
Q 2256 1581 1919 1581 
Q 1219 1581 811 2004 
Q 403 2428 403 3163 
Q 403 3881 828 4315 
Q 1253 4750 1959 4750 
Q 2769 4750 3195 4129 
Q 3622 3509 3622 2328 
Q 3622 1225 3098 567 
Q 2575 -91 1691 -91 
Q 1453 -91 1209 -44 
Q 966 3 703 97 
z
M 1959 2075 
Q 2384 2075 2632 2365 
Q 2881 2656 2881 3163 
Q 2881 3666 2632 3958 
Q 2384 4250 1959 4250 
Q 1534 4250 1286 3958 
Q 1038 3666 1038 3163 
Q 1038 2656 1286 2365 
Q 1534 2075 1959 2075 
z
" transform="scale(0.015625)"/>
       </defs>
       <use xlink:href="#DejaVuSans-32"/>
       <use xlink:href="#DejaVuSans-30" x="63.623047"/>
       <use xlink:href="#DejaVuSans-32" x="127.246094"/>
       <use xlink:href="#DejaVuSans-31" x="190.869141"/>
       <use xlink:href="#DejaVuSans-2d" x="254.492188"/>
       <use xlink:href="#DejaVuSans-30" x="290.576172"/>
       <use xlink:href="#DejaVuSans-39" x="354.199219"/>
      </g>
     </g>
    </g>
    <g id="xtick_2">
     <g id="line2d_3">
      <path d="M 240.101396 320.4 
L 240.101396 43.2 
" clip-path="url(#pf3bcb8bf42)" style="fill: none; stroke-dasharray: 5.12,1.28,0.8,1.28; stroke-dashoffset: 0; stroke: #b0b0b0; stroke-width: 0.8"/>
     </g>
     <g id="line2d_4">
      <g>
       <use xlink:href="#m1464347f54" x="240.101396" y="320.4" style="fill: #a9a9a9; stroke: #a9a9a9; stroke-width: 0.8"/>
      </g>
     </g>
     <g id="text_2">
      <!-- 2022-01 -->
      <g style="fill: #a9a9a9" transform="translate(219.209989 334.998438) scale(0.1 -0.1)">
       <use xlink:href="#DejaVuSans-32"/>
       <use xlink:href="#DejaVuSans-30" x="63.623047"/>
       <use xlink:href="#DejaVuSans-32" x="127.246094"/>
       <use xlink:href="#DejaVuSans-32" x="190.869141"/>
       <use xlink:href="#DejaVuSans-2d" x="254.492188"/>
       <use xlink:href="#DejaVuSans-30" x="290.576172"/>
       <use xlink:href="#DejaVuSans-31" x="354.199219"/>
      </g>
     </g>
    </g>
    <g id="xtick_3">
     <g id="line2d_5">
      <path d="M 315.876575 320.4 
L 315.876575 43.2 
" clip-path="url(#pf3bcb8bf42)" style="fill: none; stroke-dasharray: 5.12,1.28,0.8,1.28; stroke-dashoffset: 0; stroke: #b0b0b0; stroke-width: 0.8"/>
     </g>
     <g id="line2d_6">
      <g>
       <use xlink:href="#m1464347f54" x="315.876575" y="320.4" style="fill: #a9a9a9; stroke: #a9a9a9; stroke-width: 0.8"/>
      </g>
     </g>
     <g id="text_3">
      <!-- 2022-05 -->
      <g style="fill: #a9a9a9" transform="translate(294.985169 334.998438) scale(0.1 -0.1)">
       <defs>
        <path id="DejaVuSans-35" d="M 691 4666 
L 3169 4666 
L 3169 4134 
L 1269 4134 
L 1269 2991 
Q 1406 3038 1543 3061 
Q 1681 3084 1819 3084 
Q 2600 3084 3056 2656 
Q 3513 2228 3513 1497 
Q 3513 744 3044 326 
Q 2575 -91 1722 -91 
Q 1428 -91 1123 -41 
Q 819 9 494 109 
L 494 744 
Q 775 591 1075 516 
Q 1375 441 1709 441 
Q 2250 441 2565 725 
Q 2881 1009 2881 1497 
Q 2881 1984 2565 2268 
Q 2250 2553 1709 2553 
Q 1456 2553 1204 2497 
Q 953 2441 691 2322 
L 691 4666 
z
" transform="scale(0.015625)"/>
       </defs>
       <use xlink:href="#DejaVuSans-32"/>
       <use xlink:href="#DejaVuSans-30" x="63.623047"/>
       <use xlink:href="#DejaVuSans-32" x="127.246094"/>
       <use xlink:href="#DejaVuSans-32" x="190.869141"/>
       <use xlink:href="#DejaVuSans-2d" x="254.492188"/>
       <use xlink:href="#DejaVuSans-30" x="290.576172"/>
       <use xlink:href="#DejaVuSans-35" x="354.199219"/>
      </g>
     </g>
    </g>
    <g id="xtick_4">
     <g id="line2d_7">
      <path d="M 393.546134 320.4 
L 393.546134 43.2 
" clip-path="url(#pf3bcb8bf42)" style="fill: none; stroke-dasharray: 5.12,1.28,0.8,1.28; stroke-dashoffset: 0; stroke: #b0b0b0; stroke-width: 0.8"/>
     </g>
     <g id="line2d_8">
      <g>
       <use xlink:href="#m1464347f54" x="393.546134" y="320.4" style="fill: #a9a9a9; stroke: #a9a9a9; stroke-width: 0.8"/>
      </g>
     </g>
     <g id="text_4">
      <!-- 2022-09 -->
      <g style="fill: #a9a9a9" transform="translate(372.654727 334.998438) scale(0.1 -0.1)">
       <use xlink:href="#DejaVuSans-32"/>
       <use xlink:href="#DejaVuSans-30" x="63.623047"/>
       <use xlink:href="#DejaVuSans-32" x="127.246094"/>
       <use xlink:href="#DejaVuSans-32" x="190.869141"/>
       <use xlink:href="#DejaVuSans-2d" x="254.492188"/>
       <use xlink:href="#DejaVuSans-30" x="290.576172"/>
       <use xlink:href="#DejaVuSans-39" x="354.199219"/>
      </g>
     </g>
    </g>
    <g id="xtick_5">
     <g id="line2d_9">
      <path d="M 470.584232 320.4 
L 470.584232 43.2 
" clip-path="url(#pf3bcb8bf42)" style="fill: none; stroke-dasharray: 5.12,1.28,0.8,1.28; stroke-dashoffset: 0; stroke: #b0b0b0; stroke-width: 0.8"/>
     </g>
     <g id="line2d_10">
      <g>
       <use xlink:href="#m1464347f54" x="470.584232" y="320.4" style="fill: #a9a9a9; stroke: #a9a9a9; stroke-width: 0.8"/>
      </g>
     </g>
     <g id="text_5">
      <!-- 2023-01 -->
      <g style="fill: #a9a9a9" transform="translate(449.692826 334.998438) scale(0.1 -0.1)">
       <defs>
        <path id="DejaVuSans-33" d="M 2597 2516 
Q 3050 2419 3304 2112 
Q 3559 1806 3559 1356 
Q 3559 666 3084 287 
Q 2609 -91 1734 -91 
Q 1441 -91 1130 -33 
Q 819 25 488 141 
L 488 750 
Q 750 597 1062 519 
Q 1375 441 1716 441 
Q 2309 441 2620 675 
Q 2931 909 2931 1356 
Q 2931 1769 2642 2001 
Q 2353 2234 1838 2234 
L 1294 2234 
L 1294 2753 
L 1863 2753 
Q 2328 2753 2575 2939 
Q 2822 3125 2822 3475 
Q 2822 3834 2567 4026 
Q 2313 4219 1838 4219 
Q 1578 4219 1281 4162 
Q 984 4106 628 3988 
L 628 4550 
Q 988 4650 1302 4700 
Q 1616 4750 1894 4750 
Q 2613 4750 3031 4423 
Q 3450 4097 3450 3541 
Q 3450 3153 3228 2886 
Q 3006 2619 2597 2516 
z
" transform="scale(0.015625)"/>
       </defs>
       <use xlink:href="#DejaVuSans-32"/>
       <use xlink:href="#DejaVuSans-30" x="63.623047"/>
       <use xlink:href="#DejaVuSans-32" x="127.246094"/>
       <use xlink:href="#DejaVuSans-33" x="190.869141"/>
       <use xlink:href="#DejaVuSans-2d" x="254.492188"/>
       <use xlink:href="#DejaVuSans-30" x="290.576172"/>
       <use xlink:href="#DejaVuSans-31" x="354.199219"/>
      </g>
     </g>
    </g>
    <g id="xtick_6">
     <g id="line2d_11">
      <path d="M 546.359412 320.4 
L 546.359412 43.2 
" clip-path="url(#pf3bcb8bf42)" style="fill: none; stroke-dasharray: 5.12,1.28,0.8,1.28; stroke-dashoffset: 0; stroke: #b0b0b0; stroke-width: 0.8"/>
     </g>
     <g id="line2d_12">
      <g>
       <use xlink:href="#m1464347f54" x="546.359412" y="320.4" style="fill: #a9a9a9; stroke: #a9a9a9; stroke-width: 0.8"/>
      </g>
     </g>
     <g id="text_6">
      <!-- 2023-05 -->
      <g style="fill: #a9a9a9" transform="translate(525.468005 334.998438) scale(0.1 -0.1)">
       <use xlink:href="#DejaVuSans-32"/>
       <use xlink:href="#DejaVuSans-30" x="63.623047"/>
       <use xlink:href="#DejaVuSans-32" x="127.246094"/>
       <use xlink:href="#DejaVuSans-33" x="190.869141"/>
       <use xlink:href="#DejaVuSans-2d" x="254.492188"/>
       <use xlink:href="#DejaVuSans-30" x="290.576172"/>
       <use xlink:href="#DejaVuSans-35" x="354.199219"/>
      </g>
     </g>
    </g>
    <g id="xtick_7">
     <g id="line2d_13">
      <path d="M 624.02897 320.4 
L 624.02897 43.2 
" clip-path="url(#pf3bcb8bf42)" style="fill: none; stroke-dasharray: 5.12,1.28,0.8,1.28; stroke-dashoffset: 0; stroke: #b0b0b0; stroke-width: 0.8"/>
     </g>
     <g id="line2d_14">
      <g>
       <use xlink:href="#m1464347f54" x="624.02897" y="320.4" style="fill: #a9a9a9; stroke: #a9a9a9; stroke-width: 0.8"/>
      </g>
     </g>
     <g id="text_7">
      <!-- 2023-09 -->
      <g style="fill: #a9a9a9" transform="translate(603.137564 334.998438) scale(0.1 -0.1)">
       <use xlink:href="#DejaVuSans-32"/>
       <use xlink:href="#DejaVuSans-30" x="63.623047"/>
       <use xlink:href="#DejaVuSans-32" x="127.246094"/>
       <use xlink:href="#DejaVuSans-33" x="190.869141"/>
       <use xlink:href="#DejaVuSans-2d" x="254.492188"/>
       <use xlink:href="#DejaVuSans-30" x="290.576172"/>
       <use xlink:href="#DejaVuSans-39" x="354.199219"/>
      </g>
     </g>
    </g>
    <g id="xtick_8">
     <g id="line2d_15">
      <path d="M 701.067069 320.4 
L 701.067069 43.2 
" clip-path="url(#pf3bcb8bf42)" style="fill: none; stroke-dasharray: 5.12,1.28,0.8,1.28; stroke-dashoffset: 0; stroke: #b0b0b0; stroke-width: 0.8"/>
     </g>
     <g id="line2d_16">
      <g>
       <use xlink:href="#m1464347f54" x="701.067069" y="320.4" style="fill: #a9a9a9; stroke: #a9a9a9; stroke-width: 0.8"/>
      </g>
     </g>
     <g id="text_8">
      <!-- 2024-01 -->
      <g style="fill: #a9a9a9" transform="translate(680.175663 334.998438) scale(0.1 -0.1)">
       <defs>
        <path id="DejaVuSans-34" d="M 2419 4116 
L 825 1625 
L 2419 1625 
L 2419 4116 
z
M 2253 4666 
L 3047 4666 
L 3047 1625 
L 3713 1625 
L 3713 1100 
L 3047 1100 
L 3047 0 
L 2419 0 
L 2419 1100 
L 313 1100 
L 313 1709 
L 2253 4666 
z
" transform="scale(0.015625)"/>
       </defs>
       <use xlink:href="#DejaVuSans-32"/>
       <use xlink:href="#DejaVuSans-30" x="63.623047"/>
       <use xlink:href="#DejaVuSans-32" x="127.246094"/>
       <use xlink:href="#DejaVuSans-34" x="190.869141"/>
       <use xlink:href="#DejaVuSans-2d" x="254.492188"/>
       <use xlink:href="#DejaVuSans-30" x="290.576172"/>
       <use xlink:href="#DejaVuSans-31" x="354.199219"/>
      </g>
     </g>
    </g>
    <g id="xtick_9">
     <g id="line2d_17">
      <path d="M 777.473708 320.4 
L 777.473708 43.2 
" clip-path="url(#pf3bcb8bf42)" style="fill: none; stroke-dasharray: 5.12,1.28,0.8,1.28; stroke-dashoffset: 0; stroke: #b0b0b0; stroke-width: 0.8"/>
     </g>
     <g id="line2d_18">
      <g>
       <use xlink:href="#m1464347f54" x="777.473708" y="320.4" style="fill: #a9a9a9; stroke: #a9a9a9; stroke-width: 0.8"/>
      </g>
     </g>
     <g id="text_9">
      <!-- 2024-05 -->
      <g style="fill: #a9a9a9" transform="translate(756.582302 334.998438) scale(0.1 -0.1)">
       <use xlink:href="#DejaVuSans-32"/>
       <use xlink:href="#DejaVuSans-30" x="63.623047"/>
       <use xlink:href="#DejaVuSans-32" x="127.246094"/>
       <use xlink:href="#DejaVuSans-34" x="190.869141"/>
       <use xlink:href="#DejaVuSans-2d" x="254.492188"/>
       <use xlink:href="#DejaVuSans-30" x="290.576172"/>
       <use xlink:href="#DejaVuSans-35" x="354.199219"/>
      </g>
     </g>
    </g>
   </g>
   <g id="matplotlib.axis_2">
    <g id="ytick_1">
     <g id="line2d_19">
      <path d="M 108 307.843712 
L 777.6 307.843712 
" clip-path="url(#pf3bcb8bf42)" style="fill: none; stroke-dasharray: 5.12,1.28,0.8,1.28; stroke-dashoffset: 0; stroke: #b0b0b0; stroke-width: 0.8"/>
     </g>
     <g id="line2d_20">
      <defs>
       <path id="m410e6f2efc" d="M 0 0 
L -3.5 0 
" style="stroke: #a9a9a9; stroke-width: 0.8"/>
      </defs>
      <g>
       <use xlink:href="#m410e6f2efc" x="108" y="307.843712" style="fill: #a9a9a9; stroke: #a9a9a9; stroke-width: 0.8"/>
      </g>
     </g>
     <g id="text_10">
      <!-- 0 -->
      <g style="fill: #a9a9a9" transform="translate(94.6375 311.642931) scale(0.1 -0.1)">
       <use xlink:href="#DejaVuSans-30"/>
      </g>
     </g>
    </g>
    <g id="ytick_2">
     <g id="line2d_21">
      <path d="M 108 272.874068 
L 777.6 272.874068 
" clip-path="url(#pf3bcb8bf42)" style="fill: none; stroke-dasharray: 5.12,1.28,0.8,1.28; stroke-dashoffset: 0; stroke: #b0b0b0; stroke-width: 0.8"/>
     </g>
     <g id="line2d_22">
      <g>
       <use xlink:href="#m410e6f2efc" x="108" y="272.874068" style="fill: #a9a9a9; stroke: #a9a9a9; stroke-width: 0.8"/>
      </g>
     </g>
     <g id="text_11">
      <!-- 800 -->
      <g style="fill: #a9a9a9" transform="translate(81.9125 276.673286) scale(0.1 -0.1)">
       <defs>
        <path id="DejaVuSans-38" d="M 2034 2216 
Q 1584 2216 1326 1975 
Q 1069 1734 1069 1313 
Q 1069 891 1326 650 
Q 1584 409 2034 409 
Q 2484 409 2743 651 
Q 3003 894 3003 1313 
Q 3003 1734 2745 1975 
Q 2488 2216 2034 2216 
z
M 1403 2484 
Q 997 2584 770 2862 
Q 544 3141 544 3541 
Q 544 4100 942 4425 
Q 1341 4750 2034 4750 
Q 2731 4750 3128 4425 
Q 3525 4100 3525 3541 
Q 3525 3141 3298 2862 
Q 3072 2584 2669 2484 
Q 3125 2378 3379 2068 
Q 3634 1759 3634 1313 
Q 3634 634 3220 271 
Q 2806 -91 2034 -91 
Q 1263 -91 848 271 
Q 434 634 434 1313 
Q 434 1759 690 2068 
Q 947 2378 1403 2484 
z
M 1172 3481 
Q 1172 3119 1398 2916 
Q 1625 2713 2034 2713 
Q 2441 2713 2670 2916 
Q 2900 3119 2900 3481 
Q 2900 3844 2670 4047 
Q 2441 4250 2034 4250 
Q 1625 4250 1398 4047 
Q 1172 3844 1172 3481 
z
" transform="scale(0.015625)"/>
       </defs>
       <use xlink:href="#DejaVuSans-38"/>
       <use xlink:href="#DejaVuSans-30" x="63.623047"/>
       <use xlink:href="#DejaVuSans-30" x="127.246094"/>
      </g>
     </g>
    </g>
    <g id="ytick_3">
     <g id="line2d_23">
      <path d="M 108 237.904423 
L 777.6 237.904423 
" clip-path="url(#pf3bcb8bf42)" style="fill: none; stroke-dasharray: 5.12,1.28,0.8,1.28; stroke-dashoffset: 0; stroke: #b0b0b0; stroke-width: 0.8"/>
     </g>
     <g id="line2d_24">
      <g>
       <use xlink:href="#m410e6f2efc" x="108" y="237.904423" style="fill: #a9a9a9; stroke: #a9a9a9; stroke-width: 0.8"/>
      </g>
     </g>
     <g id="text_12">
      <!-- 1600 -->
      <g style="fill: #a9a9a9" transform="translate(75.55 241.703642) scale(0.1 -0.1)">
       <defs>
        <path id="DejaVuSans-36" d="M 2113 2584 
Q 1688 2584 1439 2293 
Q 1191 2003 1191 1497 
Q 1191 994 1439 701 
Q 1688 409 2113 409 
Q 2538 409 2786 701 
Q 3034 994 3034 1497 
Q 3034 2003 2786 2293 
Q 2538 2584 2113 2584 
z
M 3366 4563 
L 3366 3988 
Q 3128 4100 2886 4159 
Q 2644 4219 2406 4219 
Q 1781 4219 1451 3797 
Q 1122 3375 1075 2522 
Q 1259 2794 1537 2939 
Q 1816 3084 2150 3084 
Q 2853 3084 3261 2657 
Q 3669 2231 3669 1497 
Q 3669 778 3244 343 
Q 2819 -91 2113 -91 
Q 1303 -91 875 529 
Q 447 1150 447 2328 
Q 447 3434 972 4092 
Q 1497 4750 2381 4750 
Q 2619 4750 2861 4703 
Q 3103 4656 3366 4563 
z
" transform="scale(0.015625)"/>
       </defs>
       <use xlink:href="#DejaVuSans-31"/>
       <use xlink:href="#DejaVuSans-36" x="63.623047"/>
       <use xlink:href="#DejaVuSans-30" x="127.246094"/>
       <use xlink:href="#DejaVuSans-30" x="190.869141"/>
      </g>
     </g>
    </g>
    <g id="ytick_4">
     <g id="line2d_25">
      <path d="M 108 202.934779 
L 777.6 202.934779 
" clip-path="url(#pf3bcb8bf42)" style="fill: none; stroke-dasharray: 5.12,1.28,0.8,1.28; stroke-dashoffset: 0; stroke: #b0b0b0; stroke-width: 0.8"/>
     </g>
     <g id="line2d_26">
      <g>
       <use xlink:href="#m410e6f2efc" x="108" y="202.934779" style="fill: #a9a9a9; stroke: #a9a9a9; stroke-width: 0.8"/>
      </g>
     </g>
     <g id="text_13">
      <!-- 2400 -->
      <g style="fill: #a9a9a9" transform="translate(75.55 206.733998) scale(0.1 -0.1)">
       <use xlink:href="#DejaVuSans-32"/>
       <use xlink:href="#DejaVuSans-34" x="63.623047"/>
       <use xlink:href="#DejaVuSans-30" x="127.246094"/>
       <use xlink:href="#DejaVuSans-30" x="190.869141"/>
      </g>
     </g>
    </g>
    <g id="ytick_5">
     <g id="line2d_27">
      <path d="M 108 167.965134 
L 777.6 167.965134 
" clip-path="url(#pf3bcb8bf42)" style="fill: none; stroke-dasharray: 5.12,1.28,0.8,1.28; stroke-dashoffset: 0; stroke: #b0b0b0; stroke-width: 0.8"/>
     </g>
     <g id="line2d_28">
      <g>
       <use xlink:href="#m410e6f2efc" x="108" y="167.965134" style="fill: #a9a9a9; stroke: #a9a9a9; stroke-width: 0.8"/>
      </g>
     </g>
     <g id="text_14">
      <!-- 3200 -->
      <g style="fill: #a9a9a9" transform="translate(75.55 171.764353) scale(0.1 -0.1)">
       <use xlink:href="#DejaVuSans-33"/>
       <use xlink:href="#DejaVuSans-32" x="63.623047"/>
       <use xlink:href="#DejaVuSans-30" x="127.246094"/>
       <use xlink:href="#DejaVuSans-30" x="190.869141"/>
      </g>
     </g>
    </g>
    <g id="ytick_6">
     <g id="line2d_29">
      <path d="M 108 132.99549 
L 777.6 132.99549 
" clip-path="url(#pf3bcb8bf42)" style="fill: none; stroke-dasharray: 5.12,1.28,0.8,1.28; stroke-dashoffset: 0; stroke: #b0b0b0; stroke-width: 0.8"/>
     </g>
     <g id="line2d_30">
      <g>
       <use xlink:href="#m410e6f2efc" x="108" y="132.99549" style="fill: #a9a9a9; stroke: #a9a9a9; stroke-width: 0.8"/>
      </g>
     </g>
     <g id="text_15">
      <!-- 4000 -->
      <g style="fill: #a9a9a9" transform="translate(75.55 136.794709) scale(0.1 -0.1)">
       <use xlink:href="#DejaVuSans-34"/>
       <use xlink:href="#DejaVuSans-30" x="63.623047"/>
       <use xlink:href="#DejaVuSans-30" x="127.246094"/>
       <use xlink:href="#DejaVuSans-30" x="190.869141"/>
      </g>
     </g>
    </g>
    <g id="ytick_7">
     <g id="line2d_31">
      <path d="M 108 98.025846 
L 777.6 98.025846 
" clip-path="url(#pf3bcb8bf42)" style="fill: none; stroke-dasharray: 5.12,1.28,0.8,1.28; stroke-dashoffset: 0; stroke: #b0b0b0; stroke-width: 0.8"/>
     </g>
     <g id="line2d_32">
      <g>
       <use xlink:href="#m410e6f2efc" x="108" y="98.025846" style="fill: #a9a9a9; stroke: #a9a9a9; stroke-width: 0.8"/>
      </g>
     </g>
     <g id="text_16">
      <!-- 4800 -->
      <g style="fill: #a9a9a9" transform="translate(75.55 101.825064) scale(0.1 -0.1)">
       <use xlink:href="#DejaVuSans-34"/>
       <use xlink:href="#DejaVuSans-38" x="63.623047"/>
       <use xlink:href="#DejaVuSans-30" x="127.246094"/>
       <use xlink:href="#DejaVuSans-30" x="190.869141"/>
      </g>
     </g>
    </g>
    <g id="ytick_8">
     <g id="line2d_33">
      <path d="M 108 63.056201 
L 777.6 63.056201 
" clip-path="url(#pf3bcb8bf42)" style="fill: none; stroke-dasharray: 5.12,1.28,0.8,1.28; stroke-dashoffset: 0; stroke: #b0b0b0; stroke-width: 0.8"/>
     </g>
     <g id="line2d_34">
      <g>
       <use xlink:href="#m410e6f2efc" x="108" y="63.056201" style="fill: #a9a9a9; stroke: #a9a9a9; stroke-width: 0.8"/>
      </g>
     </g>
     <g id="text_17">
      <!-- 5600 -->
      <g style="fill: #a9a9a9" transform="translate(75.55 66.85542) scale(0.1 -0.1)">
       <use xlink:href="#DejaVuSans-35"/>
       <use xlink:href="#DejaVuSans-36" x="63.623047"/>
       <use xlink:href="#DejaVuSans-30" x="127.246094"/>
       <use xlink:href="#DejaVuSans-30" x="190.869141"/>
      </g>
     </g>
    </g>
   </g>
   <g id="line2d_35">
    <path d="M 138.436364 307.712576 
L 142.225123 307.406592 
L 142.856582 307.144319 
L 144.750962 306.925759 
L 148.539721 306.182654 
L 152.32848 305.87667 
L 152.95994 305.570685 
L 153.591399 305.395837 
L 154.222859 304.60902 
L 154.854319 304.171899 
L 155.485779 302.816826 
L 156.117239 302.729402 
L 156.748699 302.248569 
L 158.011618 301.6366 
L 160.537458 299.71327 
L 161.800377 299.188725 
L 162.431837 298.751605 
L 164.957676 297.658803 
L 165.589136 296.697138 
L 166.852056 295.779185 
L 167.483516 295.4732 
L 173.798114 294.598959 
L 174.429574 294.292975 
L 178.849793 293.943278 
L 180.744172 293.462446 
L 186.42731 292.719341 
L 187.05877 292.369644 
L 187.69023 292.28222 
L 188.32169 292.019948 
L 189.58461 291.801388 
L 190.216069 291.757676 
L 190.847529 291.539115 
L 193.373369 291.145707 
L 194.636288 290.79601 
L 196.530668 290.621162 
L 197.793587 290.490026 
L 198.425047 290.315178 
L 199.056507 290.271466 
L 200.950886 289.703209 
L 204.739645 289.134952 
L 205.371105 288.960104 
L 206.002565 288.085863 
L 207.896945 287.38647 
L 209.791324 286.861925 
L 210.422784 286.555941 
L 211.054244 286.512229 
L 214.211543 285.637988 
L 215.474462 285.550564 
L 216.105922 285.46314 
L 218.000302 284.894883 
L 220.526141 284.282914 
L 221.157601 284.020642 
L 221.789061 283.933218 
L 222.420521 283.627233 
L 228.735119 282.665568 
L 231.892418 281.791327 
L 232.523878 281.397918 
L 235.049717 280.742238 
L 236.312637 279.999133 
L 236.944097 279.562012 
L 238.838476 279.212316 
L 242.627235 278.075802 
L 243.890155 277.682394 
L 244.521614 277.59497 
L 245.784534 277.245273 
L 247.047454 276.939289 
L 247.678914 276.851865 
L 248.941833 276.32732 
L 249.573293 276.196184 
L 250.204753 275.933912 
L 250.836213 275.846487 
L 251.467673 275.540503 
L 252.099132 275.365655 
L 253.362052 275.278231 
L 254.624972 274.84111 
L 255.887891 274.753686 
L 256.519351 274.447702 
L 259.04519 274.010581 
L 261.57103 273.792021 
L 262.20249 273.660885 
L 263.465409 273.048916 
L 270.411467 270.120208 
L 271.042927 269.770512 
L 271.674387 269.071119 
L 272.305847 268.022029 
L 272.937307 267.1915 
L 273.568767 267.016652 
L 274.200226 267.016652 
L 275.463146 266.098699 
L 276.094606 265.923851 
L 276.726066 265.574154 
L 277.357525 265.443018 
L 277.988985 264.874761 
L 278.620445 264.699913 
L 280.514825 263.78196 
L 281.777744 262.033478 
L 282.409204 261.640069 
L 283.040664 260.59098 
L 283.672124 259.935299 
L 284.303584 259.629315 
L 284.935043 259.454467 
L 287.460883 257.968257 
L 288.723802 256.962879 
L 289.355262 256.569471 
L 289.986722 255.651518 
L 290.618182 254.20902 
L 291.249642 253.291067 
L 291.881101 252.810234 
L 292.512561 252.547962 
L 295.038401 250.362359 
L 296.30132 249.356982 
L 296.93278 248.832437 
L 297.56424 248.001908 
L 298.82716 246.909107 
L 301.352999 245.291761 
L 301.984459 244.723504 
L 302.615919 244.592368 
L 303.247378 244.330095 
L 304.510298 243.630703 
L 306.404677 242.669037 
L 307.667597 241.488812 
L 308.299057 240.745707 
L 309.561977 239.871466 
L 310.193436 239.696618 
L 310.824896 239.390633 
L 312.087816 238.560104 
L 312.719276 238.210408 
L 313.350736 238.122984 
L 314.613655 237.423591 
L 315.245115 237.073894 
L 315.876575 236.418213 
L 316.508035 236.024805 
L 317.139495 235.806245 
L 318.402414 235.06314 
L 319.033874 234.713443 
L 319.665334 234.494883 
L 321.559713 233.270945 
L 323.454093 232.702689 
L 324.085553 232.265568 
L 324.717012 232.134432 
L 325.979932 231.697311 
L 327.874312 230.954206 
L 329.768691 230.254814 
L 331.031611 230.036253 
L 332.29453 228.943452 
L 333.55745 228.331483 
L 334.82037 227.63209 
L 335.451829 227.282394 
L 336.714749 226.932697 
L 337.346209 226.539289 
L 337.977669 226.364441 
L 339.872048 225.184215 
L 343.029347 224.44111 
L 344.923727 223.348309 
L 345.555187 223.260885 
L 346.186647 223.042324 
L 347.449566 222.780052 
L 349.343946 221.381266 
L 351.238325 220.944146 
L 351.869785 220.725585 
L 352.501245 220.244753 
L 356.290004 219.020815 
L 356.921464 218.977103 
L 357.552923 218.802255 
L 358.815843 218.27771 
L 363.236062 216.747788 
L 364.498982 216.57294 
L 365.130441 216.398092 
L 365.761901 216.092108 
L 366.393361 215.960971 
L 368.28774 215.08673 
L 370.18212 214.168777 
L 370.81358 213.731657 
L 371.44504 213.556808 
L 373.339419 212.551431 
L 374.602339 212.245447 
L 375.865258 211.589766 
L 377.128178 211.240069 
L 377.759638 211.152645 
L 379.022558 210.40954 
L 379.654017 210.278404 
L 380.916937 209.753859 
L 381.548397 209.622723 
L 382.179857 209.273027 
L 384.705696 208.879618 
L 385.968616 208.26765 
L 386.600075 207.743105 
L 387.231535 206.650304 
L 388.494455 206.388031 
L 389.125915 206.256895 
L 391.651754 204.945533 
L 392.283214 204.814397 
L 397.334892 202.410234 
L 399.229272 202.016826 
L 399.860732 201.667129 
L 403.649491 200.355768 
L 404.91241 199.568951 
L 406.17533 198.825846 
L 406.80679 198.738422 
L 407.43825 198.519861 
L 408.06971 198.476149 
L 411.227009 197.64562 
L 411.858469 197.164788 
L 413.121388 196.727667 
L 415.015768 196.115698 
L 415.647227 195.72229 
L 416.278687 195.547441 
L 416.910147 195.110321 
L 417.541607 194.848049 
L 418.173067 194.45464 
L 419.435986 194.01752 
L 421.330366 193.405551 
L 421.961826 193.099566 
L 423.856205 191.657069 
L 424.487665 191.525932 
L 425.750585 190.564267 
L 426.382045 190.433131 
L 427.013504 189.471466 
L 427.644964 189.209193 
L 428.276424 188.728361 
L 428.907884 188.640937 
L 430.170803 187.897832 
L 430.802263 187.766696 
L 431.433723 187.504423 
L 432.065183 187.023591 
L 432.696643 186.80503 
L 434.591022 185.537381 
L 437.116862 184.269731 
L 437.748321 184.182307 
L 439.011241 183.61405 
L 439.642701 183.264354 
L 440.274161 182.215265 
L 440.905621 181.647008 
L 441.53708 181.297311 
L 442.16854 181.166175 
L 443.43146 180.379358 
L 444.06292 180.248222 
L 445.325839 179.636253 
L 447.220219 178.849436 
L 448.483138 177.975195 
L 449.746058 176.663833 
L 452.903357 174.390807 
L 454.166277 173.341717 
L 454.797737 173.079445 
L 455.429197 172.380052 
L 456.060656 171.899219 
L 457.323576 171.462099 
L 457.955036 170.937554 
L 459.217955 170.281873 
L 459.849415 170.107025 
L 460.480875 169.669905 
L 461.112335 169.538768 
L 463.006714 168.533391 
L 464.269634 167.790286 
L 470.584232 165.560971 
L 471.215692 164.992715 
L 473.110072 164.293322 
L 474.372991 163.899913 
L 475.004451 163.419081 
L 477.53029 162.107719 
L 478.16175 161.758023 
L 479.42467 159.266435 
L 480.68759 157.780225 
L 481.950509 157.037121 
L 483.844889 156.294016 
L 484.476349 156.206592 
L 485.107808 155.856895 
L 487.002188 155.288638 
L 489.528027 154.152125 
L 490.159487 153.758716 
L 491.422407 153.321596 
L 495.211166 151.135993 
L 495.842625 150.480312 
L 496.474085 150.086904 
L 498.368465 149.256375 
L 498.999925 148.819254 
L 500.262844 148.207285 
L 502.157224 147.201908 
L 502.788684 147.02706 
L 503.420143 146.546227 
L 504.051603 146.283955 
L 504.683063 146.152819 
L 505.945983 145.715698 
L 507.840362 145.016305 
L 508.471822 144.579185 
L 509.734742 144.229488 
L 510.997661 143.748656 
L 511.629121 143.267823 
L 512.892041 142.874415 
L 513.523501 142.56843 
L 514.15496 142.393582 
L 515.41788 141.519341 
L 516.6808 140.951084 
L 517.943719 139.989419 
L 519.206639 139.552298 
L 519.838099 139.027754 
L 520.469559 138.94033 
L 521.732478 138.022376 
L 522.995398 137.410408 
L 523.626858 137.148135 
L 524.258318 136.536167 
L 528.047077 135.181093 
L 529.941456 134.350564 
L 531.835836 133.782307 
L 533.098755 133.607459 
L 533.730215 133.345186 
L 534.361675 133.257762 
L 535.624594 132.733218 
L 536.256054 132.689506 
L 538.781894 131.771552 
L 540.676273 130.460191 
L 541.307733 130.197918 
L 541.939193 129.80451 
L 543.833572 128.973981 
L 545.727952 127.837467 
L 546.359412 127.444059 
L 547.622331 127.138075 
L 548.885251 126.263833 
L 551.41109 125.477016 
L 552.04255 125.214744 
L 553.30547 124.90876 
L 556.462769 123.903382 
L 558.357148 123.553686 
L 560.882988 122.766869 
L 561.514447 122.504597 
L 562.145907 122.417173 
L 562.777367 122.111188 
L 564.040287 121.848916 
L 565.303206 121.411795 
L 565.934666 121.193235 
L 567.197586 121.062099 
L 568.460505 120.756114 
L 570.354885 120.45013 
L 570.986345 120.23157 
L 572.249264 120.100434 
L 577.932403 118.439376 
L 578.563863 118.220815 
L 579.195323 118.177103 
L 582.984081 117.04059 
L 584.247001 116.603469 
L 584.878461 116.516045 
L 586.77284 115.860364 
L 587.4043 115.860364 
L 588.66722 115.423244 
L 589.29868 114.811275 
L 589.93014 114.505291 
L 591.193059 114.111882 
L 593.718899 113.150217 
L 594.350358 113.019081 
L 594.981818 112.625672 
L 595.613278 112.494536 
L 596.244738 112.14484 
L 599.402037 111.226886 
L 600.033497 110.833478 
L 600.664957 110.65863 
L 601.296416 110.134085 
L 603.190796 109.784389 
L 604.453716 109.084996 
L 605.085175 108.385603 
L 606.348095 108.12333 
L 610.768314 107.117953 
L 611.399774 106.943105 
L 612.662693 106.899393 
L 613.294153 106.593408 
L 615.819992 106.156288 
L 616.451452 105.850304 
L 618.345832 105.588031 
L 620.871671 104.801214 
L 622.766051 104.364094 
L 624.66043 103.883261 
L 627.186269 103.096444 
L 627.817729 102.965308 
L 628.449189 102.659324 
L 629.080649 102.571899 
L 629.712109 102.353339 
L 630.343568 102.003643 
L 632.237948 101.347962 
L 632.869408 100.867129 
L 634.132327 100.517433 
L 634.763787 100.25516 
L 636.026707 99.905464 
L 638.552546 98.768951 
L 640.446926 98.637814 
L 642.972765 97.850997 
L 643.604225 97.457589 
L 644.867144 97.06418 
L 646.761524 96.102515 
L 647.392984 95.971379 
L 648.024444 95.665395 
L 648.655903 95.577971 
L 655.601962 93.261232 
L 658.127801 92.649263 
L 658.759261 92.474415 
L 660.02218 91.906158 
L 660.65364 91.818734 
L 661.91656 91.469037 
L 662.54802 90.988205 
L 663.179479 90.68222 
L 663.810939 89.939115 
L 664.442399 89.501995 
L 665.705319 89.108586 
L 666.336779 88.584042 
L 673.282837 85.742758 
L 674.545756 85.436774 
L 675.808676 84.868517 
L 677.703055 83.775716 
L 678.334515 83.644579 
L 678.965975 83.163747 
L 680.228895 82.551778 
L 681.491814 81.764961 
L 683.386194 80.89072 
L 684.017654 80.453599 
L 685.280573 79.972767 
L 686.543493 79.229662 
L 687.174953 78.923677 
L 687.806413 78.486557 
L 689.069332 78.049436 
L 689.700792 77.9183 
L 692.226631 76.781787 
L 695.383931 75.688985 
L 696.01539 75.645273 
L 696.64685 75.470425 
L 697.27831 75.077016 
L 697.90977 74.989592 
L 698.54123 74.771032 
L 700.435609 74.421336 
L 703.592908 72.80399 
L 704.855828 72.104597 
L 705.487288 72.017173 
L 707.381667 71.011795 
L 709.276047 70.312402 
L 711.170426 69.481873 
L 713.696266 68.476496 
L 714.327725 68.301648 
L 714.959185 67.908239 
L 716.222105 67.733391 
L 716.853565 67.339983 
L 717.485025 67.296271 
L 718.747944 66.902862 
L 720.010864 66.290893 
L 720.642324 66.203469 
L 721.273783 65.941197 
L 721.905243 65.810061 
L 723.799623 64.979532 
L 724.431083 64.848395 
L 725.062542 64.586123 
L 728.219842 63.843018 
L 730.114221 63.099913 
L 732.008601 61.9634 
L 733.27152 61.438855 
L 733.90298 61.176583 
L 734.53444 60.783174 
L 735.797359 60.520902 
L 736.428819 60.171206 
L 737.060279 60.040069 
L 738.323199 59.340676 
L 742.111958 57.592194 
L 745.900717 56.280833 
L 746.532177 55.931136 
L 747.163636 55.8 
L 747.163636 55.8 
" clip-path="url(#pf3bcb8bf42)" style="fill: none; stroke: #1f77b4; stroke-width: 1.5; stroke-linecap: square"/>
   </g>
   <g id="line2d_36">
    <path d="M 139.067823 307.8 
L 140.962203 307.712576 
L 142.856582 307.668864 
L 146.645341 307.58144 
L 149.802641 307.450304 
L 152.32848 307.450304 
L 152.95994 307.275455 
L 155.485779 307.188031 
L 157.380158 306.969471 
L 159.274538 306.794623 
L 163.063297 306.619775 
L 163.694757 306.619775 
L 164.326217 306.488638 
L 166.852056 306.401214 
L 168.114975 306.31379 
L 173.166654 306.226366 
L 176.323953 306.09523 
L 183.901471 306.007806 
L 187.05877 305.87667 
L 190.847529 305.789245 
L 193.373369 305.701821 
L 199.056507 305.614397 
L 200.950886 305.570685 
L 202.845266 305.526973 
L 204.739645 305.308413 
L 208.528404 305.264701 
L 209.791324 305.177277 
L 214.211543 305.089853 
L 221.157601 304.696444 
L 225.57782 304.60902 
L 226.840739 304.521596 
L 228.735119 304.434172 
L 232.523878 304.259324 
L 235.049717 304.215611 
L 236.944097 304.040763 
L 247.047454 303.428794 
L 249.573293 303.34137 
L 253.993512 303.12281 
L 255.887891 303.035386 
L 262.20249 302.68569 
L 269.148548 302.598265 
L 271.674387 302.335993 
L 272.937307 302.248569 
L 281.146284 301.592888 
L 284.935043 301.112056 
L 287.460883 301.024631 
L 292.512561 300.368951 
L 295.66986 300.281526 
L 303.878838 299.625846 
L 307.036137 299.276149 
L 309.561977 299.188725 
L 310.824896 299.101301 
L 313.350736 299.013877 
L 314.613655 298.926453 
L 317.770954 298.620468 
L 318.402414 298.44562 
L 322.191173 298.270772 
L 325.348472 298.183348 
L 333.55745 297.702515 
L 335.451829 297.615091 
L 343.660807 297.134258 
L 348.081026 297.046834 
L 348.712486 296.915698 
L 353.764164 296.828274 
L 358.184383 296.609714 
L 365.130441 296.52229 
L 369.55066 296.303729 
L 374.602339 296.216305 
L 379.654017 295.954033 
L 384.074236 295.866609 
L 396.071973 295.123504 
L 401.123651 295.03608 
L 417.541607 293.98699 
L 421.330366 293.899566 
L 423.224745 293.855854 
L 425.119125 293.812142 
L 427.013504 293.637294 
L 432.065183 293.54987 
L 433.328103 293.33131 
L 434.591022 293.243886 
L 437.748321 293.112749 
L 439.011241 293.025325 
L 440.274161 292.937901 
L 445.957299 292.850477 
L 447.220219 292.719341 
L 449.746058 292.675629 
L 450.377518 292.544493 
L 451.640438 292.457069 
L 452.271897 292.325932 
L 454.166277 292.238508 
L 464.901094 291.582827 
L 466.795473 291.495403 
L 469.952773 291.364267 
L 478.79321 291.276843 
L 483.213429 291.058283 
L 488.265108 290.970859 
L 490.790947 290.883435 
L 493.316786 290.839722 
L 494.579706 290.708586 
L 497.105545 290.621162 
L 503.420143 290.271466 
L 507.208902 290.227754 
L 509.103282 290.052905 
L 510.997661 290.009193 
L 515.41788 289.921769 
L 517.943719 289.834345 
L 525.521237 289.746921 
L 528.678536 289.615785 
L 532.467295 289.528361 
L 534.361675 289.309801 
L 538.150434 289.266088 
L 540.044813 289.09124 
L 542.570653 289.003816 
L 550.148171 288.916392 
L 553.30547 288.785256 
L 564.040287 288.741544 
L 565.303206 288.65412 
L 567.197586 288.610408 
L 575.406564 288.522984 
L 576.669483 288.435559 
L 583.615541 288.348135 
L 586.141381 288.260711 
L 593.718899 288.216999 
L 594.981818 288.129575 
L 604.453716 288.085863 
L 606.348095 287.911015 
L 617.082912 287.823591 
L 618.977292 287.779879 
L 635.395247 287.692454 
L 637.289627 287.648742 
L 649.287363 287.561318 
L 651.813203 287.473894 
L 656.233421 287.38647 
L 661.2851 287.124198 
L 663.810939 287.036774 
L 666.336779 286.94935 
L 670.125538 286.861925 
L 672.019917 286.818213 
L 674.545756 286.730789 
L 676.440136 286.687077 
L 679.597435 286.599653 
L 680.860355 286.512229 
L 684.649114 286.424805 
L 687.806413 286.293669 
L 689.069332 286.249957 
L 690.963712 286.075108 
L 694.752471 285.987684 
L 697.27831 285.90026 
L 703.592908 285.812836 
L 706.750207 285.6817 
L 713.064806 285.594276 
L 717.485025 285.375716 
L 723.168163 285.288291 
L 724.431083 285.200867 
L 732.008601 285.113443 
L 733.90298 285.069731 
L 740.849038 284.982307 
L 743.374877 284.720035 
L 745.269257 284.676323 
L 747.163636 284.632611 
L 747.163636 284.632611 
" clip-path="url(#pf3bcb8bf42)" style="fill: none; stroke: #ff7f0e; stroke-width: 1.5; stroke-linecap: square"/>
   </g>
   <g id="patch_3">
    <path d="M 108 320.4 
L 108 43.2 
" style="fill: none; stroke: #a9a9a9; stroke-width: 0.8; stroke-linejoin: miter; stroke-linecap: square"/>
   </g>
   <g id="patch_4">
    <path d="M 777.6 320.4 
L 777.6 43.2 
" style="fill: none"/>
   </g>
   <g id="patch_5">
    <path d="M 108 320.4 
L 777.6 320.4 
" style="fill: none; stroke: #a9a9a9; stroke-width: 0.8; stroke-linejoin: miter; stroke-linecap: square"/>
   </g>
   <g id="patch_6">
    <path d="M 108 43.2 
L 777.6 43.2 
" style="fill: none"/>
   </g>
   <g id="text_18">
    <!-- get_subscribe history -->
    <g style="fill: #a9a9a9" transform="translate(378.6075 37.2) scale(0.12 -0.12)">
     <defs>
      <path id="DejaVuSans-67" d="M 2906 1791 
Q 2906 2416 2648 2759 
Q 2391 3103 1925 3103 
Q 1463 3103 1205 2759 
Q 947 2416 947 1791 
Q 947 1169 1205 825 
Q 1463 481 1925 481 
Q 2391 481 2648 825 
Q 2906 1169 2906 1791 
z
M 3481 434 
Q 3481 -459 3084 -895 
Q 2688 -1331 1869 -1331 
Q 1566 -1331 1297 -1286 
Q 1028 -1241 775 -1147 
L 775 -588 
Q 1028 -725 1275 -790 
Q 1522 -856 1778 -856 
Q 2344 -856 2625 -561 
Q 2906 -266 2906 331 
L 2906 616 
Q 2728 306 2450 153 
Q 2172 0 1784 0 
Q 1141 0 747 490 
Q 353 981 353 1791 
Q 353 2603 747 3093 
Q 1141 3584 1784 3584 
Q 2172 3584 2450 3431 
Q 2728 3278 2906 2969 
L 2906 3500 
L 3481 3500 
L 3481 434 
z
" transform="scale(0.015625)"/>
      <path id="DejaVuSans-65" d="M 3597 1894 
L 3597 1613 
L 953 1613 
Q 991 1019 1311 708 
Q 1631 397 2203 397 
Q 2534 397 2845 478 
Q 3156 559 3463 722 
L 3463 178 
Q 3153 47 2828 -22 
Q 2503 -91 2169 -91 
Q 1331 -91 842 396 
Q 353 884 353 1716 
Q 353 2575 817 3079 
Q 1281 3584 2069 3584 
Q 2775 3584 3186 3129 
Q 3597 2675 3597 1894 
z
M 3022 2063 
Q 3016 2534 2758 2815 
Q 2500 3097 2075 3097 
Q 1594 3097 1305 2825 
Q 1016 2553 972 2059 
L 3022 2063 
z
" transform="scale(0.015625)"/>
      <path id="DejaVuSans-74" d="M 1172 4494 
L 1172 3500 
L 2356 3500 
L 2356 3053 
L 1172 3053 
L 1172 1153 
Q 1172 725 1289 603 
Q 1406 481 1766 481 
L 2356 481 
L 2356 0 
L 1766 0 
Q 1100 0 847 248 
Q 594 497 594 1153 
L 594 3053 
L 172 3053 
L 172 3500 
L 594 3500 
L 594 4494 
L 1172 4494 
z
" transform="scale(0.015625)"/>
      <path id="DejaVuSans-5f" d="M 3263 -1063 
L 3263 -1509 
L -63 -1509 
L -63 -1063 
L 3263 -1063 
z
" transform="scale(0.015625)"/>
      <path id="DejaVuSans-73" d="M 2834 3397 
L 2834 2853 
Q 2591 2978 2328 3040 
Q 2066 3103 1784 3103 
Q 1356 3103 1142 2972 
Q 928 2841 928 2578 
Q 928 2378 1081 2264 
Q 1234 2150 1697 2047 
L 1894 2003 
Q 2506 1872 2764 1633 
Q 3022 1394 3022 966 
Q 3022 478 2636 193 
Q 2250 -91 1575 -91 
Q 1294 -91 989 -36 
Q 684 19 347 128 
L 347 722 
Q 666 556 975 473 
Q 1284 391 1588 391 
Q 1994 391 2212 530 
Q 2431 669 2431 922 
Q 2431 1156 2273 1281 
Q 2116 1406 1581 1522 
L 1381 1569 
Q 847 1681 609 1914 
Q 372 2147 372 2553 
Q 372 3047 722 3315 
Q 1072 3584 1716 3584 
Q 2034 3584 2315 3537 
Q 2597 3491 2834 3397 
z
" transform="scale(0.015625)"/>
      <path id="DejaVuSans-75" d="M 544 1381 
L 544 3500 
L 1119 3500 
L 1119 1403 
Q 1119 906 1312 657 
Q 1506 409 1894 409 
Q 2359 409 2629 706 
Q 2900 1003 2900 1516 
L 2900 3500 
L 3475 3500 
L 3475 0 
L 2900 0 
L 2900 538 
Q 2691 219 2414 64 
Q 2138 -91 1772 -91 
Q 1169 -91 856 284 
Q 544 659 544 1381 
z
M 1991 3584 
L 1991 3584 
z
" transform="scale(0.015625)"/>
      <path id="DejaVuSans-62" d="M 3116 1747 
Q 3116 2381 2855 2742 
Q 2594 3103 2138 3103 
Q 1681 3103 1420 2742 
Q 1159 2381 1159 1747 
Q 1159 1113 1420 752 
Q 1681 391 2138 391 
Q 2594 391 2855 752 
Q 3116 1113 3116 1747 
z
M 1159 2969 
Q 1341 3281 1617 3432 
Q 1894 3584 2278 3584 
Q 2916 3584 3314 3078 
Q 3713 2572 3713 1747 
Q 3713 922 3314 415 
Q 2916 -91 2278 -91 
Q 1894 -91 1617 61 
Q 1341 213 1159 525 
L 1159 0 
L 581 0 
L 581 4863 
L 1159 4863 
L 1159 2969 
z
" transform="scale(0.015625)"/>
      <path id="DejaVuSans-63" d="M 3122 3366 
L 3122 2828 
Q 2878 2963 2633 3030 
Q 2388 3097 2138 3097 
Q 1578 3097 1268 2742 
Q 959 2388 959 1747 
Q 959 1106 1268 751 
Q 1578 397 2138 397 
Q 2388 397 2633 464 
Q 2878 531 3122 666 
L 3122 134 
Q 2881 22 2623 -34 
Q 2366 -91 2075 -91 
Q 1284 -91 818 406 
Q 353 903 353 1747 
Q 353 2603 823 3093 
Q 1294 3584 2113 3584 
Q 2378 3584 2631 3529 
Q 2884 3475 3122 3366 
z
" transform="scale(0.015625)"/>
      <path id="DejaVuSans-72" d="M 2631 2963 
Q 2534 3019 2420 3045 
Q 2306 3072 2169 3072 
Q 1681 3072 1420 2755 
Q 1159 2438 1159 1844 
L 1159 0 
L 581 0 
L 581 3500 
L 1159 3500 
L 1159 2956 
Q 1341 3275 1631 3429 
Q 1922 3584 2338 3584 
Q 2397 3584 2469 3576 
Q 2541 3569 2628 3553 
L 2631 2963 
z
" transform="scale(0.015625)"/>
      <path id="DejaVuSans-69" d="M 603 3500 
L 1178 3500 
L 1178 0 
L 603 0 
L 603 3500 
z
M 603 4863 
L 1178 4863 
L 1178 4134 
L 603 4134 
L 603 4863 
z
" transform="scale(0.015625)"/>
      <path id="DejaVuSans-20" transform="scale(0.015625)"/>
      <path id="DejaVuSans-68" d="M 3513 2113 
L 3513 0 
L 2938 0 
L 2938 2094 
Q 2938 2591 2744 2837 
Q 2550 3084 2163 3084 
Q 1697 3084 1428 2787 
Q 1159 2491 1159 1978 
L 1159 0 
L 581 0 
L 581 4863 
L 1159 4863 
L 1159 2956 
Q 1366 3272 1645 3428 
Q 1925 3584 2291 3584 
Q 2894 3584 3203 3211 
Q 3513 2838 3513 2113 
z
" transform="scale(0.015625)"/>
      <path id="DejaVuSans-6f" d="M 1959 3097 
Q 1497 3097 1228 2736 
Q 959 2375 959 1747 
Q 959 1119 1226 758 
Q 1494 397 1959 397 
Q 2419 397 2687 759 
Q 2956 1122 2956 1747 
Q 2956 2369 2687 2733 
Q 2419 3097 1959 3097 
z
M 1959 3584 
Q 2709 3584 3137 3096 
Q 3566 2609 3566 1747 
Q 3566 888 3137 398 
Q 2709 -91 1959 -91 
Q 1206 -91 779 398 
Q 353 888 353 1747 
Q 353 2609 779 3096 
Q 1206 3584 1959 3584 
z
" transform="scale(0.015625)"/>
      <path id="DejaVuSans-79" d="M 2059 -325 
Q 1816 -950 1584 -1140 
Q 1353 -1331 966 -1331 
L 506 -1331 
L 506 -850 
L 844 -850 
Q 1081 -850 1212 -737 
Q 1344 -625 1503 -206 
L 1606 56 
L 191 3500 
L 800 3500 
L 1894 763 
L 2988 3500 
L 3597 3500 
L 2059 -325 
z
" transform="scale(0.015625)"/>
     </defs>
     <use xlink:href="#DejaVuSans-67"/>
     <use xlink:href="#DejaVuSans-65" x="63.476562"/>
     <use xlink:href="#DejaVuSans-74" x="125"/>
     <use xlink:href="#DejaVuSans-5f" x="164.208984"/>
     <use xlink:href="#DejaVuSans-73" x="214.208984"/>
     <use xlink:href="#DejaVuSans-75" x="266.308594"/>
     <use xlink:href="#DejaVuSans-62" x="329.6875"/>
     <use xlink:href="#DejaVuSans-73" x="393.164062"/>
     <use xlink:href="#DejaVuSans-63" x="445.263672"/>
     <use xlink:href="#DejaVuSans-72" x="500.244141"/>
     <use xlink:href="#DejaVuSans-69" x="541.357422"/>
     <use xlink:href="#DejaVuSans-62" x="569.140625"/>
     <use xlink:href="#DejaVuSans-65" x="632.617188"/>
     <use xlink:href="#DejaVuSans-20" x="694.140625"/>
     <use xlink:href="#DejaVuSans-68" x="725.927734"/>
     <use xlink:href="#DejaVuSans-69" x="789.306641"/>
     <use xlink:href="#DejaVuSans-73" x="817.089844"/>
     <use xlink:href="#DejaVuSans-74" x="869.189453"/>
     <use xlink:href="#DejaVuSans-6f" x="908.398438"/>
     <use xlink:href="#DejaVuSans-72" x="969.580078"/>
     <use xlink:href="#DejaVuSans-79" x="1010.693359"/>
    </g>
   </g>
   <g id="legend_1">
    <g id="line2d_37">
     <path d="M 815.08 328.498438 
L 825.08 328.498438 
L 835.08 328.498438 
" style="fill: none; stroke: #1f77b4; stroke-width: 1.5; stroke-linecap: square"/>
    </g>
    <g id="text_19">
     <!-- star -->
     <g style="fill: #a9a9a9" transform="translate(843.08 331.998438) scale(0.1 -0.1)">
      <defs>
       <path id="DejaVuSans-61" d="M 2194 1759 
Q 1497 1759 1228 1600 
Q 959 1441 959 1056 
Q 959 750 1161 570 
Q 1363 391 1709 391 
Q 2188 391 2477 730 
Q 2766 1069 2766 1631 
L 2766 1759 
L 2194 1759 
z
M 3341 1997 
L 3341 0 
L 2766 0 
L 2766 531 
Q 2569 213 2275 61 
Q 1981 -91 1556 -91 
Q 1019 -91 701 211 
Q 384 513 384 1019 
Q 384 1609 779 1909 
Q 1175 2209 1959 2209 
L 2766 2209 
L 2766 2266 
Q 2766 2663 2505 2880 
Q 2244 3097 1772 3097 
Q 1472 3097 1187 3025 
Q 903 2953 641 2809 
L 641 3341 
Q 956 3463 1253 3523 
Q 1550 3584 1831 3584 
Q 2591 3584 2966 3190 
Q 3341 2797 3341 1997 
z
" transform="scale(0.015625)"/>
      </defs>
      <use xlink:href="#DejaVuSans-73"/>
      <use xlink:href="#DejaVuSans-74" x="52.099609"/>
      <use xlink:href="#DejaVuSans-61" x="91.308594"/>
      <use xlink:href="#DejaVuSans-72" x="152.587891"/>
     </g>
    </g>
    <g id="line2d_38">
     <path d="M 815.08 343.176562 
L 825.08 343.176562 
L 835.08 343.176562 
" style="fill: none; stroke: #ff7f0e; stroke-width: 1.5; stroke-linecap: square"/>
    </g>
    <g id="text_20">
     <!-- fork -->
     <g style="fill: #a9a9a9" transform="translate(843.08 346.676562) scale(0.1 -0.1)">
      <defs>
       <path id="DejaVuSans-66" d="M 2375 4863 
L 2375 4384 
L 1825 4384 
Q 1516 4384 1395 4259 
Q 1275 4134 1275 3809 
L 1275 3500 
L 2222 3500 
L 2222 3053 
L 1275 3053 
L 1275 0 
L 697 0 
L 697 3053 
L 147 3053 
L 147 3500 
L 697 3500 
L 697 3744 
Q 697 4328 969 4595 
Q 1241 4863 1831 4863 
L 2375 4863 
z
" transform="scale(0.015625)"/>
       <path id="DejaVuSans-6b" d="M 581 4863 
L 1159 4863 
L 1159 1991 
L 2875 3500 
L 3609 3500 
L 1753 1863 
L 3688 0 
L 2938 0 
L 1159 1709 
L 1159 0 
L 581 0 
L 581 4863 
z
" transform="scale(0.015625)"/>
      </defs>
      <use xlink:href="#DejaVuSans-66"/>
      <use xlink:href="#DejaVuSans-6f" x="35.205078"/>
      <use xlink:href="#DejaVuSans-72" x="96.386719"/>
      <use xlink:href="#DejaVuSans-6b" x="137.5"/>
     </g>
    </g>
   </g>
  </g>
 </g>
 <defs>
  <clipPath id="pf3bcb8bf42">
   <rect x="108" y="43.2" width="669.6" height="277.2"/>
  </clipPath>
 </defs>
</svg>
