<?xml version="1.0" encoding="utf-8" standalone="no"?>
<!DOCTYPE svg PUBLIC "-//W3C//DTD SVG 1.1//EN"
  "http://www.w3.org/Graphics/SVG/1.1/DTD/svg11.dtd">
<svg xmlns:xlink="http://www.w3.org/1999/xlink" width="864pt" height="360pt" viewBox="0 0 864 360" xmlns="http://www.w3.org/2000/svg" version="1.1">
 <metadata>
  <rdf:RDF xmlns:dc="http://purl.org/dc/elements/1.1/" xmlns:cc="http://creativecommons.org/ns#" xmlns:rdf="http://www.w3.org/1999/02/22-rdf-syntax-ns#">
   <cc:Work>
    <dc:type rdf:resource="http://purl.org/dc/dcmitype/StillImage"/>
    <dc:date>2024-03-12T08:10:35.223163</dc:date>
    <dc:format>image/svg+xml</dc:format>
    <dc:creator>
     <cc:Agent>
      <dc:title>Matplotlib v3.8.3, https://matplotlib.org/</dc:title>
     </cc:Agent>
    </dc:creator>
   </cc:Work>
  </rdf:RDF>
 </metadata>
 <defs>
  <style type="text/css">*{stroke-linejoin: round; stroke-linecap: butt}</style>
 </defs>
 <g id="figure_1">
  <g id="patch_1">
   <path d="M 0 360 
L 864 360 
L 864 0 
L 0 0 
L 0 360 
z
" style="fill: none; opacity: 0"/>
  </g>
  <g id="axes_1">
   <g id="patch_2">
    <path d="M 108 320.4 
L 777.6 320.4 
L 777.6 43.2 
L 108 43.2 
L 108 320.4 
z
" style="fill: none; opacity: 0"/>
   </g>
   <g id="matplotlib.axis_1">
    <g id="xtick_1">
     <g id="line2d_1">
      <path d="M 163.114496 320.4 
L 163.114496 43.2 
" clip-path="url(#p6c95da9cfb)" style="fill: none; stroke-dasharray: 5.12,1.28,0.8,1.28; stroke-dashoffset: 0; stroke: #b0b0b0; stroke-width: 0.8"/>
     </g>
     <g id="line2d_2">
      <defs>
       <path id="mef1b4f9561" d="M 0 0 
L 0 3.5 
" style="stroke: #a9a9a9; stroke-width: 0.8"/>
      </defs>
      <g>
       <use xlink:href="#mef1b4f9561" x="163.114496" y="320.4" style="fill: #a9a9a9; stroke: #a9a9a9; stroke-width: 0.8"/>
      </g>
     </g>
     <g id="text_1">
      <!-- 2021-09 -->
      <g style="fill: #a9a9a9" transform="translate(142.22309 334.998438) scale(0.1 -0.1)">
       <defs>
        <path id="DejaVuSans-32" d="M 1228 531 
L 3431 531 
L 3431 0 
L 469 0 
L 469 531 
Q 828 903 1448 1529 
Q 2069 2156 2228 2338 
Q 2531 2678 2651 2914 
Q 2772 3150 2772 3378 
Q 2772 3750 2511 3984 
Q 2250 4219 1831 4219 
Q 1534 4219 1204 4116 
Q 875 4013 500 3803 
L 500 4441 
Q 881 4594 1212 4672 
Q 1544 4750 1819 4750 
Q 2544 4750 2975 4387 
Q 3406 4025 3406 3419 
Q 3406 3131 3298 2873 
Q 3191 2616 2906 2266 
Q 2828 2175 2409 1742 
Q 1991 1309 1228 531 
z
" transform="scale(0.015625)"/>
        <path id="DejaVuSans-30" d="M 2034 4250 
Q 1547 4250 1301 3770 
Q 1056 3291 1056 2328 
Q 1056 1369 1301 889 
Q 1547 409 2034 409 
Q 2525 409 2770 889 
Q 3016 1369 3016 2328 
Q 3016 3291 2770 3770 
Q 2525 4250 2034 4250 
z
M 2034 4750 
Q 2819 4750 3233 4129 
Q 3647 3509 3647 2328 
Q 3647 1150 3233 529 
Q 2819 -91 2034 -91 
Q 1250 -91 836 529 
Q 422 1150 422 2328 
Q 422 3509 836 4129 
Q 1250 4750 2034 4750 
z
" transform="scale(0.015625)"/>
        <path id="DejaVuSans-31" d="M 794 531 
L 1825 531 
L 1825 4091 
L 703 3866 
L 703 4441 
L 1819 4666 
L 2450 4666 
L 2450 531 
L 3481 531 
L 3481 0 
L 794 0 
L 794 531 
z
" transform="scale(0.015625)"/>
        <path id="DejaVuSans-2d" d="M 313 2009 
L 1997 2009 
L 1997 1497 
L 313 1497 
L 313 2009 
z
" transform="scale(0.015625)"/>
        <path id="DejaVuSans-39" d="M 703 97 
L 703 672 
Q 941 559 1184 500 
Q 1428 441 1663 441 
Q 2288 441 2617 861 
Q 2947 1281 2994 2138 
Q 2813 1869 2534 1725 
Q 2256 1581 1919 1581 
Q 1219 1581 811 2004 
Q 403 2428 403 3163 
Q 403 3881 828 4315 
Q 1253 4750 1959 4750 
Q 2769 4750 3195 4129 
Q 3622 3509 3622 2328 
Q 3622 1225 3098 567 
Q 2575 -91 1691 -91 
Q 1453 -91 1209 -44 
Q 966 3 703 97 
z
M 1959 2075 
Q 2384 2075 2632 2365 
Q 2881 2656 2881 3163 
Q 2881 3666 2632 3958 
Q 2384 4250 1959 4250 
Q 1534 4250 1286 3958 
Q 1038 3666 1038 3163 
Q 1038 2656 1286 2365 
Q 1534 2075 1959 2075 
z
" transform="scale(0.015625)"/>
       </defs>
       <use xlink:href="#DejaVuSans-32"/>
       <use xlink:href="#DejaVuSans-30" x="63.623047"/>
       <use xlink:href="#DejaVuSans-32" x="127.246094"/>
       <use xlink:href="#DejaVuSans-31" x="190.869141"/>
       <use xlink:href="#DejaVuSans-2d" x="254.492188"/>
       <use xlink:href="#DejaVuSans-30" x="290.576172"/>
       <use xlink:href="#DejaVuSans-39" x="354.199219"/>
      </g>
     </g>
    </g>
    <g id="xtick_2">
     <g id="line2d_3">
      <path d="M 240.312758 320.4 
L 240.312758 43.2 
" clip-path="url(#p6c95da9cfb)" style="fill: none; stroke-dasharray: 5.12,1.28,0.8,1.28; stroke-dashoffset: 0; stroke: #b0b0b0; stroke-width: 0.8"/>
     </g>
     <g id="line2d_4">
      <g>
       <use xlink:href="#mef1b4f9561" x="240.312758" y="320.4" style="fill: #a9a9a9; stroke: #a9a9a9; stroke-width: 0.8"/>
      </g>
     </g>
     <g id="text_2">
      <!-- 2022-01 -->
      <g style="fill: #a9a9a9" transform="translate(219.421351 334.998438) scale(0.1 -0.1)">
       <use xlink:href="#DejaVuSans-32"/>
       <use xlink:href="#DejaVuSans-30" x="63.623047"/>
       <use xlink:href="#DejaVuSans-32" x="127.246094"/>
       <use xlink:href="#DejaVuSans-32" x="190.869141"/>
       <use xlink:href="#DejaVuSans-2d" x="254.492188"/>
       <use xlink:href="#DejaVuSans-30" x="290.576172"/>
       <use xlink:href="#DejaVuSans-31" x="354.199219"/>
      </g>
     </g>
    </g>
    <g id="xtick_3">
     <g id="line2d_5">
      <path d="M 316.245473 320.4 
L 316.245473 43.2 
" clip-path="url(#p6c95da9cfb)" style="fill: none; stroke-dasharray: 5.12,1.28,0.8,1.28; stroke-dashoffset: 0; stroke: #b0b0b0; stroke-width: 0.8"/>
     </g>
     <g id="line2d_6">
      <g>
       <use xlink:href="#mef1b4f9561" x="316.245473" y="320.4" style="fill: #a9a9a9; stroke: #a9a9a9; stroke-width: 0.8"/>
      </g>
     </g>
     <g id="text_3">
      <!-- 2022-05 -->
      <g style="fill: #a9a9a9" transform="translate(295.354067 334.998438) scale(0.1 -0.1)">
       <defs>
        <path id="DejaVuSans-35" d="M 691 4666 
L 3169 4666 
L 3169 4134 
L 1269 4134 
L 1269 2991 
Q 1406 3038 1543 3061 
Q 1681 3084 1819 3084 
Q 2600 3084 3056 2656 
Q 3513 2228 3513 1497 
Q 3513 744 3044 326 
Q 2575 -91 1722 -91 
Q 1428 -91 1123 -41 
Q 819 9 494 109 
L 494 744 
Q 775 591 1075 516 
Q 1375 441 1709 441 
Q 2250 441 2565 725 
Q 2881 1009 2881 1497 
Q 2881 1984 2565 2268 
Q 2250 2553 1709 2553 
Q 1456 2553 1204 2497 
Q 953 2441 691 2322 
L 691 4666 
z
" transform="scale(0.015625)"/>
       </defs>
       <use xlink:href="#DejaVuSans-32"/>
       <use xlink:href="#DejaVuSans-30" x="63.623047"/>
       <use xlink:href="#DejaVuSans-32" x="127.246094"/>
       <use xlink:href="#DejaVuSans-32" x="190.869141"/>
       <use xlink:href="#DejaVuSans-2d" x="254.492188"/>
       <use xlink:href="#DejaVuSans-30" x="290.576172"/>
       <use xlink:href="#DejaVuSans-35" x="354.199219"/>
      </g>
     </g>
    </g>
    <g id="xtick_4">
     <g id="line2d_7">
      <path d="M 394.076507 320.4 
L 394.076507 43.2 
" clip-path="url(#p6c95da9cfb)" style="fill: none; stroke-dasharray: 5.12,1.28,0.8,1.28; stroke-dashoffset: 0; stroke: #b0b0b0; stroke-width: 0.8"/>
     </g>
     <g id="line2d_8">
      <g>
       <use xlink:href="#mef1b4f9561" x="394.076507" y="320.4" style="fill: #a9a9a9; stroke: #a9a9a9; stroke-width: 0.8"/>
      </g>
     </g>
     <g id="text_4">
      <!-- 2022-09 -->
      <g style="fill: #a9a9a9" transform="translate(373.185101 334.998438) scale(0.1 -0.1)">
       <use xlink:href="#DejaVuSans-32"/>
       <use xlink:href="#DejaVuSans-30" x="63.623047"/>
       <use xlink:href="#DejaVuSans-32" x="127.246094"/>
       <use xlink:href="#DejaVuSans-32" x="190.869141"/>
       <use xlink:href="#DejaVuSans-2d" x="254.492188"/>
       <use xlink:href="#DejaVuSans-30" x="290.576172"/>
       <use xlink:href="#DejaVuSans-39" x="354.199219"/>
      </g>
     </g>
    </g>
    <g id="xtick_5">
     <g id="line2d_9">
      <path d="M 471.274768 320.4 
L 471.274768 43.2 
" clip-path="url(#p6c95da9cfb)" style="fill: none; stroke-dasharray: 5.12,1.28,0.8,1.28; stroke-dashoffset: 0; stroke: #b0b0b0; stroke-width: 0.8"/>
     </g>
     <g id="line2d_10">
      <g>
       <use xlink:href="#mef1b4f9561" x="471.274768" y="320.4" style="fill: #a9a9a9; stroke: #a9a9a9; stroke-width: 0.8"/>
      </g>
     </g>
     <g id="text_5">
      <!-- 2023-01 -->
      <g style="fill: #a9a9a9" transform="translate(450.383362 334.998438) scale(0.1 -0.1)">
       <defs>
        <path id="DejaVuSans-33" d="M 2597 2516 
Q 3050 2419 3304 2112 
Q 3559 1806 3559 1356 
Q 3559 666 3084 287 
Q 2609 -91 1734 -91 
Q 1441 -91 1130 -33 
Q 819 25 488 141 
L 488 750 
Q 750 597 1062 519 
Q 1375 441 1716 441 
Q 2309 441 2620 675 
Q 2931 909 2931 1356 
Q 2931 1769 2642 2001 
Q 2353 2234 1838 2234 
L 1294 2234 
L 1294 2753 
L 1863 2753 
Q 2328 2753 2575 2939 
Q 2822 3125 2822 3475 
Q 2822 3834 2567 4026 
Q 2313 4219 1838 4219 
Q 1578 4219 1281 4162 
Q 984 4106 628 3988 
L 628 4550 
Q 988 4650 1302 4700 
Q 1616 4750 1894 4750 
Q 2613 4750 3031 4423 
Q 3450 4097 3450 3541 
Q 3450 3153 3228 2886 
Q 3006 2619 2597 2516 
z
" transform="scale(0.015625)"/>
       </defs>
       <use xlink:href="#DejaVuSans-32"/>
       <use xlink:href="#DejaVuSans-30" x="63.623047"/>
       <use xlink:href="#DejaVuSans-32" x="127.246094"/>
       <use xlink:href="#DejaVuSans-33" x="190.869141"/>
       <use xlink:href="#DejaVuSans-2d" x="254.492188"/>
       <use xlink:href="#DejaVuSans-30" x="290.576172"/>
       <use xlink:href="#DejaVuSans-31" x="354.199219"/>
      </g>
     </g>
    </g>
    <g id="xtick_6">
     <g id="line2d_11">
      <path d="M 547.207484 320.4 
L 547.207484 43.2 
" clip-path="url(#p6c95da9cfb)" style="fill: none; stroke-dasharray: 5.12,1.28,0.8,1.28; stroke-dashoffset: 0; stroke: #b0b0b0; stroke-width: 0.8"/>
     </g>
     <g id="line2d_12">
      <g>
       <use xlink:href="#mef1b4f9561" x="547.207484" y="320.4" style="fill: #a9a9a9; stroke: #a9a9a9; stroke-width: 0.8"/>
      </g>
     </g>
     <g id="text_6">
      <!-- 2023-05 -->
      <g style="fill: #a9a9a9" transform="translate(526.316078 334.998438) scale(0.1 -0.1)">
       <use xlink:href="#DejaVuSans-32"/>
       <use xlink:href="#DejaVuSans-30" x="63.623047"/>
       <use xlink:href="#DejaVuSans-32" x="127.246094"/>
       <use xlink:href="#DejaVuSans-33" x="190.869141"/>
       <use xlink:href="#DejaVuSans-2d" x="254.492188"/>
       <use xlink:href="#DejaVuSans-30" x="290.576172"/>
       <use xlink:href="#DejaVuSans-35" x="354.199219"/>
      </g>
     </g>
    </g>
    <g id="xtick_7">
     <g id="line2d_13">
      <path d="M 625.038518 320.4 
L 625.038518 43.2 
" clip-path="url(#p6c95da9cfb)" style="fill: none; stroke-dasharray: 5.12,1.28,0.8,1.28; stroke-dashoffset: 0; stroke: #b0b0b0; stroke-width: 0.8"/>
     </g>
     <g id="line2d_14">
      <g>
       <use xlink:href="#mef1b4f9561" x="625.038518" y="320.4" style="fill: #a9a9a9; stroke: #a9a9a9; stroke-width: 0.8"/>
      </g>
     </g>
     <g id="text_7">
      <!-- 2023-09 -->
      <g style="fill: #a9a9a9" transform="translate(604.147112 334.998438) scale(0.1 -0.1)">
       <use xlink:href="#DejaVuSans-32"/>
       <use xlink:href="#DejaVuSans-30" x="63.623047"/>
       <use xlink:href="#DejaVuSans-32" x="127.246094"/>
       <use xlink:href="#DejaVuSans-33" x="190.869141"/>
       <use xlink:href="#DejaVuSans-2d" x="254.492188"/>
       <use xlink:href="#DejaVuSans-30" x="290.576172"/>
       <use xlink:href="#DejaVuSans-39" x="354.199219"/>
      </g>
     </g>
    </g>
    <g id="xtick_8">
     <g id="line2d_15">
      <path d="M 702.236779 320.4 
L 702.236779 43.2 
" clip-path="url(#p6c95da9cfb)" style="fill: none; stroke-dasharray: 5.12,1.28,0.8,1.28; stroke-dashoffset: 0; stroke: #b0b0b0; stroke-width: 0.8"/>
     </g>
     <g id="line2d_16">
      <g>
       <use xlink:href="#mef1b4f9561" x="702.236779" y="320.4" style="fill: #a9a9a9; stroke: #a9a9a9; stroke-width: 0.8"/>
      </g>
     </g>
     <g id="text_8">
      <!-- 2024-01 -->
      <g style="fill: #a9a9a9" transform="translate(681.345373 334.998438) scale(0.1 -0.1)">
       <defs>
        <path id="DejaVuSans-34" d="M 2419 4116 
L 825 1625 
L 2419 1625 
L 2419 4116 
z
M 2253 4666 
L 3047 4666 
L 3047 1625 
L 3713 1625 
L 3713 1100 
L 3047 1100 
L 3047 0 
L 2419 0 
L 2419 1100 
L 313 1100 
L 313 1709 
L 2253 4666 
z
" transform="scale(0.015625)"/>
       </defs>
       <use xlink:href="#DejaVuSans-32"/>
       <use xlink:href="#DejaVuSans-30" x="63.623047"/>
       <use xlink:href="#DejaVuSans-32" x="127.246094"/>
       <use xlink:href="#DejaVuSans-34" x="190.869141"/>
       <use xlink:href="#DejaVuSans-2d" x="254.492188"/>
       <use xlink:href="#DejaVuSans-30" x="290.576172"/>
       <use xlink:href="#DejaVuSans-31" x="354.199219"/>
      </g>
     </g>
    </g>
   </g>
   <g id="matplotlib.axis_2">
    <g id="ytick_1">
     <g id="line2d_17">
      <path d="M 108 307.843803 
L 777.6 307.843803 
" clip-path="url(#p6c95da9cfb)" style="fill: none; stroke-dasharray: 5.12,1.28,0.8,1.28; stroke-dashoffset: 0; stroke: #b0b0b0; stroke-width: 0.8"/>
     </g>
     <g id="line2d_18">
      <defs>
       <path id="m3e922f8859" d="M 0 0 
L -3.5 0 
" style="stroke: #a9a9a9; stroke-width: 0.8"/>
      </defs>
      <g>
       <use xlink:href="#m3e922f8859" x="108" y="307.843803" style="fill: #a9a9a9; stroke: #a9a9a9; stroke-width: 0.8"/>
      </g>
     </g>
     <g id="text_9">
      <!-- 0 -->
      <g style="fill: #a9a9a9" transform="translate(94.6375 311.643022) scale(0.1 -0.1)">
       <use xlink:href="#DejaVuSans-30"/>
      </g>
     </g>
    </g>
    <g id="ytick_2">
     <g id="line2d_19">
      <path d="M 108 272.801217 
L 777.6 272.801217 
" clip-path="url(#p6c95da9cfb)" style="fill: none; stroke-dasharray: 5.12,1.28,0.8,1.28; stroke-dashoffset: 0; stroke: #b0b0b0; stroke-width: 0.8"/>
     </g>
     <g id="line2d_20">
      <g>
       <use xlink:href="#m3e922f8859" x="108" y="272.801217" style="fill: #a9a9a9; stroke: #a9a9a9; stroke-width: 0.8"/>
      </g>
     </g>
     <g id="text_10">
      <!-- 800 -->
      <g style="fill: #a9a9a9" transform="translate(81.9125 276.600436) scale(0.1 -0.1)">
       <defs>
        <path id="DejaVuSans-38" d="M 2034 2216 
Q 1584 2216 1326 1975 
Q 1069 1734 1069 1313 
Q 1069 891 1326 650 
Q 1584 409 2034 409 
Q 2484 409 2743 651 
Q 3003 894 3003 1313 
Q 3003 1734 2745 1975 
Q 2488 2216 2034 2216 
z
M 1403 2484 
Q 997 2584 770 2862 
Q 544 3141 544 3541 
Q 544 4100 942 4425 
Q 1341 4750 2034 4750 
Q 2731 4750 3128 4425 
Q 3525 4100 3525 3541 
Q 3525 3141 3298 2862 
Q 3072 2584 2669 2484 
Q 3125 2378 3379 2068 
Q 3634 1759 3634 1313 
Q 3634 634 3220 271 
Q 2806 -91 2034 -91 
Q 1263 -91 848 271 
Q 434 634 434 1313 
Q 434 1759 690 2068 
Q 947 2378 1403 2484 
z
M 1172 3481 
Q 1172 3119 1398 2916 
Q 1625 2713 2034 2713 
Q 2441 2713 2670 2916 
Q 2900 3119 2900 3481 
Q 2900 3844 2670 4047 
Q 2441 4250 2034 4250 
Q 1625 4250 1398 4047 
Q 1172 3844 1172 3481 
z
" transform="scale(0.015625)"/>
       </defs>
       <use xlink:href="#DejaVuSans-38"/>
       <use xlink:href="#DejaVuSans-30" x="63.623047"/>
       <use xlink:href="#DejaVuSans-30" x="127.246094"/>
      </g>
     </g>
    </g>
    <g id="ytick_3">
     <g id="line2d_21">
      <path d="M 108 237.75863 
L 777.6 237.75863 
" clip-path="url(#p6c95da9cfb)" style="fill: none; stroke-dasharray: 5.12,1.28,0.8,1.28; stroke-dashoffset: 0; stroke: #b0b0b0; stroke-width: 0.8"/>
     </g>
     <g id="line2d_22">
      <g>
       <use xlink:href="#m3e922f8859" x="108" y="237.75863" style="fill: #a9a9a9; stroke: #a9a9a9; stroke-width: 0.8"/>
      </g>
     </g>
     <g id="text_11">
      <!-- 1600 -->
      <g style="fill: #a9a9a9" transform="translate(75.55 241.557849) scale(0.1 -0.1)">
       <defs>
        <path id="DejaVuSans-36" d="M 2113 2584 
Q 1688 2584 1439 2293 
Q 1191 2003 1191 1497 
Q 1191 994 1439 701 
Q 1688 409 2113 409 
Q 2538 409 2786 701 
Q 3034 994 3034 1497 
Q 3034 2003 2786 2293 
Q 2538 2584 2113 2584 
z
M 3366 4563 
L 3366 3988 
Q 3128 4100 2886 4159 
Q 2644 4219 2406 4219 
Q 1781 4219 1451 3797 
Q 1122 3375 1075 2522 
Q 1259 2794 1537 2939 
Q 1816 3084 2150 3084 
Q 2853 3084 3261 2657 
Q 3669 2231 3669 1497 
Q 3669 778 3244 343 
Q 2819 -91 2113 -91 
Q 1303 -91 875 529 
Q 447 1150 447 2328 
Q 447 3434 972 4092 
Q 1497 4750 2381 4750 
Q 2619 4750 2861 4703 
Q 3103 4656 3366 4563 
z
" transform="scale(0.015625)"/>
       </defs>
       <use xlink:href="#DejaVuSans-31"/>
       <use xlink:href="#DejaVuSans-36" x="63.623047"/>
       <use xlink:href="#DejaVuSans-30" x="127.246094"/>
       <use xlink:href="#DejaVuSans-30" x="190.869141"/>
      </g>
     </g>
    </g>
    <g id="ytick_4">
     <g id="line2d_23">
      <path d="M 108 202.716044 
L 777.6 202.716044 
" clip-path="url(#p6c95da9cfb)" style="fill: none; stroke-dasharray: 5.12,1.28,0.8,1.28; stroke-dashoffset: 0; stroke: #b0b0b0; stroke-width: 0.8"/>
     </g>
     <g id="line2d_24">
      <g>
       <use xlink:href="#m3e922f8859" x="108" y="202.716044" style="fill: #a9a9a9; stroke: #a9a9a9; stroke-width: 0.8"/>
      </g>
     </g>
     <g id="text_12">
      <!-- 2400 -->
      <g style="fill: #a9a9a9" transform="translate(75.55 206.515263) scale(0.1 -0.1)">
       <use xlink:href="#DejaVuSans-32"/>
       <use xlink:href="#DejaVuSans-34" x="63.623047"/>
       <use xlink:href="#DejaVuSans-30" x="127.246094"/>
       <use xlink:href="#DejaVuSans-30" x="190.869141"/>
      </g>
     </g>
    </g>
    <g id="ytick_5">
     <g id="line2d_25">
      <path d="M 108 167.673457 
L 777.6 167.673457 
" clip-path="url(#p6c95da9cfb)" style="fill: none; stroke-dasharray: 5.12,1.28,0.8,1.28; stroke-dashoffset: 0; stroke: #b0b0b0; stroke-width: 0.8"/>
     </g>
     <g id="line2d_26">
      <g>
       <use xlink:href="#m3e922f8859" x="108" y="167.673457" style="fill: #a9a9a9; stroke: #a9a9a9; stroke-width: 0.8"/>
      </g>
     </g>
     <g id="text_13">
      <!-- 3200 -->
      <g style="fill: #a9a9a9" transform="translate(75.55 171.472676) scale(0.1 -0.1)">
       <use xlink:href="#DejaVuSans-33"/>
       <use xlink:href="#DejaVuSans-32" x="63.623047"/>
       <use xlink:href="#DejaVuSans-30" x="127.246094"/>
       <use xlink:href="#DejaVuSans-30" x="190.869141"/>
      </g>
     </g>
    </g>
    <g id="ytick_6">
     <g id="line2d_27">
      <path d="M 108 132.630871 
L 777.6 132.630871 
" clip-path="url(#p6c95da9cfb)" style="fill: none; stroke-dasharray: 5.12,1.28,0.8,1.28; stroke-dashoffset: 0; stroke: #b0b0b0; stroke-width: 0.8"/>
     </g>
     <g id="line2d_28">
      <g>
       <use xlink:href="#m3e922f8859" x="108" y="132.630871" style="fill: #a9a9a9; stroke: #a9a9a9; stroke-width: 0.8"/>
      </g>
     </g>
     <g id="text_14">
      <!-- 4000 -->
      <g style="fill: #a9a9a9" transform="translate(75.55 136.43009) scale(0.1 -0.1)">
       <use xlink:href="#DejaVuSans-34"/>
       <use xlink:href="#DejaVuSans-30" x="63.623047"/>
       <use xlink:href="#DejaVuSans-30" x="127.246094"/>
       <use xlink:href="#DejaVuSans-30" x="190.869141"/>
      </g>
     </g>
    </g>
    <g id="ytick_7">
     <g id="line2d_29">
      <path d="M 108 97.588284 
L 777.6 97.588284 
" clip-path="url(#p6c95da9cfb)" style="fill: none; stroke-dasharray: 5.12,1.28,0.8,1.28; stroke-dashoffset: 0; stroke: #b0b0b0; stroke-width: 0.8"/>
     </g>
     <g id="line2d_30">
      <g>
       <use xlink:href="#m3e922f8859" x="108" y="97.588284" style="fill: #a9a9a9; stroke: #a9a9a9; stroke-width: 0.8"/>
      </g>
     </g>
     <g id="text_15">
      <!-- 4800 -->
      <g style="fill: #a9a9a9" transform="translate(75.55 101.387503) scale(0.1 -0.1)">
       <use xlink:href="#DejaVuSans-34"/>
       <use xlink:href="#DejaVuSans-38" x="63.623047"/>
       <use xlink:href="#DejaVuSans-30" x="127.246094"/>
       <use xlink:href="#DejaVuSans-30" x="190.869141"/>
      </g>
     </g>
    </g>
    <g id="ytick_8">
     <g id="line2d_31">
      <path d="M 108 62.545698 
L 777.6 62.545698 
" clip-path="url(#p6c95da9cfb)" style="fill: none; stroke-dasharray: 5.12,1.28,0.8,1.28; stroke-dashoffset: 0; stroke: #b0b0b0; stroke-width: 0.8"/>
     </g>
     <g id="line2d_32">
      <g>
       <use xlink:href="#m3e922f8859" x="108" y="62.545698" style="fill: #a9a9a9; stroke: #a9a9a9; stroke-width: 0.8"/>
      </g>
     </g>
     <g id="text_16">
      <!-- 5600 -->
      <g style="fill: #a9a9a9" transform="translate(75.55 66.344917) scale(0.1 -0.1)">
       <use xlink:href="#DejaVuSans-35"/>
       <use xlink:href="#DejaVuSans-36" x="63.623047"/>
       <use xlink:href="#DejaVuSans-30" x="127.246094"/>
       <use xlink:href="#DejaVuSans-30" x="190.869141"/>
      </g>
     </g>
    </g>
   </g>
   <g id="line2d_33">
    <path d="M 138.436364 307.712394 
L 142.232999 307.405771 
L 142.865772 307.142952 
L 144.76409 306.923935 
L 148.560726 306.17928 
L 152.357362 305.872658 
L 152.990134 305.566035 
L 153.622907 305.390822 
L 154.255679 304.602364 
L 154.888452 304.164332 
L 155.521225 302.806431 
L 156.153997 302.718825 
L 156.78677 302.236989 
L 158.052315 301.623744 
L 160.583406 299.696402 
L 161.848951 299.170763 
L 162.481724 298.732731 
L 165.012814 297.63765 
L 165.645587 296.630176 
L 166.911132 295.710308 
L 167.543905 295.403685 
L 173.871631 294.52762 
L 174.504404 294.220998 
L 178.933812 293.870572 
L 180.83213 293.388736 
L 186.527084 292.644081 
L 187.159856 292.293655 
L 187.792629 292.206049 
L 188.425402 291.94323 
L 189.690947 291.724213 
L 190.32372 291.68041 
L 190.956492 291.461394 
L 193.487583 291.067165 
L 194.753128 290.716739 
L 196.651446 290.541526 
L 197.916991 290.410116 
L 198.549764 290.234904 
L 199.182536 290.1911 
L 201.080854 289.621658 
L 204.87749 289.052216 
L 205.510263 288.877003 
L 206.143035 288.000939 
L 208.041353 287.300087 
L 209.939671 286.774448 
L 210.572444 286.467825 
L 211.205216 286.424022 
L 214.36908 285.547958 
L 215.634625 285.460351 
L 216.267397 285.372745 
L 218.165715 284.803303 
L 220.696806 284.190057 
L 221.329579 283.927238 
L 221.962351 283.839631 
L 222.595124 283.533009 
L 228.92285 282.569338 
L 232.086713 281.693273 
L 232.719486 281.299044 
L 235.250576 280.641995 
L 236.516122 279.897341 
L 237.148894 279.459308 
L 239.047212 279.108882 
L 242.843848 277.969998 
L 244.109393 277.575769 
L 244.742166 277.488163 
L 246.007711 277.137737 
L 247.273256 276.831114 
L 247.906029 276.743508 
L 249.171574 276.217869 
L 249.804347 276.086459 
L 250.43712 275.82364 
L 251.069892 275.736033 
L 251.702665 275.429411 
L 252.335438 275.254198 
L 253.600983 275.166591 
L 254.866528 274.728559 
L 256.132073 274.640953 
L 256.764846 274.33433 
L 259.295936 273.896298 
L 261.827027 273.677281 
L 262.4598 273.545872 
L 263.725345 272.932626 
L 270.685844 269.99781 
L 271.318617 269.647384 
L 271.951389 268.946532 
L 272.584162 267.895255 
L 273.216934 267.062993 
L 273.849707 266.88778 
L 274.48248 266.88778 
L 275.748025 265.967912 
L 276.380798 265.792699 
L 277.01357 265.442274 
L 277.646343 265.310864 
L 278.279115 264.741422 
L 278.911888 264.566209 
L 280.810206 263.646341 
L 282.075751 261.894212 
L 282.708524 261.499983 
L 283.341297 260.448705 
L 283.974069 259.791657 
L 284.606842 259.485034 
L 285.239614 259.309821 
L 287.770705 257.820511 
L 289.03625 256.813037 
L 289.669023 256.418808 
L 290.301796 255.49894 
L 290.934568 254.053433 
L 291.567341 253.133565 
L 292.200113 252.65173 
L 292.832886 252.38891 
L 295.363977 250.198748 
L 296.629522 249.191274 
L 297.262294 248.665635 
L 297.895067 247.833374 
L 299.160612 246.738293 
L 301.691703 245.117573 
L 302.324476 244.548131 
L 302.957248 244.416722 
L 303.590021 244.153902 
L 304.855566 243.453051 
L 306.753884 242.489379 
L 308.019429 241.306692 
L 308.652202 240.562037 
L 309.917747 239.685973 
L 310.55052 239.51076 
L 311.183292 239.204137 
L 312.448838 238.371876 
L 313.08161 238.02145 
L 313.714383 237.933843 
L 314.979928 237.232991 
L 315.612701 236.882566 
L 316.245473 236.225517 
L 316.878246 235.831288 
L 317.511019 235.612272 
L 318.776564 234.867617 
L 319.409337 234.517191 
L 320.042109 234.298175 
L 321.940427 233.071684 
L 323.838745 232.502242 
L 324.471518 232.06421 
L 325.10429 231.9328 
L 326.369836 231.494768 
L 328.268153 230.750113 
L 330.166471 230.049261 
L 331.432017 229.830245 
L 332.697562 228.735164 
L 333.963107 228.121919 
L 335.228652 227.421067 
L 335.861425 227.070641 
L 337.12697 226.720216 
L 337.759743 226.325986 
L 338.392516 226.150774 
L 340.290833 224.968086 
L 343.454697 224.223431 
L 345.353015 223.12835 
L 345.985787 223.040744 
L 346.61856 222.821728 
L 347.884105 222.558908 
L 349.782423 221.157205 
L 351.680741 220.719173 
L 352.313514 220.500156 
L 352.946286 220.018321 
L 356.742922 218.79183 
L 357.375695 218.748027 
L 361.805103 217.171111 
L 362.437876 216.864488 
L 364.336194 216.426456 
L 365.601739 216.119833 
L 366.234511 215.81321 
L 366.867284 215.681801 
L 368.765602 214.805736 
L 370.66392 213.885868 
L 371.296692 213.447836 
L 371.929465 213.272623 
L 373.827783 212.265149 
L 375.093328 211.958526 
L 376.358874 211.301477 
L 377.624419 210.951052 
L 378.257191 210.863445 
L 379.522737 210.11879 
L 380.155509 209.98738 
L 381.421055 209.461742 
L 382.053827 209.330332 
L 382.6866 208.979906 
L 385.21769 208.585677 
L 386.483236 207.972432 
L 387.116008 207.446793 
L 387.748781 206.351712 
L 389.014326 206.088893 
L 389.647099 205.957483 
L 392.178189 204.643386 
L 392.810962 204.511976 
L 397.873143 202.102799 
L 399.771461 201.708569 
L 400.404234 201.358144 
L 404.200869 200.044047 
L 405.466415 199.255588 
L 406.73196 198.510933 
L 407.364733 198.423327 
L 407.997505 198.204311 
L 408.630278 198.160508 
L 411.794141 197.328246 
L 412.426914 196.846411 
L 413.692459 196.408378 
L 415.590777 195.795133 
L 416.223549 195.400904 
L 416.856322 195.225691 
L 417.489095 194.787659 
L 418.121867 194.524839 
L 418.75464 194.13061 
L 420.020185 193.692578 
L 421.918503 193.079333 
L 422.551276 192.77271 
L 424.449594 191.327203 
L 425.082366 191.195793 
L 426.347912 190.232122 
L 426.980684 190.100713 
L 427.613457 189.137042 
L 428.246229 188.874222 
L 428.879002 188.392387 
L 429.511775 188.30478 
L 430.77732 187.560125 
L 431.410093 187.428715 
L 432.042865 187.165896 
L 432.675638 186.68406 
L 433.308411 186.465044 
L 435.206728 185.194751 
L 437.737819 183.924457 
L 438.370592 183.83685 
L 439.636137 183.267408 
L 440.268909 182.916982 
L 440.901682 181.865705 
L 441.534455 181.296263 
L 442.167227 180.945837 
L 442.8 180.814427 
L 444.065545 180.025969 
L 444.698318 179.894559 
L 445.963863 179.281314 
L 447.862181 178.492856 
L 449.127726 177.616791 
L 450.393272 176.302694 
L 453.557135 174.024926 
L 454.82268 172.973649 
L 455.455453 172.710829 
L 456.088225 172.009977 
L 456.720998 171.528142 
L 457.986543 171.09011 
L 458.619316 170.564471 
L 459.884861 169.907422 
L 460.517634 169.732209 
L 461.150406 169.294177 
L 461.783179 169.162767 
L 463.681497 168.155293 
L 464.947042 167.410638 
L 471.274768 165.176673 
L 471.907541 164.607231 
L 473.805859 163.906379 
L 475.071404 163.51215 
L 475.704177 163.030315 
L 478.235267 161.716218 
L 478.86804 161.365792 
L 480.133585 158.869007 
L 481.399131 157.379698 
L 482.664676 156.635043 
L 484.562994 155.890388 
L 485.195766 155.802781 
L 485.828539 155.452355 
L 487.726857 154.882913 
L 490.257947 153.744029 
L 490.89072 153.3498 
L 492.156265 152.911768 
L 495.952901 150.721606 
L 496.585674 150.064558 
L 497.218446 149.670329 
L 499.116764 148.838067 
L 499.749537 148.400035 
L 501.015082 147.78679 
L 502.9134 146.779315 
L 503.546173 146.604102 
L 504.178945 146.122267 
L 504.811718 145.859447 
L 505.444491 145.728038 
L 506.710036 145.290005 
L 508.608354 144.589153 
L 509.241126 144.151121 
L 510.506672 143.800695 
L 511.772217 143.31886 
L 512.40499 142.837024 
L 513.670535 142.442795 
L 514.303308 142.136172 
L 514.93608 141.960959 
L 516.201625 141.084895 
L 517.467171 140.515453 
L 518.732716 139.551782 
L 519.998261 139.113749 
L 520.631034 138.588111 
L 521.263806 138.500504 
L 522.529352 137.580636 
L 523.794897 136.967391 
L 524.42767 136.704572 
L 525.060442 136.091326 
L 528.857078 134.733426 
L 530.755396 133.901165 
L 532.653714 133.331723 
L 533.919259 133.15651 
L 534.552032 132.89369 
L 535.184804 132.806084 
L 536.45035 132.280445 
L 537.083122 132.236642 
L 539.614213 131.316774 
L 541.512531 130.002677 
L 542.145303 129.739857 
L 542.778076 129.345628 
L 544.676394 128.513367 
L 546.574712 127.374483 
L 547.207484 126.980254 
L 548.47303 126.673631 
L 549.738575 125.797566 
L 552.269665 125.009108 
L 552.902438 124.746289 
L 554.167983 124.439666 
L 557.331847 123.432192 
L 559.230164 123.081766 
L 561.761255 122.293308 
L 562.394028 122.030488 
L 563.0268 121.942882 
L 563.659573 121.636259 
L 564.925118 121.37344 
L 565.557891 121.066817 
L 567.456209 120.628785 
L 568.721754 120.365966 
L 572.51839 119.665114 
L 573.783935 119.402294 
L 574.416708 119.270885 
L 575.04948 119.008065 
L 575.682253 118.964262 
L 577.580571 118.438623 
L 578.213343 118.088197 
L 581.377207 117.299739 
L 582.009979 117.16833 
L 583.275524 116.730297 
L 585.173842 116.073249 
L 585.806615 115.985642 
L 587.704933 115.328594 
L 588.337706 115.328594 
L 589.603251 114.890561 
L 590.236023 114.277316 
L 590.868796 113.970694 
L 592.134341 113.576464 
L 594.665432 112.612793 
L 595.298204 112.481384 
L 595.930977 112.087155 
L 596.56375 111.955745 
L 597.196522 111.561516 
L 600.360386 110.641648 
L 600.993158 110.247419 
L 601.625931 110.072206 
L 602.258703 109.546567 
L 604.157021 109.196141 
L 605.422567 108.495289 
L 606.055339 107.794438 
L 607.320885 107.531618 
L 611.750293 106.524144 
L 612.383066 106.348931 
L 613.648611 106.305128 
L 614.281383 105.998505 
L 616.812474 105.560473 
L 617.445247 105.25385 
L 619.343565 104.991031 
L 621.874655 104.202573 
L 623.772973 103.76454 
L 625.671291 103.282705 
L 628.202381 102.494246 
L 628.835154 102.362837 
L 629.467927 102.056214 
L 630.100699 101.968608 
L 630.733472 101.749592 
L 631.366245 101.399166 
L 633.264562 100.742117 
L 633.897335 100.260282 
L 635.16288 99.909856 
L 635.795653 99.647036 
L 637.061198 99.29661 
L 639.592289 98.157726 
L 641.490607 98.026317 
L 644.021697 97.237859 
L 644.65447 96.843629 
L 645.920015 96.4494 
L 647.818333 95.485729 
L 648.451106 95.354319 
L 649.083878 95.047697 
L 649.716651 94.96009 
L 656.67715 92.638519 
L 659.20824 92.025274 
L 659.841013 91.850061 
L 661.106558 91.280619 
L 661.739331 91.193012 
L 663.004876 90.842586 
L 663.637649 90.360751 
L 664.270421 90.054128 
L 664.903194 89.309473 
L 665.535967 88.871441 
L 666.801512 88.477212 
L 667.434285 87.951573 
L 674.394784 85.104363 
L 675.660329 84.79774 
L 676.925874 84.228298 
L 678.824192 83.133217 
L 679.456965 83.001808 
L 680.089737 82.519972 
L 681.355283 81.906727 
L 682.620828 81.118269 
L 684.519146 80.242204 
L 685.151918 79.804172 
L 686.417464 79.322336 
L 687.683009 78.577681 
L 688.315782 78.271059 
L 688.948554 77.833026 
L 690.214099 77.394994 
L 690.846872 77.263584 
L 693.377963 76.1247 
L 696.541826 75.029619 
L 697.174598 74.985816 
L 697.807371 74.810603 
L 698.440144 74.416374 
L 699.072916 74.328768 
L 699.705689 74.109751 
L 701.604007 73.759326 
L 704.76787 72.138606 
L 706.033415 71.437754 
L 706.666188 71.350148 
L 708.564506 70.342673 
L 710.462824 69.641822 
L 712.361142 68.80956 
L 714.892232 67.802086 
L 715.525005 67.626873 
L 716.157777 67.232644 
L 717.423323 67.057431 
L 718.056095 66.663202 
L 718.688868 66.619399 
L 719.954413 66.225169 
L 721.219958 65.611924 
L 721.852731 65.524318 
L 722.485504 65.261498 
L 723.118276 65.130089 
L 725.016594 64.297827 
L 725.649367 64.166418 
L 726.282139 63.903598 
L 729.446003 63.158943 
L 731.344321 62.414288 
L 733.242638 61.275404 
L 734.508184 60.749765 
L 735.140956 60.486946 
L 735.773729 60.092717 
L 737.039274 59.829897 
L 737.672047 59.479472 
L 738.30482 59.348062 
L 739.570365 58.64721 
L 743.367001 56.895081 
L 746.530864 55.8 
L 747.163636 55.8 
L 747.163636 55.8 
" clip-path="url(#p6c95da9cfb)" style="fill: none; stroke: #1f77b4; stroke-width: 1.5; stroke-linecap: square"/>
   </g>
   <g id="line2d_34">
    <path d="M 139.069136 307.8 
L 140.967454 307.712394 
L 142.865772 307.66859 
L 146.662408 307.580984 
L 149.826271 307.449574 
L 152.357362 307.449574 
L 152.990134 307.274361 
L 155.521225 307.186755 
L 157.419543 306.967739 
L 159.317861 306.792526 
L 163.114496 306.617313 
L 163.747269 306.617313 
L 164.380042 306.485903 
L 166.911132 306.398297 
L 168.176677 306.31069 
L 173.238858 306.223084 
L 176.402722 306.091674 
L 183.995993 306.004067 
L 187.159856 305.872658 
L 190.956492 305.785051 
L 193.487583 305.697445 
L 199.182536 305.609838 
L 201.080854 305.566035 
L 202.979172 305.522232 
L 204.87749 305.303216 
L 208.674126 305.259412 
L 209.939671 305.171806 
L 214.36908 305.0842 
L 221.329579 304.68997 
L 225.758987 304.602364 
L 227.024532 304.514758 
L 228.92285 304.427151 
L 232.719486 304.251938 
L 235.250576 304.208135 
L 237.148894 304.032922 
L 247.273256 303.419677 
L 249.804347 303.33207 
L 254.233755 303.113054 
L 256.132073 303.025448 
L 262.4598 302.675022 
L 269.420299 302.587415 
L 271.951389 302.324596 
L 273.216934 302.236989 
L 281.442979 301.579941 
L 285.239614 301.098105 
L 287.770705 301.010499 
L 292.832886 300.35345 
L 295.996749 300.265844 
L 304.222793 299.608795 
L 307.386657 299.25837 
L 309.917747 299.170763 
L 311.183292 299.083157 
L 313.714383 298.99555 
L 314.979928 298.907944 
L 318.143791 298.601321 
L 318.776564 298.426108 
L 322.5732 298.250895 
L 325.737063 298.163289 
L 333.963107 297.681453 
L 335.861425 297.593847 
L 344.087469 297.112011 
L 348.516878 297.024405 
L 349.14965 296.892995 
L 354.211831 296.805388 
L 358.64124 296.586372 
L 365.601739 296.498766 
L 370.031147 296.27975 
L 375.093328 296.192143 
L 380.155509 295.929324 
L 384.584918 295.841717 
L 396.607598 295.097062 
L 401.669779 295.009456 
L 418.121867 293.958178 
L 421.918503 293.870572 
L 423.816821 293.826769 
L 425.715139 293.782965 
L 427.613457 293.607752 
L 432.675638 293.520146 
L 433.941183 293.30113 
L 435.206728 293.213523 
L 438.370592 293.082114 
L 439.636137 292.994507 
L 440.901682 292.906901 
L 446.596636 292.819294 
L 447.862181 292.687885 
L 450.393272 292.644081 
L 451.026044 292.512672 
L 452.291589 292.425065 
L 452.924362 292.293655 
L 454.82268 292.206049 
L 465.579815 291.549001 
L 467.478133 291.461394 
L 470.641996 291.329984 
L 479.500813 291.242378 
L 483.930221 291.023362 
L 488.992402 290.935755 
L 491.523493 290.848149 
L 494.054583 290.804346 
L 495.320129 290.672936 
L 497.851219 290.585329 
L 504.178945 290.234904 
L 507.975581 290.1911 
L 509.873899 290.015887 
L 511.772217 289.972084 
L 516.201625 289.884478 
L 518.732716 289.796871 
L 526.325988 289.709265 
L 529.489851 289.577855 
L 533.286486 289.490249 
L 535.184804 289.271232 
L 538.98144 289.227429 
L 540.879758 289.052216 
L 543.410849 288.96461 
L 551.00412 288.877003 
L 554.167983 288.745594 
L 564.925118 288.70179 
L 566.190663 288.614184 
L 568.088981 288.570381 
L 576.315026 288.482774 
L 577.580571 288.395168 
L 584.54107 288.307561 
L 587.07216 288.219955 
L 594.665432 288.176152 
L 595.930977 288.088545 
L 605.422567 288.044742 
L 607.320885 287.869529 
L 618.078019 287.781922 
L 619.976337 287.738119 
L 636.428426 287.650513 
L 638.326744 287.60671 
L 650.349424 287.519103 
L 652.880514 287.431497 
L 657.309923 287.34389 
L 662.372104 287.081071 
L 664.903194 286.993464 
L 667.434285 286.905858 
L 671.23092 286.818251 
L 673.129238 286.774448 
L 675.660329 286.686842 
L 677.558647 286.643038 
L 680.72251 286.555432 
L 681.988055 286.467825 
L 685.784691 286.380219 
L 688.948554 286.248809 
L 690.214099 286.205006 
L 692.112417 286.029793 
L 695.909053 285.942187 
L 698.440144 285.85458 
L 704.76787 285.766974 
L 707.931733 285.635564 
L 714.259459 285.547958 
L 718.688868 285.328941 
L 724.383822 285.241335 
L 725.649367 285.153728 
L 733.242638 285.066122 
L 735.140956 285.022319 
L 742.101455 284.934712 
L 744.632546 284.671893 
L 746.530864 284.62809 
L 747.163636 284.62809 
L 747.163636 284.62809 
" clip-path="url(#p6c95da9cfb)" style="fill: none; stroke: #ff7f0e; stroke-width: 1.5; stroke-linecap: square"/>
   </g>
   <g id="patch_3">
    <path d="M 108 320.4 
L 108 43.2 
" style="fill: none; stroke: #a9a9a9; stroke-width: 0.8; stroke-linejoin: miter; stroke-linecap: square"/>
   </g>
   <g id="patch_4">
    <path d="M 777.6 320.4 
L 777.6 43.2 
" style="fill: none"/>
   </g>
   <g id="patch_5">
    <path d="M 108 320.4 
L 777.6 320.4 
" style="fill: none; stroke: #a9a9a9; stroke-width: 0.8; stroke-linejoin: miter; stroke-linecap: square"/>
   </g>
   <g id="patch_6">
    <path d="M 108 43.2 
L 777.6 43.2 
" style="fill: none"/>
   </g>
   <g id="text_17">
    <!-- get_subscribe history -->
    <g style="fill: #a9a9a9" transform="translate(378.6075 37.2) scale(0.12 -0.12)">
     <defs>
      <path id="DejaVuSans-67" d="M 2906 1791 
Q 2906 2416 2648 2759 
Q 2391 3103 1925 3103 
Q 1463 3103 1205 2759 
Q 947 2416 947 1791 
Q 947 1169 1205 825 
Q 1463 481 1925 481 
Q 2391 481 2648 825 
Q 2906 1169 2906 1791 
z
M 3481 434 
Q 3481 -459 3084 -895 
Q 2688 -1331 1869 -1331 
Q 1566 -1331 1297 -1286 
Q 1028 -1241 775 -1147 
L 775 -588 
Q 1028 -725 1275 -790 
Q 1522 -856 1778 -856 
Q 2344 -856 2625 -561 
Q 2906 -266 2906 331 
L 2906 616 
Q 2728 306 2450 153 
Q 2172 0 1784 0 
Q 1141 0 747 490 
Q 353 981 353 1791 
Q 353 2603 747 3093 
Q 1141 3584 1784 3584 
Q 2172 3584 2450 3431 
Q 2728 3278 2906 2969 
L 2906 3500 
L 3481 3500 
L 3481 434 
z
" transform="scale(0.015625)"/>
      <path id="DejaVuSans-65" d="M 3597 1894 
L 3597 1613 
L 953 1613 
Q 991 1019 1311 708 
Q 1631 397 2203 397 
Q 2534 397 2845 478 
Q 3156 559 3463 722 
L 3463 178 
Q 3153 47 2828 -22 
Q 2503 -91 2169 -91 
Q 1331 -91 842 396 
Q 353 884 353 1716 
Q 353 2575 817 3079 
Q 1281 3584 2069 3584 
Q 2775 3584 3186 3129 
Q 3597 2675 3597 1894 
z
M 3022 2063 
Q 3016 2534 2758 2815 
Q 2500 3097 2075 3097 
Q 1594 3097 1305 2825 
Q 1016 2553 972 2059 
L 3022 2063 
z
" transform="scale(0.015625)"/>
      <path id="DejaVuSans-74" d="M 1172 4494 
L 1172 3500 
L 2356 3500 
L 2356 3053 
L 1172 3053 
L 1172 1153 
Q 1172 725 1289 603 
Q 1406 481 1766 481 
L 2356 481 
L 2356 0 
L 1766 0 
Q 1100 0 847 248 
Q 594 497 594 1153 
L 594 3053 
L 172 3053 
L 172 3500 
L 594 3500 
L 594 4494 
L 1172 4494 
z
" transform="scale(0.015625)"/>
      <path id="DejaVuSans-5f" d="M 3263 -1063 
L 3263 -1509 
L -63 -1509 
L -63 -1063 
L 3263 -1063 
z
" transform="scale(0.015625)"/>
      <path id="DejaVuSans-73" d="M 2834 3397 
L 2834 2853 
Q 2591 2978 2328 3040 
Q 2066 3103 1784 3103 
Q 1356 3103 1142 2972 
Q 928 2841 928 2578 
Q 928 2378 1081 2264 
Q 1234 2150 1697 2047 
L 1894 2003 
Q 2506 1872 2764 1633 
Q 3022 1394 3022 966 
Q 3022 478 2636 193 
Q 2250 -91 1575 -91 
Q 1294 -91 989 -36 
Q 684 19 347 128 
L 347 722 
Q 666 556 975 473 
Q 1284 391 1588 391 
Q 1994 391 2212 530 
Q 2431 669 2431 922 
Q 2431 1156 2273 1281 
Q 2116 1406 1581 1522 
L 1381 1569 
Q 847 1681 609 1914 
Q 372 2147 372 2553 
Q 372 3047 722 3315 
Q 1072 3584 1716 3584 
Q 2034 3584 2315 3537 
Q 2597 3491 2834 3397 
z
" transform="scale(0.015625)"/>
      <path id="DejaVuSans-75" d="M 544 1381 
L 544 3500 
L 1119 3500 
L 1119 1403 
Q 1119 906 1312 657 
Q 1506 409 1894 409 
Q 2359 409 2629 706 
Q 2900 1003 2900 1516 
L 2900 3500 
L 3475 3500 
L 3475 0 
L 2900 0 
L 2900 538 
Q 2691 219 2414 64 
Q 2138 -91 1772 -91 
Q 1169 -91 856 284 
Q 544 659 544 1381 
z
M 1991 3584 
L 1991 3584 
z
" transform="scale(0.015625)"/>
      <path id="DejaVuSans-62" d="M 3116 1747 
Q 3116 2381 2855 2742 
Q 2594 3103 2138 3103 
Q 1681 3103 1420 2742 
Q 1159 2381 1159 1747 
Q 1159 1113 1420 752 
Q 1681 391 2138 391 
Q 2594 391 2855 752 
Q 3116 1113 3116 1747 
z
M 1159 2969 
Q 1341 3281 1617 3432 
Q 1894 3584 2278 3584 
Q 2916 3584 3314 3078 
Q 3713 2572 3713 1747 
Q 3713 922 3314 415 
Q 2916 -91 2278 -91 
Q 1894 -91 1617 61 
Q 1341 213 1159 525 
L 1159 0 
L 581 0 
L 581 4863 
L 1159 4863 
L 1159 2969 
z
" transform="scale(0.015625)"/>
      <path id="DejaVuSans-63" d="M 3122 3366 
L 3122 2828 
Q 2878 2963 2633 3030 
Q 2388 3097 2138 3097 
Q 1578 3097 1268 2742 
Q 959 2388 959 1747 
Q 959 1106 1268 751 
Q 1578 397 2138 397 
Q 2388 397 2633 464 
Q 2878 531 3122 666 
L 3122 134 
Q 2881 22 2623 -34 
Q 2366 -91 2075 -91 
Q 1284 -91 818 406 
Q 353 903 353 1747 
Q 353 2603 823 3093 
Q 1294 3584 2113 3584 
Q 2378 3584 2631 3529 
Q 2884 3475 3122 3366 
z
" transform="scale(0.015625)"/>
      <path id="DejaVuSans-72" d="M 2631 2963 
Q 2534 3019 2420 3045 
Q 2306 3072 2169 3072 
Q 1681 3072 1420 2755 
Q 1159 2438 1159 1844 
L 1159 0 
L 581 0 
L 581 3500 
L 1159 3500 
L 1159 2956 
Q 1341 3275 1631 3429 
Q 1922 3584 2338 3584 
Q 2397 3584 2469 3576 
Q 2541 3569 2628 3553 
L 2631 2963 
z
" transform="scale(0.015625)"/>
      <path id="DejaVuSans-69" d="M 603 3500 
L 1178 3500 
L 1178 0 
L 603 0 
L 603 3500 
z
M 603 4863 
L 1178 4863 
L 1178 4134 
L 603 4134 
L 603 4863 
z
" transform="scale(0.015625)"/>
      <path id="DejaVuSans-20" transform="scale(0.015625)"/>
      <path id="DejaVuSans-68" d="M 3513 2113 
L 3513 0 
L 2938 0 
L 2938 2094 
Q 2938 2591 2744 2837 
Q 2550 3084 2163 3084 
Q 1697 3084 1428 2787 
Q 1159 2491 1159 1978 
L 1159 0 
L 581 0 
L 581 4863 
L 1159 4863 
L 1159 2956 
Q 1366 3272 1645 3428 
Q 1925 3584 2291 3584 
Q 2894 3584 3203 3211 
Q 3513 2838 3513 2113 
z
" transform="scale(0.015625)"/>
      <path id="DejaVuSans-6f" d="M 1959 3097 
Q 1497 3097 1228 2736 
Q 959 2375 959 1747 
Q 959 1119 1226 758 
Q 1494 397 1959 397 
Q 2419 397 2687 759 
Q 2956 1122 2956 1747 
Q 2956 2369 2687 2733 
Q 2419 3097 1959 3097 
z
M 1959 3584 
Q 2709 3584 3137 3096 
Q 3566 2609 3566 1747 
Q 3566 888 3137 398 
Q 2709 -91 1959 -91 
Q 1206 -91 779 398 
Q 353 888 353 1747 
Q 353 2609 779 3096 
Q 1206 3584 1959 3584 
z
" transform="scale(0.015625)"/>
      <path id="DejaVuSans-79" d="M 2059 -325 
Q 1816 -950 1584 -1140 
Q 1353 -1331 966 -1331 
L 506 -1331 
L 506 -850 
L 844 -850 
Q 1081 -850 1212 -737 
Q 1344 -625 1503 -206 
L 1606 56 
L 191 3500 
L 800 3500 
L 1894 763 
L 2988 3500 
L 3597 3500 
L 2059 -325 
z
" transform="scale(0.015625)"/>
     </defs>
     <use xlink:href="#DejaVuSans-67"/>
     <use xlink:href="#DejaVuSans-65" x="63.476562"/>
     <use xlink:href="#DejaVuSans-74" x="125"/>
     <use xlink:href="#DejaVuSans-5f" x="164.208984"/>
     <use xlink:href="#DejaVuSans-73" x="214.208984"/>
     <use xlink:href="#DejaVuSans-75" x="266.308594"/>
     <use xlink:href="#DejaVuSans-62" x="329.6875"/>
     <use xlink:href="#DejaVuSans-73" x="393.164062"/>
     <use xlink:href="#DejaVuSans-63" x="445.263672"/>
     <use xlink:href="#DejaVuSans-72" x="500.244141"/>
     <use xlink:href="#DejaVuSans-69" x="541.357422"/>
     <use xlink:href="#DejaVuSans-62" x="569.140625"/>
     <use xlink:href="#DejaVuSans-65" x="632.617188"/>
     <use xlink:href="#DejaVuSans-20" x="694.140625"/>
     <use xlink:href="#DejaVuSans-68" x="725.927734"/>
     <use xlink:href="#DejaVuSans-69" x="789.306641"/>
     <use xlink:href="#DejaVuSans-73" x="817.089844"/>
     <use xlink:href="#DejaVuSans-74" x="869.189453"/>
     <use xlink:href="#DejaVuSans-6f" x="908.398438"/>
     <use xlink:href="#DejaVuSans-72" x="969.580078"/>
     <use xlink:href="#DejaVuSans-79" x="1010.693359"/>
    </g>
   </g>
   <g id="legend_1">
    <g id="line2d_35">
     <path d="M 815.08 328.498438 
L 825.08 328.498438 
L 835.08 328.498438 
" style="fill: none; stroke: #1f77b4; stroke-width: 1.5; stroke-linecap: square"/>
    </g>
    <g id="text_18">
     <!-- star -->
     <g style="fill: #a9a9a9" transform="translate(843.08 331.998438) scale(0.1 -0.1)">
      <defs>
       <path id="DejaVuSans-61" d="M 2194 1759 
Q 1497 1759 1228 1600 
Q 959 1441 959 1056 
Q 959 750 1161 570 
Q 1363 391 1709 391 
Q 2188 391 2477 730 
Q 2766 1069 2766 1631 
L 2766 1759 
L 2194 1759 
z
M 3341 1997 
L 3341 0 
L 2766 0 
L 2766 531 
Q 2569 213 2275 61 
Q 1981 -91 1556 -91 
Q 1019 -91 701 211 
Q 384 513 384 1019 
Q 384 1609 779 1909 
Q 1175 2209 1959 2209 
L 2766 2209 
L 2766 2266 
Q 2766 2663 2505 2880 
Q 2244 3097 1772 3097 
Q 1472 3097 1187 3025 
Q 903 2953 641 2809 
L 641 3341 
Q 956 3463 1253 3523 
Q 1550 3584 1831 3584 
Q 2591 3584 2966 3190 
Q 3341 2797 3341 1997 
z
" transform="scale(0.015625)"/>
      </defs>
      <use xlink:href="#DejaVuSans-73"/>
      <use xlink:href="#DejaVuSans-74" x="52.099609"/>
      <use xlink:href="#DejaVuSans-61" x="91.308594"/>
      <use xlink:href="#DejaVuSans-72" x="152.587891"/>
     </g>
    </g>
    <g id="line2d_36">
     <path d="M 815.08 343.176562 
L 825.08 343.176562 
L 835.08 343.176562 
" style="fill: none; stroke: #ff7f0e; stroke-width: 1.5; stroke-linecap: square"/>
    </g>
    <g id="text_19">
     <!-- fork -->
     <g style="fill: #a9a9a9" transform="translate(843.08 346.676562) scale(0.1 -0.1)">
      <defs>
       <path id="DejaVuSans-66" d="M 2375 4863 
L 2375 4384 
L 1825 4384 
Q 1516 4384 1395 4259 
Q 1275 4134 1275 3809 
L 1275 3500 
L 2222 3500 
L 2222 3053 
L 1275 3053 
L 1275 0 
L 697 0 
L 697 3053 
L 147 3053 
L 147 3500 
L 697 3500 
L 697 3744 
Q 697 4328 969 4595 
Q 1241 4863 1831 4863 
L 2375 4863 
z
" transform="scale(0.015625)"/>
       <path id="DejaVuSans-6b" d="M 581 4863 
L 1159 4863 
L 1159 1991 
L 2875 3500 
L 3609 3500 
L 1753 1863 
L 3688 0 
L 2938 0 
L 1159 1709 
L 1159 0 
L 581 0 
L 581 4863 
z
" transform="scale(0.015625)"/>
      </defs>
      <use xlink:href="#DejaVuSans-66"/>
      <use xlink:href="#DejaVuSans-6f" x="35.205078"/>
      <use xlink:href="#DejaVuSans-72" x="96.386719"/>
      <use xlink:href="#DejaVuSans-6b" x="137.5"/>
     </g>
    </g>
   </g>
  </g>
 </g>
 <defs>
  <clipPath id="p6c95da9cfb">
   <rect x="108" y="43.2" width="669.6" height="277.2"/>
  </clipPath>
 </defs>
</svg>
