<?xml version="1.0" encoding="utf-8" standalone="no"?>
<!DOCTYPE svg PUBLIC "-//W3C//DTD SVG 1.1//EN"
  "http://www.w3.org/Graphics/SVG/1.1/DTD/svg11.dtd">
<svg xmlns:xlink="http://www.w3.org/1999/xlink" width="864pt" height="360pt" viewBox="0 0 864 360" xmlns="http://www.w3.org/2000/svg" version="1.1">
 <metadata>
  <rdf:RDF xmlns:dc="http://purl.org/dc/elements/1.1/" xmlns:cc="http://creativecommons.org/ns#" xmlns:rdf="http://www.w3.org/1999/02/22-rdf-syntax-ns#">
   <cc:Work>
    <dc:type rdf:resource="http://purl.org/dc/dcmitype/StillImage"/>
    <dc:date>2024-03-11T20:04:32.135560</dc:date>
    <dc:format>image/svg+xml</dc:format>
    <dc:creator>
     <cc:Agent>
      <dc:title>Matplotlib v3.8.3, https://matplotlib.org/</dc:title>
     </cc:Agent>
    </dc:creator>
   </cc:Work>
  </rdf:RDF>
 </metadata>
 <defs>
  <style type="text/css">*{stroke-linejoin: round; stroke-linecap: butt}</style>
 </defs>
 <g id="figure_1">
  <g id="patch_1">
   <path d="M 0 360 
L 864 360 
L 864 0 
L 0 0 
L 0 360 
z
" style="fill: none; opacity: 0"/>
  </g>
  <g id="axes_1">
   <g id="patch_2">
    <path d="M 108 320.4 
L 777.6 320.4 
L 777.6 43.2 
L 108 43.2 
L 108 320.4 
z
" style="fill: none; opacity: 0"/>
   </g>
   <g id="matplotlib.axis_1">
    <g id="xtick_1">
     <g id="line2d_1">
      <path d="M 163.140176 320.4 
L 163.140176 43.2 
" clip-path="url(#p7c87765585)" style="fill: none; stroke-dasharray: 5.12,1.28,0.8,1.28; stroke-dashoffset: 0; stroke: #b0b0b0; stroke-width: 0.8"/>
     </g>
     <g id="line2d_2">
      <defs>
       <path id="m6fda835d2d" d="M 0 0 
L 0 3.5 
" style="stroke: #a9a9a9; stroke-width: 0.8"/>
      </defs>
      <g>
       <use xlink:href="#m6fda835d2d" x="163.140176" y="320.4" style="fill: #a9a9a9; stroke: #a9a9a9; stroke-width: 0.8"/>
      </g>
     </g>
     <g id="text_1">
      <!-- 2021-09 -->
      <g style="fill: #a9a9a9" transform="translate(142.24877 334.998438) scale(0.1 -0.1)">
       <defs>
        <path id="DejaVuSans-32" d="M 1228 531 
L 3431 531 
L 3431 0 
L 469 0 
L 469 531 
Q 828 903 1448 1529 
Q 2069 2156 2228 2338 
Q 2531 2678 2651 2914 
Q 2772 3150 2772 3378 
Q 2772 3750 2511 3984 
Q 2250 4219 1831 4219 
Q 1534 4219 1204 4116 
Q 875 4013 500 3803 
L 500 4441 
Q 881 4594 1212 4672 
Q 1544 4750 1819 4750 
Q 2544 4750 2975 4387 
Q 3406 4025 3406 3419 
Q 3406 3131 3298 2873 
Q 3191 2616 2906 2266 
Q 2828 2175 2409 1742 
Q 1991 1309 1228 531 
z
" transform="scale(0.015625)"/>
        <path id="DejaVuSans-30" d="M 2034 4250 
Q 1547 4250 1301 3770 
Q 1056 3291 1056 2328 
Q 1056 1369 1301 889 
Q 1547 409 2034 409 
Q 2525 409 2770 889 
Q 3016 1369 3016 2328 
Q 3016 3291 2770 3770 
Q 2525 4250 2034 4250 
z
M 2034 4750 
Q 2819 4750 3233 4129 
Q 3647 3509 3647 2328 
Q 3647 1150 3233 529 
Q 2819 -91 2034 -91 
Q 1250 -91 836 529 
Q 422 1150 422 2328 
Q 422 3509 836 4129 
Q 1250 4750 2034 4750 
z
" transform="scale(0.015625)"/>
        <path id="DejaVuSans-31" d="M 794 531 
L 1825 531 
L 1825 4091 
L 703 3866 
L 703 4441 
L 1819 4666 
L 2450 4666 
L 2450 531 
L 3481 531 
L 3481 0 
L 794 0 
L 794 531 
z
" transform="scale(0.015625)"/>
        <path id="DejaVuSans-2d" d="M 313 2009 
L 1997 2009 
L 1997 1497 
L 313 1497 
L 313 2009 
z
" transform="scale(0.015625)"/>
        <path id="DejaVuSans-39" d="M 703 97 
L 703 672 
Q 941 559 1184 500 
Q 1428 441 1663 441 
Q 2288 441 2617 861 
Q 2947 1281 2994 2138 
Q 2813 1869 2534 1725 
Q 2256 1581 1919 1581 
Q 1219 1581 811 2004 
Q 403 2428 403 3163 
Q 403 3881 828 4315 
Q 1253 4750 1959 4750 
Q 2769 4750 3195 4129 
Q 3622 3509 3622 2328 
Q 3622 1225 3098 567 
Q 2575 -91 1691 -91 
Q 1453 -91 1209 -44 
Q 966 3 703 97 
z
M 1959 2075 
Q 2384 2075 2632 2365 
Q 2881 2656 2881 3163 
Q 2881 3666 2632 3958 
Q 2384 4250 1959 4250 
Q 1534 4250 1286 3958 
Q 1038 3666 1038 3163 
Q 1038 2656 1286 2365 
Q 1534 2075 1959 2075 
z
" transform="scale(0.015625)"/>
       </defs>
       <use xlink:href="#DejaVuSans-32"/>
       <use xlink:href="#DejaVuSans-30" x="63.623047"/>
       <use xlink:href="#DejaVuSans-32" x="127.246094"/>
       <use xlink:href="#DejaVuSans-31" x="190.869141"/>
       <use xlink:href="#DejaVuSans-2d" x="254.492188"/>
       <use xlink:href="#DejaVuSans-30" x="290.576172"/>
       <use xlink:href="#DejaVuSans-39" x="354.199219"/>
      </g>
     </g>
    </g>
    <g id="xtick_2">
     <g id="line2d_3">
      <path d="M 240.418768 320.4 
L 240.418768 43.2 
" clip-path="url(#p7c87765585)" style="fill: none; stroke-dasharray: 5.12,1.28,0.8,1.28; stroke-dashoffset: 0; stroke: #b0b0b0; stroke-width: 0.8"/>
     </g>
     <g id="line2d_4">
      <g>
       <use xlink:href="#m6fda835d2d" x="240.418768" y="320.4" style="fill: #a9a9a9; stroke: #a9a9a9; stroke-width: 0.8"/>
      </g>
     </g>
     <g id="text_2">
      <!-- 2022-01 -->
      <g style="fill: #a9a9a9" transform="translate(219.527362 334.998438) scale(0.1 -0.1)">
       <use xlink:href="#DejaVuSans-32"/>
       <use xlink:href="#DejaVuSans-30" x="63.623047"/>
       <use xlink:href="#DejaVuSans-32" x="127.246094"/>
       <use xlink:href="#DejaVuSans-32" x="190.869141"/>
       <use xlink:href="#DejaVuSans-2d" x="254.492188"/>
       <use xlink:href="#DejaVuSans-30" x="290.576172"/>
       <use xlink:href="#DejaVuSans-31" x="354.199219"/>
      </g>
     </g>
    </g>
    <g id="xtick_3">
     <g id="line2d_5">
      <path d="M 316.430499 320.4 
L 316.430499 43.2 
" clip-path="url(#p7c87765585)" style="fill: none; stroke-dasharray: 5.12,1.28,0.8,1.28; stroke-dashoffset: 0; stroke: #b0b0b0; stroke-width: 0.8"/>
     </g>
     <g id="line2d_6">
      <g>
       <use xlink:href="#m6fda835d2d" x="316.430499" y="320.4" style="fill: #a9a9a9; stroke: #a9a9a9; stroke-width: 0.8"/>
      </g>
     </g>
     <g id="text_3">
      <!-- 2022-05 -->
      <g style="fill: #a9a9a9" transform="translate(295.539092 334.998438) scale(0.1 -0.1)">
       <defs>
        <path id="DejaVuSans-35" d="M 691 4666 
L 3169 4666 
L 3169 4134 
L 1269 4134 
L 1269 2991 
Q 1406 3038 1543 3061 
Q 1681 3084 1819 3084 
Q 2600 3084 3056 2656 
Q 3513 2228 3513 1497 
Q 3513 744 3044 326 
Q 2575 -91 1722 -91 
Q 1428 -91 1123 -41 
Q 819 9 494 109 
L 494 744 
Q 775 591 1075 516 
Q 1375 441 1709 441 
Q 2250 441 2565 725 
Q 2881 1009 2881 1497 
Q 2881 1984 2565 2268 
Q 2250 2553 1709 2553 
Q 1456 2553 1204 2497 
Q 953 2441 691 2322 
L 691 4666 
z
" transform="scale(0.015625)"/>
       </defs>
       <use xlink:href="#DejaVuSans-32"/>
       <use xlink:href="#DejaVuSans-30" x="63.623047"/>
       <use xlink:href="#DejaVuSans-32" x="127.246094"/>
       <use xlink:href="#DejaVuSans-32" x="190.869141"/>
       <use xlink:href="#DejaVuSans-2d" x="254.492188"/>
       <use xlink:href="#DejaVuSans-30" x="290.576172"/>
       <use xlink:href="#DejaVuSans-35" x="354.199219"/>
      </g>
     </g>
    </g>
    <g id="xtick_4">
     <g id="line2d_7">
      <path d="M 394.342522 320.4 
L 394.342522 43.2 
" clip-path="url(#p7c87765585)" style="fill: none; stroke-dasharray: 5.12,1.28,0.8,1.28; stroke-dashoffset: 0; stroke: #b0b0b0; stroke-width: 0.8"/>
     </g>
     <g id="line2d_8">
      <g>
       <use xlink:href="#m6fda835d2d" x="394.342522" y="320.4" style="fill: #a9a9a9; stroke: #a9a9a9; stroke-width: 0.8"/>
      </g>
     </g>
     <g id="text_4">
      <!-- 2022-09 -->
      <g style="fill: #a9a9a9" transform="translate(373.451116 334.998438) scale(0.1 -0.1)">
       <use xlink:href="#DejaVuSans-32"/>
       <use xlink:href="#DejaVuSans-30" x="63.623047"/>
       <use xlink:href="#DejaVuSans-32" x="127.246094"/>
       <use xlink:href="#DejaVuSans-32" x="190.869141"/>
       <use xlink:href="#DejaVuSans-2d" x="254.492188"/>
       <use xlink:href="#DejaVuSans-30" x="290.576172"/>
       <use xlink:href="#DejaVuSans-39" x="354.199219"/>
      </g>
     </g>
    </g>
    <g id="xtick_5">
     <g id="line2d_9">
      <path d="M 471.621114 320.4 
L 471.621114 43.2 
" clip-path="url(#p7c87765585)" style="fill: none; stroke-dasharray: 5.12,1.28,0.8,1.28; stroke-dashoffset: 0; stroke: #b0b0b0; stroke-width: 0.8"/>
     </g>
     <g id="line2d_10">
      <g>
       <use xlink:href="#m6fda835d2d" x="471.621114" y="320.4" style="fill: #a9a9a9; stroke: #a9a9a9; stroke-width: 0.8"/>
      </g>
     </g>
     <g id="text_5">
      <!-- 2023-01 -->
      <g style="fill: #a9a9a9" transform="translate(450.729708 334.998438) scale(0.1 -0.1)">
       <defs>
        <path id="DejaVuSans-33" d="M 2597 2516 
Q 3050 2419 3304 2112 
Q 3559 1806 3559 1356 
Q 3559 666 3084 287 
Q 2609 -91 1734 -91 
Q 1441 -91 1130 -33 
Q 819 25 488 141 
L 488 750 
Q 750 597 1062 519 
Q 1375 441 1716 441 
Q 2309 441 2620 675 
Q 2931 909 2931 1356 
Q 2931 1769 2642 2001 
Q 2353 2234 1838 2234 
L 1294 2234 
L 1294 2753 
L 1863 2753 
Q 2328 2753 2575 2939 
Q 2822 3125 2822 3475 
Q 2822 3834 2567 4026 
Q 2313 4219 1838 4219 
Q 1578 4219 1281 4162 
Q 984 4106 628 3988 
L 628 4550 
Q 988 4650 1302 4700 
Q 1616 4750 1894 4750 
Q 2613 4750 3031 4423 
Q 3450 4097 3450 3541 
Q 3450 3153 3228 2886 
Q 3006 2619 2597 2516 
z
" transform="scale(0.015625)"/>
       </defs>
       <use xlink:href="#DejaVuSans-32"/>
       <use xlink:href="#DejaVuSans-30" x="63.623047"/>
       <use xlink:href="#DejaVuSans-32" x="127.246094"/>
       <use xlink:href="#DejaVuSans-33" x="190.869141"/>
       <use xlink:href="#DejaVuSans-2d" x="254.492188"/>
       <use xlink:href="#DejaVuSans-30" x="290.576172"/>
       <use xlink:href="#DejaVuSans-31" x="354.199219"/>
      </g>
     </g>
    </g>
    <g id="xtick_6">
     <g id="line2d_11">
      <path d="M 547.632845 320.4 
L 547.632845 43.2 
" clip-path="url(#p7c87765585)" style="fill: none; stroke-dasharray: 5.12,1.28,0.8,1.28; stroke-dashoffset: 0; stroke: #b0b0b0; stroke-width: 0.8"/>
     </g>
     <g id="line2d_12">
      <g>
       <use xlink:href="#m6fda835d2d" x="547.632845" y="320.4" style="fill: #a9a9a9; stroke: #a9a9a9; stroke-width: 0.8"/>
      </g>
     </g>
     <g id="text_6">
      <!-- 2023-05 -->
      <g style="fill: #a9a9a9" transform="translate(526.741438 334.998438) scale(0.1 -0.1)">
       <use xlink:href="#DejaVuSans-32"/>
       <use xlink:href="#DejaVuSans-30" x="63.623047"/>
       <use xlink:href="#DejaVuSans-32" x="127.246094"/>
       <use xlink:href="#DejaVuSans-33" x="190.869141"/>
       <use xlink:href="#DejaVuSans-2d" x="254.492188"/>
       <use xlink:href="#DejaVuSans-30" x="290.576172"/>
       <use xlink:href="#DejaVuSans-35" x="354.199219"/>
      </g>
     </g>
    </g>
    <g id="xtick_7">
     <g id="line2d_13">
      <path d="M 625.544868 320.4 
L 625.544868 43.2 
" clip-path="url(#p7c87765585)" style="fill: none; stroke-dasharray: 5.12,1.28,0.8,1.28; stroke-dashoffset: 0; stroke: #b0b0b0; stroke-width: 0.8"/>
     </g>
     <g id="line2d_14">
      <g>
       <use xlink:href="#m6fda835d2d" x="625.544868" y="320.4" style="fill: #a9a9a9; stroke: #a9a9a9; stroke-width: 0.8"/>
      </g>
     </g>
     <g id="text_7">
      <!-- 2023-09 -->
      <g style="fill: #a9a9a9" transform="translate(604.653462 334.998438) scale(0.1 -0.1)">
       <use xlink:href="#DejaVuSans-32"/>
       <use xlink:href="#DejaVuSans-30" x="63.623047"/>
       <use xlink:href="#DejaVuSans-32" x="127.246094"/>
       <use xlink:href="#DejaVuSans-33" x="190.869141"/>
       <use xlink:href="#DejaVuSans-2d" x="254.492188"/>
       <use xlink:href="#DejaVuSans-30" x="290.576172"/>
       <use xlink:href="#DejaVuSans-39" x="354.199219"/>
      </g>
     </g>
    </g>
    <g id="xtick_8">
     <g id="line2d_15">
      <path d="M 702.82346 320.4 
L 702.82346 43.2 
" clip-path="url(#p7c87765585)" style="fill: none; stroke-dasharray: 5.12,1.28,0.8,1.28; stroke-dashoffset: 0; stroke: #b0b0b0; stroke-width: 0.8"/>
     </g>
     <g id="line2d_16">
      <g>
       <use xlink:href="#m6fda835d2d" x="702.82346" y="320.4" style="fill: #a9a9a9; stroke: #a9a9a9; stroke-width: 0.8"/>
      </g>
     </g>
     <g id="text_8">
      <!-- 2024-01 -->
      <g style="fill: #a9a9a9" transform="translate(681.932054 334.998438) scale(0.1 -0.1)">
       <defs>
        <path id="DejaVuSans-34" d="M 2419 4116 
L 825 1625 
L 2419 1625 
L 2419 4116 
z
M 2253 4666 
L 3047 4666 
L 3047 1625 
L 3713 1625 
L 3713 1100 
L 3047 1100 
L 3047 0 
L 2419 0 
L 2419 1100 
L 313 1100 
L 313 1709 
L 2253 4666 
z
" transform="scale(0.015625)"/>
       </defs>
       <use xlink:href="#DejaVuSans-32"/>
       <use xlink:href="#DejaVuSans-30" x="63.623047"/>
       <use xlink:href="#DejaVuSans-32" x="127.246094"/>
       <use xlink:href="#DejaVuSans-34" x="190.869141"/>
       <use xlink:href="#DejaVuSans-2d" x="254.492188"/>
       <use xlink:href="#DejaVuSans-30" x="290.576172"/>
       <use xlink:href="#DejaVuSans-31" x="354.199219"/>
      </g>
     </g>
    </g>
   </g>
   <g id="matplotlib.axis_2">
    <g id="ytick_1">
     <g id="line2d_17">
      <path d="M 108 307.843803 
L 777.6 307.843803 
" clip-path="url(#p7c87765585)" style="fill: none; stroke-dasharray: 5.12,1.28,0.8,1.28; stroke-dashoffset: 0; stroke: #b0b0b0; stroke-width: 0.8"/>
     </g>
     <g id="line2d_18">
      <defs>
       <path id="m1e209df91e" d="M 0 0 
L -3.5 0 
" style="stroke: #a9a9a9; stroke-width: 0.8"/>
      </defs>
      <g>
       <use xlink:href="#m1e209df91e" x="108" y="307.843803" style="fill: #a9a9a9; stroke: #a9a9a9; stroke-width: 0.8"/>
      </g>
     </g>
     <g id="text_9">
      <!-- 0 -->
      <g style="fill: #a9a9a9" transform="translate(94.6375 311.643022) scale(0.1 -0.1)">
       <use xlink:href="#DejaVuSans-30"/>
      </g>
     </g>
    </g>
    <g id="ytick_2">
     <g id="line2d_19">
      <path d="M 108 272.801217 
L 777.6 272.801217 
" clip-path="url(#p7c87765585)" style="fill: none; stroke-dasharray: 5.12,1.28,0.8,1.28; stroke-dashoffset: 0; stroke: #b0b0b0; stroke-width: 0.8"/>
     </g>
     <g id="line2d_20">
      <g>
       <use xlink:href="#m1e209df91e" x="108" y="272.801217" style="fill: #a9a9a9; stroke: #a9a9a9; stroke-width: 0.8"/>
      </g>
     </g>
     <g id="text_10">
      <!-- 800 -->
      <g style="fill: #a9a9a9" transform="translate(81.9125 276.600436) scale(0.1 -0.1)">
       <defs>
        <path id="DejaVuSans-38" d="M 2034 2216 
Q 1584 2216 1326 1975 
Q 1069 1734 1069 1313 
Q 1069 891 1326 650 
Q 1584 409 2034 409 
Q 2484 409 2743 651 
Q 3003 894 3003 1313 
Q 3003 1734 2745 1975 
Q 2488 2216 2034 2216 
z
M 1403 2484 
Q 997 2584 770 2862 
Q 544 3141 544 3541 
Q 544 4100 942 4425 
Q 1341 4750 2034 4750 
Q 2731 4750 3128 4425 
Q 3525 4100 3525 3541 
Q 3525 3141 3298 2862 
Q 3072 2584 2669 2484 
Q 3125 2378 3379 2068 
Q 3634 1759 3634 1313 
Q 3634 634 3220 271 
Q 2806 -91 2034 -91 
Q 1263 -91 848 271 
Q 434 634 434 1313 
Q 434 1759 690 2068 
Q 947 2378 1403 2484 
z
M 1172 3481 
Q 1172 3119 1398 2916 
Q 1625 2713 2034 2713 
Q 2441 2713 2670 2916 
Q 2900 3119 2900 3481 
Q 2900 3844 2670 4047 
Q 2441 4250 2034 4250 
Q 1625 4250 1398 4047 
Q 1172 3844 1172 3481 
z
" transform="scale(0.015625)"/>
       </defs>
       <use xlink:href="#DejaVuSans-38"/>
       <use xlink:href="#DejaVuSans-30" x="63.623047"/>
       <use xlink:href="#DejaVuSans-30" x="127.246094"/>
      </g>
     </g>
    </g>
    <g id="ytick_3">
     <g id="line2d_21">
      <path d="M 108 237.75863 
L 777.6 237.75863 
" clip-path="url(#p7c87765585)" style="fill: none; stroke-dasharray: 5.12,1.28,0.8,1.28; stroke-dashoffset: 0; stroke: #b0b0b0; stroke-width: 0.8"/>
     </g>
     <g id="line2d_22">
      <g>
       <use xlink:href="#m1e209df91e" x="108" y="237.75863" style="fill: #a9a9a9; stroke: #a9a9a9; stroke-width: 0.8"/>
      </g>
     </g>
     <g id="text_11">
      <!-- 1600 -->
      <g style="fill: #a9a9a9" transform="translate(75.55 241.557849) scale(0.1 -0.1)">
       <defs>
        <path id="DejaVuSans-36" d="M 2113 2584 
Q 1688 2584 1439 2293 
Q 1191 2003 1191 1497 
Q 1191 994 1439 701 
Q 1688 409 2113 409 
Q 2538 409 2786 701 
Q 3034 994 3034 1497 
Q 3034 2003 2786 2293 
Q 2538 2584 2113 2584 
z
M 3366 4563 
L 3366 3988 
Q 3128 4100 2886 4159 
Q 2644 4219 2406 4219 
Q 1781 4219 1451 3797 
Q 1122 3375 1075 2522 
Q 1259 2794 1537 2939 
Q 1816 3084 2150 3084 
Q 2853 3084 3261 2657 
Q 3669 2231 3669 1497 
Q 3669 778 3244 343 
Q 2819 -91 2113 -91 
Q 1303 -91 875 529 
Q 447 1150 447 2328 
Q 447 3434 972 4092 
Q 1497 4750 2381 4750 
Q 2619 4750 2861 4703 
Q 3103 4656 3366 4563 
z
" transform="scale(0.015625)"/>
       </defs>
       <use xlink:href="#DejaVuSans-31"/>
       <use xlink:href="#DejaVuSans-36" x="63.623047"/>
       <use xlink:href="#DejaVuSans-30" x="127.246094"/>
       <use xlink:href="#DejaVuSans-30" x="190.869141"/>
      </g>
     </g>
    </g>
    <g id="ytick_4">
     <g id="line2d_23">
      <path d="M 108 202.716044 
L 777.6 202.716044 
" clip-path="url(#p7c87765585)" style="fill: none; stroke-dasharray: 5.12,1.28,0.8,1.28; stroke-dashoffset: 0; stroke: #b0b0b0; stroke-width: 0.8"/>
     </g>
     <g id="line2d_24">
      <g>
       <use xlink:href="#m1e209df91e" x="108" y="202.716044" style="fill: #a9a9a9; stroke: #a9a9a9; stroke-width: 0.8"/>
      </g>
     </g>
     <g id="text_12">
      <!-- 2400 -->
      <g style="fill: #a9a9a9" transform="translate(75.55 206.515263) scale(0.1 -0.1)">
       <use xlink:href="#DejaVuSans-32"/>
       <use xlink:href="#DejaVuSans-34" x="63.623047"/>
       <use xlink:href="#DejaVuSans-30" x="127.246094"/>
       <use xlink:href="#DejaVuSans-30" x="190.869141"/>
      </g>
     </g>
    </g>
    <g id="ytick_5">
     <g id="line2d_25">
      <path d="M 108 167.673457 
L 777.6 167.673457 
" clip-path="url(#p7c87765585)" style="fill: none; stroke-dasharray: 5.12,1.28,0.8,1.28; stroke-dashoffset: 0; stroke: #b0b0b0; stroke-width: 0.8"/>
     </g>
     <g id="line2d_26">
      <g>
       <use xlink:href="#m1e209df91e" x="108" y="167.673457" style="fill: #a9a9a9; stroke: #a9a9a9; stroke-width: 0.8"/>
      </g>
     </g>
     <g id="text_13">
      <!-- 3200 -->
      <g style="fill: #a9a9a9" transform="translate(75.55 171.472676) scale(0.1 -0.1)">
       <use xlink:href="#DejaVuSans-33"/>
       <use xlink:href="#DejaVuSans-32" x="63.623047"/>
       <use xlink:href="#DejaVuSans-30" x="127.246094"/>
       <use xlink:href="#DejaVuSans-30" x="190.869141"/>
      </g>
     </g>
    </g>
    <g id="ytick_6">
     <g id="line2d_27">
      <path d="M 108 132.630871 
L 777.6 132.630871 
" clip-path="url(#p7c87765585)" style="fill: none; stroke-dasharray: 5.12,1.28,0.8,1.28; stroke-dashoffset: 0; stroke: #b0b0b0; stroke-width: 0.8"/>
     </g>
     <g id="line2d_28">
      <g>
       <use xlink:href="#m1e209df91e" x="108" y="132.630871" style="fill: #a9a9a9; stroke: #a9a9a9; stroke-width: 0.8"/>
      </g>
     </g>
     <g id="text_14">
      <!-- 4000 -->
      <g style="fill: #a9a9a9" transform="translate(75.55 136.43009) scale(0.1 -0.1)">
       <use xlink:href="#DejaVuSans-34"/>
       <use xlink:href="#DejaVuSans-30" x="63.623047"/>
       <use xlink:href="#DejaVuSans-30" x="127.246094"/>
       <use xlink:href="#DejaVuSans-30" x="190.869141"/>
      </g>
     </g>
    </g>
    <g id="ytick_7">
     <g id="line2d_29">
      <path d="M 108 97.588284 
L 777.6 97.588284 
" clip-path="url(#p7c87765585)" style="fill: none; stroke-dasharray: 5.12,1.28,0.8,1.28; stroke-dashoffset: 0; stroke: #b0b0b0; stroke-width: 0.8"/>
     </g>
     <g id="line2d_30">
      <g>
       <use xlink:href="#m1e209df91e" x="108" y="97.588284" style="fill: #a9a9a9; stroke: #a9a9a9; stroke-width: 0.8"/>
      </g>
     </g>
     <g id="text_15">
      <!-- 4800 -->
      <g style="fill: #a9a9a9" transform="translate(75.55 101.387503) scale(0.1 -0.1)">
       <use xlink:href="#DejaVuSans-34"/>
       <use xlink:href="#DejaVuSans-38" x="63.623047"/>
       <use xlink:href="#DejaVuSans-30" x="127.246094"/>
       <use xlink:href="#DejaVuSans-30" x="190.869141"/>
      </g>
     </g>
    </g>
    <g id="ytick_8">
     <g id="line2d_31">
      <path d="M 108 62.545698 
L 777.6 62.545698 
" clip-path="url(#p7c87765585)" style="fill: none; stroke-dasharray: 5.12,1.28,0.8,1.28; stroke-dashoffset: 0; stroke: #b0b0b0; stroke-width: 0.8"/>
     </g>
     <g id="line2d_32">
      <g>
       <use xlink:href="#m1e209df91e" x="108" y="62.545698" style="fill: #a9a9a9; stroke: #a9a9a9; stroke-width: 0.8"/>
      </g>
     </g>
     <g id="text_16">
      <!-- 5600 -->
      <g style="fill: #a9a9a9" transform="translate(75.55 66.344917) scale(0.1 -0.1)">
       <use xlink:href="#DejaVuSans-35"/>
       <use xlink:href="#DejaVuSans-36" x="63.623047"/>
       <use xlink:href="#DejaVuSans-30" x="127.246094"/>
       <use xlink:href="#DejaVuSans-30" x="190.869141"/>
      </g>
     </g>
    </g>
   </g>
   <g id="line2d_33">
    <path d="M 138.436364 307.712394 
L 142.23695 307.405771 
L 142.870381 307.142952 
L 144.770674 306.923935 
L 148.571261 306.17928 
L 152.371848 305.872658 
L 153.005279 305.566035 
L 153.63871 305.390822 
L 154.272141 304.602364 
L 154.905572 304.164332 
L 155.539003 302.806431 
L 156.172434 302.718825 
L 156.805865 302.236989 
L 158.072727 301.623744 
L 160.606452 299.696402 
L 161.873314 299.170763 
L 162.506745 298.732731 
L 165.040469 297.63765 
L 165.6739 296.630176 
L 166.940762 295.710308 
L 167.574194 295.403685 
L 173.908504 294.52762 
L 174.541935 294.220998 
L 178.975953 293.870572 
L 180.876246 293.388736 
L 186.577126 292.644081 
L 187.210557 292.293655 
L 187.843988 292.206049 
L 188.477419 291.94323 
L 189.744282 291.724213 
L 190.377713 291.68041 
L 191.011144 291.461394 
L 193.544868 291.067165 
L 194.81173 290.716739 
L 196.712023 290.541526 
L 197.978886 290.410116 
L 198.612317 290.234904 
L 199.245748 290.1911 
L 201.146041 289.621658 
L 204.946628 289.052216 
L 205.580059 288.877003 
L 206.21349 288.000939 
L 208.113783 287.300087 
L 210.014076 286.774448 
L 210.647507 286.467825 
L 211.280938 286.424022 
L 214.448094 285.547958 
L 215.714956 285.460351 
L 216.348387 285.372745 
L 218.24868 284.803303 
L 220.782405 284.190057 
L 221.415836 283.927238 
L 222.049267 283.839631 
L 222.682698 283.533009 
L 229.017009 282.569338 
L 232.184164 281.693273 
L 232.817595 281.299044 
L 235.35132 280.641995 
L 236.618182 279.897341 
L 237.251613 279.459308 
L 239.151906 279.108882 
L 242.952493 277.969998 
L 244.219355 277.575769 
L 244.852786 277.488163 
L 246.119648 277.137737 
L 247.38651 276.831114 
L 248.019941 276.743508 
L 249.286804 276.217869 
L 249.920235 276.086459 
L 250.553666 275.82364 
L 251.187097 275.736033 
L 251.820528 275.429411 
L 252.453959 275.254198 
L 253.720821 275.166591 
L 254.987683 274.728559 
L 256.254545 274.640953 
L 256.887977 274.33433 
L 259.421701 273.896298 
L 261.955425 273.677281 
L 262.588856 273.545872 
L 263.855718 272.932626 
L 270.82346 269.99781 
L 271.456891 269.647384 
L 272.090323 268.946532 
L 272.723754 267.895255 
L 273.357185 267.062993 
L 273.990616 266.88778 
L 274.624047 266.88778 
L 275.890909 265.967912 
L 276.52434 265.792699 
L 277.157771 265.442274 
L 277.791202 265.310864 
L 278.424633 264.741422 
L 279.058065 264.566209 
L 280.958358 263.646341 
L 282.22522 261.894212 
L 282.858651 261.499983 
L 283.492082 260.448705 
L 284.125513 259.791657 
L 284.758944 259.485034 
L 285.392375 259.309821 
L 287.9261 257.820511 
L 289.192962 256.813037 
L 289.826393 256.418808 
L 290.459824 255.49894 
L 291.093255 254.053433 
L 291.726686 253.133565 
L 292.360117 252.65173 
L 292.993548 252.38891 
L 295.527273 250.198748 
L 296.794135 249.191274 
L 297.427566 248.665635 
L 298.060997 247.833374 
L 299.327859 246.738293 
L 301.861584 245.117573 
L 302.495015 244.548131 
L 303.128446 244.416722 
L 303.761877 244.153902 
L 305.028739 243.453051 
L 306.929032 242.489379 
L 308.195894 241.306692 
L 308.829326 240.562037 
L 310.096188 239.685973 
L 310.729619 239.51076 
L 311.36305 239.204137 
L 312.629912 238.371876 
L 313.263343 238.02145 
L 313.896774 237.933843 
L 315.163636 237.232991 
L 315.797067 236.882566 
L 316.430499 236.225517 
L 317.06393 235.831288 
L 317.697361 235.612272 
L 318.964223 234.867617 
L 319.597654 234.517191 
L 320.231085 234.298175 
L 322.131378 233.071684 
L 324.031672 232.502242 
L 324.665103 232.06421 
L 325.298534 231.9328 
L 326.565396 231.494768 
L 328.465689 230.750113 
L 330.365982 230.049261 
L 331.632845 229.830245 
L 332.899707 228.735164 
L 334.166569 228.121919 
L 335.433431 227.421067 
L 336.066862 227.070641 
L 337.333724 226.720216 
L 337.967155 226.325986 
L 338.600587 226.150774 
L 340.50088 224.968086 
L 343.668035 224.223431 
L 345.568328 223.12835 
L 346.20176 223.040744 
L 346.835191 222.821728 
L 348.102053 222.558908 
L 350.002346 221.157205 
L 351.902639 220.719173 
L 352.53607 220.500156 
L 353.169501 220.018321 
L 356.970088 218.79183 
L 357.603519 218.748027 
L 362.037537 217.171111 
L 362.670968 216.864488 
L 364.571261 216.426456 
L 365.838123 216.119833 
L 366.471554 215.81321 
L 367.104985 215.681801 
L 369.005279 214.805736 
L 370.905572 213.885868 
L 371.539003 213.447836 
L 372.172434 213.272623 
L 374.072727 212.265149 
L 375.339589 211.958526 
L 376.606452 211.301477 
L 377.873314 210.951052 
L 378.506745 210.863445 
L 379.773607 210.11879 
L 380.407038 209.98738 
L 381.6739 209.461742 
L 382.307331 209.330332 
L 382.940762 208.979906 
L 385.474487 208.585677 
L 386.741349 207.972432 
L 387.37478 207.446793 
L 388.008211 206.351712 
L 389.275073 206.088893 
L 389.908504 205.957483 
L 392.442229 204.643386 
L 393.07566 204.511976 
L 398.143109 202.102799 
L 400.043402 201.708569 
L 400.676833 201.358144 
L 404.477419 200.044047 
L 405.744282 199.255588 
L 407.011144 198.510933 
L 407.644575 198.423327 
L 408.278006 198.204311 
L 408.911437 198.160508 
L 412.078592 197.328246 
L 412.712023 196.846411 
L 413.978886 196.408378 
L 415.879179 195.795133 
L 416.51261 195.400904 
L 417.146041 195.225691 
L 417.779472 194.787659 
L 418.412903 194.524839 
L 419.046334 194.13061 
L 420.313196 193.692578 
L 422.21349 193.079333 
L 422.846921 192.77271 
L 424.747214 191.327203 
L 425.380645 191.195793 
L 426.647507 190.232122 
L 427.280938 190.100713 
L 427.91437 189.137042 
L 428.547801 188.874222 
L 429.181232 188.392387 
L 429.814663 188.30478 
L 431.081525 187.560125 
L 431.714956 187.428715 
L 432.348387 187.165896 
L 432.981818 186.68406 
L 433.615249 186.465044 
L 435.515543 185.194751 
L 438.049267 183.924457 
L 438.682698 183.83685 
L 439.94956 183.267408 
L 440.582991 182.916982 
L 441.216422 181.865705 
L 441.849853 181.296263 
L 442.483284 180.945837 
L 443.116716 180.814427 
L 444.383578 180.025969 
L 445.017009 179.894559 
L 446.283871 179.281314 
L 448.184164 178.492856 
L 449.451026 177.616791 
L 450.717889 176.302694 
L 453.885044 174.024926 
L 455.151906 172.973649 
L 455.785337 172.710829 
L 456.418768 172.009977 
L 457.052199 171.528142 
L 458.319062 171.09011 
L 458.952493 170.564471 
L 460.219355 169.907422 
L 460.852786 169.732209 
L 461.486217 169.294177 
L 462.119648 169.162767 
L 464.019941 168.155293 
L 465.286804 167.410638 
L 471.621114 165.176673 
L 472.254545 164.607231 
L 474.154839 163.906379 
L 475.421701 163.51215 
L 476.055132 163.030315 
L 478.588856 161.716218 
L 479.222287 161.365792 
L 480.48915 158.869007 
L 481.756012 157.379698 
L 483.022874 156.635043 
L 484.923167 155.890388 
L 485.556598 155.802781 
L 486.190029 155.452355 
L 488.090323 154.882913 
L 490.624047 153.744029 
L 491.257478 153.3498 
L 492.52434 152.911768 
L 496.324927 150.721606 
L 496.958358 150.064558 
L 497.591789 149.670329 
L 499.492082 148.838067 
L 500.125513 148.400035 
L 501.392375 147.78679 
L 503.292669 146.779315 
L 503.9261 146.604102 
L 504.559531 146.122267 
L 505.192962 145.859447 
L 505.826393 145.728038 
L 507.093255 145.290005 
L 508.993548 144.589153 
L 509.626979 144.151121 
L 510.893842 143.800695 
L 512.160704 143.31886 
L 512.794135 142.837024 
L 514.060997 142.442795 
L 514.694428 142.136172 
L 515.327859 141.960959 
L 516.594721 141.084895 
L 517.861584 140.515453 
L 519.128446 139.551782 
L 520.395308 139.113749 
L 521.028739 138.588111 
L 521.66217 138.500504 
L 522.929032 137.580636 
L 524.195894 136.967391 
L 524.829326 136.704572 
L 525.462757 136.091326 
L 529.263343 134.733426 
L 531.163636 133.901165 
L 533.06393 133.331723 
L 534.330792 133.15651 
L 534.964223 132.89369 
L 535.597654 132.806084 
L 536.864516 132.280445 
L 537.497947 132.236642 
L 540.031672 131.316774 
L 541.931965 130.002677 
L 542.565396 129.739857 
L 543.198827 129.345628 
L 545.09912 128.513367 
L 546.999413 127.374483 
L 547.632845 126.980254 
L 548.899707 126.673631 
L 550.166569 125.797566 
L 552.700293 125.009108 
L 553.333724 124.746289 
L 554.600587 124.439666 
L 557.767742 123.432192 
L 559.668035 123.081766 
L 562.20176 122.293308 
L 562.835191 122.030488 
L 563.468622 121.942882 
L 564.102053 121.636259 
L 565.368915 121.37344 
L 566.002346 121.066817 
L 567.902639 120.628785 
L 569.169501 120.365966 
L 572.970088 119.665114 
L 574.23695 119.402294 
L 574.870381 119.270885 
L 575.503812 119.008065 
L 576.137243 118.964262 
L 578.037537 118.438623 
L 578.670968 118.088197 
L 581.838123 117.299739 
L 582.471554 117.16833 
L 583.738416 116.730297 
L 585.63871 116.073249 
L 586.272141 115.985642 
L 588.172434 115.328594 
L 588.805865 115.328594 
L 590.072727 114.890561 
L 590.706158 114.277316 
L 591.339589 113.970694 
L 592.606452 113.576464 
L 595.140176 112.612793 
L 595.773607 112.481384 
L 596.407038 112.087155 
L 597.040469 111.955745 
L 597.6739 111.561516 
L 600.841056 110.641648 
L 601.474487 110.247419 
L 602.107918 110.072206 
L 602.741349 109.546567 
L 604.641642 109.196141 
L 605.908504 108.495289 
L 606.541935 107.794438 
L 607.808798 107.531618 
L 612.242815 106.524144 
L 612.876246 106.348931 
L 614.143109 106.305128 
L 614.77654 105.998505 
L 617.310264 105.560473 
L 617.943695 105.25385 
L 619.843988 104.991031 
L 622.377713 104.202573 
L 624.278006 103.76454 
L 626.178299 103.282705 
L 628.712023 102.494246 
L 629.345455 102.362837 
L 629.978886 102.056214 
L 630.612317 101.968608 
L 631.245748 101.749592 
L 631.879179 101.399166 
L 633.779472 100.742117 
L 634.412903 100.260282 
L 635.679765 99.909856 
L 636.313196 99.647036 
L 637.580059 99.29661 
L 640.113783 98.157726 
L 642.014076 98.026317 
L 644.547801 97.237859 
L 645.181232 96.843629 
L 646.448094 96.4494 
L 648.348387 95.485729 
L 648.981818 95.354319 
L 649.615249 95.047697 
L 650.24868 94.96009 
L 657.216422 92.638519 
L 659.750147 92.025274 
L 660.383578 91.850061 
L 661.65044 91.280619 
L 662.283871 91.193012 
L 663.550733 90.842586 
L 664.184164 90.360751 
L 664.817595 90.054128 
L 665.451026 89.309473 
L 666.084457 88.871441 
L 667.35132 88.477212 
L 667.984751 87.951573 
L 674.952493 85.104363 
L 676.219355 84.79774 
L 677.486217 84.228298 
L 679.38651 83.133217 
L 680.019941 83.001808 
L 680.653372 82.519972 
L 681.920235 81.906727 
L 683.187097 81.118269 
L 685.08739 80.242204 
L 685.720821 79.804172 
L 686.987683 79.322336 
L 688.254545 78.577681 
L 688.887977 78.271059 
L 689.521408 77.833026 
L 690.78827 77.394994 
L 691.421701 77.263584 
L 693.955425 76.1247 
L 697.122581 75.029619 
L 697.756012 74.985816 
L 698.389443 74.810603 
L 699.022874 74.416374 
L 699.656305 74.328768 
L 700.289736 74.109751 
L 702.190029 73.759326 
L 705.357185 72.138606 
L 706.624047 71.437754 
L 707.257478 71.350148 
L 709.157771 70.342673 
L 711.058065 69.641822 
L 712.958358 68.80956 
L 715.492082 67.802086 
L 716.125513 67.626873 
L 716.758944 67.232644 
L 718.025806 67.057431 
L 718.659238 66.663202 
L 719.292669 66.619399 
L 720.559531 66.225169 
L 721.826393 65.611924 
L 722.459824 65.524318 
L 723.093255 65.261498 
L 723.726686 65.130089 
L 725.626979 64.297827 
L 726.260411 64.166418 
L 726.893842 63.903598 
L 730.060997 63.158943 
L 731.96129 62.414288 
L 733.861584 61.275404 
L 735.128446 60.749765 
L 735.761877 60.486946 
L 736.395308 60.092717 
L 737.66217 59.829897 
L 738.295601 59.479472 
L 738.929032 59.348062 
L 740.195894 58.64721 
L 743.996481 56.895081 
L 747.163636 55.8 
L 747.163636 55.8 
" clip-path="url(#p7c87765585)" style="fill: none; stroke: #1f77b4; stroke-width: 1.5; stroke-linecap: square"/>
   </g>
   <g id="line2d_34">
    <path d="M 139.069795 307.8 
L 140.970088 307.712394 
L 142.870381 307.66859 
L 146.670968 307.580984 
L 149.838123 307.449574 
L 152.371848 307.449574 
L 153.005279 307.274361 
L 155.539003 307.186755 
L 157.439296 306.967739 
L 159.339589 306.792526 
L 163.140176 306.617313 
L 163.773607 306.617313 
L 164.407038 306.485903 
L 166.940762 306.398297 
L 168.207625 306.31069 
L 173.275073 306.223084 
L 176.442229 306.091674 
L 184.043402 306.004067 
L 187.210557 305.872658 
L 191.011144 305.785051 
L 193.544868 305.697445 
L 199.245748 305.609838 
L 201.146041 305.566035 
L 203.046334 305.522232 
L 204.946628 305.303216 
L 208.747214 305.259412 
L 210.014076 305.171806 
L 214.448094 305.0842 
L 221.415836 304.68997 
L 225.849853 304.602364 
L 227.116716 304.514758 
L 229.017009 304.427151 
L 232.817595 304.251938 
L 235.35132 304.208135 
L 237.251613 304.032922 
L 247.38651 303.419677 
L 249.920235 303.33207 
L 254.354252 303.113054 
L 256.254545 303.025448 
L 262.588856 302.675022 
L 269.556598 302.587415 
L 272.090323 302.324596 
L 273.357185 302.236989 
L 281.591789 301.579941 
L 285.392375 301.098105 
L 287.9261 301.010499 
L 292.993548 300.35345 
L 296.160704 300.265844 
L 304.395308 299.608795 
L 307.562463 299.25837 
L 310.096188 299.170763 
L 311.36305 299.083157 
L 313.896774 298.99555 
L 315.163636 298.907944 
L 318.330792 298.601321 
L 318.964223 298.426108 
L 322.764809 298.250895 
L 325.931965 298.163289 
L 334.166569 297.681453 
L 336.066862 297.593847 
L 344.301466 297.112011 
L 348.735484 297.024405 
L 349.368915 296.892995 
L 354.436364 296.805388 
L 358.870381 296.586372 
L 365.838123 296.498766 
L 370.272141 296.27975 
L 375.339589 296.192143 
L 380.407038 295.929324 
L 384.841056 295.841717 
L 396.876246 295.097062 
L 401.943695 295.009456 
L 418.412903 293.958178 
L 422.21349 293.870572 
L 424.113783 293.826769 
L 426.014076 293.782965 
L 427.91437 293.607752 
L 432.981818 293.520146 
L 434.24868 293.30113 
L 435.515543 293.213523 
L 438.682698 293.082114 
L 439.94956 292.994507 
L 441.216422 292.906901 
L 446.917302 292.819294 
L 448.184164 292.687885 
L 450.717889 292.644081 
L 451.35132 292.512672 
L 452.618182 292.425065 
L 453.251613 292.293655 
L 455.151906 292.206049 
L 465.920235 291.549001 
L 467.820528 291.461394 
L 470.987683 291.329984 
L 479.855718 291.242378 
L 484.289736 291.023362 
L 489.357185 290.935755 
L 491.890909 290.848149 
L 494.424633 290.804346 
L 495.691496 290.672936 
L 498.22522 290.585329 
L 504.559531 290.234904 
L 508.360117 290.1911 
L 510.260411 290.015887 
L 512.160704 289.972084 
L 516.594721 289.884478 
L 519.128446 289.796871 
L 526.729619 289.709265 
L 529.896774 289.577855 
L 533.697361 289.490249 
L 535.597654 289.271232 
L 539.39824 289.227429 
L 541.298534 289.052216 
L 543.832258 288.96461 
L 551.433431 288.877003 
L 554.600587 288.745594 
L 565.368915 288.70179 
L 566.635777 288.614184 
L 568.53607 288.570381 
L 576.770674 288.482774 
L 578.037537 288.395168 
L 585.005279 288.307561 
L 587.539003 288.219955 
L 595.140176 288.176152 
L 596.407038 288.088545 
L 605.908504 288.044742 
L 607.808798 287.869529 
L 618.577126 287.781922 
L 620.477419 287.738119 
L 636.946628 287.650513 
L 638.846921 287.60671 
L 650.882111 287.519103 
L 653.415836 287.431497 
L 657.849853 287.34389 
L 662.917302 287.081071 
L 665.451026 286.993464 
L 667.984751 286.905858 
L 671.785337 286.818251 
L 673.68563 286.774448 
L 676.219355 286.686842 
L 678.119648 286.643038 
L 681.286804 286.555432 
L 682.553666 286.467825 
L 686.354252 286.380219 
L 689.521408 286.248809 
L 690.78827 286.205006 
L 692.688563 286.029793 
L 696.48915 285.942187 
L 699.022874 285.85458 
L 705.357185 285.766974 
L 708.52434 285.635564 
L 714.858651 285.547958 
L 719.292669 285.328941 
L 724.993548 285.241335 
L 726.260411 285.153728 
L 733.861584 285.066122 
L 735.761877 285.022319 
L 742.729619 284.934712 
L 745.263343 284.671893 
L 747.163636 284.62809 
L 747.163636 284.62809 
" clip-path="url(#p7c87765585)" style="fill: none; stroke: #ff7f0e; stroke-width: 1.5; stroke-linecap: square"/>
   </g>
   <g id="patch_3">
    <path d="M 108 320.4 
L 108 43.2 
" style="fill: none; stroke: #a9a9a9; stroke-width: 0.8; stroke-linejoin: miter; stroke-linecap: square"/>
   </g>
   <g id="patch_4">
    <path d="M 777.6 320.4 
L 777.6 43.2 
" style="fill: none"/>
   </g>
   <g id="patch_5">
    <path d="M 108 320.4 
L 777.6 320.4 
" style="fill: none; stroke: #a9a9a9; stroke-width: 0.8; stroke-linejoin: miter; stroke-linecap: square"/>
   </g>
   <g id="patch_6">
    <path d="M 108 43.2 
L 777.6 43.2 
" style="fill: none"/>
   </g>
   <g id="text_17">
    <!-- get_subscribe history -->
    <g style="fill: #a9a9a9" transform="translate(378.6075 37.2) scale(0.12 -0.12)">
     <defs>
      <path id="DejaVuSans-67" d="M 2906 1791 
Q 2906 2416 2648 2759 
Q 2391 3103 1925 3103 
Q 1463 3103 1205 2759 
Q 947 2416 947 1791 
Q 947 1169 1205 825 
Q 1463 481 1925 481 
Q 2391 481 2648 825 
Q 2906 1169 2906 1791 
z
M 3481 434 
Q 3481 -459 3084 -895 
Q 2688 -1331 1869 -1331 
Q 1566 -1331 1297 -1286 
Q 1028 -1241 775 -1147 
L 775 -588 
Q 1028 -725 1275 -790 
Q 1522 -856 1778 -856 
Q 2344 -856 2625 -561 
Q 2906 -266 2906 331 
L 2906 616 
Q 2728 306 2450 153 
Q 2172 0 1784 0 
Q 1141 0 747 490 
Q 353 981 353 1791 
Q 353 2603 747 3093 
Q 1141 3584 1784 3584 
Q 2172 3584 2450 3431 
Q 2728 3278 2906 2969 
L 2906 3500 
L 3481 3500 
L 3481 434 
z
" transform="scale(0.015625)"/>
      <path id="DejaVuSans-65" d="M 3597 1894 
L 3597 1613 
L 953 1613 
Q 991 1019 1311 708 
Q 1631 397 2203 397 
Q 2534 397 2845 478 
Q 3156 559 3463 722 
L 3463 178 
Q 3153 47 2828 -22 
Q 2503 -91 2169 -91 
Q 1331 -91 842 396 
Q 353 884 353 1716 
Q 353 2575 817 3079 
Q 1281 3584 2069 3584 
Q 2775 3584 3186 3129 
Q 3597 2675 3597 1894 
z
M 3022 2063 
Q 3016 2534 2758 2815 
Q 2500 3097 2075 3097 
Q 1594 3097 1305 2825 
Q 1016 2553 972 2059 
L 3022 2063 
z
" transform="scale(0.015625)"/>
      <path id="DejaVuSans-74" d="M 1172 4494 
L 1172 3500 
L 2356 3500 
L 2356 3053 
L 1172 3053 
L 1172 1153 
Q 1172 725 1289 603 
Q 1406 481 1766 481 
L 2356 481 
L 2356 0 
L 1766 0 
Q 1100 0 847 248 
Q 594 497 594 1153 
L 594 3053 
L 172 3053 
L 172 3500 
L 594 3500 
L 594 4494 
L 1172 4494 
z
" transform="scale(0.015625)"/>
      <path id="DejaVuSans-5f" d="M 3263 -1063 
L 3263 -1509 
L -63 -1509 
L -63 -1063 
L 3263 -1063 
z
" transform="scale(0.015625)"/>
      <path id="DejaVuSans-73" d="M 2834 3397 
L 2834 2853 
Q 2591 2978 2328 3040 
Q 2066 3103 1784 3103 
Q 1356 3103 1142 2972 
Q 928 2841 928 2578 
Q 928 2378 1081 2264 
Q 1234 2150 1697 2047 
L 1894 2003 
Q 2506 1872 2764 1633 
Q 3022 1394 3022 966 
Q 3022 478 2636 193 
Q 2250 -91 1575 -91 
Q 1294 -91 989 -36 
Q 684 19 347 128 
L 347 722 
Q 666 556 975 473 
Q 1284 391 1588 391 
Q 1994 391 2212 530 
Q 2431 669 2431 922 
Q 2431 1156 2273 1281 
Q 2116 1406 1581 1522 
L 1381 1569 
Q 847 1681 609 1914 
Q 372 2147 372 2553 
Q 372 3047 722 3315 
Q 1072 3584 1716 3584 
Q 2034 3584 2315 3537 
Q 2597 3491 2834 3397 
z
" transform="scale(0.015625)"/>
      <path id="DejaVuSans-75" d="M 544 1381 
L 544 3500 
L 1119 3500 
L 1119 1403 
Q 1119 906 1312 657 
Q 1506 409 1894 409 
Q 2359 409 2629 706 
Q 2900 1003 2900 1516 
L 2900 3500 
L 3475 3500 
L 3475 0 
L 2900 0 
L 2900 538 
Q 2691 219 2414 64 
Q 2138 -91 1772 -91 
Q 1169 -91 856 284 
Q 544 659 544 1381 
z
M 1991 3584 
L 1991 3584 
z
" transform="scale(0.015625)"/>
      <path id="DejaVuSans-62" d="M 3116 1747 
Q 3116 2381 2855 2742 
Q 2594 3103 2138 3103 
Q 1681 3103 1420 2742 
Q 1159 2381 1159 1747 
Q 1159 1113 1420 752 
Q 1681 391 2138 391 
Q 2594 391 2855 752 
Q 3116 1113 3116 1747 
z
M 1159 2969 
Q 1341 3281 1617 3432 
Q 1894 3584 2278 3584 
Q 2916 3584 3314 3078 
Q 3713 2572 3713 1747 
Q 3713 922 3314 415 
Q 2916 -91 2278 -91 
Q 1894 -91 1617 61 
Q 1341 213 1159 525 
L 1159 0 
L 581 0 
L 581 4863 
L 1159 4863 
L 1159 2969 
z
" transform="scale(0.015625)"/>
      <path id="DejaVuSans-63" d="M 3122 3366 
L 3122 2828 
Q 2878 2963 2633 3030 
Q 2388 3097 2138 3097 
Q 1578 3097 1268 2742 
Q 959 2388 959 1747 
Q 959 1106 1268 751 
Q 1578 397 2138 397 
Q 2388 397 2633 464 
Q 2878 531 3122 666 
L 3122 134 
Q 2881 22 2623 -34 
Q 2366 -91 2075 -91 
Q 1284 -91 818 406 
Q 353 903 353 1747 
Q 353 2603 823 3093 
Q 1294 3584 2113 3584 
Q 2378 3584 2631 3529 
Q 2884 3475 3122 3366 
z
" transform="scale(0.015625)"/>
      <path id="DejaVuSans-72" d="M 2631 2963 
Q 2534 3019 2420 3045 
Q 2306 3072 2169 3072 
Q 1681 3072 1420 2755 
Q 1159 2438 1159 1844 
L 1159 0 
L 581 0 
L 581 3500 
L 1159 3500 
L 1159 2956 
Q 1341 3275 1631 3429 
Q 1922 3584 2338 3584 
Q 2397 3584 2469 3576 
Q 2541 3569 2628 3553 
L 2631 2963 
z
" transform="scale(0.015625)"/>
      <path id="DejaVuSans-69" d="M 603 3500 
L 1178 3500 
L 1178 0 
L 603 0 
L 603 3500 
z
M 603 4863 
L 1178 4863 
L 1178 4134 
L 603 4134 
L 603 4863 
z
" transform="scale(0.015625)"/>
      <path id="DejaVuSans-20" transform="scale(0.015625)"/>
      <path id="DejaVuSans-68" d="M 3513 2113 
L 3513 0 
L 2938 0 
L 2938 2094 
Q 2938 2591 2744 2837 
Q 2550 3084 2163 3084 
Q 1697 3084 1428 2787 
Q 1159 2491 1159 1978 
L 1159 0 
L 581 0 
L 581 4863 
L 1159 4863 
L 1159 2956 
Q 1366 3272 1645 3428 
Q 1925 3584 2291 3584 
Q 2894 3584 3203 3211 
Q 3513 2838 3513 2113 
z
" transform="scale(0.015625)"/>
      <path id="DejaVuSans-6f" d="M 1959 3097 
Q 1497 3097 1228 2736 
Q 959 2375 959 1747 
Q 959 1119 1226 758 
Q 1494 397 1959 397 
Q 2419 397 2687 759 
Q 2956 1122 2956 1747 
Q 2956 2369 2687 2733 
Q 2419 3097 1959 3097 
z
M 1959 3584 
Q 2709 3584 3137 3096 
Q 3566 2609 3566 1747 
Q 3566 888 3137 398 
Q 2709 -91 1959 -91 
Q 1206 -91 779 398 
Q 353 888 353 1747 
Q 353 2609 779 3096 
Q 1206 3584 1959 3584 
z
" transform="scale(0.015625)"/>
      <path id="DejaVuSans-79" d="M 2059 -325 
Q 1816 -950 1584 -1140 
Q 1353 -1331 966 -1331 
L 506 -1331 
L 506 -850 
L 844 -850 
Q 1081 -850 1212 -737 
Q 1344 -625 1503 -206 
L 1606 56 
L 191 3500 
L 800 3500 
L 1894 763 
L 2988 3500 
L 3597 3500 
L 2059 -325 
z
" transform="scale(0.015625)"/>
     </defs>
     <use xlink:href="#DejaVuSans-67"/>
     <use xlink:href="#DejaVuSans-65" x="63.476562"/>
     <use xlink:href="#DejaVuSans-74" x="125"/>
     <use xlink:href="#DejaVuSans-5f" x="164.208984"/>
     <use xlink:href="#DejaVuSans-73" x="214.208984"/>
     <use xlink:href="#DejaVuSans-75" x="266.308594"/>
     <use xlink:href="#DejaVuSans-62" x="329.6875"/>
     <use xlink:href="#DejaVuSans-73" x="393.164062"/>
     <use xlink:href="#DejaVuSans-63" x="445.263672"/>
     <use xlink:href="#DejaVuSans-72" x="500.244141"/>
     <use xlink:href="#DejaVuSans-69" x="541.357422"/>
     <use xlink:href="#DejaVuSans-62" x="569.140625"/>
     <use xlink:href="#DejaVuSans-65" x="632.617188"/>
     <use xlink:href="#DejaVuSans-20" x="694.140625"/>
     <use xlink:href="#DejaVuSans-68" x="725.927734"/>
     <use xlink:href="#DejaVuSans-69" x="789.306641"/>
     <use xlink:href="#DejaVuSans-73" x="817.089844"/>
     <use xlink:href="#DejaVuSans-74" x="869.189453"/>
     <use xlink:href="#DejaVuSans-6f" x="908.398438"/>
     <use xlink:href="#DejaVuSans-72" x="969.580078"/>
     <use xlink:href="#DejaVuSans-79" x="1010.693359"/>
    </g>
   </g>
   <g id="legend_1">
    <g id="line2d_35">
     <path d="M 815.08 328.498438 
L 825.08 328.498438 
L 835.08 328.498438 
" style="fill: none; stroke: #1f77b4; stroke-width: 1.5; stroke-linecap: square"/>
    </g>
    <g id="text_18">
     <!-- star -->
     <g style="fill: #a9a9a9" transform="translate(843.08 331.998438) scale(0.1 -0.1)">
      <defs>
       <path id="DejaVuSans-61" d="M 2194 1759 
Q 1497 1759 1228 1600 
Q 959 1441 959 1056 
Q 959 750 1161 570 
Q 1363 391 1709 391 
Q 2188 391 2477 730 
Q 2766 1069 2766 1631 
L 2766 1759 
L 2194 1759 
z
M 3341 1997 
L 3341 0 
L 2766 0 
L 2766 531 
Q 2569 213 2275 61 
Q 1981 -91 1556 -91 
Q 1019 -91 701 211 
Q 384 513 384 1019 
Q 384 1609 779 1909 
Q 1175 2209 1959 2209 
L 2766 2209 
L 2766 2266 
Q 2766 2663 2505 2880 
Q 2244 3097 1772 3097 
Q 1472 3097 1187 3025 
Q 903 2953 641 2809 
L 641 3341 
Q 956 3463 1253 3523 
Q 1550 3584 1831 3584 
Q 2591 3584 2966 3190 
Q 3341 2797 3341 1997 
z
" transform="scale(0.015625)"/>
      </defs>
      <use xlink:href="#DejaVuSans-73"/>
      <use xlink:href="#DejaVuSans-74" x="52.099609"/>
      <use xlink:href="#DejaVuSans-61" x="91.308594"/>
      <use xlink:href="#DejaVuSans-72" x="152.587891"/>
     </g>
    </g>
    <g id="line2d_36">
     <path d="M 815.08 343.176562 
L 825.08 343.176562 
L 835.08 343.176562 
" style="fill: none; stroke: #ff7f0e; stroke-width: 1.5; stroke-linecap: square"/>
    </g>
    <g id="text_19">
     <!-- fork -->
     <g style="fill: #a9a9a9" transform="translate(843.08 346.676562) scale(0.1 -0.1)">
      <defs>
       <path id="DejaVuSans-66" d="M 2375 4863 
L 2375 4384 
L 1825 4384 
Q 1516 4384 1395 4259 
Q 1275 4134 1275 3809 
L 1275 3500 
L 2222 3500 
L 2222 3053 
L 1275 3053 
L 1275 0 
L 697 0 
L 697 3053 
L 147 3053 
L 147 3500 
L 697 3500 
L 697 3744 
Q 697 4328 969 4595 
Q 1241 4863 1831 4863 
L 2375 4863 
z
" transform="scale(0.015625)"/>
       <path id="DejaVuSans-6b" d="M 581 4863 
L 1159 4863 
L 1159 1991 
L 2875 3500 
L 3609 3500 
L 1753 1863 
L 3688 0 
L 2938 0 
L 1159 1709 
L 1159 0 
L 581 0 
L 581 4863 
z
" transform="scale(0.015625)"/>
      </defs>
      <use xlink:href="#DejaVuSans-66"/>
      <use xlink:href="#DejaVuSans-6f" x="35.205078"/>
      <use xlink:href="#DejaVuSans-72" x="96.386719"/>
      <use xlink:href="#DejaVuSans-6b" x="137.5"/>
     </g>
    </g>
   </g>
  </g>
 </g>
 <defs>
  <clipPath id="p7c87765585">
   <rect x="108" y="43.2" width="669.6" height="277.2"/>
  </clipPath>
 </defs>
</svg>
