<?xml version="1.0" encoding="utf-8" standalone="no"?>
<!DOCTYPE svg PUBLIC "-//W3C//DTD SVG 1.1//EN"
  "http://www.w3.org/Graphics/SVG/1.1/DTD/svg11.dtd">
<svg xmlns:xlink="http://www.w3.org/1999/xlink" width="864pt" height="360pt" viewBox="0 0 864 360" xmlns="http://www.w3.org/2000/svg" version="1.1">
 <metadata>
  <rdf:RDF xmlns:dc="http://purl.org/dc/elements/1.1/" xmlns:cc="http://creativecommons.org/ns#" xmlns:rdf="http://www.w3.org/1999/02/22-rdf-syntax-ns#">
   <cc:Work>
    <dc:type rdf:resource="http://purl.org/dc/dcmitype/StillImage"/>
    <dc:date>2024-03-11T08:10:40.086169</dc:date>
    <dc:format>image/svg+xml</dc:format>
    <dc:creator>
     <cc:Agent>
      <dc:title>Matplotlib v3.8.3, https://matplotlib.org/</dc:title>
     </cc:Agent>
    </dc:creator>
   </cc:Work>
  </rdf:RDF>
 </metadata>
 <defs>
  <style type="text/css">*{stroke-linejoin: round; stroke-linecap: butt}</style>
 </defs>
 <g id="figure_1">
  <g id="patch_1">
   <path d="M 0 360 
L 864 360 
L 864 0 
L 0 0 
L 0 360 
z
" style="fill: none; opacity: 0"/>
  </g>
  <g id="axes_1">
   <g id="patch_2">
    <path d="M 108 320.4 
L 777.6 320.4 
L 777.6 43.2 
L 108 43.2 
L 108 320.4 
z
" style="fill: none; opacity: 0"/>
   </g>
   <g id="matplotlib.axis_1">
    <g id="xtick_1">
     <g id="line2d_1">
      <path d="M 163.140176 320.4 
L 163.140176 43.2 
" clip-path="url(#p26a31350a4)" style="fill: none; stroke-dasharray: 5.12,1.28,0.8,1.28; stroke-dashoffset: 0; stroke: #b0b0b0; stroke-width: 0.8"/>
     </g>
     <g id="line2d_2">
      <defs>
       <path id="m23c7192a89" d="M 0 0 
L 0 3.5 
" style="stroke: #a9a9a9; stroke-width: 0.8"/>
      </defs>
      <g>
       <use xlink:href="#m23c7192a89" x="163.140176" y="320.4" style="fill: #a9a9a9; stroke: #a9a9a9; stroke-width: 0.8"/>
      </g>
     </g>
     <g id="text_1">
      <!-- 2021-09 -->
      <g style="fill: #a9a9a9" transform="translate(142.24877 334.998438) scale(0.1 -0.1)">
       <defs>
        <path id="DejaVuSans-32" d="M 1228 531 
L 3431 531 
L 3431 0 
L 469 0 
L 469 531 
Q 828 903 1448 1529 
Q 2069 2156 2228 2338 
Q 2531 2678 2651 2914 
Q 2772 3150 2772 3378 
Q 2772 3750 2511 3984 
Q 2250 4219 1831 4219 
Q 1534 4219 1204 4116 
Q 875 4013 500 3803 
L 500 4441 
Q 881 4594 1212 4672 
Q 1544 4750 1819 4750 
Q 2544 4750 2975 4387 
Q 3406 4025 3406 3419 
Q 3406 3131 3298 2873 
Q 3191 2616 2906 2266 
Q 2828 2175 2409 1742 
Q 1991 1309 1228 531 
z
" transform="scale(0.015625)"/>
        <path id="DejaVuSans-30" d="M 2034 4250 
Q 1547 4250 1301 3770 
Q 1056 3291 1056 2328 
Q 1056 1369 1301 889 
Q 1547 409 2034 409 
Q 2525 409 2770 889 
Q 3016 1369 3016 2328 
Q 3016 3291 2770 3770 
Q 2525 4250 2034 4250 
z
M 2034 4750 
Q 2819 4750 3233 4129 
Q 3647 3509 3647 2328 
Q 3647 1150 3233 529 
Q 2819 -91 2034 -91 
Q 1250 -91 836 529 
Q 422 1150 422 2328 
Q 422 3509 836 4129 
Q 1250 4750 2034 4750 
z
" transform="scale(0.015625)"/>
        <path id="DejaVuSans-31" d="M 794 531 
L 1825 531 
L 1825 4091 
L 703 3866 
L 703 4441 
L 1819 4666 
L 2450 4666 
L 2450 531 
L 3481 531 
L 3481 0 
L 794 0 
L 794 531 
z
" transform="scale(0.015625)"/>
        <path id="DejaVuSans-2d" d="M 313 2009 
L 1997 2009 
L 1997 1497 
L 313 1497 
L 313 2009 
z
" transform="scale(0.015625)"/>
        <path id="DejaVuSans-39" d="M 703 97 
L 703 672 
Q 941 559 1184 500 
Q 1428 441 1663 441 
Q 2288 441 2617 861 
Q 2947 1281 2994 2138 
Q 2813 1869 2534 1725 
Q 2256 1581 1919 1581 
Q 1219 1581 811 2004 
Q 403 2428 403 3163 
Q 403 3881 828 4315 
Q 1253 4750 1959 4750 
Q 2769 4750 3195 4129 
Q 3622 3509 3622 2328 
Q 3622 1225 3098 567 
Q 2575 -91 1691 -91 
Q 1453 -91 1209 -44 
Q 966 3 703 97 
z
M 1959 2075 
Q 2384 2075 2632 2365 
Q 2881 2656 2881 3163 
Q 2881 3666 2632 3958 
Q 2384 4250 1959 4250 
Q 1534 4250 1286 3958 
Q 1038 3666 1038 3163 
Q 1038 2656 1286 2365 
Q 1534 2075 1959 2075 
z
" transform="scale(0.015625)"/>
       </defs>
       <use xlink:href="#DejaVuSans-32"/>
       <use xlink:href="#DejaVuSans-30" x="63.623047"/>
       <use xlink:href="#DejaVuSans-32" x="127.246094"/>
       <use xlink:href="#DejaVuSans-31" x="190.869141"/>
       <use xlink:href="#DejaVuSans-2d" x="254.492188"/>
       <use xlink:href="#DejaVuSans-30" x="290.576172"/>
       <use xlink:href="#DejaVuSans-39" x="354.199219"/>
      </g>
     </g>
    </g>
    <g id="xtick_2">
     <g id="line2d_3">
      <path d="M 240.418768 320.4 
L 240.418768 43.2 
" clip-path="url(#p26a31350a4)" style="fill: none; stroke-dasharray: 5.12,1.28,0.8,1.28; stroke-dashoffset: 0; stroke: #b0b0b0; stroke-width: 0.8"/>
     </g>
     <g id="line2d_4">
      <g>
       <use xlink:href="#m23c7192a89" x="240.418768" y="320.4" style="fill: #a9a9a9; stroke: #a9a9a9; stroke-width: 0.8"/>
      </g>
     </g>
     <g id="text_2">
      <!-- 2022-01 -->
      <g style="fill: #a9a9a9" transform="translate(219.527362 334.998438) scale(0.1 -0.1)">
       <use xlink:href="#DejaVuSans-32"/>
       <use xlink:href="#DejaVuSans-30" x="63.623047"/>
       <use xlink:href="#DejaVuSans-32" x="127.246094"/>
       <use xlink:href="#DejaVuSans-32" x="190.869141"/>
       <use xlink:href="#DejaVuSans-2d" x="254.492188"/>
       <use xlink:href="#DejaVuSans-30" x="290.576172"/>
       <use xlink:href="#DejaVuSans-31" x="354.199219"/>
      </g>
     </g>
    </g>
    <g id="xtick_3">
     <g id="line2d_5">
      <path d="M 316.430499 320.4 
L 316.430499 43.2 
" clip-path="url(#p26a31350a4)" style="fill: none; stroke-dasharray: 5.12,1.28,0.8,1.28; stroke-dashoffset: 0; stroke: #b0b0b0; stroke-width: 0.8"/>
     </g>
     <g id="line2d_6">
      <g>
       <use xlink:href="#m23c7192a89" x="316.430499" y="320.4" style="fill: #a9a9a9; stroke: #a9a9a9; stroke-width: 0.8"/>
      </g>
     </g>
     <g id="text_3">
      <!-- 2022-05 -->
      <g style="fill: #a9a9a9" transform="translate(295.539092 334.998438) scale(0.1 -0.1)">
       <defs>
        <path id="DejaVuSans-35" d="M 691 4666 
L 3169 4666 
L 3169 4134 
L 1269 4134 
L 1269 2991 
Q 1406 3038 1543 3061 
Q 1681 3084 1819 3084 
Q 2600 3084 3056 2656 
Q 3513 2228 3513 1497 
Q 3513 744 3044 326 
Q 2575 -91 1722 -91 
Q 1428 -91 1123 -41 
Q 819 9 494 109 
L 494 744 
Q 775 591 1075 516 
Q 1375 441 1709 441 
Q 2250 441 2565 725 
Q 2881 1009 2881 1497 
Q 2881 1984 2565 2268 
Q 2250 2553 1709 2553 
Q 1456 2553 1204 2497 
Q 953 2441 691 2322 
L 691 4666 
z
" transform="scale(0.015625)"/>
       </defs>
       <use xlink:href="#DejaVuSans-32"/>
       <use xlink:href="#DejaVuSans-30" x="63.623047"/>
       <use xlink:href="#DejaVuSans-32" x="127.246094"/>
       <use xlink:href="#DejaVuSans-32" x="190.869141"/>
       <use xlink:href="#DejaVuSans-2d" x="254.492188"/>
       <use xlink:href="#DejaVuSans-30" x="290.576172"/>
       <use xlink:href="#DejaVuSans-35" x="354.199219"/>
      </g>
     </g>
    </g>
    <g id="xtick_4">
     <g id="line2d_7">
      <path d="M 394.342522 320.4 
L 394.342522 43.2 
" clip-path="url(#p26a31350a4)" style="fill: none; stroke-dasharray: 5.12,1.28,0.8,1.28; stroke-dashoffset: 0; stroke: #b0b0b0; stroke-width: 0.8"/>
     </g>
     <g id="line2d_8">
      <g>
       <use xlink:href="#m23c7192a89" x="394.342522" y="320.4" style="fill: #a9a9a9; stroke: #a9a9a9; stroke-width: 0.8"/>
      </g>
     </g>
     <g id="text_4">
      <!-- 2022-09 -->
      <g style="fill: #a9a9a9" transform="translate(373.451116 334.998438) scale(0.1 -0.1)">
       <use xlink:href="#DejaVuSans-32"/>
       <use xlink:href="#DejaVuSans-30" x="63.623047"/>
       <use xlink:href="#DejaVuSans-32" x="127.246094"/>
       <use xlink:href="#DejaVuSans-32" x="190.869141"/>
       <use xlink:href="#DejaVuSans-2d" x="254.492188"/>
       <use xlink:href="#DejaVuSans-30" x="290.576172"/>
       <use xlink:href="#DejaVuSans-39" x="354.199219"/>
      </g>
     </g>
    </g>
    <g id="xtick_5">
     <g id="line2d_9">
      <path d="M 471.621114 320.4 
L 471.621114 43.2 
" clip-path="url(#p26a31350a4)" style="fill: none; stroke-dasharray: 5.12,1.28,0.8,1.28; stroke-dashoffset: 0; stroke: #b0b0b0; stroke-width: 0.8"/>
     </g>
     <g id="line2d_10">
      <g>
       <use xlink:href="#m23c7192a89" x="471.621114" y="320.4" style="fill: #a9a9a9; stroke: #a9a9a9; stroke-width: 0.8"/>
      </g>
     </g>
     <g id="text_5">
      <!-- 2023-01 -->
      <g style="fill: #a9a9a9" transform="translate(450.729708 334.998438) scale(0.1 -0.1)">
       <defs>
        <path id="DejaVuSans-33" d="M 2597 2516 
Q 3050 2419 3304 2112 
Q 3559 1806 3559 1356 
Q 3559 666 3084 287 
Q 2609 -91 1734 -91 
Q 1441 -91 1130 -33 
Q 819 25 488 141 
L 488 750 
Q 750 597 1062 519 
Q 1375 441 1716 441 
Q 2309 441 2620 675 
Q 2931 909 2931 1356 
Q 2931 1769 2642 2001 
Q 2353 2234 1838 2234 
L 1294 2234 
L 1294 2753 
L 1863 2753 
Q 2328 2753 2575 2939 
Q 2822 3125 2822 3475 
Q 2822 3834 2567 4026 
Q 2313 4219 1838 4219 
Q 1578 4219 1281 4162 
Q 984 4106 628 3988 
L 628 4550 
Q 988 4650 1302 4700 
Q 1616 4750 1894 4750 
Q 2613 4750 3031 4423 
Q 3450 4097 3450 3541 
Q 3450 3153 3228 2886 
Q 3006 2619 2597 2516 
z
" transform="scale(0.015625)"/>
       </defs>
       <use xlink:href="#DejaVuSans-32"/>
       <use xlink:href="#DejaVuSans-30" x="63.623047"/>
       <use xlink:href="#DejaVuSans-32" x="127.246094"/>
       <use xlink:href="#DejaVuSans-33" x="190.869141"/>
       <use xlink:href="#DejaVuSans-2d" x="254.492188"/>
       <use xlink:href="#DejaVuSans-30" x="290.576172"/>
       <use xlink:href="#DejaVuSans-31" x="354.199219"/>
      </g>
     </g>
    </g>
    <g id="xtick_6">
     <g id="line2d_11">
      <path d="M 547.632845 320.4 
L 547.632845 43.2 
" clip-path="url(#p26a31350a4)" style="fill: none; stroke-dasharray: 5.12,1.28,0.8,1.28; stroke-dashoffset: 0; stroke: #b0b0b0; stroke-width: 0.8"/>
     </g>
     <g id="line2d_12">
      <g>
       <use xlink:href="#m23c7192a89" x="547.632845" y="320.4" style="fill: #a9a9a9; stroke: #a9a9a9; stroke-width: 0.8"/>
      </g>
     </g>
     <g id="text_6">
      <!-- 2023-05 -->
      <g style="fill: #a9a9a9" transform="translate(526.741438 334.998438) scale(0.1 -0.1)">
       <use xlink:href="#DejaVuSans-32"/>
       <use xlink:href="#DejaVuSans-30" x="63.623047"/>
       <use xlink:href="#DejaVuSans-32" x="127.246094"/>
       <use xlink:href="#DejaVuSans-33" x="190.869141"/>
       <use xlink:href="#DejaVuSans-2d" x="254.492188"/>
       <use xlink:href="#DejaVuSans-30" x="290.576172"/>
       <use xlink:href="#DejaVuSans-35" x="354.199219"/>
      </g>
     </g>
    </g>
    <g id="xtick_7">
     <g id="line2d_13">
      <path d="M 625.544868 320.4 
L 625.544868 43.2 
" clip-path="url(#p26a31350a4)" style="fill: none; stroke-dasharray: 5.12,1.28,0.8,1.28; stroke-dashoffset: 0; stroke: #b0b0b0; stroke-width: 0.8"/>
     </g>
     <g id="line2d_14">
      <g>
       <use xlink:href="#m23c7192a89" x="625.544868" y="320.4" style="fill: #a9a9a9; stroke: #a9a9a9; stroke-width: 0.8"/>
      </g>
     </g>
     <g id="text_7">
      <!-- 2023-09 -->
      <g style="fill: #a9a9a9" transform="translate(604.653462 334.998438) scale(0.1 -0.1)">
       <use xlink:href="#DejaVuSans-32"/>
       <use xlink:href="#DejaVuSans-30" x="63.623047"/>
       <use xlink:href="#DejaVuSans-32" x="127.246094"/>
       <use xlink:href="#DejaVuSans-33" x="190.869141"/>
       <use xlink:href="#DejaVuSans-2d" x="254.492188"/>
       <use xlink:href="#DejaVuSans-30" x="290.576172"/>
       <use xlink:href="#DejaVuSans-39" x="354.199219"/>
      </g>
     </g>
    </g>
    <g id="xtick_8">
     <g id="line2d_15">
      <path d="M 702.82346 320.4 
L 702.82346 43.2 
" clip-path="url(#p26a31350a4)" style="fill: none; stroke-dasharray: 5.12,1.28,0.8,1.28; stroke-dashoffset: 0; stroke: #b0b0b0; stroke-width: 0.8"/>
     </g>
     <g id="line2d_16">
      <g>
       <use xlink:href="#m23c7192a89" x="702.82346" y="320.4" style="fill: #a9a9a9; stroke: #a9a9a9; stroke-width: 0.8"/>
      </g>
     </g>
     <g id="text_8">
      <!-- 2024-01 -->
      <g style="fill: #a9a9a9" transform="translate(681.932054 334.998438) scale(0.1 -0.1)">
       <defs>
        <path id="DejaVuSans-34" d="M 2419 4116 
L 825 1625 
L 2419 1625 
L 2419 4116 
z
M 2253 4666 
L 3047 4666 
L 3047 1625 
L 3713 1625 
L 3713 1100 
L 3047 1100 
L 3047 0 
L 2419 0 
L 2419 1100 
L 313 1100 
L 313 1709 
L 2253 4666 
z
" transform="scale(0.015625)"/>
       </defs>
       <use xlink:href="#DejaVuSans-32"/>
       <use xlink:href="#DejaVuSans-30" x="63.623047"/>
       <use xlink:href="#DejaVuSans-32" x="127.246094"/>
       <use xlink:href="#DejaVuSans-34" x="190.869141"/>
       <use xlink:href="#DejaVuSans-2d" x="254.492188"/>
       <use xlink:href="#DejaVuSans-30" x="290.576172"/>
       <use xlink:href="#DejaVuSans-31" x="354.199219"/>
      </g>
     </g>
    </g>
   </g>
   <g id="matplotlib.axis_2">
    <g id="ytick_1">
     <g id="line2d_17">
      <path d="M 108 307.843834 
L 777.6 307.843834 
" clip-path="url(#p26a31350a4)" style="fill: none; stroke-dasharray: 5.12,1.28,0.8,1.28; stroke-dashoffset: 0; stroke: #b0b0b0; stroke-width: 0.8"/>
     </g>
     <g id="line2d_18">
      <defs>
       <path id="m3d3343d8a9" d="M 0 0 
L -3.5 0 
" style="stroke: #a9a9a9; stroke-width: 0.8"/>
      </defs>
      <g>
       <use xlink:href="#m3d3343d8a9" x="108" y="307.843834" style="fill: #a9a9a9; stroke: #a9a9a9; stroke-width: 0.8"/>
      </g>
     </g>
     <g id="text_9">
      <!-- 0 -->
      <g style="fill: #a9a9a9" transform="translate(94.6375 311.643052) scale(0.1 -0.1)">
       <use xlink:href="#DejaVuSans-30"/>
      </g>
     </g>
    </g>
    <g id="ytick_2">
     <g id="line2d_19">
      <path d="M 108 272.776866 
L 777.6 272.776866 
" clip-path="url(#p26a31350a4)" style="fill: none; stroke-dasharray: 5.12,1.28,0.8,1.28; stroke-dashoffset: 0; stroke: #b0b0b0; stroke-width: 0.8"/>
     </g>
     <g id="line2d_20">
      <g>
       <use xlink:href="#m3d3343d8a9" x="108" y="272.776866" style="fill: #a9a9a9; stroke: #a9a9a9; stroke-width: 0.8"/>
      </g>
     </g>
     <g id="text_10">
      <!-- 800 -->
      <g style="fill: #a9a9a9" transform="translate(81.9125 276.576084) scale(0.1 -0.1)">
       <defs>
        <path id="DejaVuSans-38" d="M 2034 2216 
Q 1584 2216 1326 1975 
Q 1069 1734 1069 1313 
Q 1069 891 1326 650 
Q 1584 409 2034 409 
Q 2484 409 2743 651 
Q 3003 894 3003 1313 
Q 3003 1734 2745 1975 
Q 2488 2216 2034 2216 
z
M 1403 2484 
Q 997 2584 770 2862 
Q 544 3141 544 3541 
Q 544 4100 942 4425 
Q 1341 4750 2034 4750 
Q 2731 4750 3128 4425 
Q 3525 4100 3525 3541 
Q 3525 3141 3298 2862 
Q 3072 2584 2669 2484 
Q 3125 2378 3379 2068 
Q 3634 1759 3634 1313 
Q 3634 634 3220 271 
Q 2806 -91 2034 -91 
Q 1263 -91 848 271 
Q 434 634 434 1313 
Q 434 1759 690 2068 
Q 947 2378 1403 2484 
z
M 1172 3481 
Q 1172 3119 1398 2916 
Q 1625 2713 2034 2713 
Q 2441 2713 2670 2916 
Q 2900 3119 2900 3481 
Q 2900 3844 2670 4047 
Q 2441 4250 2034 4250 
Q 1625 4250 1398 4047 
Q 1172 3844 1172 3481 
z
" transform="scale(0.015625)"/>
       </defs>
       <use xlink:href="#DejaVuSans-38"/>
       <use xlink:href="#DejaVuSans-30" x="63.623047"/>
       <use xlink:href="#DejaVuSans-30" x="127.246094"/>
      </g>
     </g>
    </g>
    <g id="ytick_3">
     <g id="line2d_21">
      <path d="M 108 237.709897 
L 777.6 237.709897 
" clip-path="url(#p26a31350a4)" style="fill: none; stroke-dasharray: 5.12,1.28,0.8,1.28; stroke-dashoffset: 0; stroke: #b0b0b0; stroke-width: 0.8"/>
     </g>
     <g id="line2d_22">
      <g>
       <use xlink:href="#m3d3343d8a9" x="108" y="237.709897" style="fill: #a9a9a9; stroke: #a9a9a9; stroke-width: 0.8"/>
      </g>
     </g>
     <g id="text_11">
      <!-- 1600 -->
      <g style="fill: #a9a9a9" transform="translate(75.55 241.509116) scale(0.1 -0.1)">
       <defs>
        <path id="DejaVuSans-36" d="M 2113 2584 
Q 1688 2584 1439 2293 
Q 1191 2003 1191 1497 
Q 1191 994 1439 701 
Q 1688 409 2113 409 
Q 2538 409 2786 701 
Q 3034 994 3034 1497 
Q 3034 2003 2786 2293 
Q 2538 2584 2113 2584 
z
M 3366 4563 
L 3366 3988 
Q 3128 4100 2886 4159 
Q 2644 4219 2406 4219 
Q 1781 4219 1451 3797 
Q 1122 3375 1075 2522 
Q 1259 2794 1537 2939 
Q 1816 3084 2150 3084 
Q 2853 3084 3261 2657 
Q 3669 2231 3669 1497 
Q 3669 778 3244 343 
Q 2819 -91 2113 -91 
Q 1303 -91 875 529 
Q 447 1150 447 2328 
Q 447 3434 972 4092 
Q 1497 4750 2381 4750 
Q 2619 4750 2861 4703 
Q 3103 4656 3366 4563 
z
" transform="scale(0.015625)"/>
       </defs>
       <use xlink:href="#DejaVuSans-31"/>
       <use xlink:href="#DejaVuSans-36" x="63.623047"/>
       <use xlink:href="#DejaVuSans-30" x="127.246094"/>
       <use xlink:href="#DejaVuSans-30" x="190.869141"/>
      </g>
     </g>
    </g>
    <g id="ytick_4">
     <g id="line2d_23">
      <path d="M 108 202.642929 
L 777.6 202.642929 
" clip-path="url(#p26a31350a4)" style="fill: none; stroke-dasharray: 5.12,1.28,0.8,1.28; stroke-dashoffset: 0; stroke: #b0b0b0; stroke-width: 0.8"/>
     </g>
     <g id="line2d_24">
      <g>
       <use xlink:href="#m3d3343d8a9" x="108" y="202.642929" style="fill: #a9a9a9; stroke: #a9a9a9; stroke-width: 0.8"/>
      </g>
     </g>
     <g id="text_12">
      <!-- 2400 -->
      <g style="fill: #a9a9a9" transform="translate(75.55 206.442148) scale(0.1 -0.1)">
       <use xlink:href="#DejaVuSans-32"/>
       <use xlink:href="#DejaVuSans-34" x="63.623047"/>
       <use xlink:href="#DejaVuSans-30" x="127.246094"/>
       <use xlink:href="#DejaVuSans-30" x="190.869141"/>
      </g>
     </g>
    </g>
    <g id="ytick_5">
     <g id="line2d_25">
      <path d="M 108 167.575961 
L 777.6 167.575961 
" clip-path="url(#p26a31350a4)" style="fill: none; stroke-dasharray: 5.12,1.28,0.8,1.28; stroke-dashoffset: 0; stroke: #b0b0b0; stroke-width: 0.8"/>
     </g>
     <g id="line2d_26">
      <g>
       <use xlink:href="#m3d3343d8a9" x="108" y="167.575961" style="fill: #a9a9a9; stroke: #a9a9a9; stroke-width: 0.8"/>
      </g>
     </g>
     <g id="text_13">
      <!-- 3200 -->
      <g style="fill: #a9a9a9" transform="translate(75.55 171.37518) scale(0.1 -0.1)">
       <use xlink:href="#DejaVuSans-33"/>
       <use xlink:href="#DejaVuSans-32" x="63.623047"/>
       <use xlink:href="#DejaVuSans-30" x="127.246094"/>
       <use xlink:href="#DejaVuSans-30" x="190.869141"/>
      </g>
     </g>
    </g>
    <g id="ytick_6">
     <g id="line2d_27">
      <path d="M 108 132.508993 
L 777.6 132.508993 
" clip-path="url(#p26a31350a4)" style="fill: none; stroke-dasharray: 5.12,1.28,0.8,1.28; stroke-dashoffset: 0; stroke: #b0b0b0; stroke-width: 0.8"/>
     </g>
     <g id="line2d_28">
      <g>
       <use xlink:href="#m3d3343d8a9" x="108" y="132.508993" style="fill: #a9a9a9; stroke: #a9a9a9; stroke-width: 0.8"/>
      </g>
     </g>
     <g id="text_14">
      <!-- 4000 -->
      <g style="fill: #a9a9a9" transform="translate(75.55 136.308212) scale(0.1 -0.1)">
       <use xlink:href="#DejaVuSans-34"/>
       <use xlink:href="#DejaVuSans-30" x="63.623047"/>
       <use xlink:href="#DejaVuSans-30" x="127.246094"/>
       <use xlink:href="#DejaVuSans-30" x="190.869141"/>
      </g>
     </g>
    </g>
    <g id="ytick_7">
     <g id="line2d_29">
      <path d="M 108 97.442025 
L 777.6 97.442025 
" clip-path="url(#p26a31350a4)" style="fill: none; stroke-dasharray: 5.12,1.28,0.8,1.28; stroke-dashoffset: 0; stroke: #b0b0b0; stroke-width: 0.8"/>
     </g>
     <g id="line2d_30">
      <g>
       <use xlink:href="#m3d3343d8a9" x="108" y="97.442025" style="fill: #a9a9a9; stroke: #a9a9a9; stroke-width: 0.8"/>
      </g>
     </g>
     <g id="text_15">
      <!-- 4800 -->
      <g style="fill: #a9a9a9" transform="translate(75.55 101.241243) scale(0.1 -0.1)">
       <use xlink:href="#DejaVuSans-34"/>
       <use xlink:href="#DejaVuSans-38" x="63.623047"/>
       <use xlink:href="#DejaVuSans-30" x="127.246094"/>
       <use xlink:href="#DejaVuSans-30" x="190.869141"/>
      </g>
     </g>
    </g>
    <g id="ytick_8">
     <g id="line2d_31">
      <path d="M 108 62.375057 
L 777.6 62.375057 
" clip-path="url(#p26a31350a4)" style="fill: none; stroke-dasharray: 5.12,1.28,0.8,1.28; stroke-dashoffset: 0; stroke: #b0b0b0; stroke-width: 0.8"/>
     </g>
     <g id="line2d_32">
      <g>
       <use xlink:href="#m3d3343d8a9" x="108" y="62.375057" style="fill: #a9a9a9; stroke: #a9a9a9; stroke-width: 0.8"/>
      </g>
     </g>
     <g id="text_16">
      <!-- 5600 -->
      <g style="fill: #a9a9a9" transform="translate(75.55 66.174275) scale(0.1 -0.1)">
       <use xlink:href="#DejaVuSans-35"/>
       <use xlink:href="#DejaVuSans-36" x="63.623047"/>
       <use xlink:href="#DejaVuSans-30" x="127.246094"/>
       <use xlink:href="#DejaVuSans-30" x="190.869141"/>
      </g>
     </g>
    </g>
   </g>
   <g id="line2d_33">
    <path d="M 138.436364 307.712333 
L 142.23695 307.405497 
L 142.870381 307.142494 
L 144.770674 306.923326 
L 148.571261 306.178153 
L 152.371848 305.871317 
L 153.005279 305.564481 
L 153.63871 305.389146 
L 154.272141 304.600139 
L 154.905572 304.161802 
L 155.539003 302.802957 
L 156.172434 302.71529 
L 156.805865 302.233119 
L 158.072727 301.619447 
L 160.606452 299.690764 
L 161.873314 299.164759 
L 162.506745 298.726422 
L 165.040469 297.630579 
L 165.6739 296.622404 
L 166.940762 295.701896 
L 167.574194 295.39506 
L 173.908504 294.518386 
L 174.541935 294.21155 
L 178.975953 293.86088 
L 180.876246 293.378709 
L 186.577126 292.633536 
L 187.210557 292.282867 
L 187.843988 292.195199 
L 188.477419 291.932197 
L 189.744282 291.713028 
L 190.377713 291.669195 
L 191.011144 291.450026 
L 193.544868 291.055523 
L 194.81173 290.704853 
L 196.712023 290.529518 
L 197.978886 290.398017 
L 198.612317 290.222682 
L 199.245748 290.178848 
L 201.146041 289.60901 
L 204.946628 289.039172 
L 205.580059 288.863837 
L 206.21349 287.987163 
L 208.113783 287.285824 
L 210.014076 286.759819 
L 210.647507 286.452983 
L 211.280938 286.409149 
L 214.448094 285.532475 
L 215.714956 285.444808 
L 216.348387 285.35714 
L 218.24868 284.787302 
L 220.782405 284.17363 
L 221.415836 283.910628 
L 222.049267 283.822961 
L 222.682698 283.516125 
L 229.017009 282.551783 
L 232.184164 281.675109 
L 232.817595 281.280605 
L 235.35132 280.6231 
L 236.618182 279.877927 
L 237.251613 279.439589 
L 239.151906 279.08892 
L 242.952493 277.949243 
L 244.219355 277.55474 
L 244.852786 277.467073 
L 246.119648 277.116403 
L 247.38651 276.809567 
L 248.019941 276.721899 
L 249.286804 276.195895 
L 249.920235 276.064394 
L 250.553666 275.801392 
L 251.187097 275.713724 
L 251.820528 275.406888 
L 252.453959 275.231553 
L 253.720821 275.143886 
L 254.987683 274.705549 
L 256.254545 274.617881 
L 256.887977 274.311045 
L 259.421701 273.872708 
L 261.955425 273.65354 
L 262.588856 273.522039 
L 263.855718 272.908367 
L 270.82346 269.971508 
L 271.456891 269.620838 
L 272.090323 268.919499 
L 272.723754 267.86749 
L 273.357185 267.03465 
L 273.990616 266.859315 
L 274.624047 266.859315 
L 275.890909 265.938807 
L 276.52434 265.763472 
L 277.157771 265.412802 
L 277.791202 265.281301 
L 278.424633 264.711463 
L 279.058065 264.536128 
L 280.958358 263.61562 
L 282.22522 261.862272 
L 282.858651 261.467768 
L 283.492082 260.415759 
L 284.125513 259.758254 
L 284.758944 259.451418 
L 285.392375 259.276083 
L 287.9261 257.785737 
L 289.192962 256.777561 
L 289.826393 256.383058 
L 290.459824 255.46255 
L 291.093255 254.016038 
L 291.726686 253.09553 
L 292.360117 252.613359 
L 292.993548 252.350357 
L 295.527273 250.158671 
L 296.794135 249.150496 
L 297.427566 248.624491 
L 298.060997 247.791651 
L 299.327859 246.695808 
L 301.861584 245.073961 
L 302.495015 244.504122 
L 303.128446 244.372621 
L 303.761877 244.109619 
L 305.028739 243.40828 
L 306.929032 242.443938 
L 308.195894 241.260428 
L 308.829326 240.515255 
L 310.096188 239.638581 
L 310.729619 239.463246 
L 311.36305 239.15641 
L 312.629912 238.323569 
L 313.263343 237.9729 
L 313.896774 237.885232 
L 315.163636 237.183893 
L 315.797067 236.833223 
L 316.430499 236.175718 
L 317.06393 235.781214 
L 317.697361 235.562046 
L 318.964223 234.816872 
L 319.597654 234.466203 
L 320.231085 234.247034 
L 322.131378 233.01969 
L 324.031672 232.449852 
L 324.665103 232.011515 
L 325.298534 231.880014 
L 326.565396 231.441677 
L 328.465689 230.696504 
L 330.365982 229.995164 
L 331.632845 229.775996 
L 332.899707 228.680153 
L 334.166569 228.066481 
L 335.433431 227.365142 
L 336.066862 227.014472 
L 337.333724 226.663802 
L 337.967155 226.269299 
L 338.600587 226.093964 
L 340.50088 224.910454 
L 343.668035 224.165281 
L 345.568328 223.069438 
L 346.20176 222.981771 
L 346.835191 222.762602 
L 348.102053 222.4996 
L 350.002346 221.096921 
L 351.902639 220.658584 
L 352.53607 220.439416 
L 353.169501 219.957245 
L 356.970088 218.729901 
L 357.603519 218.686067 
L 362.037537 217.108054 
L 362.670968 216.801218 
L 364.571261 216.362881 
L 365.838123 216.056045 
L 366.471554 215.749209 
L 367.104985 215.617707 
L 369.005279 214.741033 
L 370.905572 213.820525 
L 371.539003 213.382188 
L 372.172434 213.206853 
L 374.072727 212.198678 
L 375.339589 211.891842 
L 376.606452 211.234336 
L 377.873314 210.883667 
L 378.506745 210.795999 
L 379.773607 210.050826 
L 380.407038 209.919325 
L 381.6739 209.393321 
L 382.307331 209.261819 
L 382.940762 208.91115 
L 385.474487 208.516646 
L 386.741349 207.902974 
L 387.37478 207.37697 
L 388.008211 206.281127 
L 389.275073 206.018125 
L 389.908504 205.886624 
L 392.442229 204.571612 
L 393.07566 204.440111 
L 398.143109 202.029257 
L 400.043402 201.634754 
L 400.676833 201.284084 
L 404.477419 199.969073 
L 405.744282 199.180066 
L 407.011144 198.434893 
L 407.644575 198.347226 
L 408.278006 198.128057 
L 408.911437 198.084223 
L 412.078592 197.251383 
L 412.712023 196.769212 
L 413.978886 196.330875 
L 415.879179 195.717203 
L 416.51261 195.3227 
L 417.146041 195.147365 
L 417.779472 194.709028 
L 418.412903 194.446025 
L 419.046334 194.051522 
L 420.313196 193.613185 
L 422.21349 192.999513 
L 422.846921 192.692677 
L 424.747214 191.246165 
L 425.380645 191.114663 
L 426.647507 190.150322 
L 427.280938 190.018821 
L 427.91437 189.054479 
L 428.547801 188.791477 
L 429.181232 188.309306 
L 429.814663 188.221639 
L 431.081525 187.476465 
L 431.714956 187.344964 
L 432.348387 187.081962 
L 432.981818 186.599791 
L 433.615249 186.380623 
L 435.515543 185.109445 
L 438.049267 183.838268 
L 438.682698 183.7506 
L 439.94956 183.180762 
L 440.582991 182.830092 
L 441.216422 181.778083 
L 441.849853 181.208245 
L 442.483284 180.857575 
L 443.116716 180.726074 
L 444.383578 179.937067 
L 445.017009 179.805566 
L 446.283871 179.191894 
L 448.184164 178.402887 
L 449.451026 177.526213 
L 450.717889 176.211202 
L 453.885044 173.931849 
L 455.151906 172.87984 
L 455.785337 172.616838 
L 456.418768 171.915498 
L 457.052199 171.433328 
L 458.319062 170.99499 
L 458.952493 170.468986 
L 460.219355 169.81148 
L 460.852786 169.636145 
L 461.486217 169.197808 
L 462.119648 169.066307 
L 464.019941 168.058132 
L 465.286804 167.312959 
L 471.621114 165.07744 
L 472.254545 164.507601 
L 474.154839 163.806262 
L 475.421701 163.411759 
L 476.055132 162.929588 
L 478.588856 161.614576 
L 479.222287 161.263907 
L 480.48915 158.765385 
L 481.756012 157.275039 
L 483.022874 156.529866 
L 484.923167 155.784693 
L 485.556598 155.697026 
L 486.190029 155.346356 
L 488.090323 154.776518 
L 490.624047 153.636841 
L 491.257478 153.242338 
L 492.52434 152.804001 
L 496.324927 150.612315 
L 496.958358 149.95481 
L 497.591789 149.560306 
L 499.492082 148.727466 
L 500.125513 148.289129 
L 501.392375 147.675457 
L 503.292669 146.667281 
L 503.9261 146.491946 
L 504.559531 146.009776 
L 505.192962 145.746773 
L 505.826393 145.615272 
L 507.093255 145.176935 
L 508.993548 144.475596 
L 509.626979 144.037259 
L 510.893842 143.686589 
L 512.160704 143.204418 
L 512.794135 142.722247 
L 514.060997 142.327744 
L 514.694428 142.020908 
L 515.327859 141.845573 
L 516.594721 140.968899 
L 517.861584 140.399061 
L 519.128446 139.434719 
L 520.395308 138.996382 
L 521.028739 138.470377 
L 521.66217 138.38271 
L 522.929032 137.462202 
L 524.195894 136.84853 
L 524.829326 136.585528 
L 525.462757 135.971856 
L 529.263343 134.613011 
L 531.163636 133.78017 
L 533.06393 133.210332 
L 534.330792 133.034997 
L 534.964223 132.771995 
L 535.597654 132.684328 
L 536.864516 132.158323 
L 537.497947 132.114489 
L 540.031672 131.193982 
L 541.931965 129.87897 
L 542.565396 129.615968 
L 543.198827 129.221465 
L 545.09912 128.388624 
L 546.999413 127.248948 
L 547.632845 126.854444 
L 548.899707 126.547608 
L 550.166569 125.670934 
L 552.700293 124.881927 
L 553.333724 124.618925 
L 554.600587 124.312089 
L 557.767742 123.303914 
L 559.668035 122.953244 
L 562.20176 122.164237 
L 562.835191 121.901235 
L 563.468622 121.813568 
L 564.102053 121.506732 
L 565.368915 121.243729 
L 566.002346 120.936893 
L 567.902639 120.498556 
L 569.169501 120.235554 
L 572.970088 119.534215 
L 574.23695 119.271212 
L 574.870381 119.139711 
L 575.503812 118.876709 
L 576.137243 118.832875 
L 578.037537 118.306871 
L 578.670968 117.956201 
L 581.838123 117.167194 
L 582.471554 117.035693 
L 583.738416 116.597356 
L 585.63871 115.93985 
L 586.272141 115.852183 
L 588.172434 115.194677 
L 588.805865 115.194677 
L 590.072727 114.75634 
L 590.706158 114.142668 
L 591.339589 113.835832 
L 592.606452 113.441329 
L 595.140176 112.476987 
L 595.773607 112.345486 
L 596.407038 111.950983 
L 597.040469 111.819482 
L 597.6739 111.424978 
L 600.841056 110.50447 
L 601.474487 110.109967 
L 602.107918 109.934632 
L 602.741349 109.408628 
L 604.641642 109.057958 
L 605.908504 108.356619 
L 606.541935 107.655279 
L 607.808798 107.392277 
L 612.242815 106.384102 
L 612.876246 106.208767 
L 614.143109 106.164933 
L 614.77654 105.858097 
L 617.310264 105.41976 
L 617.943695 105.112924 
L 619.843988 104.849922 
L 622.377713 104.060915 
L 624.278006 103.622578 
L 626.178299 103.140407 
L 628.712023 102.3514 
L 629.345455 102.219899 
L 629.978886 101.913063 
L 630.612317 101.825396 
L 631.245748 101.606227 
L 631.879179 101.255557 
L 633.779472 100.598052 
L 634.412903 100.115881 
L 635.679765 99.765211 
L 636.313196 99.502209 
L 637.580059 99.151539 
L 640.113783 98.011863 
L 642.014076 97.880362 
L 644.547801 97.091355 
L 645.181232 96.696852 
L 646.448094 96.302348 
L 648.348387 95.338007 
L 648.981818 95.206505 
L 649.615249 94.89967 
L 650.24868 94.812002 
L 657.216422 92.488815 
L 659.750147 91.875144 
L 660.383578 91.699809 
L 661.65044 91.12997 
L 662.283871 91.042303 
L 663.550733 90.691633 
L 664.184164 90.209463 
L 664.817595 89.902627 
L 665.451026 89.157453 
L 666.084457 88.719116 
L 667.35132 88.324613 
L 667.984751 87.798608 
L 674.952493 84.949417 
L 676.219355 84.642581 
L 677.486217 84.072743 
L 679.38651 82.9769 
L 680.019941 82.845399 
L 680.653372 82.363228 
L 681.920235 81.749556 
L 683.187097 80.96055 
L 685.08739 80.083875 
L 685.720821 79.645538 
L 686.987683 79.163368 
L 688.254545 78.418194 
L 688.887977 78.111358 
L 689.521408 77.673021 
L 690.78827 77.234684 
L 691.421701 77.103183 
L 693.955425 75.963507 
L 697.122581 74.867664 
L 697.756012 74.82383 
L 698.389443 74.648495 
L 699.022874 74.253992 
L 699.656305 74.166325 
L 700.289736 73.947156 
L 702.190029 73.596486 
L 705.357185 71.974639 
L 706.624047 71.2733 
L 707.257478 71.185632 
L 709.157771 70.177457 
L 711.058065 69.476118 
L 712.958358 68.643277 
L 715.492082 67.635102 
L 716.125513 67.459767 
L 716.758944 67.065264 
L 718.025806 66.889929 
L 718.659238 66.495425 
L 719.292669 66.451592 
L 720.559531 66.057088 
L 721.826393 65.443416 
L 722.459824 65.355749 
L 723.093255 65.092747 
L 723.726686 64.961245 
L 725.626979 64.128405 
L 726.260411 63.996904 
L 726.893842 63.733902 
L 730.060997 62.988728 
L 731.96129 62.243555 
L 733.861584 61.103879 
L 735.128446 60.577874 
L 735.761877 60.314872 
L 736.395308 59.920369 
L 737.66217 59.657366 
L 738.295601 59.306697 
L 738.929032 59.175196 
L 740.195894 58.473856 
L 743.996481 56.720508 
L 746.530205 55.8 
L 747.163636 55.8 
L 747.163636 55.8 
" clip-path="url(#p26a31350a4)" style="fill: none; stroke: #1f77b4; stroke-width: 1.5; stroke-linecap: square"/>
   </g>
   <g id="line2d_34">
    <path d="M 139.069795 307.8 
L 140.970088 307.712333 
L 142.870381 307.668499 
L 146.670968 307.580831 
L 149.838123 307.44933 
L 152.371848 307.44933 
L 153.005279 307.273995 
L 155.539003 307.186328 
L 157.439296 306.96716 
L 159.339589 306.791825 
L 163.140176 306.61649 
L 163.773607 306.61649 
L 164.407038 306.484989 
L 166.940762 306.397321 
L 168.207625 306.309654 
L 173.275073 306.221986 
L 176.442229 306.090485 
L 184.043402 306.002818 
L 187.210557 305.871317 
L 191.011144 305.783649 
L 193.544868 305.695982 
L 199.245748 305.608314 
L 201.146041 305.564481 
L 203.046334 305.520647 
L 204.946628 305.301479 
L 208.747214 305.257645 
L 210.014076 305.169977 
L 214.448094 305.08231 
L 221.415836 304.687807 
L 225.849853 304.600139 
L 227.116716 304.512472 
L 229.017009 304.424804 
L 232.817595 304.249469 
L 235.35132 304.205636 
L 237.251613 304.030301 
L 247.38651 303.416629 
L 249.920235 303.328962 
L 254.354252 303.109793 
L 256.254545 303.022126 
L 262.588856 302.671456 
L 269.556598 302.583788 
L 272.090323 302.320786 
L 273.357185 302.233119 
L 281.591789 301.575613 
L 285.392375 301.093442 
L 287.9261 301.005775 
L 292.993548 300.348269 
L 296.160704 300.260602 
L 304.395308 299.603096 
L 307.562463 299.252427 
L 310.096188 299.164759 
L 311.36305 299.077092 
L 313.896774 298.989424 
L 315.163636 298.901757 
L 318.330792 298.594921 
L 318.964223 298.419586 
L 322.764809 298.244251 
L 325.931965 298.156584 
L 334.166569 297.674413 
L 336.066862 297.586746 
L 344.301466 297.104575 
L 348.735484 297.016907 
L 349.368915 296.885406 
L 354.436364 296.797739 
L 358.870381 296.57857 
L 365.838123 296.490903 
L 370.272141 296.271734 
L 375.339589 296.184067 
L 380.407038 295.921065 
L 384.841056 295.833397 
L 396.876246 295.088224 
L 401.943695 295.000557 
L 418.412903 293.948548 
L 422.21349 293.86088 
L 424.113783 293.817046 
L 426.014076 293.773213 
L 427.91437 293.597878 
L 432.981818 293.51021 
L 434.24868 293.291042 
L 435.515543 293.203374 
L 438.682698 293.071873 
L 439.94956 292.984206 
L 441.216422 292.896539 
L 446.917302 292.808871 
L 448.184164 292.67737 
L 450.717889 292.633536 
L 451.35132 292.502035 
L 452.618182 292.414368 
L 453.251613 292.282867 
L 455.151906 292.195199 
L 465.920235 291.537694 
L 467.820528 291.450026 
L 470.987683 291.318525 
L 479.855718 291.230858 
L 484.289736 291.011689 
L 489.357185 290.924022 
L 491.890909 290.836354 
L 494.424633 290.79252 
L 495.691496 290.661019 
L 498.22522 290.573352 
L 504.559531 290.222682 
L 508.360117 290.178848 
L 510.260411 290.003514 
L 512.160704 289.95968 
L 516.594721 289.872013 
L 519.128446 289.784345 
L 526.729619 289.696678 
L 529.896774 289.565177 
L 533.697361 289.477509 
L 535.597654 289.258341 
L 539.39824 289.214507 
L 541.298534 289.039172 
L 543.832258 288.951505 
L 551.433431 288.863837 
L 554.600587 288.732336 
L 565.368915 288.688502 
L 566.635777 288.600835 
L 568.53607 288.557001 
L 576.770674 288.469334 
L 578.037537 288.381666 
L 585.005279 288.293999 
L 587.539003 288.206332 
L 595.140176 288.162498 
L 596.407038 288.07483 
L 605.908504 288.030997 
L 607.808798 287.855662 
L 618.577126 287.767994 
L 620.477419 287.724161 
L 636.946628 287.636493 
L 638.846921 287.59266 
L 650.882111 287.504992 
L 653.415836 287.417325 
L 657.849853 287.329657 
L 662.917302 287.066655 
L 665.451026 286.978988 
L 667.984751 286.89132 
L 671.785337 286.803653 
L 673.68563 286.759819 
L 676.219355 286.672152 
L 678.119648 286.628318 
L 681.286804 286.540651 
L 682.553666 286.452983 
L 686.354252 286.365316 
L 689.521408 286.233815 
L 690.78827 286.189981 
L 692.688563 286.014646 
L 696.48915 285.926979 
L 699.022874 285.839311 
L 705.357185 285.751644 
L 708.52434 285.620143 
L 714.858651 285.532475 
L 719.292669 285.313307 
L 724.993548 285.225639 
L 726.260411 285.137972 
L 733.861584 285.050304 
L 735.761877 285.006471 
L 742.729619 284.918803 
L 745.263343 284.655801 
L 747.163636 284.611967 
L 747.163636 284.611967 
" clip-path="url(#p26a31350a4)" style="fill: none; stroke: #ff7f0e; stroke-width: 1.5; stroke-linecap: square"/>
   </g>
   <g id="patch_3">
    <path d="M 108 320.4 
L 108 43.2 
" style="fill: none; stroke: #a9a9a9; stroke-width: 0.8; stroke-linejoin: miter; stroke-linecap: square"/>
   </g>
   <g id="patch_4">
    <path d="M 777.6 320.4 
L 777.6 43.2 
" style="fill: none"/>
   </g>
   <g id="patch_5">
    <path d="M 108 320.4 
L 777.6 320.4 
" style="fill: none; stroke: #a9a9a9; stroke-width: 0.8; stroke-linejoin: miter; stroke-linecap: square"/>
   </g>
   <g id="patch_6">
    <path d="M 108 43.2 
L 777.6 43.2 
" style="fill: none"/>
   </g>
   <g id="text_17">
    <!-- get_subscribe history -->
    <g style="fill: #a9a9a9" transform="translate(378.6075 37.2) scale(0.12 -0.12)">
     <defs>
      <path id="DejaVuSans-67" d="M 2906 1791 
Q 2906 2416 2648 2759 
Q 2391 3103 1925 3103 
Q 1463 3103 1205 2759 
Q 947 2416 947 1791 
Q 947 1169 1205 825 
Q 1463 481 1925 481 
Q 2391 481 2648 825 
Q 2906 1169 2906 1791 
z
M 3481 434 
Q 3481 -459 3084 -895 
Q 2688 -1331 1869 -1331 
Q 1566 -1331 1297 -1286 
Q 1028 -1241 775 -1147 
L 775 -588 
Q 1028 -725 1275 -790 
Q 1522 -856 1778 -856 
Q 2344 -856 2625 -561 
Q 2906 -266 2906 331 
L 2906 616 
Q 2728 306 2450 153 
Q 2172 0 1784 0 
Q 1141 0 747 490 
Q 353 981 353 1791 
Q 353 2603 747 3093 
Q 1141 3584 1784 3584 
Q 2172 3584 2450 3431 
Q 2728 3278 2906 2969 
L 2906 3500 
L 3481 3500 
L 3481 434 
z
" transform="scale(0.015625)"/>
      <path id="DejaVuSans-65" d="M 3597 1894 
L 3597 1613 
L 953 1613 
Q 991 1019 1311 708 
Q 1631 397 2203 397 
Q 2534 397 2845 478 
Q 3156 559 3463 722 
L 3463 178 
Q 3153 47 2828 -22 
Q 2503 -91 2169 -91 
Q 1331 -91 842 396 
Q 353 884 353 1716 
Q 353 2575 817 3079 
Q 1281 3584 2069 3584 
Q 2775 3584 3186 3129 
Q 3597 2675 3597 1894 
z
M 3022 2063 
Q 3016 2534 2758 2815 
Q 2500 3097 2075 3097 
Q 1594 3097 1305 2825 
Q 1016 2553 972 2059 
L 3022 2063 
z
" transform="scale(0.015625)"/>
      <path id="DejaVuSans-74" d="M 1172 4494 
L 1172 3500 
L 2356 3500 
L 2356 3053 
L 1172 3053 
L 1172 1153 
Q 1172 725 1289 603 
Q 1406 481 1766 481 
L 2356 481 
L 2356 0 
L 1766 0 
Q 1100 0 847 248 
Q 594 497 594 1153 
L 594 3053 
L 172 3053 
L 172 3500 
L 594 3500 
L 594 4494 
L 1172 4494 
z
" transform="scale(0.015625)"/>
      <path id="DejaVuSans-5f" d="M 3263 -1063 
L 3263 -1509 
L -63 -1509 
L -63 -1063 
L 3263 -1063 
z
" transform="scale(0.015625)"/>
      <path id="DejaVuSans-73" d="M 2834 3397 
L 2834 2853 
Q 2591 2978 2328 3040 
Q 2066 3103 1784 3103 
Q 1356 3103 1142 2972 
Q 928 2841 928 2578 
Q 928 2378 1081 2264 
Q 1234 2150 1697 2047 
L 1894 2003 
Q 2506 1872 2764 1633 
Q 3022 1394 3022 966 
Q 3022 478 2636 193 
Q 2250 -91 1575 -91 
Q 1294 -91 989 -36 
Q 684 19 347 128 
L 347 722 
Q 666 556 975 473 
Q 1284 391 1588 391 
Q 1994 391 2212 530 
Q 2431 669 2431 922 
Q 2431 1156 2273 1281 
Q 2116 1406 1581 1522 
L 1381 1569 
Q 847 1681 609 1914 
Q 372 2147 372 2553 
Q 372 3047 722 3315 
Q 1072 3584 1716 3584 
Q 2034 3584 2315 3537 
Q 2597 3491 2834 3397 
z
" transform="scale(0.015625)"/>
      <path id="DejaVuSans-75" d="M 544 1381 
L 544 3500 
L 1119 3500 
L 1119 1403 
Q 1119 906 1312 657 
Q 1506 409 1894 409 
Q 2359 409 2629 706 
Q 2900 1003 2900 1516 
L 2900 3500 
L 3475 3500 
L 3475 0 
L 2900 0 
L 2900 538 
Q 2691 219 2414 64 
Q 2138 -91 1772 -91 
Q 1169 -91 856 284 
Q 544 659 544 1381 
z
M 1991 3584 
L 1991 3584 
z
" transform="scale(0.015625)"/>
      <path id="DejaVuSans-62" d="M 3116 1747 
Q 3116 2381 2855 2742 
Q 2594 3103 2138 3103 
Q 1681 3103 1420 2742 
Q 1159 2381 1159 1747 
Q 1159 1113 1420 752 
Q 1681 391 2138 391 
Q 2594 391 2855 752 
Q 3116 1113 3116 1747 
z
M 1159 2969 
Q 1341 3281 1617 3432 
Q 1894 3584 2278 3584 
Q 2916 3584 3314 3078 
Q 3713 2572 3713 1747 
Q 3713 922 3314 415 
Q 2916 -91 2278 -91 
Q 1894 -91 1617 61 
Q 1341 213 1159 525 
L 1159 0 
L 581 0 
L 581 4863 
L 1159 4863 
L 1159 2969 
z
" transform="scale(0.015625)"/>
      <path id="DejaVuSans-63" d="M 3122 3366 
L 3122 2828 
Q 2878 2963 2633 3030 
Q 2388 3097 2138 3097 
Q 1578 3097 1268 2742 
Q 959 2388 959 1747 
Q 959 1106 1268 751 
Q 1578 397 2138 397 
Q 2388 397 2633 464 
Q 2878 531 3122 666 
L 3122 134 
Q 2881 22 2623 -34 
Q 2366 -91 2075 -91 
Q 1284 -91 818 406 
Q 353 903 353 1747 
Q 353 2603 823 3093 
Q 1294 3584 2113 3584 
Q 2378 3584 2631 3529 
Q 2884 3475 3122 3366 
z
" transform="scale(0.015625)"/>
      <path id="DejaVuSans-72" d="M 2631 2963 
Q 2534 3019 2420 3045 
Q 2306 3072 2169 3072 
Q 1681 3072 1420 2755 
Q 1159 2438 1159 1844 
L 1159 0 
L 581 0 
L 581 3500 
L 1159 3500 
L 1159 2956 
Q 1341 3275 1631 3429 
Q 1922 3584 2338 3584 
Q 2397 3584 2469 3576 
Q 2541 3569 2628 3553 
L 2631 2963 
z
" transform="scale(0.015625)"/>
      <path id="DejaVuSans-69" d="M 603 3500 
L 1178 3500 
L 1178 0 
L 603 0 
L 603 3500 
z
M 603 4863 
L 1178 4863 
L 1178 4134 
L 603 4134 
L 603 4863 
z
" transform="scale(0.015625)"/>
      <path id="DejaVuSans-20" transform="scale(0.015625)"/>
      <path id="DejaVuSans-68" d="M 3513 2113 
L 3513 0 
L 2938 0 
L 2938 2094 
Q 2938 2591 2744 2837 
Q 2550 3084 2163 3084 
Q 1697 3084 1428 2787 
Q 1159 2491 1159 1978 
L 1159 0 
L 581 0 
L 581 4863 
L 1159 4863 
L 1159 2956 
Q 1366 3272 1645 3428 
Q 1925 3584 2291 3584 
Q 2894 3584 3203 3211 
Q 3513 2838 3513 2113 
z
" transform="scale(0.015625)"/>
      <path id="DejaVuSans-6f" d="M 1959 3097 
Q 1497 3097 1228 2736 
Q 959 2375 959 1747 
Q 959 1119 1226 758 
Q 1494 397 1959 397 
Q 2419 397 2687 759 
Q 2956 1122 2956 1747 
Q 2956 2369 2687 2733 
Q 2419 3097 1959 3097 
z
M 1959 3584 
Q 2709 3584 3137 3096 
Q 3566 2609 3566 1747 
Q 3566 888 3137 398 
Q 2709 -91 1959 -91 
Q 1206 -91 779 398 
Q 353 888 353 1747 
Q 353 2609 779 3096 
Q 1206 3584 1959 3584 
z
" transform="scale(0.015625)"/>
      <path id="DejaVuSans-79" d="M 2059 -325 
Q 1816 -950 1584 -1140 
Q 1353 -1331 966 -1331 
L 506 -1331 
L 506 -850 
L 844 -850 
Q 1081 -850 1212 -737 
Q 1344 -625 1503 -206 
L 1606 56 
L 191 3500 
L 800 3500 
L 1894 763 
L 2988 3500 
L 3597 3500 
L 2059 -325 
z
" transform="scale(0.015625)"/>
     </defs>
     <use xlink:href="#DejaVuSans-67"/>
     <use xlink:href="#DejaVuSans-65" x="63.476562"/>
     <use xlink:href="#DejaVuSans-74" x="125"/>
     <use xlink:href="#DejaVuSans-5f" x="164.208984"/>
     <use xlink:href="#DejaVuSans-73" x="214.208984"/>
     <use xlink:href="#DejaVuSans-75" x="266.308594"/>
     <use xlink:href="#DejaVuSans-62" x="329.6875"/>
     <use xlink:href="#DejaVuSans-73" x="393.164062"/>
     <use xlink:href="#DejaVuSans-63" x="445.263672"/>
     <use xlink:href="#DejaVuSans-72" x="500.244141"/>
     <use xlink:href="#DejaVuSans-69" x="541.357422"/>
     <use xlink:href="#DejaVuSans-62" x="569.140625"/>
     <use xlink:href="#DejaVuSans-65" x="632.617188"/>
     <use xlink:href="#DejaVuSans-20" x="694.140625"/>
     <use xlink:href="#DejaVuSans-68" x="725.927734"/>
     <use xlink:href="#DejaVuSans-69" x="789.306641"/>
     <use xlink:href="#DejaVuSans-73" x="817.089844"/>
     <use xlink:href="#DejaVuSans-74" x="869.189453"/>
     <use xlink:href="#DejaVuSans-6f" x="908.398438"/>
     <use xlink:href="#DejaVuSans-72" x="969.580078"/>
     <use xlink:href="#DejaVuSans-79" x="1010.693359"/>
    </g>
   </g>
   <g id="legend_1">
    <g id="line2d_35">
     <path d="M 815.08 328.498438 
L 825.08 328.498438 
L 835.08 328.498438 
" style="fill: none; stroke: #1f77b4; stroke-width: 1.5; stroke-linecap: square"/>
    </g>
    <g id="text_18">
     <!-- star -->
     <g style="fill: #a9a9a9" transform="translate(843.08 331.998438) scale(0.1 -0.1)">
      <defs>
       <path id="DejaVuSans-61" d="M 2194 1759 
Q 1497 1759 1228 1600 
Q 959 1441 959 1056 
Q 959 750 1161 570 
Q 1363 391 1709 391 
Q 2188 391 2477 730 
Q 2766 1069 2766 1631 
L 2766 1759 
L 2194 1759 
z
M 3341 1997 
L 3341 0 
L 2766 0 
L 2766 531 
Q 2569 213 2275 61 
Q 1981 -91 1556 -91 
Q 1019 -91 701 211 
Q 384 513 384 1019 
Q 384 1609 779 1909 
Q 1175 2209 1959 2209 
L 2766 2209 
L 2766 2266 
Q 2766 2663 2505 2880 
Q 2244 3097 1772 3097 
Q 1472 3097 1187 3025 
Q 903 2953 641 2809 
L 641 3341 
Q 956 3463 1253 3523 
Q 1550 3584 1831 3584 
Q 2591 3584 2966 3190 
Q 3341 2797 3341 1997 
z
" transform="scale(0.015625)"/>
      </defs>
      <use xlink:href="#DejaVuSans-73"/>
      <use xlink:href="#DejaVuSans-74" x="52.099609"/>
      <use xlink:href="#DejaVuSans-61" x="91.308594"/>
      <use xlink:href="#DejaVuSans-72" x="152.587891"/>
     </g>
    </g>
    <g id="line2d_36">
     <path d="M 815.08 343.176562 
L 825.08 343.176562 
L 835.08 343.176562 
" style="fill: none; stroke: #ff7f0e; stroke-width: 1.5; stroke-linecap: square"/>
    </g>
    <g id="text_19">
     <!-- fork -->
     <g style="fill: #a9a9a9" transform="translate(843.08 346.676562) scale(0.1 -0.1)">
      <defs>
       <path id="DejaVuSans-66" d="M 2375 4863 
L 2375 4384 
L 1825 4384 
Q 1516 4384 1395 4259 
Q 1275 4134 1275 3809 
L 1275 3500 
L 2222 3500 
L 2222 3053 
L 1275 3053 
L 1275 0 
L 697 0 
L 697 3053 
L 147 3053 
L 147 3500 
L 697 3500 
L 697 3744 
Q 697 4328 969 4595 
Q 1241 4863 1831 4863 
L 2375 4863 
z
" transform="scale(0.015625)"/>
       <path id="DejaVuSans-6b" d="M 581 4863 
L 1159 4863 
L 1159 1991 
L 2875 3500 
L 3609 3500 
L 1753 1863 
L 3688 0 
L 2938 0 
L 1159 1709 
L 1159 0 
L 581 0 
L 581 4863 
z
" transform="scale(0.015625)"/>
      </defs>
      <use xlink:href="#DejaVuSans-66"/>
      <use xlink:href="#DejaVuSans-6f" x="35.205078"/>
      <use xlink:href="#DejaVuSans-72" x="96.386719"/>
      <use xlink:href="#DejaVuSans-6b" x="137.5"/>
     </g>
    </g>
   </g>
  </g>
 </g>
 <defs>
  <clipPath id="p26a31350a4">
   <rect x="108" y="43.2" width="669.6" height="277.2"/>
  </clipPath>
 </defs>
</svg>
