<?xml version="1.0" encoding="utf-8" standalone="no"?>
<!DOCTYPE svg PUBLIC "-//W3C//DTD SVG 1.1//EN"
  "http://www.w3.org/Graphics/SVG/1.1/DTD/svg11.dtd">
<svg xmlns:xlink="http://www.w3.org/1999/xlink" width="864pt" height="360pt" viewBox="0 0 864 360" xmlns="http://www.w3.org/2000/svg" version="1.1">
 <metadata>
  <rdf:RDF xmlns:dc="http://purl.org/dc/elements/1.1/" xmlns:cc="http://creativecommons.org/ns#" xmlns:rdf="http://www.w3.org/1999/02/22-rdf-syntax-ns#">
   <cc:Work>
    <dc:type rdf:resource="http://purl.org/dc/dcmitype/StillImage"/>
    <dc:date>2024-03-13T08:10:46.309195</dc:date>
    <dc:format>image/svg+xml</dc:format>
    <dc:creator>
     <cc:Agent>
      <dc:title>Matplotlib v3.8.3, https://matplotlib.org/</dc:title>
     </cc:Agent>
    </dc:creator>
   </cc:Work>
  </rdf:RDF>
 </metadata>
 <defs>
  <style type="text/css">*{stroke-linejoin: round; stroke-linecap: butt}</style>
 </defs>
 <g id="figure_1">
  <g id="patch_1">
   <path d="M 0 360 
L 864 360 
L 864 0 
L 0 0 
L 0 360 
z
" style="fill: none; opacity: 0"/>
  </g>
  <g id="axes_1">
   <g id="patch_2">
    <path d="M 108 320.4 
L 777.6 320.4 
L 777.6 43.2 
L 108 43.2 
L 108 320.4 
z
" style="fill: none; opacity: 0"/>
   </g>
   <g id="matplotlib.axis_1">
    <g id="xtick_1">
     <g id="line2d_1">
      <path d="M 163.08887 320.4 
L 163.08887 43.2 
" clip-path="url(#p8b7941f5ae)" style="fill: none; stroke-dasharray: 5.12,1.28,0.8,1.28; stroke-dashoffset: 0; stroke: #b0b0b0; stroke-width: 0.8"/>
     </g>
     <g id="line2d_2">
      <defs>
       <path id="m2ed4a833ef" d="M 0 0 
L 0 3.5 
" style="stroke: #a9a9a9; stroke-width: 0.8"/>
      </defs>
      <g>
       <use xlink:href="#m2ed4a833ef" x="163.08887" y="320.4" style="fill: #a9a9a9; stroke: #a9a9a9; stroke-width: 0.8"/>
      </g>
     </g>
     <g id="text_1">
      <!-- 2021-09 -->
      <g style="fill: #a9a9a9" transform="translate(142.197464 334.998438) scale(0.1 -0.1)">
       <defs>
        <path id="DejaVuSans-32" d="M 1228 531 
L 3431 531 
L 3431 0 
L 469 0 
L 469 531 
Q 828 903 1448 1529 
Q 2069 2156 2228 2338 
Q 2531 2678 2651 2914 
Q 2772 3150 2772 3378 
Q 2772 3750 2511 3984 
Q 2250 4219 1831 4219 
Q 1534 4219 1204 4116 
Q 875 4013 500 3803 
L 500 4441 
Q 881 4594 1212 4672 
Q 1544 4750 1819 4750 
Q 2544 4750 2975 4387 
Q 3406 4025 3406 3419 
Q 3406 3131 3298 2873 
Q 3191 2616 2906 2266 
Q 2828 2175 2409 1742 
Q 1991 1309 1228 531 
z
" transform="scale(0.015625)"/>
        <path id="DejaVuSans-30" d="M 2034 4250 
Q 1547 4250 1301 3770 
Q 1056 3291 1056 2328 
Q 1056 1369 1301 889 
Q 1547 409 2034 409 
Q 2525 409 2770 889 
Q 3016 1369 3016 2328 
Q 3016 3291 2770 3770 
Q 2525 4250 2034 4250 
z
M 2034 4750 
Q 2819 4750 3233 4129 
Q 3647 3509 3647 2328 
Q 3647 1150 3233 529 
Q 2819 -91 2034 -91 
Q 1250 -91 836 529 
Q 422 1150 422 2328 
Q 422 3509 836 4129 
Q 1250 4750 2034 4750 
z
" transform="scale(0.015625)"/>
        <path id="DejaVuSans-31" d="M 794 531 
L 1825 531 
L 1825 4091 
L 703 3866 
L 703 4441 
L 1819 4666 
L 2450 4666 
L 2450 531 
L 3481 531 
L 3481 0 
L 794 0 
L 794 531 
z
" transform="scale(0.015625)"/>
        <path id="DejaVuSans-2d" d="M 313 2009 
L 1997 2009 
L 1997 1497 
L 313 1497 
L 313 2009 
z
" transform="scale(0.015625)"/>
        <path id="DejaVuSans-39" d="M 703 97 
L 703 672 
Q 941 559 1184 500 
Q 1428 441 1663 441 
Q 2288 441 2617 861 
Q 2947 1281 2994 2138 
Q 2813 1869 2534 1725 
Q 2256 1581 1919 1581 
Q 1219 1581 811 2004 
Q 403 2428 403 3163 
Q 403 3881 828 4315 
Q 1253 4750 1959 4750 
Q 2769 4750 3195 4129 
Q 3622 3509 3622 2328 
Q 3622 1225 3098 567 
Q 2575 -91 1691 -91 
Q 1453 -91 1209 -44 
Q 966 3 703 97 
z
M 1959 2075 
Q 2384 2075 2632 2365 
Q 2881 2656 2881 3163 
Q 2881 3666 2632 3958 
Q 2384 4250 1959 4250 
Q 1534 4250 1286 3958 
Q 1038 3666 1038 3163 
Q 1038 2656 1286 2365 
Q 1534 2075 1959 2075 
z
" transform="scale(0.015625)"/>
       </defs>
       <use xlink:href="#DejaVuSans-32"/>
       <use xlink:href="#DejaVuSans-30" x="63.623047"/>
       <use xlink:href="#DejaVuSans-32" x="127.246094"/>
       <use xlink:href="#DejaVuSans-31" x="190.869141"/>
       <use xlink:href="#DejaVuSans-2d" x="254.492188"/>
       <use xlink:href="#DejaVuSans-30" x="290.576172"/>
       <use xlink:href="#DejaVuSans-39" x="354.199219"/>
      </g>
     </g>
    </g>
    <g id="xtick_2">
     <g id="line2d_3">
      <path d="M 240.206967 320.4 
L 240.206967 43.2 
" clip-path="url(#p8b7941f5ae)" style="fill: none; stroke-dasharray: 5.12,1.28,0.8,1.28; stroke-dashoffset: 0; stroke: #b0b0b0; stroke-width: 0.8"/>
     </g>
     <g id="line2d_4">
      <g>
       <use xlink:href="#m2ed4a833ef" x="240.206967" y="320.4" style="fill: #a9a9a9; stroke: #a9a9a9; stroke-width: 0.8"/>
      </g>
     </g>
     <g id="text_2">
      <!-- 2022-01 -->
      <g style="fill: #a9a9a9" transform="translate(219.315561 334.998438) scale(0.1 -0.1)">
       <use xlink:href="#DejaVuSans-32"/>
       <use xlink:href="#DejaVuSans-30" x="63.623047"/>
       <use xlink:href="#DejaVuSans-32" x="127.246094"/>
       <use xlink:href="#DejaVuSans-32" x="190.869141"/>
       <use xlink:href="#DejaVuSans-2d" x="254.492188"/>
       <use xlink:href="#DejaVuSans-30" x="290.576172"/>
       <use xlink:href="#DejaVuSans-31" x="354.199219"/>
      </g>
     </g>
    </g>
    <g id="xtick_3">
     <g id="line2d_5">
      <path d="M 316.060833 320.4 
L 316.060833 43.2 
" clip-path="url(#p8b7941f5ae)" style="fill: none; stroke-dasharray: 5.12,1.28,0.8,1.28; stroke-dashoffset: 0; stroke: #b0b0b0; stroke-width: 0.8"/>
     </g>
     <g id="line2d_6">
      <g>
       <use xlink:href="#m2ed4a833ef" x="316.060833" y="320.4" style="fill: #a9a9a9; stroke: #a9a9a9; stroke-width: 0.8"/>
      </g>
     </g>
     <g id="text_3">
      <!-- 2022-05 -->
      <g style="fill: #a9a9a9" transform="translate(295.169426 334.998438) scale(0.1 -0.1)">
       <defs>
        <path id="DejaVuSans-35" d="M 691 4666 
L 3169 4666 
L 3169 4134 
L 1269 4134 
L 1269 2991 
Q 1406 3038 1543 3061 
Q 1681 3084 1819 3084 
Q 2600 3084 3056 2656 
Q 3513 2228 3513 1497 
Q 3513 744 3044 326 
Q 2575 -91 1722 -91 
Q 1428 -91 1123 -41 
Q 819 9 494 109 
L 494 744 
Q 775 591 1075 516 
Q 1375 441 1709 441 
Q 2250 441 2565 725 
Q 2881 1009 2881 1497 
Q 2881 1984 2565 2268 
Q 2250 2553 1709 2553 
Q 1456 2553 1204 2497 
Q 953 2441 691 2322 
L 691 4666 
z
" transform="scale(0.015625)"/>
       </defs>
       <use xlink:href="#DejaVuSans-32"/>
       <use xlink:href="#DejaVuSans-30" x="63.623047"/>
       <use xlink:href="#DejaVuSans-32" x="127.246094"/>
       <use xlink:href="#DejaVuSans-32" x="190.869141"/>
       <use xlink:href="#DejaVuSans-2d" x="254.492188"/>
       <use xlink:href="#DejaVuSans-30" x="290.576172"/>
       <use xlink:href="#DejaVuSans-35" x="354.199219"/>
      </g>
     </g>
    </g>
    <g id="xtick_4">
     <g id="line2d_7">
      <path d="M 393.811045 320.4 
L 393.811045 43.2 
" clip-path="url(#p8b7941f5ae)" style="fill: none; stroke-dasharray: 5.12,1.28,0.8,1.28; stroke-dashoffset: 0; stroke: #b0b0b0; stroke-width: 0.8"/>
     </g>
     <g id="line2d_8">
      <g>
       <use xlink:href="#m2ed4a833ef" x="393.811045" y="320.4" style="fill: #a9a9a9; stroke: #a9a9a9; stroke-width: 0.8"/>
      </g>
     </g>
     <g id="text_4">
      <!-- 2022-09 -->
      <g style="fill: #a9a9a9" transform="translate(372.919639 334.998438) scale(0.1 -0.1)">
       <use xlink:href="#DejaVuSans-32"/>
       <use xlink:href="#DejaVuSans-30" x="63.623047"/>
       <use xlink:href="#DejaVuSans-32" x="127.246094"/>
       <use xlink:href="#DejaVuSans-32" x="190.869141"/>
       <use xlink:href="#DejaVuSans-2d" x="254.492188"/>
       <use xlink:href="#DejaVuSans-30" x="290.576172"/>
       <use xlink:href="#DejaVuSans-39" x="354.199219"/>
      </g>
     </g>
    </g>
    <g id="xtick_5">
     <g id="line2d_9">
      <path d="M 470.929142 320.4 
L 470.929142 43.2 
" clip-path="url(#p8b7941f5ae)" style="fill: none; stroke-dasharray: 5.12,1.28,0.8,1.28; stroke-dashoffset: 0; stroke: #b0b0b0; stroke-width: 0.8"/>
     </g>
     <g id="line2d_10">
      <g>
       <use xlink:href="#m2ed4a833ef" x="470.929142" y="320.4" style="fill: #a9a9a9; stroke: #a9a9a9; stroke-width: 0.8"/>
      </g>
     </g>
     <g id="text_5">
      <!-- 2023-01 -->
      <g style="fill: #a9a9a9" transform="translate(450.037736 334.998438) scale(0.1 -0.1)">
       <defs>
        <path id="DejaVuSans-33" d="M 2597 2516 
Q 3050 2419 3304 2112 
Q 3559 1806 3559 1356 
Q 3559 666 3084 287 
Q 2609 -91 1734 -91 
Q 1441 -91 1130 -33 
Q 819 25 488 141 
L 488 750 
Q 750 597 1062 519 
Q 1375 441 1716 441 
Q 2309 441 2620 675 
Q 2931 909 2931 1356 
Q 2931 1769 2642 2001 
Q 2353 2234 1838 2234 
L 1294 2234 
L 1294 2753 
L 1863 2753 
Q 2328 2753 2575 2939 
Q 2822 3125 2822 3475 
Q 2822 3834 2567 4026 
Q 2313 4219 1838 4219 
Q 1578 4219 1281 4162 
Q 984 4106 628 3988 
L 628 4550 
Q 988 4650 1302 4700 
Q 1616 4750 1894 4750 
Q 2613 4750 3031 4423 
Q 3450 4097 3450 3541 
Q 3450 3153 3228 2886 
Q 3006 2619 2597 2516 
z
" transform="scale(0.015625)"/>
       </defs>
       <use xlink:href="#DejaVuSans-32"/>
       <use xlink:href="#DejaVuSans-30" x="63.623047"/>
       <use xlink:href="#DejaVuSans-32" x="127.246094"/>
       <use xlink:href="#DejaVuSans-33" x="190.869141"/>
       <use xlink:href="#DejaVuSans-2d" x="254.492188"/>
       <use xlink:href="#DejaVuSans-30" x="290.576172"/>
       <use xlink:href="#DejaVuSans-31" x="354.199219"/>
      </g>
     </g>
    </g>
    <g id="xtick_6">
     <g id="line2d_11">
      <path d="M 546.783008 320.4 
L 546.783008 43.2 
" clip-path="url(#p8b7941f5ae)" style="fill: none; stroke-dasharray: 5.12,1.28,0.8,1.28; stroke-dashoffset: 0; stroke: #b0b0b0; stroke-width: 0.8"/>
     </g>
     <g id="line2d_12">
      <g>
       <use xlink:href="#m2ed4a833ef" x="546.783008" y="320.4" style="fill: #a9a9a9; stroke: #a9a9a9; stroke-width: 0.8"/>
      </g>
     </g>
     <g id="text_6">
      <!-- 2023-05 -->
      <g style="fill: #a9a9a9" transform="translate(525.891601 334.998438) scale(0.1 -0.1)">
       <use xlink:href="#DejaVuSans-32"/>
       <use xlink:href="#DejaVuSans-30" x="63.623047"/>
       <use xlink:href="#DejaVuSans-32" x="127.246094"/>
       <use xlink:href="#DejaVuSans-33" x="190.869141"/>
       <use xlink:href="#DejaVuSans-2d" x="254.492188"/>
       <use xlink:href="#DejaVuSans-30" x="290.576172"/>
       <use xlink:href="#DejaVuSans-35" x="354.199219"/>
      </g>
     </g>
    </g>
    <g id="xtick_7">
     <g id="line2d_13">
      <path d="M 624.53322 320.4 
L 624.53322 43.2 
" clip-path="url(#p8b7941f5ae)" style="fill: none; stroke-dasharray: 5.12,1.28,0.8,1.28; stroke-dashoffset: 0; stroke: #b0b0b0; stroke-width: 0.8"/>
     </g>
     <g id="line2d_14">
      <g>
       <use xlink:href="#m2ed4a833ef" x="624.53322" y="320.4" style="fill: #a9a9a9; stroke: #a9a9a9; stroke-width: 0.8"/>
      </g>
     </g>
     <g id="text_7">
      <!-- 2023-09 -->
      <g style="fill: #a9a9a9" transform="translate(603.641814 334.998438) scale(0.1 -0.1)">
       <use xlink:href="#DejaVuSans-32"/>
       <use xlink:href="#DejaVuSans-30" x="63.623047"/>
       <use xlink:href="#DejaVuSans-32" x="127.246094"/>
       <use xlink:href="#DejaVuSans-33" x="190.869141"/>
       <use xlink:href="#DejaVuSans-2d" x="254.492188"/>
       <use xlink:href="#DejaVuSans-30" x="290.576172"/>
       <use xlink:href="#DejaVuSans-39" x="354.199219"/>
      </g>
     </g>
    </g>
    <g id="xtick_8">
     <g id="line2d_15">
      <path d="M 701.651317 320.4 
L 701.651317 43.2 
" clip-path="url(#p8b7941f5ae)" style="fill: none; stroke-dasharray: 5.12,1.28,0.8,1.28; stroke-dashoffset: 0; stroke: #b0b0b0; stroke-width: 0.8"/>
     </g>
     <g id="line2d_16">
      <g>
       <use xlink:href="#m2ed4a833ef" x="701.651317" y="320.4" style="fill: #a9a9a9; stroke: #a9a9a9; stroke-width: 0.8"/>
      </g>
     </g>
     <g id="text_8">
      <!-- 2024-01 -->
      <g style="fill: #a9a9a9" transform="translate(680.759911 334.998438) scale(0.1 -0.1)">
       <defs>
        <path id="DejaVuSans-34" d="M 2419 4116 
L 825 1625 
L 2419 1625 
L 2419 4116 
z
M 2253 4666 
L 3047 4666 
L 3047 1625 
L 3713 1625 
L 3713 1100 
L 3047 1100 
L 3047 0 
L 2419 0 
L 2419 1100 
L 313 1100 
L 313 1709 
L 2253 4666 
z
" transform="scale(0.015625)"/>
       </defs>
       <use xlink:href="#DejaVuSans-32"/>
       <use xlink:href="#DejaVuSans-30" x="63.623047"/>
       <use xlink:href="#DejaVuSans-32" x="127.246094"/>
       <use xlink:href="#DejaVuSans-34" x="190.869141"/>
       <use xlink:href="#DejaVuSans-2d" x="254.492188"/>
       <use xlink:href="#DejaVuSans-30" x="290.576172"/>
       <use xlink:href="#DejaVuSans-31" x="354.199219"/>
      </g>
     </g>
    </g>
   </g>
   <g id="matplotlib.axis_2">
    <g id="ytick_1">
     <g id="line2d_17">
      <path d="M 108 307.843773 
L 777.6 307.843773 
" clip-path="url(#p8b7941f5ae)" style="fill: none; stroke-dasharray: 5.12,1.28,0.8,1.28; stroke-dashoffset: 0; stroke: #b0b0b0; stroke-width: 0.8"/>
     </g>
     <g id="line2d_18">
      <defs>
       <path id="m4dadd1c942" d="M 0 0 
L -3.5 0 
" style="stroke: #a9a9a9; stroke-width: 0.8"/>
      </defs>
      <g>
       <use xlink:href="#m4dadd1c942" x="108" y="307.843773" style="fill: #a9a9a9; stroke: #a9a9a9; stroke-width: 0.8"/>
      </g>
     </g>
     <g id="text_9">
      <!-- 0 -->
      <g style="fill: #a9a9a9" transform="translate(94.6375 311.642992) scale(0.1 -0.1)">
       <use xlink:href="#DejaVuSans-30"/>
      </g>
     </g>
    </g>
    <g id="ytick_2">
     <g id="line2d_19">
      <path d="M 108 272.825534 
L 777.6 272.825534 
" clip-path="url(#p8b7941f5ae)" style="fill: none; stroke-dasharray: 5.12,1.28,0.8,1.28; stroke-dashoffset: 0; stroke: #b0b0b0; stroke-width: 0.8"/>
     </g>
     <g id="line2d_20">
      <g>
       <use xlink:href="#m4dadd1c942" x="108" y="272.825534" style="fill: #a9a9a9; stroke: #a9a9a9; stroke-width: 0.8"/>
      </g>
     </g>
     <g id="text_10">
      <!-- 800 -->
      <g style="fill: #a9a9a9" transform="translate(81.9125 276.624753) scale(0.1 -0.1)">
       <defs>
        <path id="DejaVuSans-38" d="M 2034 2216 
Q 1584 2216 1326 1975 
Q 1069 1734 1069 1313 
Q 1069 891 1326 650 
Q 1584 409 2034 409 
Q 2484 409 2743 651 
Q 3003 894 3003 1313 
Q 3003 1734 2745 1975 
Q 2488 2216 2034 2216 
z
M 1403 2484 
Q 997 2584 770 2862 
Q 544 3141 544 3541 
Q 544 4100 942 4425 
Q 1341 4750 2034 4750 
Q 2731 4750 3128 4425 
Q 3525 4100 3525 3541 
Q 3525 3141 3298 2862 
Q 3072 2584 2669 2484 
Q 3125 2378 3379 2068 
Q 3634 1759 3634 1313 
Q 3634 634 3220 271 
Q 2806 -91 2034 -91 
Q 1263 -91 848 271 
Q 434 634 434 1313 
Q 434 1759 690 2068 
Q 947 2378 1403 2484 
z
M 1172 3481 
Q 1172 3119 1398 2916 
Q 1625 2713 2034 2713 
Q 2441 2713 2670 2916 
Q 2900 3119 2900 3481 
Q 2900 3844 2670 4047 
Q 2441 4250 2034 4250 
Q 1625 4250 1398 4047 
Q 1172 3844 1172 3481 
z
" transform="scale(0.015625)"/>
       </defs>
       <use xlink:href="#DejaVuSans-38"/>
       <use xlink:href="#DejaVuSans-30" x="63.623047"/>
       <use xlink:href="#DejaVuSans-30" x="127.246094"/>
      </g>
     </g>
    </g>
    <g id="ytick_3">
     <g id="line2d_21">
      <path d="M 108 237.807295 
L 777.6 237.807295 
" clip-path="url(#p8b7941f5ae)" style="fill: none; stroke-dasharray: 5.12,1.28,0.8,1.28; stroke-dashoffset: 0; stroke: #b0b0b0; stroke-width: 0.8"/>
     </g>
     <g id="line2d_22">
      <g>
       <use xlink:href="#m4dadd1c942" x="108" y="237.807295" style="fill: #a9a9a9; stroke: #a9a9a9; stroke-width: 0.8"/>
      </g>
     </g>
     <g id="text_11">
      <!-- 1600 -->
      <g style="fill: #a9a9a9" transform="translate(75.55 241.606514) scale(0.1 -0.1)">
       <defs>
        <path id="DejaVuSans-36" d="M 2113 2584 
Q 1688 2584 1439 2293 
Q 1191 2003 1191 1497 
Q 1191 994 1439 701 
Q 1688 409 2113 409 
Q 2538 409 2786 701 
Q 3034 994 3034 1497 
Q 3034 2003 2786 2293 
Q 2538 2584 2113 2584 
z
M 3366 4563 
L 3366 3988 
Q 3128 4100 2886 4159 
Q 2644 4219 2406 4219 
Q 1781 4219 1451 3797 
Q 1122 3375 1075 2522 
Q 1259 2794 1537 2939 
Q 1816 3084 2150 3084 
Q 2853 3084 3261 2657 
Q 3669 2231 3669 1497 
Q 3669 778 3244 343 
Q 2819 -91 2113 -91 
Q 1303 -91 875 529 
Q 447 1150 447 2328 
Q 447 3434 972 4092 
Q 1497 4750 2381 4750 
Q 2619 4750 2861 4703 
Q 3103 4656 3366 4563 
z
" transform="scale(0.015625)"/>
       </defs>
       <use xlink:href="#DejaVuSans-31"/>
       <use xlink:href="#DejaVuSans-36" x="63.623047"/>
       <use xlink:href="#DejaVuSans-30" x="127.246094"/>
       <use xlink:href="#DejaVuSans-30" x="190.869141"/>
      </g>
     </g>
    </g>
    <g id="ytick_4">
     <g id="line2d_23">
      <path d="M 108 202.789057 
L 777.6 202.789057 
" clip-path="url(#p8b7941f5ae)" style="fill: none; stroke-dasharray: 5.12,1.28,0.8,1.28; stroke-dashoffset: 0; stroke: #b0b0b0; stroke-width: 0.8"/>
     </g>
     <g id="line2d_24">
      <g>
       <use xlink:href="#m4dadd1c942" x="108" y="202.789057" style="fill: #a9a9a9; stroke: #a9a9a9; stroke-width: 0.8"/>
      </g>
     </g>
     <g id="text_12">
      <!-- 2400 -->
      <g style="fill: #a9a9a9" transform="translate(75.55 206.588276) scale(0.1 -0.1)">
       <use xlink:href="#DejaVuSans-32"/>
       <use xlink:href="#DejaVuSans-34" x="63.623047"/>
       <use xlink:href="#DejaVuSans-30" x="127.246094"/>
       <use xlink:href="#DejaVuSans-30" x="190.869141"/>
      </g>
     </g>
    </g>
    <g id="ytick_5">
     <g id="line2d_25">
      <path d="M 108 167.770818 
L 777.6 167.770818 
" clip-path="url(#p8b7941f5ae)" style="fill: none; stroke-dasharray: 5.12,1.28,0.8,1.28; stroke-dashoffset: 0; stroke: #b0b0b0; stroke-width: 0.8"/>
     </g>
     <g id="line2d_26">
      <g>
       <use xlink:href="#m4dadd1c942" x="108" y="167.770818" style="fill: #a9a9a9; stroke: #a9a9a9; stroke-width: 0.8"/>
      </g>
     </g>
     <g id="text_13">
      <!-- 3200 -->
      <g style="fill: #a9a9a9" transform="translate(75.55 171.570037) scale(0.1 -0.1)">
       <use xlink:href="#DejaVuSans-33"/>
       <use xlink:href="#DejaVuSans-32" x="63.623047"/>
       <use xlink:href="#DejaVuSans-30" x="127.246094"/>
       <use xlink:href="#DejaVuSans-30" x="190.869141"/>
      </g>
     </g>
    </g>
    <g id="ytick_6">
     <g id="line2d_27">
      <path d="M 108 132.752579 
L 777.6 132.752579 
" clip-path="url(#p8b7941f5ae)" style="fill: none; stroke-dasharray: 5.12,1.28,0.8,1.28; stroke-dashoffset: 0; stroke: #b0b0b0; stroke-width: 0.8"/>
     </g>
     <g id="line2d_28">
      <g>
       <use xlink:href="#m4dadd1c942" x="108" y="132.752579" style="fill: #a9a9a9; stroke: #a9a9a9; stroke-width: 0.8"/>
      </g>
     </g>
     <g id="text_14">
      <!-- 4000 -->
      <g style="fill: #a9a9a9" transform="translate(75.55 136.551798) scale(0.1 -0.1)">
       <use xlink:href="#DejaVuSans-34"/>
       <use xlink:href="#DejaVuSans-30" x="63.623047"/>
       <use xlink:href="#DejaVuSans-30" x="127.246094"/>
       <use xlink:href="#DejaVuSans-30" x="190.869141"/>
      </g>
     </g>
    </g>
    <g id="ytick_7">
     <g id="line2d_29">
      <path d="M 108 97.734341 
L 777.6 97.734341 
" clip-path="url(#p8b7941f5ae)" style="fill: none; stroke-dasharray: 5.12,1.28,0.8,1.28; stroke-dashoffset: 0; stroke: #b0b0b0; stroke-width: 0.8"/>
     </g>
     <g id="line2d_30">
      <g>
       <use xlink:href="#m4dadd1c942" x="108" y="97.734341" style="fill: #a9a9a9; stroke: #a9a9a9; stroke-width: 0.8"/>
      </g>
     </g>
     <g id="text_15">
      <!-- 4800 -->
      <g style="fill: #a9a9a9" transform="translate(75.55 101.53356) scale(0.1 -0.1)">
       <use xlink:href="#DejaVuSans-34"/>
       <use xlink:href="#DejaVuSans-38" x="63.623047"/>
       <use xlink:href="#DejaVuSans-30" x="127.246094"/>
       <use xlink:href="#DejaVuSans-30" x="190.869141"/>
      </g>
     </g>
    </g>
    <g id="ytick_8">
     <g id="line2d_31">
      <path d="M 108 62.716102 
L 777.6 62.716102 
" clip-path="url(#p8b7941f5ae)" style="fill: none; stroke-dasharray: 5.12,1.28,0.8,1.28; stroke-dashoffset: 0; stroke: #b0b0b0; stroke-width: 0.8"/>
     </g>
     <g id="line2d_32">
      <g>
       <use xlink:href="#m4dadd1c942" x="108" y="62.716102" style="fill: #a9a9a9; stroke: #a9a9a9; stroke-width: 0.8"/>
      </g>
     </g>
     <g id="text_16">
      <!-- 5600 -->
      <g style="fill: #a9a9a9" transform="translate(75.55 66.515321) scale(0.1 -0.1)">
       <use xlink:href="#DejaVuSans-35"/>
       <use xlink:href="#DejaVuSans-36" x="63.623047"/>
       <use xlink:href="#DejaVuSans-30" x="127.246094"/>
       <use xlink:href="#DejaVuSans-30" x="190.869141"/>
      </g>
     </g>
    </g>
   </g>
   <g id="line2d_33">
    <path d="M 138.436364 307.712454 
L 142.229057 307.406045 
L 142.861172 307.143408 
L 144.757519 306.924544 
L 148.550212 306.180406 
L 152.342906 305.873997 
L 152.975021 305.567587 
L 153.607137 305.392496 
L 154.239252 304.604586 
L 154.871368 304.166858 
L 155.503483 302.809901 
L 156.135599 302.722355 
L 156.767715 302.240855 
L 158.031946 301.628035 
L 160.560408 299.702032 
L 161.824639 299.176759 
L 162.456754 298.739031 
L 164.985217 297.644711 
L 165.617332 296.637936 
L 166.881563 295.718708 
L 167.513679 295.412298 
L 173.834834 294.536842 
L 174.46695 294.230433 
L 178.891759 293.88025 
L 180.788105 293.398749 
L 186.477145 292.654612 
L 187.109261 292.304429 
L 187.741376 292.216884 
L 188.373492 291.954247 
L 189.637723 291.735383 
L 190.269839 291.69161 
L 190.901954 291.472746 
L 193.430416 291.078791 
L 194.694647 290.728609 
L 196.590994 290.553517 
L 197.855225 290.422199 
L 198.487341 290.247108 
L 199.119456 290.203335 
L 201.015803 289.634289 
L 204.808496 289.065242 
L 205.440612 288.890151 
L 206.072727 288.014695 
L 207.969074 287.31433 
L 209.865421 286.789057 
L 210.497536 286.482647 
L 211.129652 286.438874 
L 214.290229 285.563418 
L 215.55446 285.475873 
L 216.186576 285.388327 
L 218.082923 284.819281 
L 220.611385 284.206462 
L 221.2435 283.943825 
L 221.875616 283.856279 
L 222.507732 283.54987 
L 228.828887 282.586868 
L 231.989465 281.711412 
L 232.62158 281.317457 
L 235.150042 280.660865 
L 236.414274 279.916727 
L 237.046389 279.478999 
L 238.942736 279.128817 
L 242.735429 277.990724 
L 243.99966 277.596769 
L 244.631776 277.509224 
L 245.896007 277.159041 
L 247.160238 276.852632 
L 247.792353 276.765086 
L 249.056585 276.239812 
L 249.6887 276.108494 
L 250.320816 275.845857 
L 250.952931 275.758312 
L 251.585047 275.451902 
L 252.217162 275.276811 
L 253.481393 275.189265 
L 254.745624 274.751537 
L 256.009856 274.663992 
L 256.641971 274.357582 
L 259.170433 273.919854 
L 261.698895 273.70099 
L 262.331011 273.569672 
L 263.595242 272.956853 
L 270.548513 270.024075 
L 271.180629 269.673893 
L 271.812744 268.973528 
L 272.44486 267.922981 
L 273.076975 267.091298 
L 273.709091 266.916206 
L 274.341206 266.916206 
L 275.605438 265.996978 
L 276.237553 265.821886 
L 276.869669 265.471704 
L 277.501784 265.340386 
L 278.1339 264.771339 
L 278.766015 264.596248 
L 280.662362 263.677019 
L 281.926593 261.926107 
L 282.558709 261.532152 
L 283.190824 260.481605 
L 283.82294 259.825013 
L 284.455055 259.518603 
L 285.087171 259.343512 
L 287.615633 257.855237 
L 288.879864 256.848463 
L 289.51198 256.454508 
L 290.144095 255.535279 
L 290.776211 254.090776 
L 291.408326 253.171548 
L 292.040442 252.690047 
L 292.672557 252.42741 
L 295.20102 250.23877 
L 296.465251 249.231996 
L 297.097366 248.706722 
L 297.729482 247.875039 
L 298.993713 246.780719 
L 301.522175 245.161126 
L 302.154291 244.592079 
L 302.786406 244.460761 
L 303.418522 244.198124 
L 304.682753 243.497759 
L 306.579099 242.534758 
L 307.843331 241.352892 
L 308.475446 240.608755 
L 309.739677 239.733299 
L 310.371793 239.558207 
L 311.003908 239.251798 
L 312.268139 238.420115 
L 312.900255 238.069932 
L 313.53237 237.982387 
L 314.796602 237.282022 
L 315.428717 236.931839 
L 316.060833 236.275248 
L 316.692948 235.881292 
L 317.325064 235.662428 
L 318.589295 234.918291 
L 319.22141 234.568108 
L 319.853526 234.349244 
L 321.749873 233.123606 
L 323.646219 232.55456 
L 324.278335 232.116832 
L 324.91045 231.985513 
L 326.174681 231.547785 
L 328.071028 230.803648 
L 329.967375 230.103283 
L 331.231606 229.884419 
L 332.495837 228.790099 
L 333.760068 228.17728 
L 335.024299 227.476915 
L 335.656415 227.126733 
L 336.920646 226.77655 
L 337.552761 226.382595 
L 338.184877 226.207504 
L 340.081223 225.025638 
L 343.241801 224.281501 
L 345.138148 223.187181 
L 345.770263 223.099635 
L 346.402379 222.880771 
L 347.66661 222.618134 
L 349.562957 221.217405 
L 351.459303 220.779677 
L 352.091419 220.560813 
L 352.723534 220.079312 
L 356.516228 218.853674 
L 357.148343 218.809901 
L 357.780459 218.63481 
L 359.04469 218.109536 
L 363.469499 216.577488 
L 364.73373 216.402397 
L 365.365845 216.227306 
L 365.997961 215.920896 
L 366.630076 215.789578 
L 368.526423 214.914122 
L 370.42277 213.994893 
L 371.054885 213.557165 
L 371.687001 213.382074 
L 373.583347 212.3753 
L 374.847579 212.06889 
L 376.11181 211.412298 
L 377.376041 211.062116 
L 378.008156 210.97457 
L 379.272387 210.230433 
L 379.904503 210.099114 
L 381.168734 209.573841 
L 381.80085 209.442522 
L 382.432965 209.09234 
L 384.961427 208.698385 
L 386.225658 208.085565 
L 386.857774 207.560292 
L 387.48989 206.465972 
L 388.754121 206.203335 
L 389.386236 206.072017 
L 391.914698 204.758833 
L 392.546814 204.627514 
L 397.603738 202.22001 
L 399.500085 201.826055 
L 400.132201 201.475873 
L 403.924894 200.162689 
L 405.189125 199.374779 
L 406.453356 198.630641 
L 407.085472 198.543095 
L 407.717587 198.324231 
L 408.349703 198.280459 
L 411.51028 197.448775 
L 412.142396 196.967275 
L 413.406627 196.529547 
L 415.302974 195.916727 
L 415.935089 195.522772 
L 416.567205 195.347681 
L 417.19932 194.909953 
L 417.831436 194.647316 
L 418.463551 194.253361 
L 419.727782 193.815633 
L 421.624129 193.202814 
L 422.256245 192.896404 
L 424.152591 191.451902 
L 424.784707 191.320584 
L 426.048938 190.357582 
L 426.681054 190.226264 
L 427.313169 189.263262 
L 427.945285 189.000625 
L 428.5774 188.519125 
L 429.209516 188.431579 
L 430.473747 187.687441 
L 431.105862 187.556123 
L 431.737978 187.293486 
L 432.370093 186.811985 
L 433.002209 186.593121 
L 434.898556 185.32371 
L 437.427018 184.054299 
L 438.059133 183.966754 
L 439.323364 183.397707 
L 439.95548 183.047525 
L 440.587596 181.996978 
L 441.219711 181.427931 
L 441.851827 181.077749 
L 442.483942 180.94643 
L 443.748173 180.15852 
L 444.380289 180.027202 
L 445.64452 179.414382 
L 447.540867 178.626472 
L 448.805098 177.751016 
L 450.069329 176.437832 
L 453.229907 174.161647 
L 454.494138 173.1111 
L 455.126253 172.848463 
L 455.758369 172.148098 
L 456.390484 171.666597 
L 457.654715 171.228869 
L 458.286831 170.703596 
L 459.551062 170.047004 
L 460.183178 169.871912 
L 460.815293 169.434184 
L 461.447409 169.302866 
L 463.343755 168.296092 
L 464.607986 167.551954 
L 470.929142 165.319541 
L 471.561257 164.750495 
L 473.457604 164.05013 
L 474.721835 163.656175 
L 475.353951 163.174674 
L 477.882413 161.86149 
L 478.514528 161.511308 
L 479.77876 159.016258 
L 481.042991 157.527983 
L 482.307222 156.783846 
L 484.203568 156.039708 
L 484.835684 155.952163 
L 485.467799 155.60198 
L 487.364146 155.032934 
L 489.892608 153.894841 
L 490.524724 153.500886 
L 491.788955 153.063158 
L 495.581648 150.874518 
L 496.213764 150.217926 
L 496.845879 149.823971 
L 498.742226 148.992288 
L 499.374342 148.55456 
L 500.638573 147.94174 
L 502.534919 146.934966 
L 503.167035 146.759875 
L 503.79915 146.278374 
L 504.431266 146.015737 
L 505.063381 145.884419 
L 506.327613 145.446691 
L 508.223959 144.746326 
L 508.856075 144.308598 
L 510.120306 143.958416 
L 511.384537 143.476915 
L 512.016653 142.995414 
L 513.280884 142.601459 
L 513.912999 142.29505 
L 514.545115 142.119958 
L 515.809346 141.244502 
L 517.073577 140.675456 
L 518.337808 139.712454 
L 519.602039 139.274726 
L 520.234155 138.749453 
L 520.86627 138.661907 
L 522.130501 137.742678 
L 523.394732 137.129859 
L 524.026848 136.867223 
L 524.658963 136.254403 
L 528.451657 134.897447 
L 530.348003 134.065763 
L 532.24435 133.496717 
L 533.508581 133.321626 
L 534.140697 133.058989 
L 534.772812 132.971443 
L 536.037043 132.44617 
L 536.669159 132.402397 
L 539.197621 131.483168 
L 541.093968 130.169984 
L 541.726083 129.907348 
L 542.358199 129.513392 
L 544.254545 128.681709 
L 546.150892 127.543616 
L 546.783008 127.149661 
L 548.047239 126.843252 
L 549.31147 125.967796 
L 551.839932 125.179885 
L 552.472048 124.917249 
L 553.736279 124.610839 
L 556.896856 123.604065 
L 558.793203 123.253882 
L 561.321665 122.465972 
L 561.953781 122.203335 
L 562.585896 122.115789 
L 563.218012 121.80938 
L 564.482243 121.546743 
L 565.114359 121.240334 
L 567.010705 120.802606 
L 568.274936 120.539969 
L 572.06763 119.839604 
L 573.331861 119.576967 
L 573.963976 119.445649 
L 574.596092 119.183012 
L 575.228207 119.139239 
L 577.124554 118.613966 
L 577.756669 118.263783 
L 580.917247 117.475873 
L 581.549363 117.344554 
L 582.813594 116.906826 
L 584.709941 116.250234 
L 585.342056 116.162689 
L 587.238403 115.506097 
L 587.870518 115.506097 
L 589.134749 115.068369 
L 589.766865 114.45555 
L 590.39898 114.14914 
L 591.663212 113.755185 
L 594.191674 112.792183 
L 594.823789 112.660865 
L 595.455905 112.26691 
L 596.08802 112.135591 
L 596.720136 111.741636 
L 599.880714 110.822408 
L 600.512829 110.428452 
L 601.144945 110.253361 
L 601.77706 109.728088 
L 603.673407 109.377905 
L 604.937638 108.67754 
L 605.569754 107.977176 
L 606.833985 107.714539 
L 611.258794 106.707764 
L 611.890909 106.532673 
L 613.15514 106.4889 
L 613.787256 106.182491 
L 616.315718 105.744763 
L 616.947833 105.438353 
L 618.84418 105.175717 
L 621.372642 104.387806 
L 623.268989 103.950078 
L 625.165336 103.468577 
L 627.693798 102.680667 
L 628.325913 102.549349 
L 628.958029 102.242939 
L 629.590144 102.155393 
L 630.22226 101.936529 
L 630.854376 101.586347 
L 632.750722 100.929755 
L 633.382838 100.448254 
L 634.647069 100.098072 
L 635.279184 99.835435 
L 636.543415 99.485253 
L 639.071878 98.34716 
L 640.968224 98.215842 
L 643.496686 97.427931 
L 644.128802 97.033976 
L 645.393033 96.640021 
L 647.28938 95.677019 
L 647.921495 95.545701 
L 648.553611 95.239291 
L 649.185726 95.151746 
L 656.138997 92.831787 
L 658.66746 92.218968 
L 659.299575 92.043877 
L 660.563806 91.474831 
L 661.195922 91.387285 
L 662.460153 91.037103 
L 663.092268 90.555602 
L 663.724384 90.249192 
L 664.3565 89.505055 
L 664.988615 89.067327 
L 666.252846 88.673372 
L 666.884962 88.148098 
L 673.838233 85.302866 
L 675.102464 84.996456 
L 676.366695 84.42741 
L 678.263042 83.33309 
L 678.895157 83.201772 
L 679.527273 82.720271 
L 680.791504 82.107452 
L 682.055735 81.319541 
L 683.952082 80.444085 
L 684.584197 80.006357 
L 685.848428 79.524857 
L 687.112659 78.780719 
L 687.744775 78.47431 
L 688.37689 78.036582 
L 689.641121 77.598854 
L 690.273237 77.467535 
L 692.801699 76.329442 
L 695.962277 75.235122 
L 696.594393 75.19135 
L 697.226508 75.016258 
L 697.858624 74.622303 
L 698.490739 74.534758 
L 699.122855 74.315894 
L 701.019201 73.965711 
L 704.179779 72.346118 
L 705.44401 71.645753 
L 706.076126 71.558207 
L 707.972472 70.551433 
L 709.868819 69.851068 
L 711.765166 69.019385 
L 714.293628 68.012611 
L 714.925743 67.83752 
L 715.557859 67.443564 
L 716.82209 67.268473 
L 717.454206 66.874518 
L 718.086321 66.830745 
L 719.350552 66.43679 
L 720.614783 65.823971 
L 721.246899 65.736425 
L 721.879014 65.473788 
L 722.51113 65.34247 
L 724.407477 64.510787 
L 725.039592 64.379468 
L 725.671708 64.116832 
L 728.832285 63.372694 
L 730.728632 62.628557 
L 732.624979 61.490464 
L 733.88921 60.96519 
L 734.521325 60.702553 
L 735.153441 60.308598 
L 736.417672 60.045961 
L 737.049788 59.695779 
L 737.681903 59.564461 
L 738.946134 58.864096 
L 742.738828 57.113184 
L 746.531521 55.8 
L 747.163636 55.8 
L 747.163636 55.8 
" clip-path="url(#p8b7941f5ae)" style="fill: none; stroke: #1f77b4; stroke-width: 1.5; stroke-linecap: square"/>
   </g>
   <g id="line2d_34">
    <path d="M 139.068479 307.8 
L 140.964826 307.712454 
L 142.861172 307.668682 
L 146.653866 307.581136 
L 149.814444 307.449818 
L 152.342906 307.449818 
L 152.975021 307.274726 
L 155.503483 307.187181 
L 157.39983 306.968317 
L 159.296177 306.793226 
L 163.08887 306.618134 
L 163.720986 306.618134 
L 164.353101 306.486816 
L 166.881563 306.39927 
L 168.145794 306.311725 
L 173.202719 306.224179 
L 176.363297 306.092861 
L 183.948683 306.005315 
L 187.109261 305.873997 
L 190.901954 305.786451 
L 193.430416 305.698906 
L 199.119456 305.61136 
L 201.015803 305.567587 
L 202.91215 305.523814 
L 204.808496 305.30495 
L 208.601189 305.261178 
L 209.865421 305.173632 
L 214.290229 305.086087 
L 221.2435 304.692131 
L 225.668309 304.604586 
L 226.93254 304.51704 
L 228.828887 304.429495 
L 232.62158 304.254403 
L 235.150042 304.210631 
L 237.046389 304.035539 
L 247.160238 303.42272 
L 249.6887 303.335175 
L 254.113509 303.116311 
L 256.009856 303.028765 
L 262.331011 302.678583 
L 269.284282 302.591037 
L 271.812744 302.3284 
L 273.076975 302.240855 
L 281.294477 301.584263 
L 285.087171 301.102762 
L 287.615633 301.015216 
L 292.672557 300.358624 
L 295.833135 300.271079 
L 304.050637 299.614487 
L 307.211215 299.264304 
L 309.739677 299.176759 
L 311.003908 299.089213 
L 313.53237 299.001668 
L 314.796602 298.914122 
L 317.957179 298.607712 
L 318.589295 298.432621 
L 322.381988 298.25753 
L 325.542566 298.169984 
L 333.760068 297.688484 
L 335.656415 297.600938 
L 343.873917 297.119437 
L 348.298726 297.031892 
L 348.930841 296.900573 
L 353.987766 296.813028 
L 358.412574 296.594164 
L 365.365845 296.506618 
L 369.790654 296.287754 
L 374.847579 296.200208 
L 379.904503 295.937572 
L 384.329312 295.850026 
L 396.339507 295.105888 
L 401.396432 295.018343 
L 417.831436 293.967796 
L 421.624129 293.88025 
L 423.520476 293.836477 
L 425.416822 293.792705 
L 427.313169 293.617613 
L 432.370093 293.530068 
L 433.634325 293.311204 
L 434.898556 293.223658 
L 438.059133 293.09234 
L 439.323364 293.004794 
L 440.587596 292.917249 
L 446.276636 292.829703 
L 447.540867 292.698385 
L 450.069329 292.654612 
L 450.701444 292.523293 
L 451.965675 292.435748 
L 452.597791 292.304429 
L 454.494138 292.216884 
L 465.240102 291.560292 
L 467.136449 291.472746 
L 470.297026 291.341428 
L 479.146644 291.253882 
L 483.571453 291.035018 
L 488.628377 290.947473 
L 491.156839 290.859927 
L 493.685302 290.816154 
L 494.949533 290.684836 
L 497.477995 290.59729 
L 503.79915 290.247108 
L 507.591844 290.203335 
L 509.48819 290.028244 
L 511.384537 289.984471 
L 515.809346 289.896925 
L 518.337808 289.80938 
L 525.923195 289.721834 
L 529.083772 289.590516 
L 532.876466 289.50297 
L 534.772812 289.284106 
L 538.565506 289.240334 
L 540.461852 289.065242 
L 542.990314 288.977697 
L 550.575701 288.890151 
L 553.736279 288.758833 
L 564.482243 288.71506 
L 565.746474 288.627514 
L 567.642821 288.583742 
L 575.860323 288.496196 
L 577.124554 288.40865 
L 584.077825 288.321105 
L 586.606287 288.233559 
L 594.191674 288.189786 
L 595.455905 288.102241 
L 604.937638 288.058468 
L 606.833985 287.883377 
L 617.579949 287.795831 
L 619.476296 287.752058 
L 635.9113 287.664513 
L 637.807647 287.62074 
L 649.817842 287.533194 
L 652.346304 287.445649 
L 656.771113 287.358103 
L 661.828037 287.095466 
L 664.3565 287.007921 
L 666.884962 286.920375 
L 670.677655 286.83283 
L 672.574002 286.789057 
L 675.102464 286.701511 
L 676.998811 286.657738 
L 680.159388 286.570193 
L 681.423619 286.482647 
L 685.216313 286.395102 
L 688.37689 286.263783 
L 689.641121 286.22001 
L 691.537468 286.044919 
L 695.330161 285.957374 
L 697.858624 285.869828 
L 704.179779 285.782282 
L 707.340357 285.650964 
L 713.661512 285.563418 
L 718.086321 285.344554 
L 723.775361 285.257009 
L 725.039592 285.169463 
L 732.624979 285.081918 
L 734.521325 285.038145 
L 741.474596 284.950599 
L 744.003059 284.687962 
L 745.899405 284.64419 
L 747.163636 284.64419 
L 747.163636 284.64419 
" clip-path="url(#p8b7941f5ae)" style="fill: none; stroke: #ff7f0e; stroke-width: 1.5; stroke-linecap: square"/>
   </g>
   <g id="patch_3">
    <path d="M 108 320.4 
L 108 43.2 
" style="fill: none; stroke: #a9a9a9; stroke-width: 0.8; stroke-linejoin: miter; stroke-linecap: square"/>
   </g>
   <g id="patch_4">
    <path d="M 777.6 320.4 
L 777.6 43.2 
" style="fill: none"/>
   </g>
   <g id="patch_5">
    <path d="M 108 320.4 
L 777.6 320.4 
" style="fill: none; stroke: #a9a9a9; stroke-width: 0.8; stroke-linejoin: miter; stroke-linecap: square"/>
   </g>
   <g id="patch_6">
    <path d="M 108 43.2 
L 777.6 43.2 
" style="fill: none"/>
   </g>
   <g id="text_17">
    <!-- get_subscribe history -->
    <g style="fill: #a9a9a9" transform="translate(378.6075 37.2) scale(0.12 -0.12)">
     <defs>
      <path id="DejaVuSans-67" d="M 2906 1791 
Q 2906 2416 2648 2759 
Q 2391 3103 1925 3103 
Q 1463 3103 1205 2759 
Q 947 2416 947 1791 
Q 947 1169 1205 825 
Q 1463 481 1925 481 
Q 2391 481 2648 825 
Q 2906 1169 2906 1791 
z
M 3481 434 
Q 3481 -459 3084 -895 
Q 2688 -1331 1869 -1331 
Q 1566 -1331 1297 -1286 
Q 1028 -1241 775 -1147 
L 775 -588 
Q 1028 -725 1275 -790 
Q 1522 -856 1778 -856 
Q 2344 -856 2625 -561 
Q 2906 -266 2906 331 
L 2906 616 
Q 2728 306 2450 153 
Q 2172 0 1784 0 
Q 1141 0 747 490 
Q 353 981 353 1791 
Q 353 2603 747 3093 
Q 1141 3584 1784 3584 
Q 2172 3584 2450 3431 
Q 2728 3278 2906 2969 
L 2906 3500 
L 3481 3500 
L 3481 434 
z
" transform="scale(0.015625)"/>
      <path id="DejaVuSans-65" d="M 3597 1894 
L 3597 1613 
L 953 1613 
Q 991 1019 1311 708 
Q 1631 397 2203 397 
Q 2534 397 2845 478 
Q 3156 559 3463 722 
L 3463 178 
Q 3153 47 2828 -22 
Q 2503 -91 2169 -91 
Q 1331 -91 842 396 
Q 353 884 353 1716 
Q 353 2575 817 3079 
Q 1281 3584 2069 3584 
Q 2775 3584 3186 3129 
Q 3597 2675 3597 1894 
z
M 3022 2063 
Q 3016 2534 2758 2815 
Q 2500 3097 2075 3097 
Q 1594 3097 1305 2825 
Q 1016 2553 972 2059 
L 3022 2063 
z
" transform="scale(0.015625)"/>
      <path id="DejaVuSans-74" d="M 1172 4494 
L 1172 3500 
L 2356 3500 
L 2356 3053 
L 1172 3053 
L 1172 1153 
Q 1172 725 1289 603 
Q 1406 481 1766 481 
L 2356 481 
L 2356 0 
L 1766 0 
Q 1100 0 847 248 
Q 594 497 594 1153 
L 594 3053 
L 172 3053 
L 172 3500 
L 594 3500 
L 594 4494 
L 1172 4494 
z
" transform="scale(0.015625)"/>
      <path id="DejaVuSans-5f" d="M 3263 -1063 
L 3263 -1509 
L -63 -1509 
L -63 -1063 
L 3263 -1063 
z
" transform="scale(0.015625)"/>
      <path id="DejaVuSans-73" d="M 2834 3397 
L 2834 2853 
Q 2591 2978 2328 3040 
Q 2066 3103 1784 3103 
Q 1356 3103 1142 2972 
Q 928 2841 928 2578 
Q 928 2378 1081 2264 
Q 1234 2150 1697 2047 
L 1894 2003 
Q 2506 1872 2764 1633 
Q 3022 1394 3022 966 
Q 3022 478 2636 193 
Q 2250 -91 1575 -91 
Q 1294 -91 989 -36 
Q 684 19 347 128 
L 347 722 
Q 666 556 975 473 
Q 1284 391 1588 391 
Q 1994 391 2212 530 
Q 2431 669 2431 922 
Q 2431 1156 2273 1281 
Q 2116 1406 1581 1522 
L 1381 1569 
Q 847 1681 609 1914 
Q 372 2147 372 2553 
Q 372 3047 722 3315 
Q 1072 3584 1716 3584 
Q 2034 3584 2315 3537 
Q 2597 3491 2834 3397 
z
" transform="scale(0.015625)"/>
      <path id="DejaVuSans-75" d="M 544 1381 
L 544 3500 
L 1119 3500 
L 1119 1403 
Q 1119 906 1312 657 
Q 1506 409 1894 409 
Q 2359 409 2629 706 
Q 2900 1003 2900 1516 
L 2900 3500 
L 3475 3500 
L 3475 0 
L 2900 0 
L 2900 538 
Q 2691 219 2414 64 
Q 2138 -91 1772 -91 
Q 1169 -91 856 284 
Q 544 659 544 1381 
z
M 1991 3584 
L 1991 3584 
z
" transform="scale(0.015625)"/>
      <path id="DejaVuSans-62" d="M 3116 1747 
Q 3116 2381 2855 2742 
Q 2594 3103 2138 3103 
Q 1681 3103 1420 2742 
Q 1159 2381 1159 1747 
Q 1159 1113 1420 752 
Q 1681 391 2138 391 
Q 2594 391 2855 752 
Q 3116 1113 3116 1747 
z
M 1159 2969 
Q 1341 3281 1617 3432 
Q 1894 3584 2278 3584 
Q 2916 3584 3314 3078 
Q 3713 2572 3713 1747 
Q 3713 922 3314 415 
Q 2916 -91 2278 -91 
Q 1894 -91 1617 61 
Q 1341 213 1159 525 
L 1159 0 
L 581 0 
L 581 4863 
L 1159 4863 
L 1159 2969 
z
" transform="scale(0.015625)"/>
      <path id="DejaVuSans-63" d="M 3122 3366 
L 3122 2828 
Q 2878 2963 2633 3030 
Q 2388 3097 2138 3097 
Q 1578 3097 1268 2742 
Q 959 2388 959 1747 
Q 959 1106 1268 751 
Q 1578 397 2138 397 
Q 2388 397 2633 464 
Q 2878 531 3122 666 
L 3122 134 
Q 2881 22 2623 -34 
Q 2366 -91 2075 -91 
Q 1284 -91 818 406 
Q 353 903 353 1747 
Q 353 2603 823 3093 
Q 1294 3584 2113 3584 
Q 2378 3584 2631 3529 
Q 2884 3475 3122 3366 
z
" transform="scale(0.015625)"/>
      <path id="DejaVuSans-72" d="M 2631 2963 
Q 2534 3019 2420 3045 
Q 2306 3072 2169 3072 
Q 1681 3072 1420 2755 
Q 1159 2438 1159 1844 
L 1159 0 
L 581 0 
L 581 3500 
L 1159 3500 
L 1159 2956 
Q 1341 3275 1631 3429 
Q 1922 3584 2338 3584 
Q 2397 3584 2469 3576 
Q 2541 3569 2628 3553 
L 2631 2963 
z
" transform="scale(0.015625)"/>
      <path id="DejaVuSans-69" d="M 603 3500 
L 1178 3500 
L 1178 0 
L 603 0 
L 603 3500 
z
M 603 4863 
L 1178 4863 
L 1178 4134 
L 603 4134 
L 603 4863 
z
" transform="scale(0.015625)"/>
      <path id="DejaVuSans-20" transform="scale(0.015625)"/>
      <path id="DejaVuSans-68" d="M 3513 2113 
L 3513 0 
L 2938 0 
L 2938 2094 
Q 2938 2591 2744 2837 
Q 2550 3084 2163 3084 
Q 1697 3084 1428 2787 
Q 1159 2491 1159 1978 
L 1159 0 
L 581 0 
L 581 4863 
L 1159 4863 
L 1159 2956 
Q 1366 3272 1645 3428 
Q 1925 3584 2291 3584 
Q 2894 3584 3203 3211 
Q 3513 2838 3513 2113 
z
" transform="scale(0.015625)"/>
      <path id="DejaVuSans-6f" d="M 1959 3097 
Q 1497 3097 1228 2736 
Q 959 2375 959 1747 
Q 959 1119 1226 758 
Q 1494 397 1959 397 
Q 2419 397 2687 759 
Q 2956 1122 2956 1747 
Q 2956 2369 2687 2733 
Q 2419 3097 1959 3097 
z
M 1959 3584 
Q 2709 3584 3137 3096 
Q 3566 2609 3566 1747 
Q 3566 888 3137 398 
Q 2709 -91 1959 -91 
Q 1206 -91 779 398 
Q 353 888 353 1747 
Q 353 2609 779 3096 
Q 1206 3584 1959 3584 
z
" transform="scale(0.015625)"/>
      <path id="DejaVuSans-79" d="M 2059 -325 
Q 1816 -950 1584 -1140 
Q 1353 -1331 966 -1331 
L 506 -1331 
L 506 -850 
L 844 -850 
Q 1081 -850 1212 -737 
Q 1344 -625 1503 -206 
L 1606 56 
L 191 3500 
L 800 3500 
L 1894 763 
L 2988 3500 
L 3597 3500 
L 2059 -325 
z
" transform="scale(0.015625)"/>
     </defs>
     <use xlink:href="#DejaVuSans-67"/>
     <use xlink:href="#DejaVuSans-65" x="63.476562"/>
     <use xlink:href="#DejaVuSans-74" x="125"/>
     <use xlink:href="#DejaVuSans-5f" x="164.208984"/>
     <use xlink:href="#DejaVuSans-73" x="214.208984"/>
     <use xlink:href="#DejaVuSans-75" x="266.308594"/>
     <use xlink:href="#DejaVuSans-62" x="329.6875"/>
     <use xlink:href="#DejaVuSans-73" x="393.164062"/>
     <use xlink:href="#DejaVuSans-63" x="445.263672"/>
     <use xlink:href="#DejaVuSans-72" x="500.244141"/>
     <use xlink:href="#DejaVuSans-69" x="541.357422"/>
     <use xlink:href="#DejaVuSans-62" x="569.140625"/>
     <use xlink:href="#DejaVuSans-65" x="632.617188"/>
     <use xlink:href="#DejaVuSans-20" x="694.140625"/>
     <use xlink:href="#DejaVuSans-68" x="725.927734"/>
     <use xlink:href="#DejaVuSans-69" x="789.306641"/>
     <use xlink:href="#DejaVuSans-73" x="817.089844"/>
     <use xlink:href="#DejaVuSans-74" x="869.189453"/>
     <use xlink:href="#DejaVuSans-6f" x="908.398438"/>
     <use xlink:href="#DejaVuSans-72" x="969.580078"/>
     <use xlink:href="#DejaVuSans-79" x="1010.693359"/>
    </g>
   </g>
   <g id="legend_1">
    <g id="line2d_35">
     <path d="M 815.08 328.498438 
L 825.08 328.498438 
L 835.08 328.498438 
" style="fill: none; stroke: #1f77b4; stroke-width: 1.5; stroke-linecap: square"/>
    </g>
    <g id="text_18">
     <!-- star -->
     <g style="fill: #a9a9a9" transform="translate(843.08 331.998438) scale(0.1 -0.1)">
      <defs>
       <path id="DejaVuSans-61" d="M 2194 1759 
Q 1497 1759 1228 1600 
Q 959 1441 959 1056 
Q 959 750 1161 570 
Q 1363 391 1709 391 
Q 2188 391 2477 730 
Q 2766 1069 2766 1631 
L 2766 1759 
L 2194 1759 
z
M 3341 1997 
L 3341 0 
L 2766 0 
L 2766 531 
Q 2569 213 2275 61 
Q 1981 -91 1556 -91 
Q 1019 -91 701 211 
Q 384 513 384 1019 
Q 384 1609 779 1909 
Q 1175 2209 1959 2209 
L 2766 2209 
L 2766 2266 
Q 2766 2663 2505 2880 
Q 2244 3097 1772 3097 
Q 1472 3097 1187 3025 
Q 903 2953 641 2809 
L 641 3341 
Q 956 3463 1253 3523 
Q 1550 3584 1831 3584 
Q 2591 3584 2966 3190 
Q 3341 2797 3341 1997 
z
" transform="scale(0.015625)"/>
      </defs>
      <use xlink:href="#DejaVuSans-73"/>
      <use xlink:href="#DejaVuSans-74" x="52.099609"/>
      <use xlink:href="#DejaVuSans-61" x="91.308594"/>
      <use xlink:href="#DejaVuSans-72" x="152.587891"/>
     </g>
    </g>
    <g id="line2d_36">
     <path d="M 815.08 343.176562 
L 825.08 343.176562 
L 835.08 343.176562 
" style="fill: none; stroke: #ff7f0e; stroke-width: 1.5; stroke-linecap: square"/>
    </g>
    <g id="text_19">
     <!-- fork -->
     <g style="fill: #a9a9a9" transform="translate(843.08 346.676562) scale(0.1 -0.1)">
      <defs>
       <path id="DejaVuSans-66" d="M 2375 4863 
L 2375 4384 
L 1825 4384 
Q 1516 4384 1395 4259 
Q 1275 4134 1275 3809 
L 1275 3500 
L 2222 3500 
L 2222 3053 
L 1275 3053 
L 1275 0 
L 697 0 
L 697 3053 
L 147 3053 
L 147 3500 
L 697 3500 
L 697 3744 
Q 697 4328 969 4595 
Q 1241 4863 1831 4863 
L 2375 4863 
z
" transform="scale(0.015625)"/>
       <path id="DejaVuSans-6b" d="M 581 4863 
L 1159 4863 
L 1159 1991 
L 2875 3500 
L 3609 3500 
L 1753 1863 
L 3688 0 
L 2938 0 
L 1159 1709 
L 1159 0 
L 581 0 
L 581 4863 
z
" transform="scale(0.015625)"/>
      </defs>
      <use xlink:href="#DejaVuSans-66"/>
      <use xlink:href="#DejaVuSans-6f" x="35.205078"/>
      <use xlink:href="#DejaVuSans-72" x="96.386719"/>
      <use xlink:href="#DejaVuSans-6b" x="137.5"/>
     </g>
    </g>
   </g>
  </g>
 </g>
 <defs>
  <clipPath id="p8b7941f5ae">
   <rect x="108" y="43.2" width="669.6" height="277.2"/>
  </clipPath>
 </defs>
</svg>
