<?xml version="1.0" encoding="utf-8" standalone="no"?>
<!DOCTYPE svg PUBLIC "-//W3C//DTD SVG 1.1//EN"
  "http://www.w3.org/Graphics/SVG/1.1/DTD/svg11.dtd">
<svg xmlns:xlink="http://www.w3.org/1999/xlink" width="864pt" height="360pt" viewBox="0 0 864 360" xmlns="http://www.w3.org/2000/svg" version="1.1">
 <metadata>
  <rdf:RDF xmlns:dc="http://purl.org/dc/elements/1.1/" xmlns:cc="http://creativecommons.org/ns#" xmlns:rdf="http://www.w3.org/1999/02/22-rdf-syntax-ns#">
   <cc:Work>
    <dc:type rdf:resource="http://purl.org/dc/dcmitype/StillImage"/>
    <dc:date>2024-03-16T20:04:11.457681</dc:date>
    <dc:format>image/svg+xml</dc:format>
    <dc:creator>
     <cc:Agent>
      <dc:title>Matplotlib v3.8.3, https://matplotlib.org/</dc:title>
     </cc:Agent>
    </dc:creator>
   </cc:Work>
  </rdf:RDF>
 </metadata>
 <defs>
  <style type="text/css">*{stroke-linejoin: round; stroke-linecap: butt}</style>
 </defs>
 <g id="figure_1">
  <g id="patch_1">
   <path d="M 0 360 
L 864 360 
L 864 0 
L 0 0 
L 0 360 
z
" style="fill: none; opacity: 0"/>
  </g>
  <g id="axes_1">
   <g id="patch_2">
    <path d="M 108 320.4 
L 777.6 320.4 
L 777.6 43.2 
L 108 43.2 
L 108 320.4 
z
" style="fill: none; opacity: 0"/>
   </g>
   <g id="matplotlib.axis_1">
    <g id="xtick_1">
     <g id="line2d_1">
      <path d="M 163.012309 320.4 
L 163.012309 43.2 
" clip-path="url(#pe861c098f4)" style="fill: none; stroke-dasharray: 5.12,1.28,0.8,1.28; stroke-dashoffset: 0; stroke: #b0b0b0; stroke-width: 0.8"/>
     </g>
     <g id="line2d_2">
      <defs>
       <path id="m2d39f5c253" d="M 0 0 
L 0 3.5 
" style="stroke: #a9a9a9; stroke-width: 0.8"/>
      </defs>
      <g>
       <use xlink:href="#m2d39f5c253" x="163.012309" y="320.4" style="fill: #a9a9a9; stroke: #a9a9a9; stroke-width: 0.8"/>
      </g>
     </g>
     <g id="text_1">
      <!-- 2021-09 -->
      <g style="fill: #a9a9a9" transform="translate(142.120903 334.998438) scale(0.1 -0.1)">
       <defs>
        <path id="DejaVuSans-32" d="M 1228 531 
L 3431 531 
L 3431 0 
L 469 0 
L 469 531 
Q 828 903 1448 1529 
Q 2069 2156 2228 2338 
Q 2531 2678 2651 2914 
Q 2772 3150 2772 3378 
Q 2772 3750 2511 3984 
Q 2250 4219 1831 4219 
Q 1534 4219 1204 4116 
Q 875 4013 500 3803 
L 500 4441 
Q 881 4594 1212 4672 
Q 1544 4750 1819 4750 
Q 2544 4750 2975 4387 
Q 3406 4025 3406 3419 
Q 3406 3131 3298 2873 
Q 3191 2616 2906 2266 
Q 2828 2175 2409 1742 
Q 1991 1309 1228 531 
z
" transform="scale(0.015625)"/>
        <path id="DejaVuSans-30" d="M 2034 4250 
Q 1547 4250 1301 3770 
Q 1056 3291 1056 2328 
Q 1056 1369 1301 889 
Q 1547 409 2034 409 
Q 2525 409 2770 889 
Q 3016 1369 3016 2328 
Q 3016 3291 2770 3770 
Q 2525 4250 2034 4250 
z
M 2034 4750 
Q 2819 4750 3233 4129 
Q 3647 3509 3647 2328 
Q 3647 1150 3233 529 
Q 2819 -91 2034 -91 
Q 1250 -91 836 529 
Q 422 1150 422 2328 
Q 422 3509 836 4129 
Q 1250 4750 2034 4750 
z
" transform="scale(0.015625)"/>
        <path id="DejaVuSans-31" d="M 794 531 
L 1825 531 
L 1825 4091 
L 703 3866 
L 703 4441 
L 1819 4666 
L 2450 4666 
L 2450 531 
L 3481 531 
L 3481 0 
L 794 0 
L 794 531 
z
" transform="scale(0.015625)"/>
        <path id="DejaVuSans-2d" d="M 313 2009 
L 1997 2009 
L 1997 1497 
L 313 1497 
L 313 2009 
z
" transform="scale(0.015625)"/>
        <path id="DejaVuSans-39" d="M 703 97 
L 703 672 
Q 941 559 1184 500 
Q 1428 441 1663 441 
Q 2288 441 2617 861 
Q 2947 1281 2994 2138 
Q 2813 1869 2534 1725 
Q 2256 1581 1919 1581 
Q 1219 1581 811 2004 
Q 403 2428 403 3163 
Q 403 3881 828 4315 
Q 1253 4750 1959 4750 
Q 2769 4750 3195 4129 
Q 3622 3509 3622 2328 
Q 3622 1225 3098 567 
Q 2575 -91 1691 -91 
Q 1453 -91 1209 -44 
Q 966 3 703 97 
z
M 1959 2075 
Q 2384 2075 2632 2365 
Q 2881 2656 2881 3163 
Q 2881 3666 2632 3958 
Q 2384 4250 1959 4250 
Q 1534 4250 1286 3958 
Q 1038 3666 1038 3163 
Q 1038 2656 1286 2365 
Q 1534 2075 1959 2075 
z
" transform="scale(0.015625)"/>
       </defs>
       <use xlink:href="#DejaVuSans-32"/>
       <use xlink:href="#DejaVuSans-30" x="63.623047"/>
       <use xlink:href="#DejaVuSans-32" x="127.246094"/>
       <use xlink:href="#DejaVuSans-31" x="190.869141"/>
       <use xlink:href="#DejaVuSans-2d" x="254.492188"/>
       <use xlink:href="#DejaVuSans-30" x="290.576172"/>
       <use xlink:href="#DejaVuSans-39" x="354.199219"/>
      </g>
     </g>
    </g>
    <g id="xtick_2">
     <g id="line2d_3">
      <path d="M 239.890909 320.4 
L 239.890909 43.2 
" clip-path="url(#pe861c098f4)" style="fill: none; stroke-dasharray: 5.12,1.28,0.8,1.28; stroke-dashoffset: 0; stroke: #b0b0b0; stroke-width: 0.8"/>
     </g>
     <g id="line2d_4">
      <g>
       <use xlink:href="#m2d39f5c253" x="239.890909" y="320.4" style="fill: #a9a9a9; stroke: #a9a9a9; stroke-width: 0.8"/>
      </g>
     </g>
     <g id="text_2">
      <!-- 2022-01 -->
      <g style="fill: #a9a9a9" transform="translate(218.999503 334.998438) scale(0.1 -0.1)">
       <use xlink:href="#DejaVuSans-32"/>
       <use xlink:href="#DejaVuSans-30" x="63.623047"/>
       <use xlink:href="#DejaVuSans-32" x="127.246094"/>
       <use xlink:href="#DejaVuSans-32" x="190.869141"/>
       <use xlink:href="#DejaVuSans-2d" x="254.492188"/>
       <use xlink:href="#DejaVuSans-30" x="290.576172"/>
       <use xlink:href="#DejaVuSans-31" x="354.199219"/>
      </g>
     </g>
    </g>
    <g id="xtick_3">
     <g id="line2d_5">
      <path d="M 315.509204 320.4 
L 315.509204 43.2 
" clip-path="url(#pe861c098f4)" style="fill: none; stroke-dasharray: 5.12,1.28,0.8,1.28; stroke-dashoffset: 0; stroke: #b0b0b0; stroke-width: 0.8"/>
     </g>
     <g id="line2d_6">
      <g>
       <use xlink:href="#m2d39f5c253" x="315.509204" y="320.4" style="fill: #a9a9a9; stroke: #a9a9a9; stroke-width: 0.8"/>
      </g>
     </g>
     <g id="text_3">
      <!-- 2022-05 -->
      <g style="fill: #a9a9a9" transform="translate(294.617798 334.998438) scale(0.1 -0.1)">
       <defs>
        <path id="DejaVuSans-35" d="M 691 4666 
L 3169 4666 
L 3169 4134 
L 1269 4134 
L 1269 2991 
Q 1406 3038 1543 3061 
Q 1681 3084 1819 3084 
Q 2600 3084 3056 2656 
Q 3513 2228 3513 1497 
Q 3513 744 3044 326 
Q 2575 -91 1722 -91 
Q 1428 -91 1123 -41 
Q 819 9 494 109 
L 494 744 
Q 775 591 1075 516 
Q 1375 441 1709 441 
Q 2250 441 2565 725 
Q 2881 1009 2881 1497 
Q 2881 1984 2565 2268 
Q 2250 2553 1709 2553 
Q 1456 2553 1204 2497 
Q 953 2441 691 2322 
L 691 4666 
z
" transform="scale(0.015625)"/>
       </defs>
       <use xlink:href="#DejaVuSans-32"/>
       <use xlink:href="#DejaVuSans-30" x="63.623047"/>
       <use xlink:href="#DejaVuSans-32" x="127.246094"/>
       <use xlink:href="#DejaVuSans-32" x="190.869141"/>
       <use xlink:href="#DejaVuSans-2d" x="254.492188"/>
       <use xlink:href="#DejaVuSans-30" x="290.576172"/>
       <use xlink:href="#DejaVuSans-35" x="354.199219"/>
      </g>
     </g>
    </g>
    <g id="xtick_4">
     <g id="line2d_7">
      <path d="M 393.017956 320.4 
L 393.017956 43.2 
" clip-path="url(#pe861c098f4)" style="fill: none; stroke-dasharray: 5.12,1.28,0.8,1.28; stroke-dashoffset: 0; stroke: #b0b0b0; stroke-width: 0.8"/>
     </g>
     <g id="line2d_8">
      <g>
       <use xlink:href="#m2d39f5c253" x="393.017956" y="320.4" style="fill: #a9a9a9; stroke: #a9a9a9; stroke-width: 0.8"/>
      </g>
     </g>
     <g id="text_4">
      <!-- 2022-09 -->
      <g style="fill: #a9a9a9" transform="translate(372.12655 334.998438) scale(0.1 -0.1)">
       <use xlink:href="#DejaVuSans-32"/>
       <use xlink:href="#DejaVuSans-30" x="63.623047"/>
       <use xlink:href="#DejaVuSans-32" x="127.246094"/>
       <use xlink:href="#DejaVuSans-32" x="190.869141"/>
       <use xlink:href="#DejaVuSans-2d" x="254.492188"/>
       <use xlink:href="#DejaVuSans-30" x="290.576172"/>
       <use xlink:href="#DejaVuSans-39" x="354.199219"/>
      </g>
     </g>
    </g>
    <g id="xtick_5">
     <g id="line2d_9">
      <path d="M 469.896556 320.4 
L 469.896556 43.2 
" clip-path="url(#pe861c098f4)" style="fill: none; stroke-dasharray: 5.12,1.28,0.8,1.28; stroke-dashoffset: 0; stroke: #b0b0b0; stroke-width: 0.8"/>
     </g>
     <g id="line2d_10">
      <g>
       <use xlink:href="#m2d39f5c253" x="469.896556" y="320.4" style="fill: #a9a9a9; stroke: #a9a9a9; stroke-width: 0.8"/>
      </g>
     </g>
     <g id="text_5">
      <!-- 2023-01 -->
      <g style="fill: #a9a9a9" transform="translate(449.005149 334.998438) scale(0.1 -0.1)">
       <defs>
        <path id="DejaVuSans-33" d="M 2597 2516 
Q 3050 2419 3304 2112 
Q 3559 1806 3559 1356 
Q 3559 666 3084 287 
Q 2609 -91 1734 -91 
Q 1441 -91 1130 -33 
Q 819 25 488 141 
L 488 750 
Q 750 597 1062 519 
Q 1375 441 1716 441 
Q 2309 441 2620 675 
Q 2931 909 2931 1356 
Q 2931 1769 2642 2001 
Q 2353 2234 1838 2234 
L 1294 2234 
L 1294 2753 
L 1863 2753 
Q 2328 2753 2575 2939 
Q 2822 3125 2822 3475 
Q 2822 3834 2567 4026 
Q 2313 4219 1838 4219 
Q 1578 4219 1281 4162 
Q 984 4106 628 3988 
L 628 4550 
Q 988 4650 1302 4700 
Q 1616 4750 1894 4750 
Q 2613 4750 3031 4423 
Q 3450 4097 3450 3541 
Q 3450 3153 3228 2886 
Q 3006 2619 2597 2516 
z
" transform="scale(0.015625)"/>
       </defs>
       <use xlink:href="#DejaVuSans-32"/>
       <use xlink:href="#DejaVuSans-30" x="63.623047"/>
       <use xlink:href="#DejaVuSans-32" x="127.246094"/>
       <use xlink:href="#DejaVuSans-33" x="190.869141"/>
       <use xlink:href="#DejaVuSans-2d" x="254.492188"/>
       <use xlink:href="#DejaVuSans-30" x="290.576172"/>
       <use xlink:href="#DejaVuSans-31" x="354.199219"/>
      </g>
     </g>
    </g>
    <g id="xtick_6">
     <g id="line2d_11">
      <path d="M 545.51485 320.4 
L 545.51485 43.2 
" clip-path="url(#pe861c098f4)" style="fill: none; stroke-dasharray: 5.12,1.28,0.8,1.28; stroke-dashoffset: 0; stroke: #b0b0b0; stroke-width: 0.8"/>
     </g>
     <g id="line2d_12">
      <g>
       <use xlink:href="#m2d39f5c253" x="545.51485" y="320.4" style="fill: #a9a9a9; stroke: #a9a9a9; stroke-width: 0.8"/>
      </g>
     </g>
     <g id="text_6">
      <!-- 2023-05 -->
      <g style="fill: #a9a9a9" transform="translate(524.623444 334.998438) scale(0.1 -0.1)">
       <use xlink:href="#DejaVuSans-32"/>
       <use xlink:href="#DejaVuSans-30" x="63.623047"/>
       <use xlink:href="#DejaVuSans-32" x="127.246094"/>
       <use xlink:href="#DejaVuSans-33" x="190.869141"/>
       <use xlink:href="#DejaVuSans-2d" x="254.492188"/>
       <use xlink:href="#DejaVuSans-30" x="290.576172"/>
       <use xlink:href="#DejaVuSans-35" x="354.199219"/>
      </g>
     </g>
    </g>
    <g id="xtick_7">
     <g id="line2d_13">
      <path d="M 623.023602 320.4 
L 623.023602 43.2 
" clip-path="url(#pe861c098f4)" style="fill: none; stroke-dasharray: 5.12,1.28,0.8,1.28; stroke-dashoffset: 0; stroke: #b0b0b0; stroke-width: 0.8"/>
     </g>
     <g id="line2d_14">
      <g>
       <use xlink:href="#m2d39f5c253" x="623.023602" y="320.4" style="fill: #a9a9a9; stroke: #a9a9a9; stroke-width: 0.8"/>
      </g>
     </g>
     <g id="text_7">
      <!-- 2023-09 -->
      <g style="fill: #a9a9a9" transform="translate(602.132196 334.998438) scale(0.1 -0.1)">
       <use xlink:href="#DejaVuSans-32"/>
       <use xlink:href="#DejaVuSans-30" x="63.623047"/>
       <use xlink:href="#DejaVuSans-32" x="127.246094"/>
       <use xlink:href="#DejaVuSans-33" x="190.869141"/>
       <use xlink:href="#DejaVuSans-2d" x="254.492188"/>
       <use xlink:href="#DejaVuSans-30" x="290.576172"/>
       <use xlink:href="#DejaVuSans-39" x="354.199219"/>
      </g>
     </g>
    </g>
    <g id="xtick_8">
     <g id="line2d_15">
      <path d="M 699.902202 320.4 
L 699.902202 43.2 
" clip-path="url(#pe861c098f4)" style="fill: none; stroke-dasharray: 5.12,1.28,0.8,1.28; stroke-dashoffset: 0; stroke: #b0b0b0; stroke-width: 0.8"/>
     </g>
     <g id="line2d_16">
      <g>
       <use xlink:href="#m2d39f5c253" x="699.902202" y="320.4" style="fill: #a9a9a9; stroke: #a9a9a9; stroke-width: 0.8"/>
      </g>
     </g>
     <g id="text_8">
      <!-- 2024-01 -->
      <g style="fill: #a9a9a9" transform="translate(679.010796 334.998438) scale(0.1 -0.1)">
       <defs>
        <path id="DejaVuSans-34" d="M 2419 4116 
L 825 1625 
L 2419 1625 
L 2419 4116 
z
M 2253 4666 
L 3047 4666 
L 3047 1625 
L 3713 1625 
L 3713 1100 
L 3047 1100 
L 3047 0 
L 2419 0 
L 2419 1100 
L 313 1100 
L 313 1709 
L 2253 4666 
z
" transform="scale(0.015625)"/>
       </defs>
       <use xlink:href="#DejaVuSans-32"/>
       <use xlink:href="#DejaVuSans-30" x="63.623047"/>
       <use xlink:href="#DejaVuSans-32" x="127.246094"/>
       <use xlink:href="#DejaVuSans-34" x="190.869141"/>
       <use xlink:href="#DejaVuSans-2d" x="254.492188"/>
       <use xlink:href="#DejaVuSans-30" x="290.576172"/>
       <use xlink:href="#DejaVuSans-31" x="354.199219"/>
      </g>
     </g>
    </g>
    <g id="xtick_9">
     <g id="line2d_17">
      <path d="M 776.150649 320.4 
L 776.150649 43.2 
" clip-path="url(#pe861c098f4)" style="fill: none; stroke-dasharray: 5.12,1.28,0.8,1.28; stroke-dashoffset: 0; stroke: #b0b0b0; stroke-width: 0.8"/>
     </g>
     <g id="line2d_18">
      <g>
       <use xlink:href="#m2d39f5c253" x="776.150649" y="320.4" style="fill: #a9a9a9; stroke: #a9a9a9; stroke-width: 0.8"/>
      </g>
     </g>
     <g id="text_9">
      <!-- 2024-05 -->
      <g style="fill: #a9a9a9" transform="translate(755.259243 334.998438) scale(0.1 -0.1)">
       <use xlink:href="#DejaVuSans-32"/>
       <use xlink:href="#DejaVuSans-30" x="63.623047"/>
       <use xlink:href="#DejaVuSans-32" x="127.246094"/>
       <use xlink:href="#DejaVuSans-34" x="190.869141"/>
       <use xlink:href="#DejaVuSans-2d" x="254.492188"/>
       <use xlink:href="#DejaVuSans-30" x="290.576172"/>
       <use xlink:href="#DejaVuSans-35" x="354.199219"/>
      </g>
     </g>
    </g>
   </g>
   <g id="matplotlib.axis_2">
    <g id="ytick_1">
     <g id="line2d_19">
      <path d="M 108 307.843659 
L 777.6 307.843659 
" clip-path="url(#pe861c098f4)" style="fill: none; stroke-dasharray: 5.12,1.28,0.8,1.28; stroke-dashoffset: 0; stroke: #b0b0b0; stroke-width: 0.8"/>
     </g>
     <g id="line2d_20">
      <defs>
       <path id="mf6197cd891" d="M 0 0 
L -3.5 0 
" style="stroke: #a9a9a9; stroke-width: 0.8"/>
      </defs>
      <g>
       <use xlink:href="#mf6197cd891" x="108" y="307.843659" style="fill: #a9a9a9; stroke: #a9a9a9; stroke-width: 0.8"/>
      </g>
     </g>
     <g id="text_10">
      <!-- 0 -->
      <g style="fill: #a9a9a9" transform="translate(94.6375 311.642878) scale(0.1 -0.1)">
       <use xlink:href="#DejaVuSans-30"/>
      </g>
     </g>
    </g>
    <g id="ytick_2">
     <g id="line2d_21">
      <path d="M 108 272.916424 
L 777.6 272.916424 
" clip-path="url(#pe861c098f4)" style="fill: none; stroke-dasharray: 5.12,1.28,0.8,1.28; stroke-dashoffset: 0; stroke: #b0b0b0; stroke-width: 0.8"/>
     </g>
     <g id="line2d_22">
      <g>
       <use xlink:href="#mf6197cd891" x="108" y="272.916424" style="fill: #a9a9a9; stroke: #a9a9a9; stroke-width: 0.8"/>
      </g>
     </g>
     <g id="text_11">
      <!-- 800 -->
      <g style="fill: #a9a9a9" transform="translate(81.9125 276.715643) scale(0.1 -0.1)">
       <defs>
        <path id="DejaVuSans-38" d="M 2034 2216 
Q 1584 2216 1326 1975 
Q 1069 1734 1069 1313 
Q 1069 891 1326 650 
Q 1584 409 2034 409 
Q 2484 409 2743 651 
Q 3003 894 3003 1313 
Q 3003 1734 2745 1975 
Q 2488 2216 2034 2216 
z
M 1403 2484 
Q 997 2584 770 2862 
Q 544 3141 544 3541 
Q 544 4100 942 4425 
Q 1341 4750 2034 4750 
Q 2731 4750 3128 4425 
Q 3525 4100 3525 3541 
Q 3525 3141 3298 2862 
Q 3072 2584 2669 2484 
Q 3125 2378 3379 2068 
Q 3634 1759 3634 1313 
Q 3634 634 3220 271 
Q 2806 -91 2034 -91 
Q 1263 -91 848 271 
Q 434 634 434 1313 
Q 434 1759 690 2068 
Q 947 2378 1403 2484 
z
M 1172 3481 
Q 1172 3119 1398 2916 
Q 1625 2713 2034 2713 
Q 2441 2713 2670 2916 
Q 2900 3119 2900 3481 
Q 2900 3844 2670 4047 
Q 2441 4250 2034 4250 
Q 1625 4250 1398 4047 
Q 1172 3844 1172 3481 
z
" transform="scale(0.015625)"/>
       </defs>
       <use xlink:href="#DejaVuSans-38"/>
       <use xlink:href="#DejaVuSans-30" x="63.623047"/>
       <use xlink:href="#DejaVuSans-30" x="127.246094"/>
      </g>
     </g>
    </g>
    <g id="ytick_3">
     <g id="line2d_23">
      <path d="M 108 237.989189 
L 777.6 237.989189 
" clip-path="url(#pe861c098f4)" style="fill: none; stroke-dasharray: 5.12,1.28,0.8,1.28; stroke-dashoffset: 0; stroke: #b0b0b0; stroke-width: 0.8"/>
     </g>
     <g id="line2d_24">
      <g>
       <use xlink:href="#mf6197cd891" x="108" y="237.989189" style="fill: #a9a9a9; stroke: #a9a9a9; stroke-width: 0.8"/>
      </g>
     </g>
     <g id="text_12">
      <!-- 1600 -->
      <g style="fill: #a9a9a9" transform="translate(75.55 241.788408) scale(0.1 -0.1)">
       <defs>
        <path id="DejaVuSans-36" d="M 2113 2584 
Q 1688 2584 1439 2293 
Q 1191 2003 1191 1497 
Q 1191 994 1439 701 
Q 1688 409 2113 409 
Q 2538 409 2786 701 
Q 3034 994 3034 1497 
Q 3034 2003 2786 2293 
Q 2538 2584 2113 2584 
z
M 3366 4563 
L 3366 3988 
Q 3128 4100 2886 4159 
Q 2644 4219 2406 4219 
Q 1781 4219 1451 3797 
Q 1122 3375 1075 2522 
Q 1259 2794 1537 2939 
Q 1816 3084 2150 3084 
Q 2853 3084 3261 2657 
Q 3669 2231 3669 1497 
Q 3669 778 3244 343 
Q 2819 -91 2113 -91 
Q 1303 -91 875 529 
Q 447 1150 447 2328 
Q 447 3434 972 4092 
Q 1497 4750 2381 4750 
Q 2619 4750 2861 4703 
Q 3103 4656 3366 4563 
z
" transform="scale(0.015625)"/>
       </defs>
       <use xlink:href="#DejaVuSans-31"/>
       <use xlink:href="#DejaVuSans-36" x="63.623047"/>
       <use xlink:href="#DejaVuSans-30" x="127.246094"/>
       <use xlink:href="#DejaVuSans-30" x="190.869141"/>
      </g>
     </g>
    </g>
    <g id="ytick_4">
     <g id="line2d_25">
      <path d="M 108 203.061954 
L 777.6 203.061954 
" clip-path="url(#pe861c098f4)" style="fill: none; stroke-dasharray: 5.12,1.28,0.8,1.28; stroke-dashoffset: 0; stroke: #b0b0b0; stroke-width: 0.8"/>
     </g>
     <g id="line2d_26">
      <g>
       <use xlink:href="#mf6197cd891" x="108" y="203.061954" style="fill: #a9a9a9; stroke: #a9a9a9; stroke-width: 0.8"/>
      </g>
     </g>
     <g id="text_13">
      <!-- 2400 -->
      <g style="fill: #a9a9a9" transform="translate(75.55 206.861173) scale(0.1 -0.1)">
       <use xlink:href="#DejaVuSans-32"/>
       <use xlink:href="#DejaVuSans-34" x="63.623047"/>
       <use xlink:href="#DejaVuSans-30" x="127.246094"/>
       <use xlink:href="#DejaVuSans-30" x="190.869141"/>
      </g>
     </g>
    </g>
    <g id="ytick_5">
     <g id="line2d_27">
      <path d="M 108 168.134719 
L 777.6 168.134719 
" clip-path="url(#pe861c098f4)" style="fill: none; stroke-dasharray: 5.12,1.28,0.8,1.28; stroke-dashoffset: 0; stroke: #b0b0b0; stroke-width: 0.8"/>
     </g>
     <g id="line2d_28">
      <g>
       <use xlink:href="#mf6197cd891" x="108" y="168.134719" style="fill: #a9a9a9; stroke: #a9a9a9; stroke-width: 0.8"/>
      </g>
     </g>
     <g id="text_14">
      <!-- 3200 -->
      <g style="fill: #a9a9a9" transform="translate(75.55 171.933938) scale(0.1 -0.1)">
       <use xlink:href="#DejaVuSans-33"/>
       <use xlink:href="#DejaVuSans-32" x="63.623047"/>
       <use xlink:href="#DejaVuSans-30" x="127.246094"/>
       <use xlink:href="#DejaVuSans-30" x="190.869141"/>
      </g>
     </g>
    </g>
    <g id="ytick_6">
     <g id="line2d_29">
      <path d="M 108 133.207484 
L 777.6 133.207484 
" clip-path="url(#pe861c098f4)" style="fill: none; stroke-dasharray: 5.12,1.28,0.8,1.28; stroke-dashoffset: 0; stroke: #b0b0b0; stroke-width: 0.8"/>
     </g>
     <g id="line2d_30">
      <g>
       <use xlink:href="#mf6197cd891" x="108" y="133.207484" style="fill: #a9a9a9; stroke: #a9a9a9; stroke-width: 0.8"/>
      </g>
     </g>
     <g id="text_15">
      <!-- 4000 -->
      <g style="fill: #a9a9a9" transform="translate(75.55 137.006703) scale(0.1 -0.1)">
       <use xlink:href="#DejaVuSans-34"/>
       <use xlink:href="#DejaVuSans-30" x="63.623047"/>
       <use xlink:href="#DejaVuSans-30" x="127.246094"/>
       <use xlink:href="#DejaVuSans-30" x="190.869141"/>
      </g>
     </g>
    </g>
    <g id="ytick_7">
     <g id="line2d_31">
      <path d="M 108 98.280249 
L 777.6 98.280249 
" clip-path="url(#pe861c098f4)" style="fill: none; stroke-dasharray: 5.12,1.28,0.8,1.28; stroke-dashoffset: 0; stroke: #b0b0b0; stroke-width: 0.8"/>
     </g>
     <g id="line2d_32">
      <g>
       <use xlink:href="#mf6197cd891" x="108" y="98.280249" style="fill: #a9a9a9; stroke: #a9a9a9; stroke-width: 0.8"/>
      </g>
     </g>
     <g id="text_16">
      <!-- 4800 -->
      <g style="fill: #a9a9a9" transform="translate(75.55 102.079468) scale(0.1 -0.1)">
       <use xlink:href="#DejaVuSans-34"/>
       <use xlink:href="#DejaVuSans-38" x="63.623047"/>
       <use xlink:href="#DejaVuSans-30" x="127.246094"/>
       <use xlink:href="#DejaVuSans-30" x="190.869141"/>
      </g>
     </g>
    </g>
    <g id="ytick_8">
     <g id="line2d_33">
      <path d="M 108 63.353015 
L 777.6 63.353015 
" clip-path="url(#pe861c098f4)" style="fill: none; stroke-dasharray: 5.12,1.28,0.8,1.28; stroke-dashoffset: 0; stroke: #b0b0b0; stroke-width: 0.8"/>
     </g>
     <g id="line2d_34">
      <g>
       <use xlink:href="#mf6197cd891" x="108" y="63.353015" style="fill: #a9a9a9; stroke: #a9a9a9; stroke-width: 0.8"/>
      </g>
     </g>
     <g id="text_17">
      <!-- 5600 -->
      <g style="fill: #a9a9a9" transform="translate(75.55 67.152233) scale(0.1 -0.1)">
       <use xlink:href="#DejaVuSans-35"/>
       <use xlink:href="#DejaVuSans-36" x="63.623047"/>
       <use xlink:href="#DejaVuSans-30" x="127.246094"/>
       <use xlink:href="#DejaVuSans-30" x="190.869141"/>
      </g>
     </g>
    </g>
   </g>
   <g id="line2d_35">
    <path d="M 138.436364 307.712682 
L 142.217278 307.407069 
L 142.847431 307.145114 
L 144.737888 306.926819 
L 148.518803 306.184615 
L 152.299718 305.879002 
L 152.92987 305.573389 
L 153.560023 305.398753 
L 154.190175 304.61289 
L 154.820327 304.176299 
L 155.45048 302.822869 
L 156.080632 302.735551 
L 156.710785 302.255301 
L 157.97109 301.644075 
L 160.4917 299.723077 
L 161.752005 299.199168 
L 162.382157 298.762578 
L 164.902767 297.671102 
L 165.532919 296.710603 
L 166.793224 295.793763 
L 167.423377 295.48815 
L 173.724901 294.614969 
L 174.355054 294.309356 
L 178.766121 293.960083 
L 180.656578 293.479834 
L 186.32795 292.73763 
L 186.958103 292.388358 
L 187.588255 292.30104 
L 188.218408 292.039085 
L 189.478713 291.82079 
L 190.108865 291.777131 
L 191.36917 291.515177 
L 191.999322 291.471518 
L 194.519932 290.860291 
L 196.41039 290.685655 
L 197.670695 290.554678 
L 198.300847 290.380042 
L 198.930999 290.336383 
L 200.821457 289.768815 
L 204.602372 289.201247 
L 205.232524 289.026611 
L 205.862676 288.15343 
L 207.753134 287.454886 
L 209.643591 286.930977 
L 210.273744 286.625364 
L 210.903896 286.581705 
L 214.054658 285.708524 
L 215.314963 285.621206 
L 215.945116 285.533888 
L 217.835573 284.96632 
L 220.356183 284.355094 
L 220.986335 284.093139 
L 221.616488 284.005821 
L 222.24664 283.700208 
L 228.548165 282.739709 
L 231.698927 281.866528 
L 232.32908 281.473597 
L 234.849689 280.818711 
L 236.109994 280.076507 
L 236.740147 279.639917 
L 238.630604 279.290644 
L 242.411519 278.155509 
L 243.671824 277.762578 
L 244.301976 277.67526 
L 245.562281 277.325988 
L 246.822586 277.020374 
L 247.452739 276.933056 
L 248.713043 276.409148 
L 249.343196 276.27817 
L 249.973348 276.016216 
L 250.603501 275.928898 
L 251.233653 275.623285 
L 251.863806 275.448649 
L 253.124111 275.361331 
L 254.384416 274.92474 
L 255.64472 274.837422 
L 256.274873 274.531809 
L 258.795483 274.095218 
L 261.316093 273.876923 
L 261.946245 273.745946 
L 263.20655 273.134719 
L 270.138227 270.209563 
L 270.768379 269.860291 
L 271.398532 269.161746 
L 272.028684 268.113929 
L 272.658837 267.284407 
L 273.288989 267.109771 
L 273.919142 267.109771 
L 275.179447 266.192931 
L 275.809599 266.018295 
L 276.439752 265.669023 
L 277.069904 265.538046 
L 277.700056 264.970478 
L 278.330209 264.795842 
L 280.220666 263.879002 
L 281.480971 262.13264 
L 282.111124 261.739709 
L 282.741276 260.691892 
L 283.371429 260.037006 
L 284.001581 259.731393 
L 284.631733 259.556757 
L 287.152343 258.072349 
L 288.412648 257.068191 
L 289.042801 256.67526 
L 289.672953 255.75842 
L 290.303106 254.317672 
L 290.933258 253.400832 
L 291.563411 252.920582 
L 292.193563 252.658628 
L 294.714173 250.475676 
L 295.974478 249.471518 
L 296.60463 248.947609 
L 297.234783 248.118087 
L 298.495088 247.026611 
L 301.015697 245.411227 
L 301.64585 244.843659 
L 302.276002 244.712682 
L 302.906155 244.450728 
L 304.16646 243.752183 
L 306.056917 242.791684 
L 307.317222 241.61289 
L 307.947374 240.870686 
L 309.207679 239.997505 
L 309.837832 239.822869 
L 310.467984 239.517256 
L 311.728289 238.687734 
L 312.358442 238.338462 
L 312.988594 238.251143 
L 314.248899 237.552599 
L 314.879051 237.203326 
L 315.509204 236.548441 
L 316.139356 236.155509 
L 316.769509 235.937214 
L 318.029814 235.19501 
L 318.659966 234.845738 
L 319.290119 234.627443 
L 321.180576 233.40499 
L 323.071033 232.837422 
L 323.701186 232.400832 
L 324.331338 232.269854 
L 325.591643 231.833264 
L 327.482101 231.09106 
L 329.372558 230.392516 
L 330.632863 230.17422 
L 331.893168 229.082744 
L 333.153473 228.471518 
L 334.413778 227.772973 
L 335.04393 227.423701 
L 336.304235 227.074428 
L 336.934387 226.681497 
L 337.56454 226.506861 
L 339.454997 225.328067 
L 342.605759 224.585863 
L 344.496217 223.494387 
L 345.126369 223.407069 
L 345.756522 223.188773 
L 347.016827 222.926819 
L 348.907284 221.52973 
L 350.797741 221.093139 
L 351.427894 220.874844 
L 352.058046 220.394595 
L 355.838961 219.172141 
L 356.469113 219.128482 
L 357.099266 218.953846 
L 358.359571 218.429938 
L 362.770638 216.901871 
L 364.030943 216.727235 
L 364.661095 216.552599 
L 365.291248 216.246985 
L 365.9214 216.116008 
L 367.811858 215.242827 
L 369.702315 214.325988 
L 370.332468 213.889397 
L 370.96262 213.714761 
L 372.853077 212.710603 
L 374.113382 212.40499 
L 375.373687 211.750104 
L 376.633992 211.400832 
L 377.264145 211.313514 
L 378.524449 210.57131 
L 379.154602 210.440333 
L 380.414907 209.916424 
L 381.045059 209.785447 
L 381.675212 209.436175 
L 384.195822 209.043243 
L 385.456126 208.432017 
L 386.086279 207.908108 
L 386.716431 206.816632 
L 387.976736 206.554678 
L 388.606889 206.423701 
L 391.127499 205.113929 
L 391.757651 204.982952 
L 396.798871 202.581705 
L 398.689328 202.188773 
L 399.319481 201.839501 
L 403.100395 200.52973 
L 404.3607 199.743867 
L 405.621005 199.001663 
L 406.251158 198.914345 
L 406.88131 198.69605 
L 407.511462 198.652391 
L 410.662225 197.822869 
L 411.292377 197.34262 
L 412.552682 196.906029 
L 414.443139 196.294802 
L 415.073292 195.901871 
L 415.703444 195.727235 
L 416.333597 195.290644 
L 416.963749 195.02869 
L 417.593902 194.635759 
L 418.854207 194.199168 
L 420.744664 193.587942 
L 421.374816 193.282328 
L 423.265274 191.84158 
L 423.895426 191.710603 
L 425.155731 190.750104 
L 425.785884 190.619127 
L 426.416036 189.658628 
L 427.046189 189.396674 
L 427.676341 188.916424 
L 428.306494 188.829106 
L 429.566798 188.086902 
L 430.196951 187.955925 
L 430.827103 187.693971 
L 431.457256 187.213721 
L 432.087408 186.995426 
L 433.977866 185.729314 
L 436.498475 184.463202 
L 437.128628 184.375884 
L 438.388933 183.808316 
L 439.019085 183.459044 
L 439.649238 182.411227 
L 440.27939 181.843659 
L 440.909543 181.494387 
L 441.539695 181.36341 
L 442.8 180.577547 
L 443.430152 180.44657 
L 444.690457 179.835343 
L 446.580915 179.04948 
L 447.84122 178.176299 
L 449.101525 176.866528 
L 452.252287 174.596258 
L 453.512592 173.548441 
L 454.142744 173.286486 
L 454.772897 172.587942 
L 455.403049 172.107692 
L 456.663354 171.671102 
L 457.293506 171.147193 
L 458.553811 170.492308 
L 459.183964 170.317672 
L 459.814116 169.881081 
L 460.444269 169.750104 
L 462.334726 168.745946 
L 463.595031 168.003742 
L 469.896556 165.777131 
L 470.526708 165.209563 
L 472.417165 164.511019 
L 473.67747 164.118087 
L 474.307623 163.637838 
L 476.828233 162.328067 
L 477.458385 161.978794 
L 478.71869 159.490229 
L 479.978995 158.005821 
L 481.2393 157.263617 
L 483.129757 156.521414 
L 483.75991 156.434096 
L 484.390062 156.084823 
L 486.280519 155.517256 
L 488.801129 154.382121 
L 489.431282 153.989189 
L 490.691587 153.552599 
L 494.472501 151.369647 
L 495.102654 150.714761 
L 495.732806 150.32183 
L 497.623264 149.492308 
L 498.253416 149.055717 
L 499.513721 148.444491 
L 501.404178 147.440333 
L 502.034331 147.265696 
L 502.664483 146.785447 
L 503.294636 146.523493 
L 503.924788 146.392516 
L 505.185093 145.955925 
L 507.075551 145.25738 
L 507.705703 144.82079 
L 508.966008 144.471518 
L 510.226313 143.991268 
L 510.856465 143.511019 
L 512.11677 143.118087 
L 512.746923 142.812474 
L 513.377075 142.637838 
L 514.63738 141.764657 
L 515.897685 141.197089 
L 517.15799 140.23659 
L 518.418295 139.8 
L 519.048447 139.276091 
L 519.6786 139.188773 
L 520.938905 138.271933 
L 522.199209 137.660707 
L 522.829362 137.398753 
L 523.459514 136.787526 
L 527.240429 135.434096 
L 529.130887 134.604574 
L 531.021344 134.037006 
L 532.281649 133.86237 
L 532.911801 133.600416 
L 533.541954 133.513098 
L 534.802259 132.989189 
L 535.432411 132.94553 
L 537.953021 132.02869 
L 539.843478 130.718919 
L 540.473631 130.456965 
L 541.103783 130.064033 
L 542.994241 129.234511 
L 544.884698 128.099376 
L 545.51485 127.706445 
L 546.775155 127.400832 
L 548.03546 126.527651 
L 550.55607 125.741788 
L 551.186222 125.479834 
L 552.446527 125.17422 
L 555.59729 124.170062 
L 557.487747 123.82079 
L 560.008357 123.034927 
L 560.638509 122.772973 
L 561.268662 122.685655 
L 561.898814 122.380042 
L 563.159119 122.118087 
L 564.419424 121.681497 
L 565.049577 121.463202 
L 566.309881 121.332225 
L 567.570186 121.026611 
L 569.460644 120.720998 
L 570.090796 120.502703 
L 571.351101 120.371726 
L 577.022473 118.712682 
L 577.652626 118.494387 
L 578.282778 118.450728 
L 582.063693 117.315593 
L 583.323998 116.879002 
L 583.95415 116.791684 
L 585.844608 116.136798 
L 586.47476 116.136798 
L 587.735065 115.700208 
L 588.365217 115.088981 
L 588.99537 114.783368 
L 590.255675 114.390437 
L 592.776285 113.429938 
L 593.406437 113.29896 
L 594.036589 112.906029 
L 594.666742 112.775052 
L 595.296894 112.42578 
L 598.447657 111.50894 
L 599.077809 111.116008 
L 599.707962 110.985031 
L 600.338114 110.461123 
L 602.228571 110.11185 
L 603.488876 109.413306 
L 604.119029 108.714761 
L 605.379334 108.452807 
L 609.790401 107.448649 
L 610.420553 107.274012 
L 611.680858 107.230353 
L 612.311011 106.92474 
L 614.831621 106.48815 
L 615.461773 106.182536 
L 617.35223 105.920582 
L 619.87284 105.134719 
L 621.763298 104.698129 
L 623.653755 104.217879 
L 626.174365 103.432017 
L 626.804517 103.30104 
L 627.43467 102.995426 
L 628.064822 102.908108 
L 628.694975 102.689813 
L 629.325127 102.340541 
L 631.215584 101.685655 
L 631.845737 101.205405 
L 633.106042 100.856133 
L 633.736194 100.594179 
L 634.996499 100.244906 
L 637.517109 99.109771 
L 639.407566 98.978794 
L 641.928176 98.192931 
L 642.558329 97.8 
L 643.818634 97.450728 
L 645.709091 96.490229 
L 646.339243 96.359252 
L 646.969396 96.053638 
L 647.599548 95.96632 
L 654.531225 93.652391 
L 657.051835 93.041164 
L 657.681988 92.866528 
L 658.942292 92.29896 
L 659.572445 92.211642 
L 660.83275 91.86237 
L 661.462902 91.382121 
L 662.093055 91.076507 
L 662.723207 90.334304 
L 663.35336 89.897713 
L 664.613665 89.504782 
L 665.243817 88.980873 
L 672.175494 86.143035 
L 673.435799 85.837422 
L 675.326256 84.964241 
L 676.586561 84.222037 
L 677.216714 84.09106 
L 677.846866 83.610811 
L 679.107171 82.999584 
L 680.367476 82.213721 
L 682.257933 81.340541 
L 682.888086 80.90395 
L 684.148391 80.423701 
L 685.408696 79.681497 
L 686.038848 79.375884 
L 686.669001 78.939293 
L 687.929305 78.502703 
L 688.559458 78.371726 
L 691.080068 77.23659 
L 694.23083 76.145114 
L 694.860982 76.101455 
L 695.491135 75.926819 
L 696.121287 75.533888 
L 696.75144 75.44657 
L 697.381592 75.228274 
L 699.27205 74.879002 
L 702.422812 73.263617 
L 703.683117 72.565073 
L 704.313269 72.477755 
L 706.203727 71.473597 
L 708.094184 70.775052 
L 709.984641 69.94553 
L 712.505251 68.941372 
L 713.135404 68.766736 
L 713.765556 68.373805 
L 715.025861 68.199168 
L 715.656014 67.806237 
L 716.286166 67.762578 
L 717.546471 67.369647 
L 718.806776 66.75842 
L 719.436928 66.671102 
L 720.067081 66.409148 
L 720.697233 66.27817 
L 722.587691 65.448649 
L 723.217843 65.317672 
L 723.847995 65.055717 
L 726.998758 64.313514 
L 728.889215 63.57131 
L 730.779673 62.436175 
L 732.039977 61.912266 
L 732.67013 61.650312 
L 733.300282 61.25738 
L 734.560587 60.995426 
L 735.19074 60.646154 
L 735.820892 60.515177 
L 737.081197 59.816632 
L 740.862112 58.07027 
L 744.643027 56.760499 
L 745.903331 56.105613 
L 746.533484 55.887318 
L 747.163636 55.8 
L 747.163636 55.8 
" clip-path="url(#pe861c098f4)" style="fill: none; stroke: #1f77b4; stroke-width: 1.5; stroke-linecap: square"/>
   </g>
   <g id="line2d_36">
    <path d="M 139.066516 307.8 
L 140.956973 307.712682 
L 142.847431 307.669023 
L 146.628346 307.581705 
L 149.779108 307.450728 
L 152.299718 307.450728 
L 152.92987 307.276091 
L 155.45048 307.188773 
L 157.340937 306.970478 
L 159.231395 306.795842 
L 163.012309 306.621206 
L 163.642462 306.621206 
L 164.272614 306.490229 
L 166.793224 306.402911 
L 168.053529 306.315593 
L 173.094749 306.228274 
L 176.245511 306.097297 
L 183.80734 306.009979 
L 186.958103 305.879002 
L 190.739018 305.791684 
L 193.259627 305.704366 
L 198.930999 305.617048 
L 200.821457 305.573389 
L 202.711914 305.52973 
L 204.602372 305.311435 
L 208.383286 305.267775 
L 209.643591 305.180457 
L 214.054658 305.093139 
L 220.986335 304.700208 
L 225.397403 304.61289 
L 226.657708 304.525572 
L 228.548165 304.438254 
L 232.32908 304.263617 
L 234.849689 304.219958 
L 236.740147 304.045322 
L 246.822586 303.434096 
L 249.343196 303.346778 
L 253.754263 303.128482 
L 255.64472 303.041164 
L 261.946245 302.691892 
L 268.877922 302.604574 
L 271.398532 302.34262 
L 272.658837 302.255301 
L 280.850819 301.600416 
L 284.631733 301.120166 
L 287.152343 301.032848 
L 292.193563 300.377963 
L 295.344325 300.290644 
L 303.536307 299.635759 
L 306.687069 299.286486 
L 309.207679 299.199168 
L 310.467984 299.11185 
L 312.988594 299.024532 
L 314.248899 298.937214 
L 317.399661 298.631601 
L 318.029814 298.456965 
L 321.810728 298.282328 
L 324.961491 298.19501 
L 333.153473 297.714761 
L 335.04393 297.627443 
L 343.235912 297.147193 
L 347.646979 297.059875 
L 348.277132 296.928898 
L 353.318351 296.84158 
L 357.729418 296.623285 
L 364.661095 296.535967 
L 369.072163 296.317672 
L 374.113382 296.230353 
L 379.154602 295.968399 
L 383.565669 295.881081 
L 395.538566 295.138877 
L 400.579785 295.051559 
L 416.963749 294.003742 
L 420.744664 293.916424 
L 422.635121 293.872765 
L 424.525579 293.829106 
L 426.416036 293.65447 
L 431.457256 293.567152 
L 432.717561 293.348857 
L 433.977866 293.261538 
L 437.128628 293.130561 
L 438.388933 293.043243 
L 439.649238 292.955925 
L 445.32061 292.868607 
L 446.580915 292.73763 
L 449.101525 292.693971 
L 449.731677 292.562994 
L 450.991982 292.475676 
L 451.622134 292.344699 
L 453.512592 292.25738 
L 464.225184 291.602495 
L 466.115641 291.515177 
L 469.266403 291.3842 
L 478.088538 291.296881 
L 482.499605 291.078586 
L 487.540824 290.991268 
L 490.061434 290.90395 
L 492.582044 290.860291 
L 493.842349 290.729314 
L 496.362959 290.641996 
L 502.664483 290.292723 
L 506.445398 290.249064 
L 508.335855 290.074428 
L 510.226313 290.030769 
L 514.63738 289.943451 
L 517.15799 289.856133 
L 524.719819 289.768815 
L 527.870582 289.637838 
L 531.651496 289.55052 
L 533.541954 289.332225 
L 537.322868 289.288565 
L 539.213326 289.113929 
L 541.733936 289.026611 
L 549.295765 288.939293 
L 552.446527 288.808316 
L 563.159119 288.764657 
L 564.419424 288.677339 
L 566.309881 288.63368 
L 574.501863 288.546362 
L 575.762168 288.459044 
L 582.693845 288.371726 
L 585.214455 288.284407 
L 592.776285 288.240748 
L 594.036589 288.15343 
L 603.488876 288.109771 
L 605.379334 287.935135 
L 616.091925 287.847817 
L 617.982383 287.804158 
L 634.366347 287.71684 
L 636.256804 287.673181 
L 648.229701 287.585863 
L 650.750311 287.498545 
L 655.161378 287.411227 
L 660.202597 287.149272 
L 662.723207 287.061954 
L 665.243817 286.974636 
L 669.024732 286.887318 
L 670.915189 286.843659 
L 673.435799 286.756341 
L 675.326256 286.712682 
L 678.477019 286.625364 
L 679.737324 286.538046 
L 683.518238 286.450728 
L 686.669001 286.319751 
L 687.929305 286.276091 
L 689.819763 286.101455 
L 693.600678 286.014137 
L 696.121287 285.926819 
L 702.422812 285.839501 
L 705.573574 285.708524 
L 711.875099 285.621206 
L 716.286166 285.402911 
L 721.957538 285.315593 
L 723.217843 285.228274 
L 730.779673 285.140956 
L 732.67013 285.097297 
L 739.601807 285.009979 
L 742.122417 284.748025 
L 744.012874 284.704366 
L 747.163636 284.617048 
L 747.163636 284.617048 
" clip-path="url(#pe861c098f4)" style="fill: none; stroke: #ff7f0e; stroke-width: 1.5; stroke-linecap: square"/>
   </g>
   <g id="patch_3">
    <path d="M 108 320.4 
L 108 43.2 
" style="fill: none; stroke: #a9a9a9; stroke-width: 0.8; stroke-linejoin: miter; stroke-linecap: square"/>
   </g>
   <g id="patch_4">
    <path d="M 777.6 320.4 
L 777.6 43.2 
" style="fill: none"/>
   </g>
   <g id="patch_5">
    <path d="M 108 320.4 
L 777.6 320.4 
" style="fill: none; stroke: #a9a9a9; stroke-width: 0.8; stroke-linejoin: miter; stroke-linecap: square"/>
   </g>
   <g id="patch_6">
    <path d="M 108 43.2 
L 777.6 43.2 
" style="fill: none"/>
   </g>
   <g id="text_18">
    <!-- get_subscribe history -->
    <g style="fill: #a9a9a9" transform="translate(378.6075 37.2) scale(0.12 -0.12)">
     <defs>
      <path id="DejaVuSans-67" d="M 2906 1791 
Q 2906 2416 2648 2759 
Q 2391 3103 1925 3103 
Q 1463 3103 1205 2759 
Q 947 2416 947 1791 
Q 947 1169 1205 825 
Q 1463 481 1925 481 
Q 2391 481 2648 825 
Q 2906 1169 2906 1791 
z
M 3481 434 
Q 3481 -459 3084 -895 
Q 2688 -1331 1869 -1331 
Q 1566 -1331 1297 -1286 
Q 1028 -1241 775 -1147 
L 775 -588 
Q 1028 -725 1275 -790 
Q 1522 -856 1778 -856 
Q 2344 -856 2625 -561 
Q 2906 -266 2906 331 
L 2906 616 
Q 2728 306 2450 153 
Q 2172 0 1784 0 
Q 1141 0 747 490 
Q 353 981 353 1791 
Q 353 2603 747 3093 
Q 1141 3584 1784 3584 
Q 2172 3584 2450 3431 
Q 2728 3278 2906 2969 
L 2906 3500 
L 3481 3500 
L 3481 434 
z
" transform="scale(0.015625)"/>
      <path id="DejaVuSans-65" d="M 3597 1894 
L 3597 1613 
L 953 1613 
Q 991 1019 1311 708 
Q 1631 397 2203 397 
Q 2534 397 2845 478 
Q 3156 559 3463 722 
L 3463 178 
Q 3153 47 2828 -22 
Q 2503 -91 2169 -91 
Q 1331 -91 842 396 
Q 353 884 353 1716 
Q 353 2575 817 3079 
Q 1281 3584 2069 3584 
Q 2775 3584 3186 3129 
Q 3597 2675 3597 1894 
z
M 3022 2063 
Q 3016 2534 2758 2815 
Q 2500 3097 2075 3097 
Q 1594 3097 1305 2825 
Q 1016 2553 972 2059 
L 3022 2063 
z
" transform="scale(0.015625)"/>
      <path id="DejaVuSans-74" d="M 1172 4494 
L 1172 3500 
L 2356 3500 
L 2356 3053 
L 1172 3053 
L 1172 1153 
Q 1172 725 1289 603 
Q 1406 481 1766 481 
L 2356 481 
L 2356 0 
L 1766 0 
Q 1100 0 847 248 
Q 594 497 594 1153 
L 594 3053 
L 172 3053 
L 172 3500 
L 594 3500 
L 594 4494 
L 1172 4494 
z
" transform="scale(0.015625)"/>
      <path id="DejaVuSans-5f" d="M 3263 -1063 
L 3263 -1509 
L -63 -1509 
L -63 -1063 
L 3263 -1063 
z
" transform="scale(0.015625)"/>
      <path id="DejaVuSans-73" d="M 2834 3397 
L 2834 2853 
Q 2591 2978 2328 3040 
Q 2066 3103 1784 3103 
Q 1356 3103 1142 2972 
Q 928 2841 928 2578 
Q 928 2378 1081 2264 
Q 1234 2150 1697 2047 
L 1894 2003 
Q 2506 1872 2764 1633 
Q 3022 1394 3022 966 
Q 3022 478 2636 193 
Q 2250 -91 1575 -91 
Q 1294 -91 989 -36 
Q 684 19 347 128 
L 347 722 
Q 666 556 975 473 
Q 1284 391 1588 391 
Q 1994 391 2212 530 
Q 2431 669 2431 922 
Q 2431 1156 2273 1281 
Q 2116 1406 1581 1522 
L 1381 1569 
Q 847 1681 609 1914 
Q 372 2147 372 2553 
Q 372 3047 722 3315 
Q 1072 3584 1716 3584 
Q 2034 3584 2315 3537 
Q 2597 3491 2834 3397 
z
" transform="scale(0.015625)"/>
      <path id="DejaVuSans-75" d="M 544 1381 
L 544 3500 
L 1119 3500 
L 1119 1403 
Q 1119 906 1312 657 
Q 1506 409 1894 409 
Q 2359 409 2629 706 
Q 2900 1003 2900 1516 
L 2900 3500 
L 3475 3500 
L 3475 0 
L 2900 0 
L 2900 538 
Q 2691 219 2414 64 
Q 2138 -91 1772 -91 
Q 1169 -91 856 284 
Q 544 659 544 1381 
z
M 1991 3584 
L 1991 3584 
z
" transform="scale(0.015625)"/>
      <path id="DejaVuSans-62" d="M 3116 1747 
Q 3116 2381 2855 2742 
Q 2594 3103 2138 3103 
Q 1681 3103 1420 2742 
Q 1159 2381 1159 1747 
Q 1159 1113 1420 752 
Q 1681 391 2138 391 
Q 2594 391 2855 752 
Q 3116 1113 3116 1747 
z
M 1159 2969 
Q 1341 3281 1617 3432 
Q 1894 3584 2278 3584 
Q 2916 3584 3314 3078 
Q 3713 2572 3713 1747 
Q 3713 922 3314 415 
Q 2916 -91 2278 -91 
Q 1894 -91 1617 61 
Q 1341 213 1159 525 
L 1159 0 
L 581 0 
L 581 4863 
L 1159 4863 
L 1159 2969 
z
" transform="scale(0.015625)"/>
      <path id="DejaVuSans-63" d="M 3122 3366 
L 3122 2828 
Q 2878 2963 2633 3030 
Q 2388 3097 2138 3097 
Q 1578 3097 1268 2742 
Q 959 2388 959 1747 
Q 959 1106 1268 751 
Q 1578 397 2138 397 
Q 2388 397 2633 464 
Q 2878 531 3122 666 
L 3122 134 
Q 2881 22 2623 -34 
Q 2366 -91 2075 -91 
Q 1284 -91 818 406 
Q 353 903 353 1747 
Q 353 2603 823 3093 
Q 1294 3584 2113 3584 
Q 2378 3584 2631 3529 
Q 2884 3475 3122 3366 
z
" transform="scale(0.015625)"/>
      <path id="DejaVuSans-72" d="M 2631 2963 
Q 2534 3019 2420 3045 
Q 2306 3072 2169 3072 
Q 1681 3072 1420 2755 
Q 1159 2438 1159 1844 
L 1159 0 
L 581 0 
L 581 3500 
L 1159 3500 
L 1159 2956 
Q 1341 3275 1631 3429 
Q 1922 3584 2338 3584 
Q 2397 3584 2469 3576 
Q 2541 3569 2628 3553 
L 2631 2963 
z
" transform="scale(0.015625)"/>
      <path id="DejaVuSans-69" d="M 603 3500 
L 1178 3500 
L 1178 0 
L 603 0 
L 603 3500 
z
M 603 4863 
L 1178 4863 
L 1178 4134 
L 603 4134 
L 603 4863 
z
" transform="scale(0.015625)"/>
      <path id="DejaVuSans-20" transform="scale(0.015625)"/>
      <path id="DejaVuSans-68" d="M 3513 2113 
L 3513 0 
L 2938 0 
L 2938 2094 
Q 2938 2591 2744 2837 
Q 2550 3084 2163 3084 
Q 1697 3084 1428 2787 
Q 1159 2491 1159 1978 
L 1159 0 
L 581 0 
L 581 4863 
L 1159 4863 
L 1159 2956 
Q 1366 3272 1645 3428 
Q 1925 3584 2291 3584 
Q 2894 3584 3203 3211 
Q 3513 2838 3513 2113 
z
" transform="scale(0.015625)"/>
      <path id="DejaVuSans-6f" d="M 1959 3097 
Q 1497 3097 1228 2736 
Q 959 2375 959 1747 
Q 959 1119 1226 758 
Q 1494 397 1959 397 
Q 2419 397 2687 759 
Q 2956 1122 2956 1747 
Q 2956 2369 2687 2733 
Q 2419 3097 1959 3097 
z
M 1959 3584 
Q 2709 3584 3137 3096 
Q 3566 2609 3566 1747 
Q 3566 888 3137 398 
Q 2709 -91 1959 -91 
Q 1206 -91 779 398 
Q 353 888 353 1747 
Q 353 2609 779 3096 
Q 1206 3584 1959 3584 
z
" transform="scale(0.015625)"/>
      <path id="DejaVuSans-79" d="M 2059 -325 
Q 1816 -950 1584 -1140 
Q 1353 -1331 966 -1331 
L 506 -1331 
L 506 -850 
L 844 -850 
Q 1081 -850 1212 -737 
Q 1344 -625 1503 -206 
L 1606 56 
L 191 3500 
L 800 3500 
L 1894 763 
L 2988 3500 
L 3597 3500 
L 2059 -325 
z
" transform="scale(0.015625)"/>
     </defs>
     <use xlink:href="#DejaVuSans-67"/>
     <use xlink:href="#DejaVuSans-65" x="63.476562"/>
     <use xlink:href="#DejaVuSans-74" x="125"/>
     <use xlink:href="#DejaVuSans-5f" x="164.208984"/>
     <use xlink:href="#DejaVuSans-73" x="214.208984"/>
     <use xlink:href="#DejaVuSans-75" x="266.308594"/>
     <use xlink:href="#DejaVuSans-62" x="329.6875"/>
     <use xlink:href="#DejaVuSans-73" x="393.164062"/>
     <use xlink:href="#DejaVuSans-63" x="445.263672"/>
     <use xlink:href="#DejaVuSans-72" x="500.244141"/>
     <use xlink:href="#DejaVuSans-69" x="541.357422"/>
     <use xlink:href="#DejaVuSans-62" x="569.140625"/>
     <use xlink:href="#DejaVuSans-65" x="632.617188"/>
     <use xlink:href="#DejaVuSans-20" x="694.140625"/>
     <use xlink:href="#DejaVuSans-68" x="725.927734"/>
     <use xlink:href="#DejaVuSans-69" x="789.306641"/>
     <use xlink:href="#DejaVuSans-73" x="817.089844"/>
     <use xlink:href="#DejaVuSans-74" x="869.189453"/>
     <use xlink:href="#DejaVuSans-6f" x="908.398438"/>
     <use xlink:href="#DejaVuSans-72" x="969.580078"/>
     <use xlink:href="#DejaVuSans-79" x="1010.693359"/>
    </g>
   </g>
   <g id="legend_1">
    <g id="line2d_37">
     <path d="M 815.08 328.498438 
L 825.08 328.498438 
L 835.08 328.498438 
" style="fill: none; stroke: #1f77b4; stroke-width: 1.5; stroke-linecap: square"/>
    </g>
    <g id="text_19">
     <!-- star -->
     <g style="fill: #a9a9a9" transform="translate(843.08 331.998438) scale(0.1 -0.1)">
      <defs>
       <path id="DejaVuSans-61" d="M 2194 1759 
Q 1497 1759 1228 1600 
Q 959 1441 959 1056 
Q 959 750 1161 570 
Q 1363 391 1709 391 
Q 2188 391 2477 730 
Q 2766 1069 2766 1631 
L 2766 1759 
L 2194 1759 
z
M 3341 1997 
L 3341 0 
L 2766 0 
L 2766 531 
Q 2569 213 2275 61 
Q 1981 -91 1556 -91 
Q 1019 -91 701 211 
Q 384 513 384 1019 
Q 384 1609 779 1909 
Q 1175 2209 1959 2209 
L 2766 2209 
L 2766 2266 
Q 2766 2663 2505 2880 
Q 2244 3097 1772 3097 
Q 1472 3097 1187 3025 
Q 903 2953 641 2809 
L 641 3341 
Q 956 3463 1253 3523 
Q 1550 3584 1831 3584 
Q 2591 3584 2966 3190 
Q 3341 2797 3341 1997 
z
" transform="scale(0.015625)"/>
      </defs>
      <use xlink:href="#DejaVuSans-73"/>
      <use xlink:href="#DejaVuSans-74" x="52.099609"/>
      <use xlink:href="#DejaVuSans-61" x="91.308594"/>
      <use xlink:href="#DejaVuSans-72" x="152.587891"/>
     </g>
    </g>
    <g id="line2d_38">
     <path d="M 815.08 343.176562 
L 825.08 343.176562 
L 835.08 343.176562 
" style="fill: none; stroke: #ff7f0e; stroke-width: 1.5; stroke-linecap: square"/>
    </g>
    <g id="text_20">
     <!-- fork -->
     <g style="fill: #a9a9a9" transform="translate(843.08 346.676562) scale(0.1 -0.1)">
      <defs>
       <path id="DejaVuSans-66" d="M 2375 4863 
L 2375 4384 
L 1825 4384 
Q 1516 4384 1395 4259 
Q 1275 4134 1275 3809 
L 1275 3500 
L 2222 3500 
L 2222 3053 
L 1275 3053 
L 1275 0 
L 697 0 
L 697 3053 
L 147 3053 
L 147 3500 
L 697 3500 
L 697 3744 
Q 697 4328 969 4595 
Q 1241 4863 1831 4863 
L 2375 4863 
z
" transform="scale(0.015625)"/>
       <path id="DejaVuSans-6b" d="M 581 4863 
L 1159 4863 
L 1159 1991 
L 2875 3500 
L 3609 3500 
L 1753 1863 
L 3688 0 
L 2938 0 
L 1159 1709 
L 1159 0 
L 581 0 
L 581 4863 
z
" transform="scale(0.015625)"/>
      </defs>
      <use xlink:href="#DejaVuSans-66"/>
      <use xlink:href="#DejaVuSans-6f" x="35.205078"/>
      <use xlink:href="#DejaVuSans-72" x="96.386719"/>
      <use xlink:href="#DejaVuSans-6b" x="137.5"/>
     </g>
    </g>
   </g>
  </g>
 </g>
 <defs>
  <clipPath id="pe861c098f4">
   <rect x="108" y="43.2" width="669.6" height="277.2"/>
  </clipPath>
 </defs>
</svg>
